<?xml version="1.0" encoding="UTF-8"?>
<!DOCTYPE svg PUBLIC "-//W3C//DTD SVG 1.1//EN" "http://www.w3.org/Graphics/SVG/1.1/DTD/svg11.dtd">
<!-- Creator: CorelDRAW 2019 (64-Bit) -->
<svg xmlns="http://www.w3.org/2000/svg" xml:space="preserve" width="486.713mm" height="486.713mm" version="1.1" style="shape-rendering:geometricPrecision; text-rendering:geometricPrecision; image-rendering:optimizeQuality; fill-rule:evenodd; clip-rule:evenodd"
viewBox="0 0 1047.51 1047.51"
 xmlns:xlink="http://www.w3.org/1999/xlink"
 xmlns:xodm="http://www.corel.com/coreldraw/odm/2003">
 <defs>
  <style type="text/css">
   <![CDATA[
    .fil1 {fill:none}
    .fil0 {fill:#332C2B;fill-rule:nonzero}
   ]]>
  </style>
 </defs>
 <g id="图层_x0020_1">
  <metadata id="CorelCorpID_0Corel-Layer"/>
  <path class="fil0" d="M370.23 394.9l1.98 20.64c-12.57,0 -25.07,0.17 -37.49,0.49l4.99 4.89c-5.83,5.25 -11.63,10.58 -17.37,16.01 4.74,4.33 8.45,9.03 11.12,14.13 0.17,0.23 0.34,0.49 0.49,0.75l4.76 -14.38c12.01,7.6 24.67,11.76 38.01,12.51l-4.99 21c-12.59,-0.15 -23.92,-3.07 -34.02,-8.75 0.66,3.41 1,7.21 1,11.37 0,10.01 -2.09,17.31 -6.25,21.9 -5.16,5.33 -11.76,8 -19.76,8 -7.4,0 -13.44,-0.51 -18.12,-1.49l-2.01 -20.51c6.51,1.07 12.01,1.62 16.5,1.62 2.75,0 4.84,-0.83 6.25,-2.5 1.92,-1.6 2.88,-4.27 2.88,-8 0,-5.27 -1,-9.69 -2.99,-13.25 -2.09,-3.35 -4.5,-6.3 -7.26,-8.9 -10.35,9.6 -20.64,19.31 -30.9,29.15l-16.01 -14.64c17.43,-17.41 34.31,-33.42 50.64,-48.02 -14.23,0.6 -28.57,1.47 -43,2.62l-2.13 -20.51c32.35,-2.75 66.9,-4.12 103.67,-4.12z"/>
  <path id="1" class="fil0" d="M433.26 389.91l6.89 15c-2.58,1 -5.19,1.98 -7.77,2.99 -0.49,5.42 -0.92,10.84 -1.24,16.26 2.16,-0.09 4.37,-0.13 6.62,-0.13l2.01 18.89c-3.24,0 -6.51,0.09 -9.75,0.26 -0.17,2.5 -0.3,4.99 -0.38,7.49 3.09,-0.92 6.15,-1.84 9.13,-2.75l5.51 18.63c-4.99,1.92 -10.18,3.67 -15.51,5.25 -0.23,8.17 -0.41,16.39 -0.49,24.65l-19.12 -1.88c0,-6.34 0.06,-12.55 0.23,-18.63 -2.24,0.32 -4.5,0.7 -6.74,1.13l-5.01 -19.01c4.27,-0.75 8.39,-1.54 12.38,-2.37 0.17,-3.93 0.38,-7.68 0.64,-11.27 -2.84,0.43 -5.63,0.79 -8.39,1.13l-2.01 -19.14c3.76,-0.49 7.6,-0.92 11.52,-1.24 0.15,-3.5 0.36,-6.87 0.62,-10.14 -2.35,0.83 -4.55,1.62 -6.64,2.39l-7.62 -15.51c12.42,-4.76 24.14,-8.75 35.13,-11.99zm74.03 3.61l1.88 18.89c-9.09,0 -17.84,0.13 -26.25,0.38 0.15,2.24 0.28,4.46 0.36,6.62 6.34,-0.23 12.68,-0.36 19.01,-0.36l1.88 18.89c-6.59,0 -13.15,0.11 -19.63,0.36 0.15,2.09 0.28,4.1 0.36,6 6.85,-0.23 13.59,-0.36 20.27,-0.36l2.11 18.63c-7.26,0 -14.3,0.13 -21.13,0.36 0.17,2.01 0.3,4.05 0.36,6.15 8,-0.77 16.05,-1.6 24.14,-2.52l2.13 18.89c-8.43,1.09 -16.75,2.05 -25.01,2.88 0.34,4.5 0.62,9.05 0.87,13.64l-20.51 2.11c-0.32,-4.99 -0.62,-9.75 -0.87,-14.26 -7.66,0.51 -15.34,0.87 -23,1.13l-2.13 -18.89c7.92,-0.41 15.88,-0.87 23.88,-1.37 -0.15,-2.26 -0.28,-4.42 -0.36,-6.51 -6.25,0.43 -12.25,1 -18.01,1.75l-2.01 -18.37c6.34,-0.75 12.59,-1.34 18.76,-1.75 -0.15,-2.09 -0.28,-4.1 -0.36,-6.02 -5.51,0.51 -10.97,1.09 -16.39,1.75l-2.01 -19.12c5.59,-0.75 11.27,-1.34 17.01,-1.75 -0.15,-2.33 -0.32,-4.59 -0.49,-6.74 -6.83,0.41 -13.51,0.94 -20.02,1.62l-1.98 -19.14c22.49,-1.92 44.88,-2.88 67.14,-2.88z"/>
  <path id="2" class="fil0" d="M556.22 388.9l21 4.61c-0.92,1.92 -1.79,3.97 -2.62,6.15 24.75,0.98 48.63,2.45 71.64,4.37l-1.86 20.51c-10.52,-0.77 -20.72,-1.43 -30.64,-2.01 0.26,2.75 0.45,5.55 0.62,8.37 7.68,-0.23 15.51,-0.36 23.52,-0.36l2.01 18.89c-8,0 -16.01,0.11 -24.01,0.36 0.58,5.51 1.07,11.05 1.49,16.62 10.41,-0.32 20.91,-0.49 31.5,-0.49l2.01 20.02c-10.67,0 -21.3,0.15 -31.88,0.49 0.43,5.51 0.83,11.01 1.26,16.5l-22.51 2.65c-0.49,-6.34 -1,-12.48 -1.49,-18.4 -18.44,0.83 -36.94,2.09 -55.53,3.76l-1.88 -20.02c5.02,-0.49 10.09,-0.92 15.26,-1.24 0.43,-12.25 1.92,-23.79 4.5,-34.64l-16.26 -3.5c2.92,-15 7.55,-29.21 13.89,-42.64zm38.26 78.28c-0.43,-5.59 -0.83,-10.97 -1.26,-16.13 -5.83,0.41 -11.67,0.87 -17.5,1.37 -0.75,5.16 -1.26,10.46 -1.52,15.88 6.85,-0.41 13.59,-0.79 20.27,-1.11zm-2.62 -35.28c-0.26,-3.73 -0.55,-7.36 -0.87,-10.86 -8.09,-0.51 -15.96,-0.96 -23.64,-1.39 -1.17,4.25 -2.2,8.51 -3.12,12.76l9.11 0.88c6.1,-0.6 12.27,-1.05 18.52,-1.39z"/>
  <path id="3" class="fil0" d="M711.03 487.79c0,3.67 -0.75,7.21 -2.24,10.63 -1.43,3.35 -3.31,5.98 -5.63,7.9l-9.62 -5.89c2.67,-2.99 3.99,-5.55 3.99,-7.62 -1.66,0.58 -3.29,0.87 -4.87,0.87 -3.01,0 -5.38,-0.96 -7.13,-2.88 -1.84,-1.75 -2.75,-4.12 -2.75,-7.13 0,-3.84 1.26,-6.91 3.76,-9.26 2.5,-2.41 5.66,-3.61 9.5,-3.61 4.91,0 8.71,1.62 11.37,4.87 2.43,2.92 3.63,6.96 3.63,12.12z"/>
  <path id="4" class="fil0" d="M65.34 545.69c14.26,1.32 27.89,3.2 40.89,5.63 -0.49,-3.01 -0.83,-5.55 -1,-7.64l19.63 -2.11c1.34,8.07 3.88,17.46 7.64,28.13 0.23,0.75 0.49,1.37 0.75,1.88 7.08,-0.6 14,-1.05 20.74,-1.39 -7.83,-2.41 -14.7,-4.46 -20.61,-6.12l6 -19.87c9.33,1.98 17.29,4.33 23.88,7l-5.63 18.86c4.01,-0.23 7.9,-0.41 11.63,-0.49l2.13 20.51c-10.33,0.09 -20.55,0.53 -30.64,1.37 1.26,2.92 2.58,5.89 4.01,8.88 0.58,1.26 1.13,2.39 1.62,3.39 3.09,-2.84 6.08,-5.55 9.01,-8.13l14.87 14.13c-4.33,4.08 -8.71,8.22 -13.12,12.38 4.59,7.17 9.84,14.7 15.75,22.64l-19.63 10.37c-4.33,-5.08 -8.54,-10.76 -12.63,-17.01 -4.74,4.76 -9.54,9.45 -14.36,14.13l-15.51 -14.13c6.51,-6.68 12.85,-12.93 19.01,-18.76 -4.01,-8.49 -7.68,-17.18 -11.01,-26.01 -8.17,0.83 -16.3,1.88 -24.37,3.14 0.32,4.33 0.66,8.66 0.98,13 4.84,-1.32 9.47,-2.8 13.89,-4.37l5.51 18.63c-5.68,2.35 -11.59,4.42 -17.76,6.25 0.58,7.09 1.15,14.17 1.75,21.25l-21.51 2.39c-0.51,-6.42 -1,-12.59 -1.49,-18.52 -3.93,0.77 -7.9,1.43 -11.89,2.01l-5.01 -18.89c5.19,-1.07 10.22,-2.16 15.13,-3.24 -0.32,-4.99 -0.7,-9.92 -1.11,-14.75 -4.76,0.92 -9.43,1.9 -14.02,2.99l-2.11 -20.51c4.99,-1 9.84,-1.96 14.51,-2.88 -0.34,-4.48 -0.68,-8.83 -1,-13 -2.75,-0.41 -5.42,-0.79 -8,-1.13l3.12 -20zm46.27 28c-1.84,-6.66 -3.24,-12.42 -4.25,-17.24l-1.62 15.75c-4.67,-0.75 -9.18,-1.41 -13.51,-2.01 0.17,2.01 0.34,4.05 0.49,6.12 6.42,-0.98 12.72,-1.86 18.89,-2.62z"/>
  <path id="5" class="fil0" d="M227.92 556.19l6.51 18.37c-2.67,1 -5.34,1.96 -8,2.88 -3.84,21.43 -6.06,43.85 -6.64,67.29l-20 -2.13c0.15,-19.85 1.75,-38.92 4.74,-57.28 -2.07,0.83 -4.16,1.62 -6.25,2.39l-5.51 -19.14c12.36,-4.82 24.05,-8.96 35.15,-12.38zm21 21.51c2.09,19.01 4.42,39.84 7,62.53l-19.12 1.86c-2.58,-23.41 -4.93,-44.26 -7,-62.51l19.12 -1.88zm37.52 -35.64c4.99,0 9.5,2.28 13.51,6.87 4.59,5.42 6.87,14.92 6.87,28.51l0 5.51c0,9.26 -0.62,20 -1.88,32.27 -1,11.16 -2.37,20 -4.12,26.5l-18.37 -4.12c2.33,-11.67 3.95,-23.3 4.87,-34.89 0.66,-9.92 1,-17.56 1,-22.9 0,-8.58 -0.7,-14.32 -2.13,-17.24 -1.15,-1.58 -2.75,-2.37 -4.74,-2.37 -3.93,0.98 -8.3,2.99 -13.12,6l-4.5 -17.01c7.23,-4.76 14.79,-7.13 22.62,-7.13zm-42.02 3.12c7.34,3.76 13.47,8.6 18.4,14.51l-12.38 12.51c-5.1,-4.59 -11.1,-9.28 -18.01,-14.13l11.99 -12.89z"/>
  <path id="6" class="fil0" d="M392 561.44c1.75,-6.08 3.59,-11.84 5.51,-17.24l21 4.5c-1.41,4.16 -2.75,8.28 -3.99,12.38 6.49,0.83 12.08,3.2 16.75,7.13 6.17,5.16 9.24,11.63 9.24,19.38 -0.23,10.67 -2.24,22.49 -6,35.51l-22.51 -3.88c4.01,-8.49 6.02,-16.54 6.02,-24.14 0,-6.91 -3.27,-11.33 -9.75,-13.25 -3.67,12.76 -7.08,25.67 -10.26,38.77l-21.13 -4.5c3.09,-12.19 6.17,-23.69 9.26,-34.51 -6.85,0.66 -13.38,1.71 -19.63,3.12 -3.09,11.33 -4.63,22.83 -4.63,34.51 0,5.76 1.84,10.01 5.51,12.76 3.73,2.84 9.07,4.25 16.01,4.25 11.74,0 30.92,-2.5 57.51,-7.49l4.12 19.38c-27.83,4.65 -48.21,7 -61.14,7l-5.74 0c-9.35,0 -17.69,-2.05 -25.01,-6.12 -9.09,-5.59 -13.64,-14.9 -13.64,-27.89 0,-8.26 1.22,-17.88 3.63,-28.87 -2.01,0.75 -3.88,1.54 -5.63,2.37l-7.13 -20.02c6.42,-2.16 12.72,-4.08 18.89,-5.74 1.66,-5.59 3.59,-11.33 5.76,-17.26l22.36 5.02c-1.15,2.41 -2.28,4.74 -3.37,7 6.08,-1 12.1,-1.71 18.01,-2.13z"/>
  <path id="7" class="fil0" d="M474.55 545.69l8.88 2.01c13.57,-4.42 26.95,-6.64 40.14,-6.64 13.57,0 22.88,0.58 27.87,1.75 9.43,1.49 16.3,4.33 20.64,8.51 4.59,3.41 6.87,9.75 6.87,18.99l0 2.26c0,6.66 -2.28,12.33 -6.87,17.01 -5.91,6.4 -19.29,9.62 -40.14,9.62l-14.87 0c-14.08,0 -25.63,-1.56 -34.64,-4.63 -11.01,-4.33 -16.52,-11.67 -16.52,-22 0,-7.77 2.88,-16.73 8.64,-26.89zm47.5 12.38c-11.42,0 -22.39,1.92 -32.89,5.74 10.58,0.17 20.85,0.47 30.77,0.9l-1 13.87c-8.66,-0.34 -17.05,-0.62 -25.14,-0.87 0.83,0.49 1.58,0.87 2.26,1.13 5.08,2.24 15.58,3.37 31.5,3.37 6.51,0 12.12,-0.34 16.88,-1 3.76,-0.49 6.72,-1.75 8.88,-3.76 1.84,-1.15 2.88,-3.59 3.14,-7.26 0,-5.48 -2.75,-9.01 -8.26,-10.5 -3.5,-1.09 -12.21,-1.62 -26.14,-1.62zm54.03 41.51l1.37 17.01c-16.92,0 -33.76,0.38 -50.51,1.13 0.17,1.17 0.32,2.24 0.49,3.24 11.42,-0.17 23.09,-0.41 35.02,-0.75l1.49 14c-11.42,0.43 -22.92,0.73 -34.51,0.87 0.09,0.77 0.17,1.43 0.26,2.01 14.66,1.92 28.79,2.97 42.38,3.14l-2.01 18.37c-17.41,-0.17 -34.46,-1.43 -51.13,-3.76 -10.93,-1.75 -20.68,-3.63 -29.26,-5.61 -0.51,2.07 -0.92,4.03 -1.26,5.87l-19.38 -4.37c1.75,-10.35 4.25,-20.21 7.49,-29.64 -1.98,0.17 -3.99,0.34 -6,0.51l-1.49 -17.01c33.33,-3.35 69.01,-5.01 107.04,-5.01zm-81.9 31.65c4.25,0.92 8.66,1.75 13.25,2.5 -0.83,-5.16 -1.62,-10.09 -2.39,-14.75 -2.24,0.15 -4.52,0.32 -6.87,0.49 -1.41,3.93 -2.75,7.83 -3.99,11.76z"/>
  <path id="8" class="fil0" d="M681.14 576.7c2.75,0.26 5.34,1.05 7.75,2.37 0.92,-1.41 1.62,-2.75 2.13,-3.99 2.01,-2.41 3.01,-4.42 3.01,-6 0,-1.92 -2.56,-2.88 -7.64,-2.88 -5.68,0.58 -12.59,2.71 -20.76,6.38l-4.61 -19.51c10.76,-4.18 20.53,-6.34 29.39,-6.51 6.66,0 12.12,1.49 16.37,4.5 5.16,4.59 7.75,9.45 7.75,14.62 -0.15,4.42 -1.75,9.3 -4.74,14.64 -1.92,4.42 -4.42,8.71 -7.51,12.87 1.17,2.18 2.09,4.67 2.75,7.51 4.42,-0.58 8.79,-1.26 13.12,-2.01l1.88 21.02c-4.33,0.83 -8.62,1.54 -12.87,2.11 -0.43,15.69 -6.64,27.76 -18.63,36.26l-17.01 -11.87c8.09,-5.51 12.78,-12.63 14.13,-21.38 -9.67,1.09 -19.38,1.84 -29.13,2.24l-1.88 -21c9.41,-0.49 18.93,-1.3 28.51,-2.37 -2.75,-6.42 -7.26,-10.8 -13.51,-13.15l11.5 -13.87zm-58.51 -35.13l20 4.48c-2.75,8.6 -5.16,16.35 -7.26,23.26 1.17,0.26 2.3,0.55 3.39,0.88 0.92,-3.41 1.84,-6.74 2.75,-9.99l19.12 3.86c-0.83,2.92 -1.62,5.85 -2.37,8.75 1.92,0.09 3.86,0.17 5.87,0.26l-4.99 20.64c-2.26,0 -4.37,-0.04 -6.38,-0.13 -3.18,12.01 -6.17,24.09 -9.01,36.26 5.68,2.35 10.8,4.14 15.39,5.38l-11.01 17.01c-2.75,-1.09 -5.63,-2.37 -8.62,-3.88 -0.66,3.09 -1.3,6.06 -1.88,8.9l-19.14 -4.14c1,-4.91 2.09,-9.75 3.26,-14.51 -3.41,-1.98 -6.91,-4.16 -10.5,-6.49 -5.19,-3.67 -7.77,-8.13 -7.77,-13.38 0,-4.93 2.35,-16.26 7,-34.02 -1.98,-0.75 -3.99,-1.58 -6,-2.5l6.64 -20.51c1.66,0.66 3.37,1.32 5.12,2.01 1.92,-6.94 4.03,-14.3 6.38,-22.13zm10.37 49.77c-1.41,-0.34 -2.67,-0.64 -3.76,-0.87 -3.82,13.74 -5.74,22.45 -5.74,26.12 0,1.58 0.7,3.01 2.11,4.25 2.43,-10.24 4.89,-20.08 7.38,-29.49z"/>
  <path id="9" class="fil0" d="M757.68 551.2c0.09,0.92 0.17,1.75 0.26,2.5 5.08,-1.66 10.26,-2.5 15.51,-2.5 5.42,0 10.29,2.24 14.62,6.74 5.1,5.51 7.64,15.09 7.64,28.77l0 5.51c0,9.24 -0.83,20.04 -2.5,32.37 -1.26,11.27 -2.97,20.15 -5.14,26.63l-18.86 -3.99c2.5,-10.44 4.33,-20.68 5.48,-30.77 -3.24,1.17 -6.62,2.18 -10.12,3.01 0.83,8.58 1.66,17.33 2.5,26.25l-18.37 1.88c-3.67,-35.42 -6.89,-66.92 -9.65,-94.52l18.63 -1.88zm5.27 51.52c3.65,-1 7.23,-2.05 10.73,-3.14l2.01 7c0.6,-7.41 0.88,-13.25 0.88,-17.5 0,-7.75 -0.96,-12.95 -2.88,-15.62 -1.41,-1.52 -3.5,-2.26 -6.25,-2.26 -2.33,0.6 -4.82,1.47 -7.49,2.62 0.17,1.34 0.3,2.58 0.38,3.76 4.48,1 9.28,1.49 14.36,1.49l-1.62 16.01c-3.99,0 -7.7,-0.23 -11.12,-0.75 0.23,2.75 0.58,5.55 1,8.39zm50.26 -54.65c0.09,0.75 0.17,1.47 0.26,2.13 5.34,-1.75 10.76,-2.63 16.24,-2.63 5.93,0 11.23,2.45 15.9,7.38 5.42,5.66 8.11,15.71 8.11,30.13l0 5.74c0,9.92 -0.98,21.38 -2.99,34.38 -1.49,11.76 -3.5,21.06 -6,27.89l-19.14 -3.99c3.18,-10.93 5.42,-21.72 6.77,-32.39 -3.76,1.49 -7.77,2.75 -12.01,3.76 1,9.58 1.96,19.29 2.88,29.13l-19.14 2.13c-3.73,-38.18 -7.08,-72.02 -9.99,-101.54l19.12 -2.13zm5.63 55.66c3.99,-1.09 7.92,-2.3 11.76,-3.63l2.62 9.01c0.92,-9.18 1.37,-16.22 1.37,-21.15 0,-9.07 -1.13,-15.17 -3.37,-18.25 -1.52,-1.66 -3.84,-2.5 -7,-2.5 -2.84,0.58 -5.8,1.41 -8.88,2.5 0.15,2.01 0.41,3.99 0.75,6 5.25,1.34 10.8,2.01 16.62,2.01l-1.62 16.01c-4.99,0 -9.45,-0.43 -13.38,-1.26 0.34,3.76 0.7,7.51 1.13,11.27z"/>
  <path id="10" class="fil0" d="M988.66 553.08l2.13 20.51c-22.51,0 -44.98,0.83 -67.39,2.5 -1.6,3.24 -3.14,6.38 -4.63,9.37 8.75,-1.84 17.63,-2.75 26.63,-2.75 9.41,0 16.75,1.62 22,4.89 7.17,3.67 10.76,9.5 10.76,17.5 -0.32,5.85 -3.41,11.59 -9.24,17.26 7.08,1.66 14,3.41 20.74,5.25l-3.37 21c-13.08,-3.24 -26.1,-6.17 -39.01,-8.75 -9.58,6.74 -19.93,13 -31.01,18.76l-12.63 -20.51c3.84,-1.49 7.47,-3.09 10.88,-4.76 -3.27,-0.58 -6.51,-1.15 -9.75,-1.75l3.37 -21c11.99,1.84 23.84,3.91 35.51,6.25 6.08,-4.1 9.13,-6.96 9.13,-8.62 0,-1.92 -0.92,-3.63 -2.75,-5.14 -1.75,-1.32 -4.46,-1.98 -8.13,-1.98 -12.42,0.58 -23.79,3.12 -34.14,7.62 -3.99,8.75 -7.83,17.58 -11.5,26.5l-22.49 -4.99c7.66,-18.5 15.45,-35.81 23.37,-51.9 -5.34,0.6 -10.67,1.17 -16.01,1.75l-1.88 -20.38c9.6,-1.24 19.31,-2.28 29.15,-3.12 2.82,-5.19 5.61,-10.18 8.37,-15l22.39 4.99c-1.49,2.75 -3.01,5.46 -4.5,8.13 17.67,-1.09 35.68,-1.62 54.01,-1.62z"/>
  <rect class="fil1" x="-0" y="-0" width="1047.51" height="1047.51"/>
 </g>
</svg>
