<?xml version="1.0" encoding="UTF-8"?>
<!DOCTYPE svg PUBLIC "-//W3C//DTD SVG 1.1//EN" "http://www.w3.org/Graphics/SVG/1.1/DTD/svg11.dtd">
<!-- Creator: CorelDRAW 2019 (64-Bit) -->
<svg xmlns="http://www.w3.org/2000/svg" xml:space="preserve" width="486.713mm" height="486.713mm" version="1.1" style="shape-rendering:geometricPrecision; text-rendering:geometricPrecision; image-rendering:optimizeQuality; fill-rule:evenodd; clip-rule:evenodd"
viewBox="0 0 1047.51 1047.51"
 xmlns:xlink="http://www.w3.org/1999/xlink"
 xmlns:xodm="http://www.corel.com/coreldraw/odm/2003">
 <defs>
  <style type="text/css">
   <![CDATA[
    .fil1 {fill:none}
    .fil0 {fill:#332C2B;fill-rule:nonzero}
   ]]>
  </style>
 </defs>
 <g id="图层_x0020_1">
  <metadata id="CorelCorpID_0Corel-Layer"/>
  <path class="fil0" d="M294.03 483.98l6 17.14c-3.33,1 -6.66,2.01 -10.01,3.01 -2.24,20.91 -3.54,42.72 -3.86,65.39l-19.63 -2.01c0.17,-19.74 1.2,-38.67 3.12,-56.76 -1.49,0.51 -2.84,0.96 -3.99,1.39l-5.02 -17.63c11.67,-4.1 22.81,-7.6 33.4,-10.52zm43.77 -5.61c0.49,-3.33 0.96,-6.64 1.37,-9.88l17.88 2.11c-0.34,2.43 -0.62,4.76 -0.88,7.02 5.08,0.32 9.41,1.75 13,4.25 4.27,2.84 6.38,6.47 6.38,10.88 -0.17,5.48 -1.15,11.42 -2.99,17.76l0.98 9.5c-7.15,0 -14.28,0.21 -21.38,0.62 -0.15,2.01 -0.28,3.97 -0.36,5.89l0.87 0c6.83,0 12.63,1.49 17.37,4.5 4.76,3.07 7.13,7.28 7.13,12.61 0,5.19 -1.37,12.85 -4.12,23l-17.88 -3.61c2.58,-6.51 3.88,-11.35 3.88,-14.51 0,-1.26 -0.79,-2.22 -2.39,-2.88 -1.84,-0.58 -3.78,-0.88 -5.87,-0.88 -0.58,11.84 -0.96,23.75 -1.13,35.77l-18.12 -2.01c0.09,-10.93 0.36,-21.64 0.87,-32.14 -1.34,0.26 -2.62,0.51 -3.88,0.75 -0.41,9.52 -0.75,19.01 -1,28.51l-18.5 -2.11c0.09,-7.6 0.26,-15 0.49,-22.26 -1.07,0.17 -1.86,0.23 -2.37,0.23 -11.01,0 -16.5,-5.44 -16.5,-16.37 0,-8.83 1.62,-18.33 4.87,-28.51l8.62 1.75c2.75,-0.49 5.46,-0.92 8.13,-1.26 0.17,-2.5 0.38,-4.91 0.64,-7.23 -3.09,1.07 -6.06,2.28 -8.88,3.61l-5.51 -16.37c5.51,-1.92 10.88,-3.5 16.13,-4.76 0.41,-3.67 0.88,-7.3 1.37,-10.88l18.63 2.01c-0.26,1.84 -0.45,3.63 -0.62,5.38 1.32,-0.26 2.58,-0.41 3.76,-0.49zm-5.63 16.75c-0.34,3.24 -0.62,6.42 -0.87,9.5 1.41,-0.17 2.71,-0.28 3.88,-0.36 0.23,-3.26 0.53,-6.47 0.87,-9.65 -1.26,0.17 -2.56,0.34 -3.88,0.51zm22.26 -0.26c-0.34,2.84 -0.62,5.55 -0.88,8.13 1.41,-0.09 2.71,-0.13 3.88,-0.13 0.41,-1.66 0.62,-3.2 0.62,-4.63 0,-1.58 -1.22,-2.71 -3.63,-3.37zm-21 34.14c0.15,-2.41 0.32,-4.72 0.49,-6.87 -1.49,0.15 -2.84,0.32 -4.01,0.49 -0.15,2.33 -0.32,4.72 -0.49,7.13 1.34,-0.26 2.67,-0.49 4.01,-0.75zm-23.13 4.5c0.15,-2.84 0.32,-5.63 0.49,-8.39 -1.09,0.17 -2.13,0.34 -3.12,0.51 -0.26,1.66 -0.43,3.29 -0.51,4.87 0,1.84 1.05,2.84 3.14,3.01z"/>
  <path id="1" class="fil0" d="M450.23 472.47l23.39 2.62c-4.93,25.61 -8.09,52.33 -9.52,80.15 9.92,-0.49 16.6,-1.66 20.02,-3.5 4.33,-1.24 6.49,-4.5 6.49,-9.75 -0.23,-7.41 -0.96,-15 -2.11,-22.75 -1.34,-8.34 -3.14,-15.56 -5.38,-21.64l22.51 -4.99c2.58,7.92 4.42,16.05 5.48,24.37 1.43,10.67 2.13,20.85 2.13,30.52 0,11.76 -4.59,19.42 -13.76,23 -7.49,3.93 -23.75,5.95 -48.76,6.12l-6 0c-14.51,0 -26.01,-2.28 -34.51,-6.87 -8.09,-4.84 -12.14,-13.04 -12.14,-24.63 0,-4.84 0.85,-12.46 2.52,-22.9 2.33,-11.08 4.2,-19.29 5.61,-24.63l22.51 4.99c-2.41,6.85 -4.2,13.23 -5.38,19.14 -1.58,7.17 -2.5,12.42 -2.75,15.75 0,7.34 1.96,12.01 5.87,14 3.52,1.92 8.17,3.14 14.02,3.63 0.92,-28.75 4.16,-56.3 9.75,-82.65z"/>
  <path id="2" class="fil0" d="M558.29 485.85c1.58,-5.91 3.2,-11.72 4.87,-17.37l21.02 4.5c-1.09,3.91 -2.18,7.92 -3.27,11.99 5.19,0.83 9.52,3.35 13.02,7.51 2.99,3.91 4.91,8.26 5.74,13 1.75,-9.24 4.29,-18.89 7.64,-28.87l6 1.24c3.33,-0.41 7,-0.7 11.01,-0.88 4.82,0.17 8.92,0.68 12.25,1.52 3.59,1.32 6.42,3.33 8.49,6 3.5,2.33 5.25,18.33 5.25,48.02l0 7.62c0,16.52 -1.62,26.68 -4.87,30.52 -3.41,5.68 -10.46,8.62 -21.13,8.88l-2.26 -0.38c-8.58,0 -14.53,-1.32 -17.88,-3.99 -2.99,-1.66 -5.08,-5.21 -6.25,-10.63 -0.58,-5.16 -0.92,-12.55 -1,-22.13 -0.09,0.41 -0.15,0.83 -0.23,1.24 -2.75,12.27 -5.76,22.07 -9.01,29.39l-21.02 -4.5c4.35,-10.99 7.55,-21.3 9.65,-30.88 1.9,-8.92 2.86,-16.22 2.86,-21.87 0,-3.18 -0.53,-5.59 -1.62,-7.26 -0.66,-1.09 -1.45,-1.84 -2.37,-2.26 -6.51,24.18 -12.51,48.78 -18.01,73.77l-21 -4.37c5.25,-24.09 10.58,-46.5 16.01,-67.26 -3.41,0.92 -6.91,2.18 -10.5,3.76l-7.02 -20.51c3.09,-1.26 8.3,-2.67 15.64,-4.25 2.67,-0.6 5.34,-1.09 8,-1.52zm65.02 73.77c3.24,0 5.08,-0.79 5.51,-2.37 0.66,-2.09 0.98,-7.87 0.98,-17.37l0 -5.76c0,-22.66 -0.7,-34.72 -2.11,-36.13 -1.34,-0.6 -2.62,-0.87 -3.88,-0.87 -0.41,0 -1.13,0.09 -2.11,0.23 -2.92,10.35 -4.4,20.59 -4.4,30.77 0,14.34 0.26,23.84 0.77,28.51 0.49,1.98 2.24,2.99 5.25,2.99z"/>
  <path id="3" class="fil0" d="M680.86 474.61c3.91,0.26 10.78,2.71 20.61,7.38 6.59,3.73 9.88,8.28 9.88,13.62 0,4.42 -1.92,8.17 -5.74,11.27 -4.67,3.91 -7.87,6.7 -9.62,8.37 -2.18,1.66 -3.26,3.09 -3.26,4.25 0,2.84 4.89,5.89 14.64,9.13l-7.64 14.38c-8.41,-0.66 -16.5,-4.67 -24.24,-11.99 -2.52,-3.67 -3.76,-7.51 -3.76,-11.52 0,-3.99 2.5,-7.96 7.49,-11.87 1.84,-1.75 4.8,-4.25 8.88,-7.51 1.52,-1.15 2.26,-2.16 2.26,-2.99 0,-1.6 -1.39,-2.97 -4.12,-4.14 -4.01,-1.49 -8.34,-3.16 -13.02,-4.99l7.64 -13.38zm20.51 73.9l5.48 18.63c-8.24,4.08 -17.58,7.08 -28,9.01l-5.01 -19.14c9.77,-2.24 18.93,-5.08 27.53,-8.49zm20.49 -68.4l7.26 1.75c1.17,-0.34 2.43,-0.66 3.76,-1 2.67,-0.66 5.38,-1.13 8.13,-1.39 0.66,-4.25 1.45,-8.41 2.37,-12.48l17.52 2.11c-0.68,3.5 -1.3,7 -1.88,10.5 5.66,0.83 10.46,2.67 14.38,5.51 3.99,2.92 7.08,7.43 9.24,13.51 2.67,8.09 4.1,16.67 4.25,25.76l0 1.62c0,14.08 -0.96,24.67 -2.86,31.75 -2.35,8.51 -7.17,14.47 -14.51,17.88 -6.59,3.27 -12.51,4.89 -17.76,4.89l-5.76 0c-11.67,0 -21.04,-4.1 -28.13,-12.25 -6.42,-7.34 -9.62,-17.22 -9.62,-29.64 0,-11.33 1.17,-22.71 3.5,-34.14 3.07,-10.24 6.47,-18.37 10.12,-24.37zm34.53 17.11c-0.75,6.02 -1.39,11.97 -1.88,17.88 3.41,0.43 6.7,0.87 9.88,1.39l-1.62 18.99c-3.27,-0.41 -6.47,-0.79 -9.65,-1.11 -0.17,3.59 -0.28,7.17 -0.36,10.76l-17.52 -2.13c0.09,-3.76 0.17,-7.38 0.26,-10.88 -2.41,-0.32 -4.72,-0.62 -6.87,-0.88 -0.09,1.43 -0.17,2.71 -0.26,3.88 0,6.91 1.62,13.91 4.89,21 3.07,4.59 7.36,6.89 12.87,6.89l4.25 0c3.18,0 6.59,-1.52 10.26,-4.5 2.33,-1.75 3.95,-5.01 4.87,-9.75 0.83,-4.18 1.26,-11.93 1.26,-23.26l0 -2.63c0,-4.93 -0.66,-9.97 -2.01,-15.13 -1,-4.1 -2.54,-6.94 -4.63,-8.51 -1.15,-0.92 -2.41,-1.58 -3.73,-2.01zm-19.63 15.64c0.49,-4.93 1,-9.67 1.49,-14.26 -1.32,0.58 -2.54,1.17 -3.63,1.75 -1.41,3.67 -2.71,7.51 -3.86,11.5l0 0.26c2.07,0.23 4.08,0.49 6,0.75z"/>
  <rect class="fil1" x="-0" y="-0" width="1047.51" height="1047.51"/>
 </g>
</svg>
