<?xml version="1.0" encoding="UTF-8"?>
<!DOCTYPE svg PUBLIC "-//W3C//DTD SVG 1.1//EN" "http://www.w3.org/Graphics/SVG/1.1/DTD/svg11.dtd">
<!-- Creator: CorelDRAW 2019 (64-Bit) -->
<svg xmlns="http://www.w3.org/2000/svg" xml:space="preserve" width="486.713mm" height="486.713mm" version="1.1" style="shape-rendering:geometricPrecision; text-rendering:geometricPrecision; image-rendering:optimizeQuality; fill-rule:evenodd; clip-rule:evenodd"
viewBox="0 0 1142.93 1142.93"
 xmlns:xlink="http://www.w3.org/1999/xlink"
 xmlns:xodm="http://www.corel.com/coreldraw/odm/2003">
 <defs>
  <style type="text/css">
   <![CDATA[
    .fil1 {fill:none}
    .fil0 {fill:#332C2B;fill-rule:nonzero}
   ]]>
  </style>
 </defs>
 <g id="图层_x0020_1">
  <metadata id="CorelCorpID_0Corel-Layer"/>
  <path class="fil0" d="M305.18 512.58l6.82 3.28c13.39,-4.45 27.62,-6.68 42.7,-6.68 8.73,0 16.69,0.77 23.89,2.33 7.26,2.54 14.27,7.94 21,16.23 7.29,10.36 10.92,24.52 10.92,42.42l0 9.97c0,13.92 -3.49,24.96 -10.5,33.16 -10.83,13.64 -25.57,20.47 -44.22,20.47l-13.09 0c-16.83,0 -30.29,-3.8 -40.4,-11.34 -10.9,-10.64 -16.37,-25.64 -16.37,-45.01 0,-22.47 6.43,-44.08 19.23,-64.82zm48.57 13.53c-10.64,0 -22.77,2.82 -36.42,8.45 -6.19,11.92 -9.69,25.1 -10.5,39.56 0,17.18 3,28.43 8.99,33.69 7.29,6.01 16.07,9.01 26.33,9.01l9.97 0c14.46,0 24.75,-4.49 30.83,-13.5 4.47,-6.45 6.68,-14.93 6.68,-25.38 0,-17.18 -2.58,-29.92 -7.78,-38.21 -5.08,-7.99 -14.46,-12.55 -28.1,-13.62zm27.29 18l2.19 20.86c-6.26,0 -12.41,0.14 -18.42,0.42 1.82,14.74 3.77,29.87 5.87,45.43l-21.96 2.05c-1.09,-7.54 -2.1,-15.04 -3,-22.52 -6.47,6.82 -12.92,13.64 -19.37,20.47l-15.69 -14.32c9.64,-10.55 18.91,-20.28 27.82,-29.2 -7.92,0.81 -15.79,1.86 -23.59,3.14l-2.05 -20.89c8.82,-1.44 17.95,-2.63 27.41,-3.54 -0.72,-5.36 -1.35,-10.69 -1.91,-15.97l21.84 -2.31c0.63,5.63 1.26,11.22 1.91,16.79 6.36,-0.28 12.69,-0.42 18.95,-0.42z"/>
  <path id="1" class="fil0" d="M454.19 512.58l6.82 3.28c13.39,-4.45 27.62,-6.68 42.7,-6.68 8.73,0 16.69,0.77 23.89,2.33 7.26,2.54 14.27,7.94 21,16.23 7.29,10.36 10.92,24.52 10.92,42.42l0 9.97c0,13.92 -3.49,24.96 -10.5,33.16 -10.83,13.64 -25.57,20.47 -44.22,20.47l-13.09 0c-16.83,0 -30.29,-3.8 -40.4,-11.34 -10.9,-10.64 -16.37,-25.64 -16.37,-45.01 0,-22.47 6.43,-44.08 19.23,-64.82zm48.57 13.53c-10.64,0 -22.77,2.82 -36.42,8.45 -6.19,11.92 -9.69,25.1 -10.5,39.56 0,17.18 3,28.43 8.99,33.69 7.29,6.01 16.07,9.01 26.33,9.01l9.97 0c14.46,0 24.75,-4.49 30.83,-13.5 4.47,-6.45 6.68,-14.93 6.68,-25.38 0,-17.18 -2.58,-29.92 -7.78,-38.21 -5.08,-7.99 -14.46,-12.55 -28.1,-13.62zm27.29 18l2.19 20.86c-6.26,0 -12.41,0.14 -18.42,0.42 1.82,14.74 3.77,29.87 5.87,45.43l-21.96 2.05c-1.09,-7.54 -2.1,-15.04 -3,-22.52 -6.47,6.82 -12.92,13.64 -19.37,20.47l-15.69 -14.32c9.64,-10.55 18.91,-20.28 27.82,-29.2 -7.92,0.81 -15.79,1.86 -23.59,3.14l-2.05 -20.89c8.82,-1.44 17.95,-2.63 27.41,-3.54 -0.72,-5.36 -1.35,-10.69 -1.91,-15.97l21.84 -2.31c0.63,5.63 1.26,11.22 1.91,16.79 6.36,-0.28 12.69,-0.42 18.95,-0.42z"/>
  <path id="2" class="fil0" d="M603.75 513.14l5.87 2.86c12.74,-4.54 26.43,-6.82 41.07,-6.82 8.8,0 17,0.72 24.54,2.19 7.47,2.54 14.6,7.87 21.42,15.95 7.54,10.11 11.32,23.94 11.32,41.49l0 9.69c0,14.37 -3.49,25.78 -10.5,34.23 -10.83,14.02 -25.54,21.03 -44.19,21.03l-12.83 0c-16.65,0 -29.92,-4.14 -39.84,-12.43 -10.73,-11.9 -16.09,-28.5 -16.09,-49.78 0,-20.28 6.4,-39.75 19.23,-58.4zm45.85 12.97c-7.38,0 -15.41,1.4 -24.15,4.21l2.44 0.56c5.63,-0.56 11.22,-0.84 16.79,-0.84 5.45,0 10.27,0.19 14.46,0.56 3.82,0.28 7.45,1.49 10.92,3.68 3.73,1.63 5.59,6.38 5.59,14.18l0 1.65c0,3.91 -2.72,7.01 -8.2,9.27 -5.08,2.19 -12.32,3.28 -21.68,3.28l-2.86 0c-11.11,0 -19.3,-1.56 -24.56,-4.63 -3.63,-2.47 -5.45,-5.96 -5.45,-10.52 0,-5.08 2.21,-10.18 6.68,-15.27 -1.91,0.72 -3.82,1.51 -5.75,2.33 -5.63,9.92 -8.8,20.91 -9.55,33.02 0,19.81 3,32.78 9.01,38.88 4.19,4 8.87,6.78 14.06,8.31 3.26,-11.01 6.64,-20.91 10.08,-29.73l16.37 4.91c-3,8.27 -6.01,17.23 -8.99,26.87l4.77 0c3.73,0 7.08,-0.28 10.08,-0.81 -3.17,-2.54 -6.54,-5.05 -10.08,-7.5l8.73 -9.15 -3.42 -0.54c2.19,-6.01 3.28,-10.97 3.28,-14.88 0,-0.82 -1.28,-1.42 -3.82,-1.77 -2.38,-0.19 -5.68,-0.28 -9.97,-0.28 -4.91,0.54 -9.5,1.37 -13.78,2.47 -0.54,5.73 -0.81,11.6 -0.81,17.58l-18.42 -1.49c0,-13.02 1.28,-25.19 3.82,-36.56l18.56 1.63c-0.09,0.44 -0.19,0.86 -0.28,1.23 5.56,-0.84 11.2,-1.23 16.93,-1.23 9.08,0 15.81,1.09 20.19,3.28 5.01,2.63 7.64,6.5 7.92,11.6l0 3.54c-0.19,6.36 -1.28,12.36 -3.28,18l-10.5 -1.63c3.63,2.28 6.78,4.82 9.41,7.64l-5.31 5.33c5.26,-2.38 9.41,-5.77 12.41,-10.24 4.63,-6.73 6.96,-15.41 6.96,-26.06 0,-16.9 -2.82,-29.48 -8.45,-37.65 -5.47,-7.73 -15.51,-12.15 -30.15,-13.23zm-5.47 16.9c-2.35,0 -7.36,1.05 -15,3.14 0.44,1 1.23,1.72 2.31,2.19 2.28,0.81 6.33,1.21 12.15,1.21 6.26,0 10.59,-0.26 12.97,-0.81 2.17,-0.44 3.26,-1.23 3.26,-2.31 -0.35,-1.84 -2.31,-2.86 -5.87,-3.14 -3.54,-0.19 -6.82,-0.28 -9.83,-0.28z"/>
  <path id="3" class="fil0" d="M752.76 513.14l5.87 2.86c12.74,-4.54 26.43,-6.82 41.07,-6.82 8.8,0 17,0.72 24.54,2.19 7.47,2.54 14.6,7.87 21.42,15.95 7.54,10.11 11.32,23.94 11.32,41.49l0 9.69c0,14.37 -3.49,25.78 -10.5,34.23 -10.83,14.02 -25.54,21.03 -44.19,21.03l-12.83 0c-16.65,0 -29.92,-4.14 -39.84,-12.43 -10.73,-11.9 -16.09,-28.5 -16.09,-49.78 0,-20.28 6.4,-39.75 19.23,-58.4zm45.85 12.97c-7.38,0 -15.41,1.4 -24.15,4.21l2.44 0.56c5.63,-0.56 11.22,-0.84 16.79,-0.84 5.45,0 10.27,0.19 14.46,0.56 3.82,0.28 7.45,1.49 10.92,3.68 3.73,1.63 5.59,6.38 5.59,14.18l0 1.65c0,3.91 -2.72,7.01 -8.2,9.27 -5.08,2.19 -12.32,3.28 -21.68,3.28l-2.86 0c-11.11,0 -19.3,-1.56 -24.56,-4.63 -3.63,-2.47 -5.45,-5.96 -5.45,-10.52 0,-5.08 2.21,-10.18 6.68,-15.27 -1.91,0.72 -3.82,1.51 -5.75,2.33 -5.63,9.92 -8.8,20.91 -9.55,33.02 0,19.81 3,32.78 9.01,38.88 4.19,4 8.87,6.78 14.06,8.31 3.26,-11.01 6.64,-20.91 10.08,-29.73l16.37 4.91c-3,8.27 -6.01,17.23 -8.99,26.87l4.77 0c3.73,0 7.08,-0.28 10.08,-0.81 -3.17,-2.54 -6.54,-5.05 -10.08,-7.5l8.73 -9.15 -3.42 -0.54c2.19,-6.01 3.28,-10.97 3.28,-14.88 0,-0.82 -1.28,-1.42 -3.82,-1.77 -2.38,-0.19 -5.68,-0.28 -9.97,-0.28 -4.91,0.54 -9.5,1.37 -13.78,2.47 -0.54,5.73 -0.81,11.6 -0.81,17.58l-18.42 -1.49c0,-13.02 1.28,-25.19 3.82,-36.56l18.56 1.63c-0.09,0.44 -0.19,0.86 -0.28,1.23 5.56,-0.84 11.2,-1.23 16.93,-1.23 9.08,0 15.81,1.09 20.19,3.28 5.01,2.63 7.64,6.5 7.92,11.6l0 3.54c-0.19,6.36 -1.28,12.36 -3.28,18l-10.5 -1.63c3.63,2.28 6.78,4.82 9.41,7.64l-5.31 5.33c5.26,-2.38 9.41,-5.77 12.41,-10.24 4.63,-6.73 6.96,-15.41 6.96,-26.06 0,-16.9 -2.82,-29.48 -8.45,-37.65 -5.47,-7.73 -15.51,-12.15 -30.15,-13.23zm-5.47 16.9c-2.35,0 -7.36,1.05 -15,3.14 0.44,1 1.23,1.72 2.31,2.19 2.28,0.81 6.33,1.21 12.15,1.21 6.26,0 10.59,-0.26 12.97,-0.81 2.17,-0.44 3.26,-1.23 3.26,-2.31 -0.35,-1.84 -2.31,-2.86 -5.87,-3.14 -3.54,-0.19 -6.82,-0.28 -9.83,-0.28z"/>
  <rect class="fil1" x="-0" y="-0" width="1142.93" height="1142.93"/>
 </g>
</svg>
