<?xml version="1.0" encoding="UTF-8"?>
<!DOCTYPE svg PUBLIC "-//W3C//DTD SVG 1.1//EN" "http://www.w3.org/Graphics/SVG/1.1/DTD/svg11.dtd">
<!-- Creator: CorelDRAW 2019 (64-Bit) -->
<svg xmlns="http://www.w3.org/2000/svg" xml:space="preserve" width="486.713mm" height="486.713mm" version="1.1" style="shape-rendering:geometricPrecision; text-rendering:geometricPrecision; image-rendering:optimizeQuality; fill-rule:evenodd; clip-rule:evenodd"
viewBox="0 0 1099.15 1099.15"
 xmlns:xlink="http://www.w3.org/1999/xlink"
 xmlns:xodm="http://www.corel.com/coreldraw/odm/2003">
 <defs>
  <style type="text/css">
   <![CDATA[
    .fil1 {fill:none}
    .fil0 {fill:#332C2B;fill-rule:nonzero}
   ]]>
  </style>
 </defs>
 <g id="图层_x0020_1">
  <metadata id="CorelCorpID_0Corel-Layer"/>
  <path class="fil0" d="M557.23 448.04c1.93,7.26 4.42,14.02 7.52,20.37 12.28,-1.32 24.76,-2.12 37.46,-2.42 15.04,0 26.72,2.04 34.96,6.2 8.88,5.74 13.53,14.4 13.95,25.89 -0.26,9.75 -3.21,22.98 -8.84,39.65l-34.55 -4.65c4.27,-10.77 6.95,-19.77 7.98,-27.02 0,-5.59 -7.45,-8.39 -22.38,-8.39 -37.49,2.95 -71.81,9.94 -102.96,21.01 0.87,3.4 1.74,6.73 2.65,9.98 34.85,-8.58 68,-15.95 99.44,-22.15l10.85 30.12c-13.46,2.95 -26.87,5.9 -40.33,8.84 -2.19,5.9 -4.35,11.68 -6.39,17.27 27.14,-2.19 53.63,-3.48 79.49,-3.74l3.33 33.41c-30.73,0.15 -60.97,1.63 -90.79,4.46 -0.15,2.34 -0.23,4.5 -0.23,6.43 0,4.57 1.32,7.94 3.97,10.17 3.55,2.49 8.81,3.78 15.72,3.78 28.8,-1.47 50.57,-4.16 65.35,-7.98l5.97 33.87c-8.84,2.23 -19.99,4.01 -33.45,5.33 -12.7,1.63 -24.42,2.49 -35.19,2.65l-4.69 0c-16.82,0 -29.97,-2.95 -39.42,-8.84 -10.32,-7.41 -15.5,-18.33 -15.5,-32.77 0,-2.83 0.08,-5.71 0.23,-8.66 -15.5,2.08 -30.61,4.35 -45.39,6.88l-3.55 -33.9c18.03,-2.65 35.87,-4.95 53.59,-6.84 0.91,-4.01 1.85,-7.82 2.87,-11.53 -9.56,2.34 -19.24,4.65 -28.99,6.88l-5.33 -18.18 -21.24 6.88c-6.95,-19.96 -12.06,-40.67 -15.31,-62.25l33.9 -9.75c0.3,2.38 0.64,4.65 1.1,6.88 13.87,-4.88 28.42,-8.69 43.62,-11.53 -1.47,-3.97 -2.8,-7.98 -3.97,-11.94l34.55 -14.4z"/>
  <rect class="fil1" x="-0" y="-0" width="1099.15" height="1099.15"/>
 </g>
</svg>
