<?xml version="1.0" encoding="UTF-8"?>
<!DOCTYPE svg PUBLIC "-//W3C//DTD SVG 1.1//EN" "http://www.w3.org/Graphics/SVG/1.1/DTD/svg11.dtd">
<!-- Creator: CorelDRAW 2019 (64-Bit) -->
<svg xmlns="http://www.w3.org/2000/svg" xml:space="preserve" width="486.713mm" height="486.713mm" version="1.1" style="shape-rendering:geometricPrecision; text-rendering:geometricPrecision; image-rendering:optimizeQuality; fill-rule:evenodd; clip-rule:evenodd"
viewBox="0 0 1142.93 1142.93"
 xmlns:xlink="http://www.w3.org/1999/xlink"
 xmlns:xodm="http://www.corel.com/coreldraw/odm/2003">
 <defs>
  <style type="text/css">
   <![CDATA[
    .fil1 {fill:none}
    .fil0 {fill:#332C2B;fill-rule:nonzero}
   ]]>
  </style>
 </defs>
 <g id="图层_x0020_1">
  <metadata id="CorelCorpID_0Corel-Layer"/>
  <path class="fil0" d="M400.14 511.52l2.05 21.68c-14.83,0 -29.57,0.28 -44.22,0.82 1.19,14.3 2.38,29.11 3.54,44.5 14.93,-0.56 29.94,-1.23 45.03,-2.05l2.19 22.38c-15.02,0.81 -30.11,1.49 -45.31,2.03 0.84,9.66 1.61,19.3 2.33,28.94l-24.56 2.72c-0.81,-10.64 -1.68,-20.89 -2.58,-30.69 -16,0.54 -32.11,0.95 -48.29,1.21l-2.05 -22.24c16,-0.28 32.2,-0.72 48.57,-1.35 -1.28,-15.74 -2.51,-30.57 -3.68,-44.5 -12.64,0.56 -25.24,1.23 -37.79,2.05l-2.19 -21.82c33.37,-2.47 69.04,-3.68 106.97,-3.68zm-85.27 28.92c2.72,9.36 6.54,18.05 11.46,26.06l-21.17 10.5c-5.17,-8.17 -9.17,-17.51 -11.99,-27.96l21.7 -8.59zm65.61 -1.23l23.47 5.45c-4.38,9.01 -7.64,18.84 -9.83,29.48l-23.47 -5.31c2,-10.38 5.29,-20.26 9.83,-29.62z"/>
  <path id="1" class="fil0" d="M501.12 508.1c1.47,5.01 3.42,9.73 5.87,14.18 7.29,-0.82 14.55,-1.35 21.84,-1.63 9.36,0 16.67,1.28 21.96,3.82 5.54,3.28 8.45,8.34 8.73,15.16 -0.19,5.63 -1.63,13.32 -4.38,23.05l-21.96 -2.72c2.1,-6.19 3.42,-11.39 3.96,-15.55 0,-2.28 -4.59,-3.42 -13.78,-3.42 -16.18,1.28 -31.29,3.87 -45.29,7.78l17.6 5.73c-3.47,4.73 -6.52,9.34 -9.15,13.78 6.82,-0.28 13.6,-0.54 20.33,-0.81 -0.44,-3.82 -0.95,-7.4 -1.49,-10.78l22.91 -2.19c0.56,4.1 1.14,8.2 1.77,12.29 8.92,-0.19 17.79,-0.28 26.61,-0.28l2.31 21.96c-8.99,0 -17.67,0.05 -26.05,0.14 0.56,4.47 1.09,8.87 1.65,13.25 6.54,-0.93 12.08,-1.93 16.65,-3l3.93 20.58c-5.08,1.37 -11.04,2.47 -17.86,3.28 0.44,3.63 0.91,7.31 1.35,11.06l-22.91 2.03c-0.44,-3.73 -0.91,-7.31 -1.37,-10.76 -4.63,0.26 -9.08,0.4 -13.37,0.4l-3.68 0c-13.18,0 -23.52,-1.82 -30.97,-5.45 -8.1,-4.63 -12.15,-11.5 -12.15,-20.61 0.09,-2.44 0.28,-4.87 0.56,-7.24 -5.29,0.37 -10.41,0.79 -15.41,1.23l-2.05 -21.82c7.73,-0.65 15.46,-1.19 23.19,-1.65 2.63,-6.54 5.87,-12.85 9.69,-18.95 -3.82,1.19 -7.5,2.4 -11.06,3.68 1.09,2.56 2.19,5.05 3.28,7.5l-20.19 6.71c-4.82,-10.92 -8.29,-22.21 -10.36,-33.86l20.05 -5.98c0.28,1.72 0.58,3.45 0.95,5.17 9.36,-3.26 19.05,-5.96 29.06,-8.03 -1.19,-2.84 -2.24,-5.7 -3.14,-8.62l22.38 -9.41zm8.45 81.05c-10.99,0.35 -21.68,0.82 -32.06,1.35 -0.26,1.91 -0.4,3.59 -0.4,5.05 0,3 1.49,5.24 4.49,6.68 4,1.72 9.92,2.58 17.74,2.58 4.28,-0.16 8.31,-0.4 12.13,-0.68 -0.63,-5.19 -1.26,-10.18 -1.91,-15z"/>
  <path id="2" class="fil0" d="M589.96 510.96c15.55,0.47 30.87,0.95 45.99,1.51 0.44,-1.84 0.95,-3.61 1.49,-5.33l22.93 2.05c-0.47,1.54 -0.88,2.96 -1.23,4.24 15.27,0.72 30.29,1.49 45.01,2.31l-1.07 15.27c-16.02,-0.82 -31.62,-1.54 -46.8,-2.17 -0.19,1.19 -0.33,2.31 -0.42,3.4 13.46,0.65 26.85,1.37 40.12,2.19l-2.33 13.64c-31.92,-1.72 -63.89,-3.24 -95.91,-4.49l2.05 -13.53c11.01,0.37 21.96,0.79 32.88,1.23 0.09,-1.28 0.19,-2.49 0.28,-3.68 -15.37,-0.72 -30.39,-1.42 -45.03,-2.05l2.05 -14.6zm16.93 67.55c-3.1,-0.56 -5.47,-1.23 -7.1,-2.05 -4.63,-2.38 -6.96,-6.19 -6.96,-11.48 0,-5.08 3.05,-10.22 9.15,-15.41l12.55 2.86c11.83,-2.63 23.52,-3.96 35.07,-3.96 18.09,0 30.46,1.19 37.09,3.56 7.66,1.91 11.48,6.82 11.48,14.74l0 2.05c0,4.26 -2.47,7.08 -7.38,8.45 -1.44,0.44 -2.96,0.82 -4.49,1.09 -0.65,1 -1.14,2.05 -1.51,3.12 5.47,-0.07 10.97,-0.12 16.51,-0.12l1.79 15.67c-37.3,0 -74.81,2.24 -112.56,6.71l-1.65 -15.83c5.38,-0.65 10.78,-1.28 16.23,-1.91 0.37,-2.63 0.98,-5.15 1.79,-7.5zm53.34 1.07l-31.81 0c-0.44,1.65 -0.86,3.14 -1.21,4.52 10.55,-0.82 21.24,-1.47 32.06,-1.91 0.26,-0.91 0.58,-1.77 0.95,-2.61zm-9.55 -19.09c-11.83,0.28 -23.61,1.91 -35.35,4.91 0.19,0.47 0.37,0.82 0.54,1.09 0.84,0.72 1.65,1.09 2.47,1.09l42.98 0c5.73,0 9.99,-0.14 12.81,-0.42 1.37,-0.44 2.05,-1.54 2.05,-3.26 0,-1.09 -1.3,-1.91 -3.96,-2.47 -3,-0.63 -10.18,-0.95 -21.54,-0.95zm-47.5 43.26l8.48 1.91c12.83,-2.84 25.64,-4.24 38.47,-4.24 18.37,0 30.87,1.23 37.51,3.68 7.66,2 11.48,7.19 11.48,15.55l0 2.19c0,4.91 -2.51,8.13 -7.52,9.69 -5.08,1.72 -12.55,2.68 -22.38,2.86l-46.1 0c-11.92,0 -20,-1.28 -24.29,-3.82 -4.73,-2.63 -7.1,-7.06 -7.1,-13.25 0,-4.82 3.82,-9.69 11.46,-14.58zm48.04 10.76c-11.74,0.28 -23.38,1.7 -34.93,4.24 0.19,0.91 0.42,1.58 0.68,2.05 0.65,1 1.37,1.49 2.19,1.49l40.65 0c6.01,0 10.41,-0.21 13.23,-0.68 1.47,-0.63 2.19,-2.05 2.19,-4.24 0,-0.91 -1.26,-1.58 -3.82,-2.03 -2.82,-0.56 -9.55,-0.84 -20.19,-0.84z"/>
  <path id="3" class="fil0" d="M795.32 540.44l21.84 2.05c-1.84,7.82 -3.42,15.72 -4.8,23.73 10.38,-1.44 22.84,-3.54 37.39,-6.26l4.35 23.05c-9.45,2.19 -22.82,4.31 -40.1,6.4 -1.72,0.28 -3.47,0.51 -5.19,0.7 -1.63,14.46 -2.68,29.17 -3.14,44.19l-21.96 -2.33c0.19,-13.46 0.95,-26.64 2.33,-39.56 -3.66,0.28 -6.71,0.42 -9.15,0.42l-4.91 0c-10.73,0 -18.65,-2.56 -23.73,-7.64 -4.66,-4.38 -6.96,-10.24 -6.96,-17.6 0,-7.47 2.21,-14.83 6.68,-22.1l-5.59 -19.37c32.92,-7.01 64.15,-13.02 93.72,-18.02l7.1 20.33c-23.94,4.54 -48.85,9.38 -74.77,14.46l5.45 1.23c-4.73,5.1 -8.36,11.5 -10.92,19.23 0,4.38 4.1,6.54 12.29,6.54 4.07,0 8.78,-0.26 14.04,-0.81 1.65,-9.83 3.63,-19.37 6.01,-28.64zm-45.43 54.44l19.77 6.54c-5.26,10.83 -9.85,21.61 -13.76,32.34l-19.51 -6.57c5.1,-12.36 9.59,-23.14 13.5,-32.32zm76.95 -0.95c11.08,6.99 20.37,15.86 27.82,26.59l-14.6 14.88c-7.64,-8.73 -16.74,-17.7 -27.29,-26.87l14.06 -14.6z"/>
  <rect class="fil1" x="-0" y="-0" width="1142.93" height="1142.93"/>
 </g>
</svg>
