<?xml version="1.0" encoding="UTF-8"?>
<!DOCTYPE svg PUBLIC "-//W3C//DTD SVG 1.1//EN" "http://www.w3.org/Graphics/SVG/1.1/DTD/svg11.dtd">
<!-- Creator: CorelDRAW 2019 (64-Bit) -->
<svg xmlns="http://www.w3.org/2000/svg" xml:space="preserve" width="486.713mm" height="486.713mm" version="1.1" style="shape-rendering:geometricPrecision; text-rendering:geometricPrecision; image-rendering:optimizeQuality; fill-rule:evenodd; clip-rule:evenodd"
viewBox="0 0 1142.93 1142.93"
 xmlns:xlink="http://www.w3.org/1999/xlink"
 xmlns:xodm="http://www.corel.com/coreldraw/odm/2003">
 <defs>
  <style type="text/css">
   <![CDATA[
    .fil1 {fill:none}
    .fil0 {fill:#332C2B;fill-rule:nonzero}
   ]]>
  </style>
 </defs>
 <g id="图层_x0020_1">
  <metadata id="CorelCorpID_0Corel-Layer"/>
  <path class="fil0" d="M396.67 522.43l2.31 20.05c-6.99,0 -13.85,0.05 -20.58,0.14 -1.09,3.63 -2.1,7.24 -3,10.78 10.08,-0.28 20.14,-0.42 30.15,-0.42l2.03 20.07 -3.4 0c3.19,2.91 6.15,6.03 8.87,9.41l-14.6 14.6c-7.45,-7.1 -16.37,-14.32 -26.75,-21.7l1.65 -1.91c-19.84,0.65 -38.79,1.63 -56.91,3l8.34 7.5c-8.1,7.82 -16.28,16.02 -24.56,24.56l-15.83 -14.6c5.38,-5.91 10.57,-11.27 15.55,-16.09 -4,0.35 -7.89,0.77 -11.74,1.21l-2.31 -20.05c8.01,-0.81 15.95,-1.49 23.87,-2.05 -0.54,-3.73 -1.05,-7.31 -1.49,-10.78 -5.19,0.47 -10.29,0.91 -15.27,1.37l-2.19 -20.33c4.82,-0.47 9.69,-0.86 14.6,-1.23 -0.75,-4.45 -1.42,-8.78 -2.05,-12.97l23.47 -2.58c0.72,4.54 1.44,9.2 2.17,13.92 10.2,-0.56 20.33,-1 30.43,-1.37 1.54,-4.54 3.1,-8.96 4.63,-13.23l23.47 5.45c-0.91,2.47 -1.77,4.91 -2.58,7.38 3.91,-0.09 7.82,-0.14 11.74,-0.14zm-63.31 32.74c5.73,-0.37 11.32,-0.63 16.79,-0.82 1.07,-3.82 2.07,-7.5 3,-11.06 -7.29,0.28 -14.39,0.65 -21.31,1.09 0.56,3.63 1.05,7.24 1.51,10.78zm21.28 24.42c1.37,9.83 2.91,20 4.63,30.55l10.24 -10.78c7.26,4.38 13.46,10.01 18.56,16.93l-11.48 11.46c-4.82,-5.45 -10.5,-10.83 -17.04,-16.09 0.82,6.01 1.72,12.04 2.72,18.14l-24.01 2.86c-2.91,-16.83 -5.43,-33.55 -7.5,-50.2l23.87 -2.86zm-37.51 21.28l14.18 13.09c-6.19,5.82 -12.36,11.83 -18.56,18.02l-14.86 -13.11c6.64,-6.64 13.04,-12.64 19.23,-18zm70.95 -9.15c8.17,4.28 15.04,9.69 20.58,16.25l-11.46 11.46c-5.54,-5.29 -12.22,-10.69 -20.05,-16.23l10.92 -11.48z"/>
  <path id="1" class="fil0" d="M441.44 510.41c15.55,0.47 30.87,0.95 45.99,1.51 0.44,-1.84 0.95,-3.61 1.49,-5.33l22.93 2.05c-0.47,1.54 -0.88,2.96 -1.23,4.24 15.27,0.72 30.29,1.49 45.01,2.31l-1.07 15.27c-16.02,-0.82 -31.62,-1.54 -46.8,-2.17 -0.19,1.19 -0.33,2.31 -0.42,3.4 13.46,0.65 26.85,1.37 40.12,2.19l-2.33 13.64c-31.92,-1.72 -63.89,-3.24 -95.91,-4.49l2.05 -13.53c11.01,0.37 21.96,0.79 32.88,1.23 0.09,-1.28 0.19,-2.49 0.28,-3.68 -15.37,-0.72 -30.39,-1.42 -45.03,-2.05l2.05 -14.6zm16.93 67.55c-3.1,-0.56 -5.47,-1.23 -7.1,-2.05 -4.63,-2.38 -6.96,-6.19 -6.96,-11.48 0,-5.08 3.05,-10.22 9.15,-15.41l12.55 2.86c11.83,-2.63 23.52,-3.96 35.07,-3.96 18.09,0 30.46,1.19 37.09,3.56 7.66,1.91 11.48,6.82 11.48,14.74l0 2.05c0,4.26 -2.47,7.08 -7.38,8.45 -1.44,0.44 -2.96,0.82 -4.49,1.09 -0.65,1 -1.14,2.05 -1.51,3.12 5.47,-0.07 10.97,-0.12 16.51,-0.12l1.79 15.67c-37.3,0 -74.81,2.24 -112.56,6.71l-1.65 -15.83c5.38,-0.65 10.78,-1.28 16.23,-1.91 0.37,-2.63 0.98,-5.15 1.79,-7.5zm53.34 1.07l-31.81 0c-0.44,1.65 -0.86,3.14 -1.21,4.52 10.55,-0.82 21.24,-1.47 32.06,-1.91 0.26,-0.91 0.58,-1.77 0.95,-2.61zm-9.55 -19.09c-11.83,0.28 -23.61,1.91 -35.35,4.91 0.19,0.47 0.37,0.82 0.54,1.09 0.84,0.72 1.65,1.09 2.47,1.09l42.98 0c5.73,0 9.99,-0.14 12.81,-0.42 1.37,-0.44 2.05,-1.54 2.05,-3.26 0,-1.09 -1.3,-1.91 -3.96,-2.47 -3,-0.63 -10.18,-0.95 -21.54,-0.95zm-47.5 43.26l8.48 1.91c12.83,-2.84 25.64,-4.24 38.47,-4.24 18.37,0 30.87,1.23 37.51,3.68 7.66,2 11.48,7.19 11.48,15.55l0 2.19c0,4.91 -2.51,8.13 -7.52,9.69 -5.08,1.72 -12.55,2.68 -22.38,2.86l-46.1 0c-11.92,0 -20,-1.28 -24.29,-3.82 -4.73,-2.63 -7.1,-7.06 -7.1,-13.25 0,-4.82 3.82,-9.69 11.46,-14.58zm48.04 10.76c-11.74,0.28 -23.38,1.7 -34.93,4.24 0.19,0.91 0.42,1.58 0.68,2.05 0.65,1 1.37,1.49 2.19,1.49l40.65 0c6.01,0 10.41,-0.21 13.23,-0.68 1.47,-0.63 2.19,-2.05 2.19,-4.24 0,-0.91 -1.26,-1.58 -3.82,-2.03 -2.82,-0.56 -9.55,-0.84 -20.19,-0.84z"/>
  <path id="2" class="fil0" d="M634.25 505.5l21.82 4.91c-3.63,8.55 -7.17,17.14 -10.64,25.8 1.91,-0.19 3.87,-0.42 5.87,-0.7 5.73,-0.54 12.48,-1.4 20.21,-2.58 -4.47,-4 -9.24,-7.5 -14.34,-10.5l14.06 -12.69c7.26,3.63 13.64,8.55 19.09,14.74l-7.36 6.82c5.73,-0.84 11.83,-1.79 18.28,-2.86l3.82 20.58c-9.64,2.19 -23.38,4.24 -41.21,6.15 -10.8,1.37 -19.77,2.28 -26.87,2.72 -0.72,2 -1.44,4.05 -2.19,6.15 10.01,-2.19 19.88,-3.28 29.62,-3.28 12.64,0 22.56,1.51 29.73,4.52 7.29,3.26 10.92,7.87 10.92,13.76 0,7.29 -2.42,12.74 -7.24,16.39 -2.45,2.17 -5.08,4.35 -7.89,6.54 7.54,1.35 15.13,2.49 22.77,3.4l-4.24 21.84c-15.62,-1.91 -30.22,-4.47 -43.77,-7.64 -9.29,5.82 -19.79,11.78 -31.53,17.86l-9.41 -18c4.19,-2.56 8.41,-5.19 12.69,-7.92 -5.63,-2 -11.11,-4.1 -16.37,-6.29 -3,8.92 -5.91,17.84 -8.73,26.75l-21.98 -4.77c7.82,-24.66 15.74,-47.71 23.75,-69.18 -7.38,-0.81 -13.06,-2.96 -17.07,-6.4 -4.82,-4 -7.22,-9.34 -7.22,-15.97 0,-8.73 3.14,-17.37 9.41,-25.92l22.91 4.91c-3.98,4.35 -7.08,9.87 -9.27,16.51 0,3.73 3.05,5.82 9.15,6.26 4.35,-11.18 8.78,-21.82 13.23,-31.92zm26.87 90.18c3.38,-2.19 6.68,-4.35 9.97,-6.54 4.45,-3 6.68,-5.01 6.68,-6.01 0,-1.35 -5.73,-2.05 -17.18,-2.05 -8.92,0.37 -18.51,2.1 -28.8,5.19 9.48,3.63 19.26,6.78 29.34,9.41z"/>
  <path id="3" class="fil0" d="M748.86 518.05c1.37,17.21 2.96,35.16 4.8,53.9 1.98,-10.92 4.03,-21.24 6.12,-30.97l19.51 4.35c-3.82,18.84 -7.36,37.88 -10.64,57.16 11.27,2.72 21,5.68 29.2,8.87l-5.45 18.42c-9.92,-2.91 -18.88,-5.45 -26.89,-7.64 -0.63,4.28 -1.3,8.5 -2.05,12.69l-19.63 -4.49c1.44,-9.73 2.96,-19.16 4.49,-28.24l-10.5 1.09c-2.91,-27.94 -5.43,-55.81 -7.5,-83.64l18.53 -1.51zm27.29 -6.01c5.56,0 10.59,2.05 15.16,6.15 4.82,4.54 7.4,12.41 7.78,23.61 7.08,-1.37 14.32,-2.51 21.68,-3.42 -0.72,-7.82 -1.4,-15.55 -2.05,-23.19l23.89 -2.58c0.81,7.92 1.58,15.95 2.31,24.15 3.75,-0.19 7.52,-0.28 11.34,-0.28l2.31 21.98c-3.82,0 -7.64,0.09 -11.46,0.26 2.19,21.84 4.52,44.5 6.96,67.94l-23.87 2.61c-1.19,-10.38 -2.33,-20.61 -3.42,-30.71 -5.54,6.92 -11.18,13.88 -16.9,20.89l-16.79 -15.69c10.36,-13.83 20.51,-26.43 30.43,-37.79 -0.19,-1.82 -0.37,-3.63 -0.56,-5.45 -7.45,0.82 -14.88,1.96 -22.24,3.4l-1.63 -16.51 0 1.51c0,8.36 -0.86,18.09 -2.61,29.17 -1.26,10.2 -3,18.16 -5.17,23.89l-18.56 -3.68c3.1,-10.64 5.17,-21.21 6.26,-31.67 0.91,-8.92 1.37,-15.74 1.37,-20.47 0,-6.64 -1.05,-11.04 -3.14,-13.23 -1.44,-1.28 -3.63,-1.91 -6.54,-1.91 -4.45,1.09 -9.41,3.1 -14.88,6.01l-4.91 -18.02c8.1,-4.63 16.51,-6.96 25.24,-6.96z"/>
  <rect class="fil1" x="-0" y="-0" width="1142.93" height="1142.93"/>
 </g>
</svg>
