<?xml version="1.0" encoding="UTF-8"?>
<!DOCTYPE svg PUBLIC "-//W3C//DTD SVG 1.1//EN" "http://www.w3.org/Graphics/SVG/1.1/DTD/svg11.dtd">
<!-- Creator: CorelDRAW 2019 (64-Bit) -->
<svg xmlns="http://www.w3.org/2000/svg" xml:space="preserve" width="486.713mm" height="486.713mm" version="1.1" style="shape-rendering:geometricPrecision; text-rendering:geometricPrecision; image-rendering:optimizeQuality; fill-rule:evenodd; clip-rule:evenodd"
viewBox="0 0 1047.51 1047.51"
 xmlns:xlink="http://www.w3.org/1999/xlink"
 xmlns:xodm="http://www.corel.com/coreldraw/odm/2003">
 <defs>
  <style type="text/css">
   <![CDATA[
    .fil1 {fill:none}
    .fil0 {fill:#332C2B;fill-rule:nonzero}
   ]]>
  </style>
 </defs>
 <g id="图层_x0020_1">
  <metadata id="CorelCorpID_0Corel-Layer"/>
  <path class="fil0" d="M65.6 470.81c14.26,1.32 27.89,3.2 40.89,5.63 -0.49,-3.01 -0.83,-5.55 -1,-7.64l19.63 -2.11c1.34,8.07 3.88,17.46 7.64,28.13 0.23,0.75 0.49,1.37 0.75,1.88 7.08,-0.6 14,-1.05 20.74,-1.39 -7.83,-2.41 -14.7,-4.46 -20.61,-6.12l6 -19.87c9.33,1.98 17.29,4.33 23.88,7l-5.63 18.86c4.01,-0.23 7.9,-0.41 11.63,-0.49l2.13 20.51c-10.33,0.09 -20.55,0.53 -30.64,1.37 1.26,2.92 2.58,5.89 4.01,8.88 0.58,1.26 1.13,2.39 1.62,3.39 3.09,-2.84 6.08,-5.55 9.01,-8.13l14.87 14.13c-4.33,4.08 -8.71,8.22 -13.12,12.38 4.59,7.17 9.84,14.7 15.75,22.64l-19.63 10.37c-4.33,-5.08 -8.54,-10.76 -12.63,-17.01 -4.74,4.76 -9.54,9.45 -14.36,14.13l-15.51 -14.13c6.51,-6.68 12.85,-12.93 19.01,-18.76 -4.01,-8.49 -7.68,-17.18 -11.01,-26.01 -8.17,0.83 -16.3,1.88 -24.37,3.14 0.32,4.33 0.66,8.66 0.98,13 4.84,-1.32 9.47,-2.8 13.89,-4.37l5.51 18.63c-5.68,2.35 -11.59,4.42 -17.76,6.25 0.58,7.09 1.15,14.17 1.75,21.25l-21.51 2.39c-0.51,-6.42 -1,-12.59 -1.49,-18.52 -3.93,0.77 -7.9,1.43 -11.89,2.01l-5.01 -18.89c5.19,-1.07 10.22,-2.16 15.13,-3.24 -0.32,-4.99 -0.7,-9.92 -1.11,-14.75 -4.76,0.92 -9.43,1.9 -14.02,2.99l-2.11 -20.51c4.99,-1 9.84,-1.96 14.51,-2.88 -0.34,-4.48 -0.68,-8.83 -1,-13 -2.75,-0.41 -5.42,-0.79 -8,-1.13l3.12 -20zm46.27 28c-1.84,-6.66 -3.24,-12.42 -4.25,-17.24l-1.62 15.75c-4.67,-0.75 -9.18,-1.41 -13.51,-2.01 0.17,2.01 0.34,4.05 0.49,6.12 6.42,-0.98 12.72,-1.86 18.89,-2.62z"/>
  <path id="1" class="fil0" d="M200.67 479.81c7.34,0.23 14.58,0.58 21.75,1 2.52,-4.93 5.06,-9.65 7.64,-14.13l21.13 6.49c-1.49,2.92 -3.01,5.89 -4.5,8.88 20.93,1.17 41.27,2.58 61.01,4.25l-2.11 20.51c-23.67,-1.66 -46.65,-3.2 -68.91,-4.61 -3.41,7.23 -6.83,14.7 -10.24,22.36 1.92,17.18 3.99,35.4 6.25,54.65l-21.64 2.62c-1.24,-10.33 -2.45,-20.59 -3.63,-30.75l-14.38 -4.89c6.34,-16.26 12.85,-31.43 19.53,-45.52 -5.01,-0.32 -9.97,-0.66 -14.9,-1l3.01 -19.87zm33.01 39.37c6.42,0.43 12.7,0.85 18.89,1.26 -0.51,-4.08 -0.96,-8 -1.39,-11.76l21 -1.88c0.6,5.01 1.17,10.18 1.75,15.51 9.43,0.83 18.65,1.79 27.64,2.88l-1.98 20.51c-7.85,-0.75 -15.51,-1.47 -23,-2.13 0.41,3.5 0.83,7 1.24,10.5 9.58,-0.83 19.18,-1.79 28.77,-2.88l2.11 20.15c-24.33,2.84 -49.02,4.67 -74.01,5.51l-2.01 -20.15c7.92,-0.23 15.92,-0.62 24.01,-1.11 -0.58,-4.93 -1.13,-9.65 -1.62,-14.15 -8.43,-0.75 -16.6,-1.45 -24.52,-2.11l3.14 -20.15z"/>
  <path id="2" class="fil0" d="M391.25 464.81c1.66,4.33 4.05,8.37 7.13,12.12 6.51,-0.58 13.17,-0.96 20.02,-1.13 8.32,0 14.83,1.13 19.5,3.37 4.99,2.92 7.62,7.47 7.87,13.64 -0.17,5.16 -1.71,12.14 -4.63,20.89l-19.51 -2.39c2.24,-5.57 3.59,-10.24 3.99,-14 0,-3.67 -3.91,-5.51 -11.74,-5.51 -15.09,1 -29.26,3.01 -42.53,6.02 16.92,0.23 33.85,1.02 50.77,2.37l-1.49 15c-8.66,-0.58 -17.33,-1.09 -26.01,-1.49 -1.32,0.92 -2.58,1.84 -3.73,2.75 4.57,1.81 8.71,4.78 12.38,8.88 1.32,1.41 2.54,3.03 3.63,4.87 7.92,-3.07 15.37,-5.7 22.36,-7.87l7.38 16.5c-7.83,3.18 -16.35,6.51 -25.5,10.01l0 1.26c12.08,3.16 22.58,6.57 31.5,10.24l-5.48 17.88c-10.93,-3.5 -20.76,-6.59 -29.51,-9.26 -2.75,5.68 -6.94,10.44 -12.51,14.26l-16.01 -11.37c8.09,-5.25 12.12,-12.42 12.12,-21.51 -0.49,-11.08 -6.42,-18.33 -17.76,-21.75 -5.59,3.99 -11.2,8.05 -16.88,12.12l-13.38 -11.87c7.51,-5.68 14.79,-10.97 21.89,-15.9 -2.75,-0.06 -5.42,-0.11 -8,-0.11l1.11 -11.63c-2.24,0.58 -4.55,1.24 -6.87,1.98 1.32,4.18 2.8,8.34 4.37,12.51l-18.5 6.15c-4.16,-11.18 -7.17,-22.73 -9.01,-34.66l18.37 -5.48c0.26,1.66 0.51,3.33 0.75,4.99 8.77,-2.75 17.93,-4.95 27.53,-6.62 -1.52,-2.43 -2.71,-4.89 -3.63,-7.38l20 -7.87zm-22 70.38l9.88 9.65c-8.34,6.66 -16.79,13.66 -25.39,21l-10.5 -9.5c8.92,-7.83 17.58,-14.9 26.01,-21.15zm8.37 14.64l10.14 9.5c-8.09,7 -16.3,14.34 -24.63,22.02l-10.5 -9.52c8.66,-8.17 16.99,-15.49 24.99,-22z"/>
  <path id="3" class="fil0" d="M506.44 564.58c0,3.67 -0.75,7.21 -2.24,10.63 -1.43,3.35 -3.31,5.98 -5.63,7.9l-9.62 -5.89c2.67,-2.99 3.99,-5.55 3.99,-7.62 -1.66,0.58 -3.29,0.87 -4.87,0.87 -3.01,0 -5.38,-0.96 -7.13,-2.88 -1.84,-1.75 -2.75,-4.12 -2.75,-7.13 0,-3.84 1.26,-6.91 3.76,-9.26 2.5,-2.41 5.66,-3.61 9.5,-3.61 4.91,0 8.71,1.62 11.37,4.87 2.43,2.92 3.63,6.96 3.63,12.12z"/>
  <path id="4" class="fil0" d="M611.87 470.81c14.26,1.32 27.89,3.2 40.89,5.63 -0.49,-3.01 -0.83,-5.55 -1,-7.64l19.63 -2.11c1.34,8.07 3.88,17.46 7.64,28.13 0.23,0.75 0.49,1.37 0.75,1.88 7.08,-0.6 14,-1.05 20.74,-1.39 -7.83,-2.41 -14.7,-4.46 -20.61,-6.12l6 -19.87c9.33,1.98 17.29,4.33 23.88,7l-5.63 18.86c4.01,-0.23 7.9,-0.41 11.63,-0.49l2.13 20.51c-10.33,0.09 -20.55,0.53 -30.64,1.37 1.26,2.92 2.58,5.89 4.01,8.88 0.58,1.26 1.13,2.39 1.62,3.39 3.09,-2.84 6.08,-5.55 9.01,-8.13l14.87 14.13c-4.33,4.08 -8.71,8.22 -13.12,12.38 4.59,7.17 9.84,14.7 15.75,22.64l-19.63 10.37c-4.33,-5.08 -8.54,-10.76 -12.63,-17.01 -4.74,4.76 -9.54,9.45 -14.36,14.13l-15.51 -14.13c6.51,-6.68 12.85,-12.93 19.01,-18.76 -4.01,-8.49 -7.68,-17.18 -11.01,-26.01 -8.17,0.83 -16.3,1.88 -24.37,3.14 0.32,4.33 0.66,8.66 0.98,13 4.84,-1.32 9.47,-2.8 13.89,-4.37l5.51 18.63c-5.68,2.35 -11.59,4.42 -17.76,6.25 0.58,7.09 1.15,14.17 1.75,21.25l-21.51 2.39c-0.51,-6.42 -1,-12.59 -1.49,-18.52 -3.93,0.77 -7.9,1.43 -11.89,2.01l-5.01 -18.89c5.19,-1.07 10.22,-2.16 15.13,-3.24 -0.32,-4.99 -0.7,-9.92 -1.11,-14.75 -4.76,0.92 -9.43,1.9 -14.02,2.99l-2.11 -20.51c4.99,-1 9.84,-1.96 14.51,-2.88 -0.34,-4.48 -0.68,-8.83 -1,-13 -2.75,-0.41 -5.42,-0.79 -8,-1.13l3.12 -20zm46.27 28c-1.84,-6.66 -3.24,-12.42 -4.25,-17.24l-1.62 15.75c-4.67,-0.75 -9.18,-1.41 -13.51,-2.01 0.17,2.01 0.34,4.05 0.49,6.12 6.42,-0.98 12.72,-1.86 18.89,-2.62z"/>
  <path id="5" class="fil0" d="M793.83 464.3l6.64 14.38c-2.75,1.09 -5.55,2.13 -8.39,3.14 1.26,-0.09 2.54,-0.13 3.88,-0.13 7.17,0 14.3,0.32 21.38,1 8.49,1.24 16.13,4.61 22.88,10.12 8.09,7.34 12.12,18.67 12.12,34.02l0 7c0,13.59 -4.42,24.8 -13.25,33.63 -9.09,8.92 -20.51,13.38 -34.25,13.38l-7 0c-16.52,0 -30.13,-3.86 -40.89,-11.63 -10.93,-8.49 -16.47,-20.47 -16.65,-35.87 0,-14.26 4.05,-29.94 12.14,-47.03l7 2.13c0.32,-0.09 0.62,-0.17 0.87,-0.26l-5.51 -10.99c13.83,-5.1 26.85,-9.39 39.01,-12.89zm0.51 36.51c-7.77,0 -15.39,1.58 -22.9,4.76 10.26,0.83 20.27,1.75 30.03,2.75l-1.64 17.88c-12.51,-1.09 -24.5,-2.09 -36,-3.01 -0.26,1.84 -0.47,3.63 -0.62,5.38 13.25,0.41 26.46,1.45 39.63,3.12l-1.88 17.65c-11.99,-1.52 -23.92,-2.52 -35.77,-3.01 1.52,3.59 3.71,6.55 6.64,8.88 6.83,4.33 14.96,6.51 24.37,6.51l7.64 0c7.83,0 14.17,-2.8 19.01,-8.39 4.65,-5.91 7,-12.95 7,-21.13l0 -4.01c0,-10.82 -2.18,-17.76 -6.51,-20.74 -3.76,-3.18 -9.01,-5.14 -15.75,-5.89 -4.67,-0.49 -9.09,-0.75 -13.25,-0.75z"/>
  <path id="6" class="fil0" d="M933.53 464.81c1.66,3.16 3.82,6.04 6.49,8.62 15.17,-0.43 29.98,-0.66 44.39,-0.75l1.13 12.63c-35.6,0.06 -70.59,1.2 -105.04,3.37l-1 -12.38c13.94,-0.83 27.55,-1.52 40.89,-2.01 -0.75,-1.26 -1.41,-2.41 -1.98,-3.5l15.13 -6zm-42.15 23.88l8.13 1.88c13.74,-1.6 27.38,-2.39 40.89,-2.39 16.18,0 27.12,1 32.89,3.01 6.74,1.58 10.14,5.72 10.14,12.38l0 1.62c0,3.76 -2.26,6.3 -6.76,7.64 -4.59,1.15 -11.29,1.79 -20.12,1.88l-41.27 0c-10.76,0 -18.1,-0.77 -22,-2.26 -4.25,-1.66 -6.38,-4.42 -6.38,-8.26 0,-5.08 1.49,-10.24 4.5,-15.49zm50.02 10.5c-12.25,0.17 -24.48,0.92 -36.64,2.24 0.17,0.83 0.49,1.43 1,1.75 0.83,0.34 1.62,0.51 2.37,0.51l42.27 0c6.08,0 10.54,-0.09 13.38,-0.26 1.49,-0.32 2.24,-1.05 2.24,-2.11 0,-0.77 -1.3,-1.26 -3.88,-1.52 -2.9,-0.41 -9.84,-0.62 -20.74,-0.62zm-50.41 16.5c0.26,1.92 0.55,3.76 0.88,5.51 24.52,-3.5 49.49,-5.33 74.9,-5.51 6.83,0 12.33,1 16.52,3.01 4.42,2.33 6.83,4.76 7.23,7.26l0 1.75c-0.15,3.41 -1.49,8.62 -3.99,15.62l-16.5 -2.99c1.58,-3.84 2.37,-6.38 2.37,-7.64 0,-2.9 -3.71,-4.37 -11.14,-4.37 -10.24,0 -20.66,0.43 -31.24,1.26 11.65,0.58 23,1.28 33.99,2.11l-1.11 11.63c-5.85,-0.41 -11.59,-0.79 -17.26,-1.11 1.66,2.41 2.84,5.44 3.5,9.11 6.83,-3.24 13.64,-6.12 20.38,-8.62l7 11.63c-5.66,2.33 -11.59,4.91 -17.76,7.75 8.34,1.17 17.26,2.09 26.76,2.75l-3.12 14.87c-13.85,-0.75 -25.8,-2.11 -35.89,-4.12 -1.75,3.01 -4.12,5.55 -7.13,7.62l-12.89 -9.5c4.67,-2.99 7.02,-7.13 7.02,-12.38 -0.17,-5.25 -1.47,-9.37 -3.88,-12.38 -5.68,2.24 -11.59,4.59 -17.76,7l4.12 0.75c-2.84,6.59 -5.04,13.76 -6.62,21.51l-12.51 -2.37c1,-5.59 2.45,-10.88 4.37,-15.88 -2.67,0.92 -5.29,1.84 -7.87,2.75l-6 -11.52c9.58,-3.91 18.69,-7.45 27.38,-10.63 -5.02,-0.23 -9.92,-0.49 -14.77,-0.75l0.87 -6.87c-1.98,0.26 -3.91,0.53 -5.74,0.87 0.66,2.33 1.41,4.63 2.24,6.87l-16.01 5.01c-2.99,-8 -5.12,-16.35 -6.38,-25.01l16.01 -5.02zm28.4 39.65l12.12 3.99c-2.92,6.08 -5.46,12.23 -7.64,18.4l-11.87 -4.01c2.84,-7 5.29,-13.12 7.38,-18.37z"/>
  <rect class="fil1" x="-0" y="-0" width="1047.51" height="1047.51"/>
 </g>
</svg>
