<?xml version="1.0" encoding="UTF-8"?>
<!DOCTYPE svg PUBLIC "-//W3C//DTD SVG 1.1//EN" "http://www.w3.org/Graphics/SVG/1.1/DTD/svg11.dtd">
<!-- Creator: CorelDRAW 2019 (64-Bit) -->
<svg xmlns="http://www.w3.org/2000/svg" xml:space="preserve" width="486.713mm" height="486.713mm" version="1.1" style="shape-rendering:geometricPrecision; text-rendering:geometricPrecision; image-rendering:optimizeQuality; fill-rule:evenodd; clip-rule:evenodd"
viewBox="0 0 1137.82 1137.82"
 xmlns:xlink="http://www.w3.org/1999/xlink"
 xmlns:xodm="http://www.corel.com/coreldraw/odm/2003">
 <defs>
  <style type="text/css">
   <![CDATA[
    .fil1 {fill:none}
    .fil0 {fill:#332C2B;fill-rule:nonzero}
   ]]>
  </style>
 </defs>
 <g id="图层_x0020_1">
  <metadata id="CorelCorpID_0Corel-Layer"/>
  <path class="fil0" d="M223.05 427.2c15.48,1.44 30.3,3.48 44.41,6.12 -0.53,-3.27 -0.9,-6.03 -1.09,-8.3l21.33 -2.29c1.46,8.76 4.22,18.96 8.3,30.55 0.26,0.81 0.53,1.48 0.81,2.04 7.7,-0.65 15.21,-1.14 22.53,-1.51 -8.51,-2.62 -15.97,-4.84 -22.39,-6.65l6.51 -21.58c10.13,2.16 18.78,4.71 25.94,7.6l-6.12 20.49c4.36,-0.26 8.58,-0.44 12.63,-0.53l2.32 22.28c-11.22,0.09 -22.32,0.58 -33.29,1.48 1.37,3.18 2.8,6.4 4.36,9.64 0.63,1.37 1.23,2.6 1.76,3.69 3.36,-3.08 6.61,-6.03 9.78,-8.83l16.16 15.35c-4.71,4.43 -9.46,8.92 -14.26,13.44 4.98,7.79 10.69,15.97 17.11,24.59l-21.33 11.27c-4.71,-5.52 -9.27,-11.68 -13.72,-18.47 -5.15,5.17 -10.36,10.27 -15.6,15.35l-16.85 -15.35c7.07,-7.26 13.95,-14.05 20.65,-20.38 -4.36,-9.23 -8.34,-18.66 -11.96,-28.26 -8.88,0.9 -17.71,2.04 -26.47,3.41 0.35,4.71 0.72,9.41 1.07,14.12 5.26,-1.44 10.29,-3.04 15.09,-4.75l5.98 20.24c-6.17,2.55 -12.59,4.8 -19.29,6.79 0.63,7.7 1.25,15.39 1.9,23.09l-23.37 2.6c-0.56,-6.98 -1.09,-13.68 -1.62,-20.12 -4.26,0.83 -8.58,1.55 -12.91,2.18l-5.45 -20.51c5.63,-1.16 11.1,-2.34 16.43,-3.52 -0.35,-5.42 -0.76,-10.78 -1.21,-16.02 -5.17,1 -10.25,2.06 -15.23,3.25l-2.29 -22.28c5.42,-1.09 10.69,-2.13 15.76,-3.13 -0.37,-4.87 -0.74,-9.6 -1.09,-14.12 -2.99,-0.44 -5.89,-0.86 -8.69,-1.23l3.38 -21.72zm50.25 30.41c-1.99,-7.23 -3.52,-13.49 -4.61,-18.73l-1.76 17.11c-5.08,-0.81 -9.97,-1.53 -14.67,-2.18 0.19,2.18 0.37,4.4 0.53,6.65 6.98,-1.07 13.82,-2.02 20.51,-2.85z"/>
  <path id="1" class="fil0" d="M426.67 425.58c0.19,1.25 0.32,2.39 0.39,3.38 10.06,-2.09 18.66,-3.22 25.82,-3.38 13.03,0.16 19.68,4.84 19.96,13.98 0,1.46 -1.04,6.37 -3.13,14.81 0,2.09 1.46,3.13 4.36,3.13 3.25,0 6.28,-1.04 9.09,-3.13l3.94 19.42c-4.52,2.25 -10.32,3.38 -17.38,3.38 -6.7,0 -11.89,-1.18 -15.6,-3.52 -3.45,-1.81 -5.17,-4.94 -5.17,-9.39 0,-2.9 1.14,-8.18 3.38,-15.88 0,-2.27 -2.16,-3.41 -6.51,-3.41 -2.8,0 -8.14,1.09 -16.02,3.27 1.25,9.69 2.62,19.7 4.06,30.02l-21.72 2.04c-2.71,-19.75 -5.08,-37.3 -7.07,-52.71l21.6 -2.02zm27.7 54.73c8.16,0 14.44,1.44 18.89,4.33 5.24,3.27 7.88,8.39 7.88,15.37 -0.19,3.62 -1.95,7.6 -5.31,11.94 -1.81,2.09 -3.76,4.22 -5.84,6.4 4.36,1.34 8.55,2.8 12.63,4.33l-5.84 19.15c-7.97,-2.99 -15.81,-5.75 -23.5,-8.28 -6.14,5.15 -12.84,10.41 -20.1,15.74l-13.58 -17.38c2.99,-1.9 5.84,-3.8 8.55,-5.7 -6.61,-1.62 -13.07,-3.15 -19.4,-4.61l5.96 -18.47c0.37,0.09 0.7,0.19 0.95,0.28l-4.61 -14.26c13.95,-5.61 28.4,-8.55 43.32,-8.83zm-28.93 25.41c7.7,1.72 15.21,3.66 22.55,5.84 1.34,-1.27 2.67,-2.41 3.94,-3.41 1.99,-1.53 2.99,-2.99 2.99,-4.33 0,-2.55 -1.81,-3.8 -5.45,-3.8 -7.88,0.97 -15.88,2.9 -24.04,5.7zm-52.02 -78.51c4.36,0.19 11.87,2.99 22.55,8.41 7.14,4.36 10.73,9.46 10.73,15.35 0,4.89 -2.04,9.11 -6.12,12.63 -4.8,4.26 -8.21,7.39 -10.2,9.36 -2.16,1.74 -3.25,3.31 -3.25,4.77 0,2.9 5.19,6.1 15.62,9.64l-8.02 16.83c-9.5,-0.72 -18.66,-5.24 -27.44,-13.58 -2.8,-4.15 -4.2,-8.46 -4.2,-12.89 0,-4.54 2.62,-9.02 7.88,-13.47 1.99,-1.81 5.1,-4.52 9.36,-8.14 1.62,-1.27 2.43,-2.46 2.43,-3.52 0,-1.55 -1.39,-2.94 -4.2,-4.22 -4.08,-1.72 -8.48,-3.52 -13.19,-5.42l8.02 -15.76zm20.79 83.52l5.96 20.24c-8.85,4.45 -18.82,7.7 -29.88,9.78l-5.42 -20.63c10.41,-2.55 20.19,-5.66 29.35,-9.39z"/>
  <path id="2" class="fil0" d="M518.64 436.43c11.68,0.28 23.27,0.6 34.77,0.95 5.98,-5.61 11.96,-10.85 17.94,-15.74l17.92 11.54c-2.09,1.72 -4.03,3.48 -5.84,5.28 16.76,0.65 33.15,1.37 49.16,2.18l-2.04 22.28c-23.81,-1 -46.85,-1.95 -69.12,-2.85 -2.8,2.9 -5.52,5.8 -8.16,8.69 12.86,-2.36 25.5,-3.76 37.9,-4.22 11.96,0 20.47,1.9 25.54,5.7 6.88,3.36 10.45,12.86 10.73,28.53l0 3.66c0,14.3 -2.46,29.07 -7.35,44.27l-23.37 -4.33c4.89,-14.14 7.35,-26.87 7.35,-38.18 0,-9.04 -1.46,-14.84 -4.36,-17.38 -3.34,-1.34 -7.23,-2.04 -11.68,-2.04 -4.33,0 -11.45,0.6 -21.33,1.76 -4.71,0.83 -9.41,1.88 -14.12,3.13 11.96,1 23.41,2.23 34.38,3.66l-1.65 19.17c-12.84,-1.55 -25.22,-2.9 -37.06,-4.08 0.35,3.25 0.67,6.42 0.95,9.5 11.94,-1.28 23.32,-2.71 34.07,-4.36l5.45 17.94c-11.34,2.27 -23.83,4.03 -37.48,5.28 0.35,2.99 0.67,5.89 0.95,8.69l-22.83 2.32c-2.09,-18.01 -4.03,-36 -5.84,-53.92l-14.26 -10.2c7.51,-8.95 14.97,-17.29 22.42,-24.99 -5.61,-0.25 -11.1,-0.49 -16.43,-0.67l3.38 -21.6z"/>
  <path id="3" class="fil0" d="M676.63 444.58c0.09,0.9 0.19,1.81 0.28,2.71 5.26,-1.81 10.32,-2.71 15.21,-2.71 5.35,0 9.87,1 13.58,2.99 3.89,2.62 5.84,8.18 5.84,16.69 0,16.57 -1.44,36.81 -4.33,60.73l-19.7 -3.41c1,-6.7 1.85,-13.21 2.57,-19.56 -2.99,0.28 -5.84,0.6 -8.55,0.95 0.74,8.44 1.51,16.99 2.32,25.68l-18.61 1.76c-2.62,-28.07 -4.98,-56.19 -7.07,-84.35l18.47 -1.48zm3.66 44.41c3.73,-0.63 7.44,-1.09 11.15,-1.37 0.19,-1.72 0.32,-3.38 0.42,-5.01 -4.08,-0.46 -8.11,-0.79 -12.1,-0.97 0.19,2.55 0.37,4.98 0.53,7.35zm-1.62 -21.46c4.71,0.09 9.34,0.32 13.86,0.67 -0.19,-5.24 -1.99,-7.86 -5.45,-7.86 -2.97,0.35 -5.91,1.3 -8.81,2.85 0.09,1.44 0.21,2.9 0.39,4.33zm38.71 -1.23c5.61,0.28 11.1,0.56 16.43,0.83 -0.28,-4.08 -0.53,-8.07 -0.81,-11.96l-14.39 7.19c-4.71,-6.14 -8.34,-13.21 -10.87,-21.19l16.85 -6.51c1.9,5.98 4.61,11.54 8.14,16.71 -0.53,-8.41 -1.09,-16.48 -1.62,-24.18l21.6 -2.18c1.07,13.95 2.16,28.49 3.25,43.6 8.16,0.53 16.13,1.18 23.9,1.9l-1.48 20.24c-7.16,-0.53 -14.12,-1.09 -20.91,-1.62 0.26,3.71 0.53,7.42 0.81,11.13 8.14,-0.63 16.3,-1.3 24.43,-2.04l2.18 22.28c-8.32,0.81 -16.67,1.55 -24.99,2.18 0.56,7.32 1.09,14.77 1.62,22.28l-21.86 2.32c-0.53,-7.97 -1.09,-15.72 -1.62,-23.23 -8.16,0.44 -16.25,0.76 -24.32,0.95l-2.32 -22.28c8.25,-0.28 16.62,-0.65 25.13,-1.09 -0.35,-4.89 -0.76,-9.69 -1.21,-14.39 -7.16,-0.56 -14.19,-1.04 -21.07,-1.51l3.13 -19.42zm49.03 -32.73l17.94 5.98c-3.62,7.97 -6.75,15.95 -9.36,23.9l-17.94 -5.96c3.52,-9.06 6.65,-17.04 9.36,-23.92z"/>
  <path id="4" class="fil0" d="M850.24 529.05c0,3.99 -0.81,7.83 -2.43,11.54 -1.55,3.64 -3.59,6.49 -6.12,8.58l-10.45 -6.4c2.9,-3.25 4.33,-6.03 4.33,-8.28 -1.81,0.63 -3.57,0.95 -5.29,0.95 -3.27,0 -5.84,-1.04 -7.74,-3.13 -1.99,-1.9 -2.99,-4.47 -2.99,-7.74 0,-4.17 1.37,-7.51 4.08,-10.06 2.71,-2.62 6.14,-3.92 10.32,-3.92 5.33,0 9.46,1.76 12.35,5.28 2.64,3.18 3.94,7.56 3.94,13.17z"/>
  <path id="5" class="fil0" d="M157.99 595.02l5.84 2.99c12.93,-4.89 26.56,-7.32 40.87,-7.32 8.79,0 16.85,0.49 24.18,1.48 7.16,1.65 14.14,5.17 20.93,10.59 7.23,6.7 10.85,15.9 10.85,27.58l0 6.51c0,10.87 -3.34,19.56 -10.04,26.08 -10.41,10.59 -24.64,15.9 -42.65,15.9l-12.1 0c-15.65,0 -28.09,-2.64 -37.34,-7.88 -10.04,-7.35 -15.07,-17.62 -15.07,-30.83 0,-15.58 4.84,-30.62 14.53,-45.11zm45.08 17.38c-8.69,0 -18.43,2.5 -29.21,7.49 -2.53,4.96 -4.03,10.27 -4.47,15.88 0,8.51 2.27,14.14 6.79,16.85 5.24,2.99 11.64,4.47 19.15,4.47l7.21 0c12.31,0 21.09,-2.62 26.33,-7.88 3.89,-3.89 5.84,-8.88 5.84,-14.93 0,-7.35 -2.34,-12.73 -7.05,-16.18 -4.45,-3.34 -12.63,-5.24 -24.59,-5.7zm-38.43 64.12l17.92 11.4c-7.14,7.16 -13.54,14.77 -19.15,22.83l-19.42 -14c6.88,-7.97 13.77,-14.72 20.65,-20.24zm63.42 1.76c12.05,2.36 22.23,5.08 30.57,8.16l-6.54 22.28c-11.68,-3.27 -21.86,-6.03 -30.55,-8.3l6.51 -22.14z"/>
  <path id="6" class="fil0" d="M296.68 593.53l9.64 2.18c14.74,-4.8 29.28,-7.21 43.6,-7.21 14.74,0 24.85,0.63 30.27,1.9 10.25,1.62 17.71,4.71 22.42,9.25 4.98,3.71 7.46,10.59 7.46,20.63l0 2.46c0,7.23 -2.48,13.4 -7.46,18.47 -6.42,6.95 -20.95,10.45 -43.6,10.45l-16.16 0c-15.3,0 -27.84,-1.69 -37.62,-5.03 -11.96,-4.71 -17.94,-12.68 -17.94,-23.9 0,-8.44 3.13,-18.17 9.39,-29.21zm51.6 13.44c-12.4,0 -24.32,2.09 -35.72,6.24 11.5,0.19 22.65,0.51 33.43,0.97l-1.09 15.07c-9.41,-0.37 -18.52,-0.67 -27.31,-0.95 0.9,0.53 1.72,0.95 2.46,1.23 5.52,2.43 16.92,3.66 34.21,3.66 7.07,0 13.17,-0.37 18.34,-1.09 4.08,-0.53 7.3,-1.9 9.64,-4.08 1.99,-1.25 3.13,-3.89 3.41,-7.88 0,-5.96 -2.99,-9.78 -8.97,-11.4 -3.8,-1.18 -13.26,-1.76 -28.4,-1.76zm58.69 45.08l1.48 18.47c-18.38,0 -36.67,0.42 -54.87,1.23 0.19,1.28 0.35,2.43 0.53,3.52 12.4,-0.19 25.08,-0.44 38.04,-0.81l1.62 15.21c-12.4,0.46 -24.9,0.79 -37.48,0.95 0.09,0.83 0.19,1.55 0.28,2.18 15.92,2.09 31.27,3.22 46.04,3.41l-2.18 19.96c-18.91,-0.19 -37.44,-1.55 -55.54,-4.08 -11.87,-1.9 -22.46,-3.94 -31.78,-6.1 -0.56,2.25 -1,4.38 -1.37,6.37l-21.05 -4.75c1.9,-11.24 4.61,-21.95 8.14,-32.2 -2.16,0.19 -4.33,0.37 -6.51,0.56l-1.62 -18.47c36.21,-3.64 74.96,-5.45 116.27,-5.45zm-88.96 34.38c4.61,1 9.41,1.9 14.39,2.71 -0.9,-5.61 -1.76,-10.96 -2.6,-16.02 -2.43,0.16 -4.91,0.35 -7.46,0.53 -1.53,4.27 -2.99,8.51 -4.33,12.77z"/>
  <path id="7" class="fil0" d="M492.82 591.91c24.36,0.81 47.87,2.02 70.49,3.66l-1.48 17.39c-6.61,-0.37 -13,-0.7 -19.15,-0.95 -0.37,1.09 -0.7,2.13 -0.95,3.13 4.61,1 9.04,2.97 13.31,5.96 4.89,3.89 7.32,9.16 7.32,15.76l0 3.8c0,5.89 -2.09,10.45 -6.24,13.72 -6.35,5.8 -15,8.69 -25.94,8.69l-8.44 0c-10.94,0 -19.63,-1.51 -26.08,-4.47 -5.33,-3.18 -8.65,-7.3 -9.9,-12.38 -0.74,13.49 -2.55,28.72 -5.45,45.64l-19.68 -3.38c1.34,-6.79 2.48,-13.42 3.38,-19.84 -1.72,0.09 -3.38,0.19 -5.03,0.28 0.56,6.51 1.09,13.03 1.65,19.56 0.16,2.25 0.39,4.43 0.67,6.51l-18.61 1.76c-2.62,-28.07 -4.98,-56.19 -7.07,-84.35l18.47 -1.48c0.09,0.9 0.14,1.72 0.14,2.43 4.45,-1.34 8.79,-2.04 13.05,-2.04 5.33,0 9.78,1.09 13.31,3.27 3.8,2.53 5.7,8.07 5.7,16.57 1.28,-5.98 3.76,-11.87 7.46,-17.66l6.12 3.13c3.99,-0.81 8.11,-1.46 12.35,-1.9 0.28,-1.53 0.58,-2.99 0.95,-4.36 -7.97,-0.35 -15.72,-0.72 -23.23,-1.07l2.85 -17.38zm-35.05 63c2.9,-0.16 5.59,-0.35 8.02,-0.53 0.19,-1.55 0.32,-2.99 0.42,-4.36l-8.83 0c0.19,1.65 0.32,3.27 0.39,4.89zm-1.48 -19.15l11.01 0c-0.09,-5.7 -1.74,-8.55 -4.89,-8.55 -2.27,0.28 -4.5,0.95 -6.65,2.04 0.16,2.27 0.35,4.43 0.53,6.51zm72.53 -21.58c0.28,-1.09 0.53,-2.09 0.81,-2.99 -1.18,0 -2.32,-0.05 -3.38,-0.14 -0.28,1 -0.51,2.04 -0.7,3.13l3.27 0zm-5.17 14.51l-1.21 0c-0.93,5.26 -1.74,10.57 -2.46,15.9l-12.63 -2.85c0.56,-3.52 1.09,-6.93 1.65,-10.18 -1.55,0.44 -2.99,0.95 -4.36,1.48 -0.53,1.62 -0.86,3.31 -0.95,5.03 0,4.15 1.53,6.84 4.61,8 3.71,1.46 8.25,2.18 13.58,2.18l5.17 0c6.42,0 10.99,-1.04 13.72,-3.13 2.06,-1.62 3.11,-3.62 3.11,-5.96 0,-3.45 -1.48,-6.07 -4.47,-7.88 -0.46,-0.19 -0.86,-0.37 -1.23,-0.56 -0.9,4.98 -1.76,9.97 -2.57,14.95l-12.49 -2.85c0.63,-4.8 1.44,-9.5 2.43,-14.14l-1.9 0zm-28.23 30.97l18.59 5.98c-0.26,0.65 -0.58,1.23 -0.95,1.76 3.55,0.19 7.02,0.37 10.45,0.56 -0.16,-1 -0.3,-1.95 -0.39,-2.85l18.47 -1.65c0.26,1.92 0.58,3.73 0.95,5.45 5.52,0.35 10.99,0.72 16.43,1.09l-1.09 15.88c-4.52,-0.26 -8.97,-0.53 -13.31,-0.81 0.26,1.72 0.49,3.45 0.67,5.17 2.53,-0.72 4.75,-1.51 6.65,-2.32l3.41 16.85c-2.46,1 -5.08,1.85 -7.88,2.57 0.16,1.9 0.44,3.8 0.81,5.7l-18.61 1.65c-0.19,-1.37 -0.35,-2.74 -0.53,-4.08 -3.71,0.44 -7.16,0.67 -10.34,0.67l-2.43 0c-8.79,0 -15.72,-1.18 -20.79,-3.52 -5.52,-3.08 -8.28,-7.63 -8.28,-13.58 0.09,-3.89 0.49,-8.07 1.23,-12.49 -1.65,-0.09 -3.31,-0.19 -5.03,-0.28l2.32 -15.07c2.34,0.07 4.71,0.16 7.05,0.26 0.81,-2.34 1.69,-4.66 2.6,-6.93zm30.27 24.32c-6.42,-0.44 -12.73,-0.86 -18.87,-1.23 -0.72,3.27 -1.09,5.98 -1.09,8.16 0,1.09 0.81,1.95 2.43,2.57 1.99,0.65 4.98,0.95 8.97,0.95 3.52,-0.26 6.79,-0.58 9.78,-0.95 -0.46,-3.34 -0.86,-6.51 -1.23,-9.5z"/>
  <path id="8" class="fil0" d="M649.19 591.91c0.19,1.25 0.32,2.39 0.39,3.38 10.06,-2.09 18.66,-3.22 25.82,-3.38 13.03,0.16 19.68,4.84 19.96,13.98 0,1.46 -1.04,6.37 -3.13,14.81 0,2.09 1.46,3.13 4.36,3.13 3.25,0 6.28,-1.04 9.09,-3.13l3.94 19.42c-4.52,2.25 -10.32,3.38 -17.38,3.38 -6.7,0 -11.89,-1.18 -15.6,-3.52 -3.45,-1.81 -5.17,-4.94 -5.17,-9.39 0,-2.9 1.14,-8.18 3.38,-15.88 0,-2.27 -2.16,-3.41 -6.51,-3.41 -2.8,0 -8.14,1.09 -16.02,3.27 1.25,9.69 2.62,19.7 4.06,30.02l-21.72 2.04c-2.71,-19.75 -5.08,-37.3 -7.07,-52.71l21.6 -2.02zm27.7 54.73c8.16,0 14.44,1.44 18.89,4.33 5.24,3.27 7.88,8.39 7.88,15.37 -0.19,3.62 -1.95,7.6 -5.31,11.94 -1.81,2.09 -3.76,4.22 -5.84,6.4 4.36,1.34 8.55,2.8 12.63,4.33l-5.84 19.15c-7.97,-2.99 -15.81,-5.75 -23.5,-8.28 -6.14,5.15 -12.84,10.41 -20.1,15.74l-13.58 -17.38c2.99,-1.9 5.84,-3.8 8.55,-5.7 -6.61,-1.62 -13.07,-3.15 -19.4,-4.61l5.96 -18.47c0.37,0.09 0.7,0.19 0.95,0.28l-4.61 -14.26c13.95,-5.61 28.4,-8.55 43.32,-8.83zm-28.93 25.41c7.7,1.72 15.21,3.66 22.55,5.84 1.34,-1.27 2.67,-2.41 3.94,-3.41 1.99,-1.53 2.99,-2.99 2.99,-4.33 0,-2.55 -1.81,-3.8 -5.45,-3.8 -7.88,0.97 -15.88,2.9 -24.04,5.7zm-52.02 -78.51c4.36,0.19 11.87,2.99 22.55,8.41 7.14,4.36 10.73,9.46 10.73,15.35 0,4.89 -2.04,9.11 -6.12,12.63 -4.8,4.26 -8.21,7.39 -10.2,9.36 -2.16,1.74 -3.25,3.31 -3.25,4.77 0,2.9 5.19,6.1 15.62,9.64l-8.02 16.83c-9.5,-0.72 -18.66,-5.24 -27.44,-13.58 -2.8,-4.15 -4.2,-8.46 -4.2,-12.89 0,-4.54 2.62,-9.02 7.88,-13.47 1.99,-1.81 5.1,-4.52 9.36,-8.14 1.62,-1.27 2.43,-2.46 2.43,-3.52 0,-1.55 -1.39,-2.94 -4.2,-4.22 -4.08,-1.72 -8.48,-3.52 -13.19,-5.42l8.02 -15.76zm20.79 83.52l5.96 20.24c-8.85,4.45 -18.82,7.7 -29.88,9.78l-5.42 -20.63c10.41,-2.55 20.19,-5.66 29.35,-9.39z"/>
  <path id="9" class="fil0" d="M741.16 602.76c11.68,0.28 23.27,0.6 34.77,0.95 5.98,-5.61 11.96,-10.85 17.94,-15.74l17.92 11.54c-2.09,1.72 -4.03,3.48 -5.84,5.28 16.76,0.65 33.15,1.37 49.16,2.18l-2.04 22.28c-23.81,-1 -46.85,-1.95 -69.12,-2.85 -2.8,2.9 -5.52,5.8 -8.16,8.69 12.86,-2.36 25.5,-3.76 37.9,-4.22 11.96,0 20.47,1.9 25.54,5.7 6.88,3.36 10.45,12.86 10.73,28.53l0 3.66c0,14.3 -2.46,29.07 -7.35,44.27l-23.37 -4.33c4.89,-14.14 7.35,-26.87 7.35,-38.18 0,-9.04 -1.46,-14.84 -4.36,-17.38 -3.34,-1.34 -7.23,-2.04 -11.68,-2.04 -4.33,0 -11.45,0.6 -21.33,1.76 -4.71,0.83 -9.41,1.88 -14.12,3.13 11.96,1 23.41,2.23 34.38,3.66l-1.65 19.17c-12.84,-1.55 -25.22,-2.9 -37.06,-4.08 0.35,3.25 0.67,6.42 0.95,9.5 11.94,-1.28 23.32,-2.71 34.07,-4.36l5.45 17.94c-11.34,2.27 -23.83,4.03 -37.48,5.28 0.35,2.99 0.67,5.89 0.95,8.69l-22.83 2.32c-2.09,-18.01 -4.03,-36 -5.84,-53.92l-14.26 -10.2c7.51,-8.95 14.97,-17.29 22.42,-24.99 -5.61,-0.25 -11.1,-0.49 -16.43,-0.67l3.38 -21.6z"/>
  <path id="10" class="fil0" d="M958.5 591.35c11.78,0 20.61,1.55 26.47,4.61 6.26,3.99 9.39,9.2 9.39,15.62 0,4.36 -1.32,8.69 -3.94,13.05 -3.18,5.42 -10.15,13.17 -20.93,23.23 0.93,1.34 1.65,2.57 2.18,3.66 4.89,7.07 7.35,17.57 7.35,31.5 0,10.06 -2.36,17.34 -7.07,21.88 -6.17,5.42 -13.91,8.14 -23.23,8.14 -11.13,0 -20.24,-0.58 -27.31,-1.76l-2.57 -25.41c9.87,1 18.34,1.51 25.41,1.51 2.9,0 5.05,-0.46 6.51,-1.37 1.9,-0.9 2.85,-2.43 2.85,-4.61 0,-7.6 -1.46,-14.05 -4.36,-19.29 -5.24,-8.34 -11.98,-15.48 -20.24,-21.46l20.24 -14.53c1.37,1.09 2.78,2.18 4.22,3.27 3.45,-3.18 6.51,-6.26 9.25,-9.25 1.9,-1.72 2.85,-3.06 2.85,-4.06 -1.9,-2.09 -5.35,-3.13 -10.34,-3.13 -18.1,1.25 -38.02,6.37 -59.76,15.35l-7.74 -21.86c22.65,-9.69 46.22,-14.72 70.77,-15.09z"/>
  <rect class="fil1" x="-0" y="-0" width="1137.82" height="1137.82"/>
 </g>
</svg>
