<?xml version="1.0" encoding="UTF-8"?>
<!DOCTYPE svg PUBLIC "-//W3C//DTD SVG 1.1//EN" "http://www.w3.org/Graphics/SVG/1.1/DTD/svg11.dtd">
<!-- Creator: CorelDRAW 2019 (64-Bit) -->
<svg xmlns="http://www.w3.org/2000/svg" xml:space="preserve" width="486.713mm" height="486.713mm" version="1.1" style="shape-rendering:geometricPrecision; text-rendering:geometricPrecision; image-rendering:optimizeQuality; fill-rule:evenodd; clip-rule:evenodd"
viewBox="0 0 1047.51 1047.51"
 xmlns:xlink="http://www.w3.org/1999/xlink"
 xmlns:xodm="http://www.corel.com/coreldraw/odm/2003">
 <defs>
  <style type="text/css">
   <![CDATA[
    .fil1 {fill:none}
    .fil0 {fill:#332C2B;fill-rule:nonzero}
   ]]>
  </style>
 </defs>
 <g id="图层_x0020_1">
  <metadata id="CorelCorpID_0Corel-Layer"/>
  <path class="fil0" d="M255.3 424l2.13 19.38c-4.01,0 -7.96,0.13 -11.89,0.38 0.26,3.24 0.49,6.4 0.75,9.5 2.84,-0.75 5.55,-1.49 8.13,-2.26l3.88 13.27c1.24,-9.52 2.94,-18.76 5.12,-27.76l17.37 1.62c5.25,-1.09 9.97,-1.62 14.13,-1.62 6.94,0 12.68,2.03 17.26,6.12 4.42,5.08 6.64,10.99 6.64,17.76 0,1.41 -0.3,3.33 -0.88,5.74 -1.69,6.17 -2.8,10.88 -3.39,14.15 -0.49,2.58 -0.75,4.29 -0.75,5.12 0,2.07 1.22,3.12 3.63,3.12 3.93,-1 6.72,-2.03 8.39,-3.12l3.5 19.12c-3.84,1.84 -8.66,2.8 -14.51,2.88 -14,0 -21,-7.62 -21,-22.88 0,-1.26 0.23,-3.26 0.75,-6.02 0.83,-4.42 2.16,-9.9 3.99,-16.5 0.17,-0.75 0.26,-1.3 0.26,-1.62 0,-3.24 -2.33,-4.89 -7,-4.89 -1.41,0 -5.46,0.87 -12.12,2.62 -2.43,15.34 -3.84,31.14 -4.27,47.4l-20.12 -2.01c0.17,-11.42 0.92,-22.49 2.26,-33.25 -3.18,1.24 -6.38,2.33 -9.65,3.24 0.43,5.91 0.87,11.89 1.39,17.88l-20.51 2.13c-0.43,-5.34 -0.83,-10.48 -1.26,-15.39 -2.75,0.49 -5.51,0.92 -8.24,1.24l-5.02 -18.99c4.1,-0.66 8,-1.39 11.76,-2.13 -0.34,-4.25 -0.62,-8.32 -0.87,-12.25 -3.5,0.58 -6.91,1.22 -10.26,1.88l-2.11 -19.51c3.5,-0.75 7.09,-1.43 10.76,-2.01 -0.43,-5.34 -0.79,-10.5 -1.13,-15.49l20.51 -1.88c0.43,5.08 0.79,10.2 1.13,15.37 3.73,-0.23 7.49,-0.36 11.25,-0.36zm42.02 -29.64c2.01,6.25 4.63,12.06 7.87,17.39 7.66,0.83 15.26,1.75 22.75,2.73l-2.11 20.51c-24.26,-2.58 -47.27,-4.95 -69.04,-7.13l3.01 -19.87c7.17,0.41 14.26,0.92 21.25,1.49 -1,-2.5 -1.92,-4.99 -2.75,-7.49l19.01 -7.64z"/>
  <path id="1" class="fil0" d="M459.03 435.5l2.37 21.51c-15.51,0.09 -30.79,0.36 -45.9,0.87 -0.58,9.33 -0.98,18.63 -1.24,27.87 7.66,-0.23 14,-0.87 18.99,-1.88 3.52,-0.58 5.27,-1.75 5.27,-3.5 -0.34,-4.65 -2.18,-8.96 -5.51,-12.87l20 -4.5c3.67,7.17 5.51,14.96 5.51,23.39 0,5.74 -2.33,9.88 -7,12.38 -3.93,2.24 -9.84,3.99 -17.75,5.25 -9.41,1.24 -18.5,1.88 -27.25,1.88l-9.39 0c-15.66,0 -26.8,-1.05 -33.38,-3.14 -7.17,-2.41 -10.76,-7.7 -10.76,-15.88 0,-6.74 1.66,-14.43 4.99,-23l19.38 4.63c-2.16,2.9 -3.63,6.4 -4.37,10.5 0,2.92 2.05,4.76 6.12,5.51 3.59,0.58 8.26,0.96 14.02,1.11 0.15,-9.15 0.53,-18.16 1.11,-27 -12.91,0.58 -25.71,1.37 -38.37,2.37l-2.39 -21.51c14.34,-1 28.38,-1.79 42.15,-2.37 0.17,-2.24 0.36,-4.42 0.62,-6.51 -11.08,0.6 -22.17,1.34 -33.25,2.26l-2.13 -21.02c12.25,-1.07 24.75,-1.94 37.52,-2.62 0.49,-4.42 1.05,-8.71 1.62,-12.87l21 2.11c-0.49,3.44 -0.92,6.76 -1.24,10.01 10.24,-0.32 20.64,-0.49 31.14,-0.49l2.11 21c-11.82,0 -23.62,0.21 -35.38,0.62 -0.26,2.18 -0.45,4.4 -0.62,6.64 14.34,-0.43 28.34,-0.66 42.02,-0.75z"/>
  <path id="2" class="fil0" d="M549.44 392.48c0.92,3.33 2.13,6.42 3.63,9.26 15.51,-1.34 30.64,-2.13 45.39,-2.39l2.13 18.65c-27.25,0.15 -54.14,2.11 -80.64,5.87 -0.09,1.32 -0.17,2.62 -0.26,3.88l17.37 -1.88c0.09,0.83 0.21,1.62 0.38,2.37 11.67,-4.67 21.51,-7.26 29.51,-7.75 12.74,0.17 19.25,4.65 19.51,13.51 0,0.9 -0.62,4.03 -1.88,9.37 0,2.41 1.28,3.63 3.88,3.63 3.65,0 7,-0.87 9.99,-2.62l3.63 18.63c-4.33,1.49 -9.71,2.28 -16.13,2.37 0.68,1.92 1,3.97 1,6.12 0,3.67 -2.16,7.96 -6.49,12.89 6,1.58 11.82,3.29 17.5,5.12l-2.88 17.88c-10.5,-3.09 -20.91,-5.87 -31.26,-8.39 -5.91,4.35 -12.21,8.17 -18.86,11.52l-12.01 -12.51c2.92,-1.43 5.68,-2.84 8.26,-4.27 -3.84,-0.75 -7.6,-1.54 -11.27,-2.37l2.01 -11.5c-1.24,0.34 -2.41,0.66 -3.5,1l-3.37 -16.01c13.42,-5.42 26.59,-8.62 39.5,-9.62 0,-0.43 0,-0.77 0,-1 0,-2.18 0.64,-6.12 1.88,-11.89 0,-2.33 -1.98,-3.5 -6,-3.5 -3.24,0 -10.14,2.62 -20.64,7.87 0.51,3.67 1.09,7.38 1.75,11.14l-18.63 1.98c-1.41,-8.84 -2.67,-17.58 -3.76,-26.25 -1.75,24.67 -2.77,50.15 -3.12,76.4l-19.12 -2.13c0,-6.32 0.06,-12.61 0.23,-18.86 -2.41,0.75 -4.95,1.37 -7.62,1.88l-5.02 -20.02c4.67,-1.17 9.09,-2.54 13.25,-4.12 0.17,-3.35 0.38,-6.64 0.64,-9.88 -4.59,-0.51 -9.09,-0.79 -13.51,-0.87l2.01 -19.14c4.33,0 8.54,0.3 12.63,0.87 0.23,-3.73 0.49,-7.36 0.75,-10.86 -2.84,0.49 -5.63,0.98 -8.39,1.49l-1.88 -18.5c14.43,-2.52 28.51,-4.5 42.27,-6.02 -0.43,-1.24 -0.83,-2.58 -1.26,-3.99l18.37 -7.38zm12.63 87.28c2.92,-2.33 4.55,-3.95 4.89,-4.87 0,-2.26 -0.96,-3.39 -2.88,-3.39 -5.76,1.09 -12.21,2.58 -19.38,4.5 5.91,1.26 11.72,2.5 17.37,3.76z"/>
  <path id="3" class="fil0" d="M631.63 415.36l14 3.63c-4.33,9.6 -7.04,17.88 -8.13,24.88 0,3.44 1.17,5.59 3.5,6.51 2.41,-15.43 5.95,-30.43 10.63,-45.01l18.37 2.11c-3.99,13.42 -7.19,27.1 -9.62,41.02 1.17,-0.26 2.26,-0.45 3.27,-0.62l2.86 15.49c-2.99,0.68 -5.87,1.26 -8.62,1.75 -1.75,13.02 -2.88,26.14 -3.37,39.39l-18.37 -2.11c0.15,-12.01 0.94,-23.82 2.37,-35.4 -4.25,-0.23 -8.17,-2.28 -11.76,-6.12 -2.84,-3.33 -4.25,-7.83 -4.25,-13.51 0.26,-9.58 3.29,-20.25 9.13,-32.01zm42 -16.88c5.19,0.17 10.31,0.38 15.39,0.64 -0.17,-1.43 -0.3,-2.84 -0.38,-4.25l19.89 -1.88c0.17,2.5 0.38,4.87 0.62,7.13 8.69,0.49 17.14,1.11 25.39,1.88l-1.39 15.36c-7.83,-0.41 -15.36,-0.83 -22.62,-1.24 0.09,1.24 0.17,2.41 0.26,3.5 5.83,-0.09 11.74,-0.13 17.76,-0.13l1.49 14.51c-6,0 -12.01,0.02 -18.01,0.11 0.09,1.26 0.17,2.48 0.26,3.63 8,-0.23 15.92,-0.53 23.75,-0.87l1.62 16.01c-22.92,1.09 -46.09,1.75 -69.51,2.01l-1.64 -16.01c8.6,-0.17 17.18,-0.34 25.76,-0.49 -0.15,-1.26 -0.28,-2.48 -0.36,-3.63 -6.17,0.17 -12.25,0.41 -18.27,0.75l-1.62 -14.64c6.08,-0.32 12.29,-0.58 18.63,-0.75 -0.17,-1.84 -0.32,-3.54 -0.49,-5.12 -6.59,-0.34 -12.97,-0.66 -19.14,-1l2.62 -15.51zm14.38 57.53c0.17,0.83 0.3,1.66 0.38,2.5 5.83,-1.34 11.87,-2.01 18.12,-2.01 8.92,0 15.56,1.66 19.89,5.02 4.84,3.99 7.38,9.84 7.62,17.5l0 5.38c-0.06,9.5 -1.75,18.5 -4.99,27l-17.88 -2.99c3.33,-9.58 5.02,-17.58 5.02,-24.01 0,-5.42 -1.43,-9.05 -4.27,-10.88 -2.67,-1.32 -6.3,-2.01 -10.86,-2.01 -4.01,0.68 -7.81,1.56 -11.4,2.62l0 0.51c7.92,0.32 15.56,0.75 22.9,1.24l-0.88 11.63c-7.34,-0.49 -14.34,-0.92 -21.02,-1.24 0.09,0.92 0.17,1.79 0.26,2.62 7.34,0.41 14.43,0.92 21.25,1.49l-1 11.5c-6.74,-0.49 -13.21,-0.92 -19.38,-1.24 0.26,2.9 0.49,5.87 0.75,8.88l-18.89 1.86c-1.75,-20.08 -3.24,-37.92 -4.5,-53.5l18.89 -1.88z"/>
  <path id="4" class="fil0" d="M798.82 492.76c0,3.67 -0.75,7.21 -2.24,10.63 -1.43,3.35 -3.31,5.98 -5.63,7.9l-9.62 -5.89c2.67,-2.99 3.99,-5.55 3.99,-7.62 -1.66,0.58 -3.29,0.87 -4.87,0.87 -3.01,0 -5.38,-0.96 -7.13,-2.88 -1.84,-1.75 -2.75,-4.12 -2.75,-7.13 0,-3.84 1.26,-6.91 3.76,-9.26 2.5,-2.41 5.66,-3.61 9.5,-3.61 4.91,0 8.71,1.62 11.37,4.87 2.43,2.92 3.63,6.96 3.63,12.12z"/>
  <path id="5" class="fil0" d="M227.41 553.98l12.63 2.75c6.91,-2.33 13.85,-4.03 20.76,-5.12 0.66,-3.84 1.37,-7.6 2.11,-11.25l23.52 2.62c-0.49,2.5 -0.92,4.99 -1.26,7.49 7.77,0.26 13.38,1.05 16.88,2.37 8.26,2.01 14.3,5.98 18.14,11.89 4.08,4.67 6.12,13.47 6.12,26.38l0 3.27c0,9.41 -2.2,17.46 -6.62,24.14 -5.51,8.92 -18.14,13.38 -37.9,13.38l-5.61 0c-0.34,7.08 -0.6,14.26 -0.77,21.49l-23.5 -2.37c0.09,-6.66 0.26,-13.25 0.49,-19.76 -8.41,-0.83 -15.58,-2.5 -21.51,-4.99 -11.42,-5.42 -17.11,-14.55 -17.11,-27.38 0,-13.1 4.55,-28.06 13.61,-44.9zm54.4 17.52c-1.75,13 -3.16,26.12 -4.25,39.37 5.76,-0.09 10.71,-0.58 14.87,-1.49 3.5,-0.66 6.34,-2.62 8.51,-5.87 1.66,-1.84 2.62,-5.68 2.88,-11.52 0,-9.33 -2.3,-15.37 -6.89,-18.12 -2.33,-1.34 -7.36,-2.13 -15.13,-2.37zm-28.13 38.13c0.92,-12.36 2.2,-24.48 3.88,-36.38 -6.51,1.41 -12.8,3.59 -18.89,6.49 -1.52,4.5 -2.26,8.88 -2.26,13.12 0,7.11 2.58,11.89 7.77,14.38 2.24,1 5.4,1.79 9.5,2.39z"/>
  <path id="6" class="fil0" d="M380.37 591.5c4.25,0 8.43,0.04 12.51,0.13 -0.26,-2.5 -0.51,-4.97 -0.75,-7.38 -4.59,-0.26 -9.13,-0.36 -13.64,-0.36l1.49 -15.51c16.35,0 32.65,0.87 48.89,2.62l-1.37 15.51c-5.76,-0.51 -11.42,-0.92 -17.01,-1.26 0.26,2.33 0.51,4.72 0.75,7.13 4.93,0.26 9.84,0.58 14.77,1l-1.26 11.99 4.63 -4.37c3.59,2.84 7.79,6.68 12.63,11.5l-11.14 11.01c-1.09,-1.32 -2.2,-2.58 -3.37,-3.76l0.88 9.26c-16.26,1 -32.67,1.62 -49.27,1.88 0.09,0.17 0.17,0.28 0.26,0.36 4.76,4.42 11.59,6.64 20.51,6.64l6.64 0c7,0 14.45,-1.05 22.36,-3.14 5.19,-1.15 8.77,-3.41 10.76,-6.74 1.92,-2.84 2.88,-8.17 2.88,-16.01l0 -4.89c-0.09,-8.75 -1.49,-17.8 -4.25,-27.12 -2.01,-7.26 -5.16,-12.29 -9.5,-15.13 -4.27,-3.24 -9.84,-4.89 -16.77,-4.89l-5.87 0c-6.08,0.68 -11.33,1.47 -15.75,2.39 -4.42,1.58 -8.79,3.5 -13.15,5.74 -1.41,5.1 -2.65,10.35 -3.73,15.77 -1.17,10.16 -1.88,19.16 -2.13,27 0,6.08 2.18,12.19 6.51,18.27l-1.49 -13.25c6.23,-0.17 12.57,-0.34 18.99,-0.51 -0.32,-2.84 -0.62,-5.55 -0.87,-8.13 -5.34,-0.15 -10.5,-0.23 -15.49,-0.23l1.37 -15.51zm41.38 22.75c-1.15,-0.98 -2.28,-1.9 -3.37,-2.73l3.01 -2.88c-3.01,-0.26 -5.89,-0.43 -8.62,-0.51 0.23,2.26 0.49,4.42 0.75,6.51 2.75,-0.09 5.51,-0.21 8.24,-0.38zm-59.26 -66.26l6.64 1.62c4.33,-1.75 9.15,-3.2 14.49,-4.37 7.6,-1.49 15.09,-2.24 22.51,-2.24l5.87 0c12.76,0 23.13,2.94 31.14,8.88 5.76,4.33 10.22,10.99 13.38,20 3.76,12.01 5.72,24.67 5.89,38.01l0 2.62c0,10.93 -1.43,19.14 -4.25,24.65 -3.76,6.66 -11.44,11.33 -23.03,14 -10.33,2.58 -19.59,3.88 -27.74,3.88l-7.38 0c-15.09,0 -27.19,-4.01 -36.26,-12.01 -8.17,-7.09 -12.27,-16.62 -12.27,-28.64 0,-12.83 0.87,-25.71 2.65,-38.63 2.58,-11.59 5.36,-20.85 8.37,-27.76z"/>
  <path id="7" class="fil0" d="M495.94 573.36l18.63 4.01c-4.84,11.93 -8.56,24.93 -11.14,39.01l-18.5 -3.88c2.41,-13.74 6.08,-26.78 11.01,-39.14zm28 -10.5l21.02 5.51c-5.1,11.93 -8.6,22.83 -10.52,32.76 14.43,-16.33 28.43,-31.58 42.02,-45.75l14.64 14.13c-17.61,19.08 -35.23,38.67 -52.9,58.77 3.01,1.41 6.91,2.11 11.76,2.11 8.75,0 18.63,-2.11 29.64,-6.38l4.48 20.51c-13,4.35 -24.71,6.51 -35.13,6.51l-7.26 0c-6.25,0 -12.38,-2.01 -18.37,-6 -2.84,3.24 -5.59,6.42 -8.26,9.5l-15 -13.64c3.99,-4.74 7.96,-9.45 11.89,-14.13 -0.26,-1.58 -0.38,-3.2 -0.38,-4.87 0,-18.42 4.12,-38.09 12.38,-59.03zm60.14 22.64c7.34,5.34 13.47,12.12 18.4,20.38l-14.51 14.51c-4.99,-6.68 -10.97,-13.51 -17.88,-20.51l14 -14.38zm-34.64 -41.53c7.02,4.01 12.85,9.18 17.52,15.51l-13.89 13.87c-4.82,-4.91 -10.5,-9.86 -17.01,-14.87l13.38 -14.51z"/>
  <path id="8" class="fil0" d="M639.5 564.99c0,0.49 0.04,1 0.13,1.49 4.82,-1.32 9.54,-2.01 14.13,-2.01 5.08,0 9.37,0.92 12.87,2.75 3.18,2.09 4.97,6.08 5.38,12.01 2.41,-10.26 5.42,-20.19 9.01,-29.77l17.5 4.01c-1.24,3.41 -2.41,6.79 -3.5,10.12 2.75,0.09 5.38,0.21 7.87,0.38 0.77,-7.17 1.69,-14.17 2.75,-21l20.02 1.86c-1,6.85 -1.88,13.76 -2.62,20.76 4.74,0.51 9.45,1.09 14.13,1.75l-3.63 19.63c-4.25,-0.49 -8.39,-0.96 -12.38,-1.37 -0.34,3.99 -0.62,8.05 -0.87,12.12 4.42,-0.17 8.83,-0.26 13.25,-0.26l2.01 20.02c-5.51,0 -11.01,0.13 -16.52,0.36 -0.23,4.84 -0.45,9.6 -0.62,14.26 5.76,-0.32 11.46,-0.75 17.14,-1.24l2.11 19.63c-20.25,1.75 -40.8,2.86 -61.63,3.37l-1.88 -19.38c7.92,-0.26 15.92,-0.6 24.01,-1 0.09,-4.93 0.21,-9.67 0.36,-14.26 -6.57,0.49 -13.21,1.2 -19.87,2.11l-2.13 -19.87c7.51,-1.17 15.26,-2.05 23.26,-2.62 0.34,-5.1 0.7,-10.14 1.13,-15.13 -3.93,-0.26 -7.68,-0.47 -11.27,-0.64 -1.24,5.1 -2.28,10.18 -3.12,15.26l-14.64 -3.37c-0.41,12.68 -1.49,27.19 -3.24,43.51l-17.5 -3.12c0.75,-6.17 1.41,-12.06 1.98,-17.63 -3.33,-0.26 -6.53,-0.43 -9.62,-0.51 0.51,6.42 1,12.95 1.52,19.63l-16.01 1.62c-2.01,-27 -3.84,-51.05 -5.51,-72.15l16.01 -1.37zm3.12 39.5c3.84,0.09 7.68,0.3 11.5,0.64 0.17,-2.01 0.3,-3.97 0.38,-5.89 -4.16,-0.32 -8.26,-0.58 -12.25,-0.75 0.15,2.09 0.28,4.1 0.36,6zm-1.37 -18.5c4.67,0.09 9.28,0.34 13.87,0.75 -0.09,-4.5 -2.05,-6.74 -5.87,-6.74 -2.84,0.26 -5.59,0.96 -8.26,2.13 0.09,1.32 0.17,2.62 0.26,3.86z"/>
  <path id="9" class="fil0" d="M834.72 553.36l-8.62 62.27 -20.76 -2.75c1.41,-12.68 3.86,-33.76 7.38,-63.27l22 3.76zm0 74.16l-6.51 16.99c-5.59,-1.32 -15.43,-3.69 -29.51,-7.13l6.38 -17.11c5.68,1.24 15.56,3.67 29.64,7.26z"/>
  <rect class="fil1" x="-0" y="-0" width="1047.51" height="1047.51"/>
 </g>
</svg>
