<?xml version="1.0" encoding="UTF-8"?>
<!DOCTYPE svg PUBLIC "-//W3C//DTD SVG 1.1//EN" "http://www.w3.org/Graphics/SVG/1.1/DTD/svg11.dtd">
<!-- Creator: CorelDRAW 2019 (64-Bit) -->
<svg xmlns="http://www.w3.org/2000/svg" xml:space="preserve" width="486.713mm" height="486.713mm" version="1.1" style="shape-rendering:geometricPrecision; text-rendering:geometricPrecision; image-rendering:optimizeQuality; fill-rule:evenodd; clip-rule:evenodd"
viewBox="0 0 1099.15 1099.15"
 xmlns:xlink="http://www.w3.org/1999/xlink"
 xmlns:xodm="http://www.corel.com/coreldraw/odm/2003">
 <defs>
  <style type="text/css">
   <![CDATA[
    .fil1 {fill:none}
    .fil0 {fill:#332C2B;fill-rule:nonzero}
   ]]>
  </style>
 </defs>
 <g id="图层_x0020_1">
  <metadata id="CorelCorpID_0Corel-Layer"/>
  <path class="fil0" d="M313.03 415.63l1.57 15.23c-17.67,0 -35.33,0.31 -53,0.92 -0.69,1.32 -1.46,2.53 -2.24,3.67 15.65,-0.87 31.62,-1.32 47.9,-1.32l1.57 14.58c-19.5,0 -39.05,0.74 -58.65,2.22 -0.78,1.32 -1.57,2.64 -2.37,3.94 23.8,-1.57 48.39,-2.35 73.74,-2.35l1.59 15.74c-2.98,0 -5.91,0.04 -8.8,0.13 2.89,3.92 6.14,7.73 9.72,11.4l-12.47 6.05c1.66,3.67 2.51,8.91 2.51,15.74l0 2.24c0,6.11 -2.15,11.29 -6.45,15.47 -5.33,5.78 -17.49,8.67 -36.48,8.67l-12.18 0c-11.29,0 -20.51,-1.23 -27.7,-3.67 -8.82,-3.67 -13.26,-9.76 -13.26,-18.25 0,-0.96 0.04,-1.84 0.13,-2.62l-18.36 -6.29c3.85,-7.97 7.75,-15.65 11.67,-23.09 -3.05,0.25 -6.11,0.56 -9.18,0.92l-1.57 -15.74c6.65,-0.81 13.35,-1.5 20.06,-2.1 0.72,-1.41 1.41,-2.71 2.1,-3.94 -2.71,0.27 -5.33,0.51 -7.86,0.78l-1.7 -14.56c6.29,-0.78 12.63,-1.5 19.01,-2.1 0.87,-1.39 1.75,-2.8 2.62,-4.19 -8.4,0.43 -16.79,0.94 -25.19,1.57l-1.7 -15.36c12.25,-0.87 24.68,-1.57 37.26,-2.08 2.37,-3.43 4.64,-6.7 6.83,-9.85l21.12 6.16c-0.6,0.96 -1.16,1.88 -1.7,2.78 13.57,-0.45 27.39,-0.67 41.47,-0.67zm-78.46 62.86l2.08 0.51c12.88,-4.37 25.55,-6.56 38.07,-6.56 7.95,0 13.82,0.4 17.58,1.19 -0.96,-1.66 -1.88,-3.27 -2.75,-4.86 -17.15,0.54 -34.22,1.46 -51.17,2.75 -1.41,2.37 -2.69,4.68 -3.81,6.96zm38.69 9.05c-9.09,0 -17.85,1.37 -26.24,4.08 8.06,0.27 16.1,0.65 24.14,1.19l-1.7 15.34c-9.27,-0.69 -18.54,-1.14 -27.81,-1.3 1.05,1.48 2.33,2.57 3.81,3.27 3.58,1.84 10.93,2.75 22.03,2.75 5.53,0 10.32,-0.31 14.44,-0.92 3.07,-0.52 5.6,-1.75 7.61,-3.67 1.48,-1.14 2.31,-3.45 2.49,-6.96 0,-6.29 -1.48,-10.28 -4.46,-11.93 -2.02,-1.23 -6.78,-1.84 -14.31,-1.84z"/>
  <path id="1" class="fil0" d="M460.65 417.87l1.97 20.98c-8.93,0 -17.85,0.09 -26.76,0.27 -1.5,4.12 -2.84,8.22 -4.08,12.34l-20.6 -6.83c0.6,-1.66 1.19,-3.22 1.7,-4.72 -7.7,0.36 -15.34,0.74 -22.95,1.19 0.25,2.89 0.51,5.82 0.78,8.8l-22.03 2.08c-0.36,-3.13 -0.67,-6.25 -0.92,-9.32 -5.35,0.45 -10.64,0.87 -15.88,1.32l-2.1 -20.87c5.33,-0.52 10.7,-1.05 16.12,-1.57 -0.34,-2.98 -0.6,-5.96 -0.78,-8.93l22.06 -2.22c0.25,3.13 0.51,6.34 0.78,9.58 10.84,-0.63 21.81,-1.1 32.94,-1.46 1.39,-3.76 2.71,-7.34 3.92,-10.75l20.47 6.81c-0.43,1.23 -0.87,2.37 -1.3,3.43 5.51,-0.09 11.06,-0.13 16.66,-0.13zm-54.05 33.59c16.53,0 28.77,1.84 36.75,5.51 8.91,4.37 13.59,10.68 14.04,18.9l0 5.89c-0.09,10.32 -1.86,20.13 -5.26,29.4l-22.03 -3.54c3.49,-10.32 5.24,-18.94 5.24,-25.86 0,-3.67 -3.36,-6.16 -10.1,-7.48 -6.14,-0.87 -14.56,-1.3 -25.33,-1.3 1.57,16.88 3.45,34.69 5.64,53.41l-22.57 2.75c-2.17,-17.15 -4.05,-34.26 -5.64,-51.3 -6.29,1.84 -12.29,4.05 -17.96,6.67l-6.83 -21.52c17.4,-7.68 35.42,-11.53 54.05,-11.53z"/>
  <path id="2" class="fil0" d="M552.52 408.28c1.14,4.3 2.62,8.31 4.46,12.07 7.28,-0.78 14.67,-1.25 22.19,-1.43 8.91,0 15.83,1.21 20.71,3.67 5.26,3.4 8.02,8.53 8.26,15.34 -0.16,5.78 -1.9,13.61 -5.24,23.49l-20.47 -2.75c2.53,-6.38 4.12,-11.71 4.72,-16.01 0,-3.31 -4.41,-4.97 -13.26,-4.97 -22.21,1.75 -42.55,5.89 -61,12.45 0.52,2.02 1.03,3.99 1.57,5.91 20.65,-5.08 40.28,-9.45 58.91,-13.12l6.43 17.85c-7.97,1.75 -15.92,3.49 -23.89,5.24 -1.3,3.49 -2.57,6.92 -3.78,10.23 16.08,-1.3 31.77,-2.06 47.09,-2.22l1.97 19.79c-18.2,0.09 -36.12,0.96 -53.79,2.64 -0.09,1.39 -0.13,2.66 -0.13,3.81 0,2.71 0.78,4.7 2.35,6.02 2.1,1.48 5.22,2.24 9.32,2.24 17.06,-0.87 29.96,-2.46 38.72,-4.72l3.54 20.06c-5.24,1.32 -11.85,2.37 -19.82,3.16 -7.52,0.96 -14.47,1.48 -20.85,1.57l-2.78 0c-9.96,0 -17.76,-1.75 -23.36,-5.24 -6.11,-4.39 -9.18,-10.86 -9.18,-19.41 0,-1.68 0.04,-3.38 0.13,-5.13 -9.18,1.23 -18.14,2.58 -26.89,4.08l-2.1 -20.09c10.68,-1.57 21.25,-2.93 31.75,-4.05 0.54,-2.37 1.1,-4.64 1.7,-6.83 -5.67,1.39 -11.4,2.75 -17.17,4.08l-3.16 -10.77 -12.58 4.08c-4.12,-11.82 -7.14,-24.09 -9.07,-36.88l20.09 -5.78c0.18,1.41 0.38,2.75 0.65,4.08 8.22,-2.89 16.84,-5.15 25.84,-6.83 -0.87,-2.35 -1.66,-4.72 -2.35,-7.08l20.47 -8.53z"/>
  <path id="3" class="fil0" d="M639.15 422.59c7.7,0.25 15.29,0.6 22.82,1.05 2.64,-5.17 5.31,-10.12 8.02,-14.82l22.17 6.81c-1.57,3.07 -3.16,6.18 -4.72,9.32 21.97,1.23 43.31,2.71 64.02,4.46l-2.22 21.52c-24.83,-1.75 -48.95,-3.36 -72.3,-4.84 -3.58,7.59 -7.17,15.43 -10.75,23.47 2.02,18.03 4.19,37.15 6.56,57.35l-22.71 2.75c-1.3,-10.84 -2.58,-21.61 -3.81,-32.27l-15.09 -5.13c6.65,-17.06 13.48,-32.98 20.49,-47.76 -5.26,-0.34 -10.46,-0.69 -15.63,-1.05l3.16 -20.85zm34.64 41.31c6.74,0.45 13.32,0.9 19.82,1.32 -0.54,-4.28 -1.01,-8.4 -1.46,-12.34l22.03 -1.97c0.63,5.26 1.23,10.68 1.84,16.28 9.9,0.87 19.57,1.88 29,3.02l-2.08 21.52c-8.24,-0.78 -16.28,-1.54 -24.14,-2.24 0.43,3.67 0.87,7.34 1.3,11.02 10.05,-0.87 20.13,-1.88 30.18,-3.02l2.22 21.14c-25.53,2.98 -51.44,4.9 -77.66,5.78l-2.1 -21.14c8.31,-0.25 16.7,-0.65 25.19,-1.16 -0.6,-5.17 -1.19,-10.12 -1.7,-14.85 -8.84,-0.78 -17.42,-1.52 -25.73,-2.22l3.29 -21.14z"/>
  <path id="4" class="fil0" d="M839.12 406.85c1.75,4.55 4.25,8.78 7.48,12.72 6.83,-0.6 13.82,-1.01 21,-1.19 8.73,0 15.56,1.19 20.47,3.54 5.24,3.07 7.99,7.84 8.26,14.31 -0.18,5.42 -1.79,12.74 -4.86,21.92l-20.47 -2.51c2.35,-5.84 3.76,-10.75 4.19,-14.69 0,-3.85 -4.1,-5.78 -12.32,-5.78 -15.83,1.05 -30.7,3.16 -44.63,6.31 17.76,0.25 35.51,1.07 53.27,2.49l-1.57 15.74c-9.09,-0.6 -18.18,-1.14 -27.3,-1.57 -1.39,0.96 -2.71,1.93 -3.92,2.89 4.79,1.9 9.14,5.02 12.99,9.32 1.39,1.48 2.66,3.18 3.81,5.11 8.31,-3.22 16.12,-5.98 23.47,-8.26l7.75 17.31c-8.22,3.34 -17.15,6.83 -26.76,10.5l0 1.32c12.67,3.31 23.69,6.9 33.05,10.75l-5.75 18.76c-11.46,-3.67 -21.79,-6.92 -30.97,-9.72 -2.89,5.96 -7.28,10.95 -13.12,14.96l-16.79 -11.93c8.49,-5.51 12.72,-13.03 12.72,-22.57 -0.52,-11.62 -6.74,-19.23 -18.63,-22.82 -5.87,4.19 -11.76,8.44 -17.71,12.72l-14.04 -12.45c7.88,-5.96 15.52,-11.51 22.97,-16.68 -2.89,-0.07 -5.69,-0.11 -8.4,-0.11l1.16 -12.2c-2.35,0.6 -4.77,1.3 -7.21,2.08 1.39,4.39 2.93,8.76 4.59,13.12l-19.41 6.45c-4.37,-11.73 -7.52,-23.85 -9.45,-36.36l19.28 -5.75c0.27,1.75 0.54,3.49 0.78,5.24 9.2,-2.89 18.81,-5.2 28.89,-6.94 -1.59,-2.55 -2.84,-5.13 -3.81,-7.75l20.98 -8.26zm-23.09 73.85l10.37 10.12c-8.76,6.99 -17.62,14.33 -26.65,22.03l-11.02 -9.96c9.36,-8.22 18.45,-15.63 27.3,-22.19zm8.78 15.36l10.64 9.96c-8.49,7.34 -17.11,15.05 -25.84,23.11l-11.02 -9.99c9.09,-8.58 17.82,-16.26 26.22,-23.09z"/>
  <path id="5" class="fil0" d="M242.83 567.53c1.66,4.28 3.81,8.31 6.43,12.07 7.61,-0.36 15.09,-0.54 22.44,-0.54l1.97 18.25c-24.92,0 -47.81,1.75 -68.63,5.24l-2.22 -18.23c8.04,-1.14 15.97,-2.15 23.74,-3.02 -1.05,-2.02 -1.97,-4.03 -2.75,-6.05l19.03 -7.73zm-33.07 38.83l3.56 1.7c8.04,-3.31 16.66,-4.97 25.84,-4.97 4.97,0 9.61,0.29 13.91,0.92 4.19,0.96 8.26,3 12.2,6.16 1.75,1.75 3.09,3.63 4.05,5.64l3.43 -16.93c3.58,0 7.12,0.13 10.61,0.4 2.46,-9.63 4.99,-18.81 7.61,-27.56l18.38 4.08c-2.37,8.49 -4.68,16.93 -6.96,25.33 6.38,0.96 12.76,2.13 19.15,3.54l-3.67 19.01c-7.34,-1.21 -14.15,-2.31 -20.47,-3.27 -5.84,23 -11.31,46.31 -16.39,69.93l-18.36 -4.32c5.06,-24.07 10.32,-46.58 15.74,-67.58 -2.89,-0.27 -5.64,-0.43 -8.26,-0.51 1.03,2.71 1.57,5.6 1.57,8.64l0 3.81c0,6.23 -1.88,11.11 -5.64,14.71 -5.17,5.24 -11.85,8.17 -20.09,8.78 0.18,2.1 0.4,4.17 0.67,6.16 6.11,0.63 12.16,1.63 18.09,3.02l-3 18.25c-4.64,-0.78 -8.98,-1.46 -12.99,-1.97 0.25,2.98 0.56,5.91 0.92,8.78l-19.03 2.24c-0.78,-7.08 -1.52,-14.08 -2.24,-20.98 -3.67,6.11 -6.94,12.36 -9.83,18.74l-16.79 -11.53c4.99,-8.84 9.92,-16.37 14.82,-22.57l11.02 7.34c-0.34,-2.62 -0.6,-5.2 -0.78,-7.75 -6.29,-0.6 -11.47,-1.99 -15.47,-4.19 -6.4,-4.21 -9.58,-10.19 -9.58,-17.98 0,-8.67 2.66,-17.02 7.99,-25.06zm28.35 13.52c-4.28,0 -9,1.3 -14.17,3.92 -0.6,1.41 -0.96,2.93 -1.05,4.59 0,3.61 0.96,5.91 2.89,6.96 2.44,1.23 5.42,1.84 8.93,1.84l3.4 0c4.81,0 8.22,-1.01 10.23,-3.02 1.57,-1.57 2.35,-3.49 2.35,-5.78 0,-2.8 -0.96,-4.88 -2.89,-6.29 -1.75,-1.3 -4.97,-2.06 -9.7,-2.22zm61.4 9.05l16.79 3.54c-5.06,12.76 -8.22,23.8 -9.45,33.07 0,3.13 1.41,4.72 4.21,4.72 1.14,0 4.41,-0.85 9.83,-2.51l3.16 16.79c-6.74,2.02 -12.16,3.02 -16.28,3.02l-2.22 0c-4.48,0 -8.58,-1.84 -12.34,-5.51 -2.8,-3.07 -4.21,-7.17 -4.21,-12.34 0.27,-12.25 3.76,-25.84 10.5,-40.8zm11.02 -49.87c5.78,1.14 10.64,2.89 14.58,5.26l-4.72 16.26c-4.99,-2.71 -9.85,-4.64 -14.58,-5.78l4.72 -15.74z"/>
  <path id="6" class="fil0" d="M353.6 573.82l9.32 2.1c14.24,-4.64 28.28,-6.96 42.12,-6.96 14.24,0 24,0.6 29.24,1.84 9.9,1.57 17.11,4.55 21.65,8.93 4.81,3.58 7.21,10.23 7.21,19.93l0 2.37c0,6.99 -2.4,12.94 -7.21,17.85 -6.2,6.72 -20.24,10.1 -42.12,10.1l-15.61 0c-14.78,0 -26.89,-1.63 -36.34,-4.86 -11.55,-4.55 -17.33,-12.25 -17.33,-23.09 0,-8.15 3.02,-17.56 9.07,-28.21zm49.85 12.99c-11.98,0 -23.49,2.02 -34.51,6.02 11.11,0.18 21.88,0.49 32.29,0.94l-1.05 14.55c-9.09,-0.36 -17.89,-0.65 -26.38,-0.92 0.87,0.52 1.66,0.92 2.37,1.19 5.33,2.35 16.35,3.54 33.05,3.54 6.83,0 12.72,-0.36 17.71,-1.05 3.94,-0.52 7.05,-1.84 9.32,-3.94 1.93,-1.21 3.02,-3.76 3.29,-7.61 0,-5.75 -2.89,-9.45 -8.67,-11.02 -3.67,-1.14 -12.81,-1.7 -27.43,-1.7zm56.7 43.55l1.43 17.85c-17.76,0 -35.42,0.4 -53,1.19 0.18,1.23 0.34,2.35 0.52,3.4 11.98,-0.18 24.23,-0.43 36.75,-0.78l1.57 14.69c-11.98,0.45 -24.05,0.76 -36.21,0.92 0.09,0.81 0.18,1.5 0.27,2.1 15.38,2.02 30.21,3.11 44.47,3.29l-2.1 19.28c-18.27,-0.18 -36.16,-1.5 -53.65,-3.94 -11.46,-1.84 -21.7,-3.81 -30.7,-5.89 -0.54,2.17 -0.96,4.23 -1.32,6.16l-20.33 -4.59c1.84,-10.86 4.46,-21.21 7.86,-31.1 -2.08,0.18 -4.19,0.36 -6.29,0.54l-1.57 -17.85c34.98,-3.52 72.42,-5.26 112.32,-5.26zm-85.94 33.21c4.46,0.96 9.09,1.84 13.91,2.62 -0.87,-5.42 -1.7,-10.59 -2.51,-15.47 -2.35,0.16 -4.75,0.34 -7.21,0.51 -1.48,4.12 -2.89,8.22 -4.19,12.34z"/>
  <path id="7" class="fil0" d="M522.47 582.09l5.78 16.53c2.8,0.18 5.51,0.45 8.13,0.78 2.19,-10.66 4.43,-20.62 6.7,-29.89l19.95 4.32c-2.19,9.09 -4.3,18.32 -6.29,27.68 1.93,0.18 3.72,0.4 5.37,0.67 4.64,-12.16 8.78,-23.06 12.45,-32.67l18.38 6.29c-2.46,5.51 -4.68,10.88 -6.7,16.14 7.88,0.87 15.52,1.99 22.95,3.4l-1.7 18.23c-9.7,-1.39 -18.94,-2.75 -27.68,-4.05 -1.14,3.13 -2.19,6.25 -3.16,9.32l-12.07 -4.08 -0.51 7.34c-3.85,-0.52 -7.57,-1.01 -11.15,-1.43 -0.63,3.49 -1.28,6.94 -1.97,10.37 0.78,0.16 1.43,0.29 1.97,0.38 3.13,0.45 6.16,2.53 9.05,6.29 1.23,1.14 2.19,2.93 2.89,5.4l1.7 -9.99c4.37,0.63 8.62,1.32 12.72,2.1 2.1,-6.99 4.21,-13.68 6.31,-20.06l18.88 4.19c-2.08,6.65 -4.1,13.26 -6.02,19.82 3.85,0.87 7.61,1.79 11.29,2.75l-3.81 20.6c-4.46,-1.05 -8.84,-2.1 -13.12,-3.16 -2.44,8.84 -4.68,17.58 -6.7,26.24l-19.01 -4.32c2.17,-9.02 4.32,-17.58 6.43,-25.73 -2.37,-0.6 -4.77,-1.1 -7.23,-1.43 0.18,2.62 0.27,5.37 0.27,8.26l0 2.62c0,7.1 -2.1,12.61 -6.29,16.53 -3.94,4.03 -9.54,6.05 -16.79,6.05l-2.24 0c-9.54,0 -16.48,-2.71 -20.85,-8.13 -3.16,-4.03 -4.72,-10.03 -4.72,-17.98 0,-11.02 3.36,-22.03 10.1,-33.07l4.86 1.05c0.69,-3.85 1.34,-7.52 1.95,-11.02 -3.4,-0.36 -6.76,-0.69 -10.1,-1.05l2.51 -14.56c-2.28,0.6 -4.48,1.23 -6.56,1.84 -3.07,24.5 -4.81,50.02 -5.26,76.63l-20.06 -1.97c0.18,-23.89 1.57,-46.67 4.19,-68.36 -1.39,0.36 -2.8,0.74 -4.19,1.19l-5.78 -20.09c12.34,-3.85 24.05,-7.17 35.16,-9.96zm18.5 89.75c2.8,0 4.72,-0.92 5.78,-2.75 1.05,-1.75 1.59,-4.68 1.59,-8.8 -0.27,-7.7 -1.28,-11.98 -3.02,-12.85 -1.75,-0.78 -3.4,-1.19 -4.99,-1.19 -0.96,0 -2.44,0.54 -4.46,1.59 -1.23,3.58 -1.84,6.9 -1.84,9.96 0,4.9 0.43,8.44 1.32,10.61 1.03,2.28 2.91,3.43 5.62,3.43z"/>
  <path id="8" class="fil0" d="M644.25 570.02c33.25,0.36 65.3,0.92 96.17,1.7l-1.7 19.28c-13.73,-0.25 -27.21,-0.52 -40.42,-0.78 0.18,2.19 0.36,4.43 0.54,6.7 14.42,-0.6 29,-1.3 43.69,-2.1l1.97 19.3c-34.91,2.26 -70.42,3.72 -106.54,4.32l-1.97 -19.55c13.82,-0.27 27.72,-0.65 41.72,-1.19 -0.25,-2.8 -0.47,-5.46 -0.65,-7.99 -12.25,-0.18 -24.18,-0.4 -35.81,-0.65l3 -19.03zm9.99 53.14c0.09,0.96 0.16,1.84 0.25,2.62 15.05,-4.64 30.68,-6.94 46.84,-6.94 11.02,0 20.04,1.48 27.03,4.46 6.56,4.03 9.85,8.78 9.85,14.31l0 3.13c-0.63,9.09 -2.55,17.2 -5.78,24.27l-21.52 -4.05c3.22,-5.08 5.15,-10.82 5.78,-17.2 0,-2.28 -1.28,-3.9 -3.81,-4.86 -3.58,-0.78 -8.53,-1.19 -14.82,-1.19 -5.42,0.18 -10.68,0.67 -15.74,1.46l9.32 2.75c-6.47,14.42 -12.79,30.57 -18.9,48.41l-19.55 -6.83c5.24,-15.83 10.7,-29.78 16.39,-41.85 -4.64,1.05 -9,2.42 -13.12,4.08 0.54,5.6 1.05,11.38 1.59,17.31l-19.55 1.97c-1.41,-14.96 -2.6,-28.26 -3.56,-39.88l19.3 -1.97zm34.64 35.02c19.23,3.69 37.42,8.44 54.57,14.31l-5.78 18.9c-18.45,-6.47 -36.63,-11.42 -54.57,-14.82l5.78 -18.38z"/>
  <path id="9" class="fil0" d="M777.19 583.79c7.61,0.45 15.14,0.96 22.57,1.59 1.41,-5.26 2.93,-10.37 4.59,-15.36l21 4.72c-1.41,4.12 -2.66,8.26 -3.81,12.47 8.67,0.96 17.11,1.9 25.33,2.87l-1.46 19.82c-9.96,-0.87 -19.59,-1.75 -28.86,-2.62 -0.34,1.66 -0.69,3.31 -1.05,4.99 1.93,-0.09 3.81,-0.13 5.64,-0.13 6.92,0 12.56,2.22 16.93,6.7 4.21,4.81 6.29,10.41 6.29,16.79l0 2.62c0,6.38 -0.6,14.69 -1.84,24.92 -1.39,10.68 -2.91,19.17 -4.59,25.46l-17.82 -3.54c1.3,-5.6 2.4,-10.9 3.27,-15.88 -2.44,-0.27 -4.86,-0.49 -7.21,-0.67 0.25,4.9 0.56,9.9 0.92,14.96l-15.74 1.59c-0.45,-6.23 -0.83,-12.02 -1.19,-17.47 -2.53,-0.16 -5.04,-0.25 -7.48,-0.25 0.34,6.02 0.78,12.11 1.3,18.23l-16.79 1.46c-1.9,-23.71 -3.49,-47.52 -4.7,-71.39l16.79 -1.57c0.07,0.87 0.11,1.75 0.11,2.62 1.14,-0.36 2.28,-0.69 3.43,-1.05 0.69,-3.58 1.39,-6.99 2.1,-10.23 -7.19,-0.69 -14.17,-1.32 -21,-1.84l3.27 -19.82zm14.58 70.71c2.53,0 5.06,0.09 7.61,0.27 0,-1.14 -0.04,-2.19 -0.13,-3.16 -2.37,-0.07 -4.68,-0.11 -6.96,-0.11l1.05 -12.61 2.37 0c-0.27,-2.02 -0.54,-3.85 -0.78,-5.51 -1.5,0.54 -2.93,1.05 -4.34,1.57 0.36,6.56 0.74,13.08 1.19,19.55zm23.22 -1.95c0.09,1.12 0.18,2.22 0.27,3.27 3.31,0.36 6.61,0.69 9.83,1.05 0.18,-1.23 0.31,-2.28 0.4,-3.16 -3.52,-0.43 -7.01,-0.83 -10.5,-1.16zm-6.96 -13.26c0.63,0 1.19,0.04 1.72,0.13 0.96,-3.34 1.84,-6.45 2.62,-9.32 -1.75,0.16 -3.58,0.34 -5.51,0.52 0.34,2.98 0.74,5.87 1.16,8.67zm14.58 1.3c1.39,0.18 2.66,0.36 3.81,0.54l0 -2.24c0,-2.62 -0.63,-4.55 -1.84,-5.78 -0.72,2.55 -1.37,5.04 -1.97,7.48zm26.38 -42.77c3.13,0.27 6.29,0.54 9.43,0.78 1.77,-8.22 3.52,-16.17 5.26,-23.87l18.9 4.32c-0.54,2.46 -1.01,4.77 -1.46,6.96l5.64 -6.05c5.08,2.98 9.27,6.65 12.61,11.02l-10.37 10.64c-2.71,-2.98 -5.82,-5.91 -9.32,-8.8 -0.63,2.73 -1.19,5.4 -1.72,8.02 4.9,0.69 9.76,1.43 14.58,2.24l-1.97 22.03c-5.96,-0.78 -11.69,-1.52 -17.2,-2.24 -1.84,8.84 -3.54,17.67 -5.11,26.51 10.66,6.99 19.68,15.52 27.03,25.57l-14.82 14.85c-4.99,-5.44 -10.5,-10.82 -16.53,-16.14 -0.96,5.33 -1.88,10.7 -2.78,16.14l-19.01 -4.21c3.85,-23.18 7.79,-44.92 11.8,-65.21 -2.89,-0.36 -5.73,-0.69 -8.53,-1.05l3.56 -21.52z"/>
  <rect class="fil1" x="-0" y="-0" width="1099.15" height="1099.15"/>
 </g>
</svg>
