<?xml version="1.0" encoding="UTF-8"?>
<!DOCTYPE svg PUBLIC "-//W3C//DTD SVG 1.1//EN" "http://www.w3.org/Graphics/SVG/1.1/DTD/svg11.dtd">
<!-- Creator: CorelDRAW 2019 (64-Bit) -->
<svg xmlns="http://www.w3.org/2000/svg" xml:space="preserve" width="486.713mm" height="486.713mm" version="1.1" style="shape-rendering:geometricPrecision; text-rendering:geometricPrecision; image-rendering:optimizeQuality; fill-rule:evenodd; clip-rule:evenodd"
viewBox="0 0 1047.51 1047.51"
 xmlns:xlink="http://www.w3.org/1999/xlink"
 xmlns:xodm="http://www.corel.com/coreldraw/odm/2003">
 <defs>
  <style type="text/css">
   <![CDATA[
    .fil1 {fill:none}
    .fil0 {fill:#332C2B;fill-rule:nonzero}
   ]]>
  </style>
 </defs>
 <g id="图层_x0020_1">
  <metadata id="CorelCorpID_0Corel-Layer"/>
  <path class="fil0" d="M270.2 470.92c12.08,3.07 25.59,4.63 40.5,4.63l-1.62 17.88c-16.92,0 -30.92,-1.84 -42,-5.51l3.12 -17.01zm101.02 22.51l1.88 18.63c-8.49,0 -16.92,0.13 -25.25,0.36 0.58,3.27 1.24,6.17 1.98,8.75 3.44,13.51 7.94,23.56 13.51,30.15 2.84,3.65 7.43,7.19 13.76,10.63l-10.01 19.63c-11.08,-4.76 -19.97,-12.8 -26.63,-24.14 -5.42,-9.75 -9.54,-21.98 -12.38,-36.64 -0.43,-2.41 -0.79,-4.97 -1.13,-7.64 -20.91,1 -41.85,2.75 -62.76,5.25l-2.13 -18.37c20.19,-2.58 41.1,-4.37 62.78,-5.38 -0.68,-8.41 -1.09,-17.5 -1.26,-27.25l21.13 0.62c0,9.58 0.26,18.18 0.75,25.76 4.84,-0.17 9.71,-0.26 14.64,-0.26 -4.01,-3.65 -8.66,-7.36 -14,-11.12l11.5 -12.38c6.57,3.41 12.08,7.7 16.5,12.87l-10.99 10.63c2.73,-0.06 5.44,-0.11 8.11,-0.11zm-67.14 23.62c0.66,4.08 1.28,8.3 1.88,12.63 6.08,-0.51 12.29,-1.22 18.63,-2.13l1.49 16.52c-5.91,0.92 -11.87,1.58 -17.88,1.98 0.51,3.35 1,6.64 1.52,9.88 5.42,-0.92 11.59,-2.24 18.5,-3.99l2.88 17.14c-16.09,4.16 -29.56,6.32 -40.4,6.49 -9.09,0 -15.83,-1.58 -20.25,-4.74 -4.33,-3.35 -6.76,-7.81 -7.26,-13.38 0,-11.01 1.13,-20.51 3.37,-28.51l17.14 4.12c-2.01,7.51 -3.01,13.64 -3.01,18.37 0,2.09 0.83,3.63 2.5,4.63 1.34,0.83 3.35,1.39 6.02,1.62 -2.18,-12.91 -4.01,-25.84 -5.51,-38.75l20.38 -1.88z"/>
  <path id="1" class="fil0" d="M406.28 469.53c3.91,0.26 10.78,3.18 20.61,8.77 6.59,4.33 9.88,9.54 9.88,15.62 0,4.59 -1.75,8.47 -5.25,11.63 -4.25,3.99 -7.21,6.87 -8.88,8.62 -2.01,1.58 -2.99,3.01 -2.99,4.25 0,3.09 4.99,6.47 15,10.14l-7.87 15.51c-8.92,-0.77 -17.48,-5.14 -25.65,-13.15 -2.67,-3.99 -3.99,-8.15 -3.99,-12.51 0,-4.08 2.28,-8.11 6.87,-12.12 1.75,-1.84 4.46,-4.42 8.13,-7.75 1.34,-1.09 2.01,-2.09 2.01,-3.01 0,-2.01 -1.26,-3.71 -3.76,-5.12 -3.76,-2.01 -7.83,-4.12 -12.25,-6.38l8.13 -14.51zm24.99 78.53l5.51 18.37c-9.84,4.18 -21.04,7.21 -33.63,9.13l-4.99 -19.12c11.82,-2.18 22.88,-4.97 33.12,-8.39zm50.41 -79.51c7.49,0 13.55,2.37 18.12,7.13 4.35,5.08 6.51,10.46 6.51,16.11l0 3.01c0,4.76 -1,10.37 -3.01,16.88 -2.9,8.66 -7.4,17.58 -13.49,26.76 7.75,2.84 15.26,5.83 22.49,9.01l-6.49 21c-9.75,-4.33 -19.4,-8.26 -28.89,-11.76 -6.34,8.51 -13.25,16.65 -20.74,24.39l-15.02 -17.01c4.84,-5.34 9.18,-10.33 13.02,-15 -6.08,-1.92 -12.06,-3.59 -17.88,-4.99l6.51 -20.51c8.41,2.16 16.67,4.55 24.75,7.13 0.09,-0.17 0.17,-0.3 0.23,-0.38 5.42,-7.49 9.52,-14.58 12.27,-21.25 2.41,-5.16 3.63,-9.26 3.63,-12.25 0,-2.09 -0.43,-3.84 -1.26,-5.25 -0.92,-1.34 -2.18,-2.01 -3.76,-2.01 -3.76,0 -8.17,0.66 -13.25,2.01 -6.08,2.33 -11.63,5.16 -16.62,8.49l-8.13 -21c3.99,-2.5 9.41,-4.84 16.26,-7 8.15,-2.35 16.41,-3.5 24.75,-3.5z"/>
  <path id="2" class="fil0" d="M556.85 484.79c1.58,-5.91 3.2,-11.72 4.87,-17.37l21.02 4.5c-1.09,3.91 -2.18,7.92 -3.27,11.99 5.19,0.83 9.52,3.35 13.02,7.51 2.99,3.91 4.91,8.26 5.74,13 1.75,-9.24 4.29,-18.89 7.64,-28.87l6 1.24c3.33,-0.41 7,-0.7 11.01,-0.88 4.82,0.17 8.92,0.68 12.25,1.52 3.59,1.32 6.42,3.33 8.49,6 3.5,2.33 5.25,18.33 5.25,48.02l0 7.62c0,16.52 -1.62,26.68 -4.87,30.52 -3.41,5.68 -10.46,8.62 -21.13,8.88l-2.26 -0.38c-8.58,0 -14.53,-1.32 -17.88,-3.99 -2.99,-1.66 -5.08,-5.21 -6.25,-10.63 -0.58,-5.16 -0.92,-12.55 -1,-22.13 -0.09,0.41 -0.15,0.83 -0.23,1.24 -2.75,12.27 -5.76,22.07 -9.01,29.39l-21.02 -4.5c4.35,-10.99 7.55,-21.3 9.65,-30.88 1.9,-8.92 2.86,-16.22 2.86,-21.87 0,-3.18 -0.53,-5.59 -1.62,-7.26 -0.66,-1.09 -1.45,-1.84 -2.37,-2.26 -6.51,24.18 -12.51,48.78 -18.01,73.77l-21 -4.37c5.25,-24.09 10.58,-46.5 16.01,-67.26 -3.41,0.92 -6.91,2.18 -10.5,3.76l-7.02 -20.51c3.09,-1.26 8.3,-2.67 15.64,-4.25 2.67,-0.6 5.34,-1.09 8,-1.52zm65.02 73.77c3.24,0 5.08,-0.79 5.51,-2.37 0.66,-2.09 0.98,-7.87 0.98,-17.37l0 -5.76c0,-22.66 -0.7,-34.72 -2.11,-36.13 -1.34,-0.6 -2.62,-0.87 -3.88,-0.87 -0.41,0 -1.13,0.09 -2.11,0.23 -2.92,10.35 -4.4,20.59 -4.4,30.77 0,14.34 0.26,23.84 0.77,28.51 0.49,1.98 2.24,2.99 5.25,2.99z"/>
  <path id="3" class="fil0" d="M679.42 473.54c3.91,0.26 10.78,2.71 20.61,7.38 6.59,3.73 9.88,8.28 9.88,13.62 0,4.42 -1.92,8.17 -5.74,11.27 -4.67,3.91 -7.87,6.7 -9.62,8.37 -2.18,1.66 -3.26,3.09 -3.26,4.25 0,2.84 4.89,5.89 14.64,9.13l-7.64 14.38c-8.41,-0.66 -16.5,-4.67 -24.24,-11.99 -2.52,-3.67 -3.76,-7.51 -3.76,-11.52 0,-3.99 2.5,-7.96 7.49,-11.87 1.84,-1.75 4.8,-4.25 8.88,-7.51 1.52,-1.15 2.26,-2.16 2.26,-2.99 0,-1.6 -1.39,-2.97 -4.12,-4.14 -4.01,-1.49 -8.34,-3.16 -13.02,-4.99l7.64 -13.38zm20.51 73.9l5.48 18.63c-8.24,4.08 -17.58,7.08 -28,9.01l-5.01 -19.14c9.77,-2.24 18.93,-5.08 27.53,-8.49zm20.49 -68.4l7.26 1.75c1.17,-0.34 2.43,-0.66 3.76,-1 2.67,-0.66 5.38,-1.13 8.13,-1.39 0.66,-4.25 1.45,-8.41 2.37,-12.48l17.52 2.11c-0.68,3.5 -1.3,7 -1.88,10.5 5.66,0.83 10.46,2.67 14.38,5.51 3.99,2.92 7.08,7.43 9.24,13.51 2.67,8.09 4.1,16.67 4.25,25.76l0 1.62c0,14.08 -0.96,24.67 -2.86,31.75 -2.35,8.51 -7.17,14.47 -14.51,17.88 -6.59,3.27 -12.51,4.89 -17.76,4.89l-5.76 0c-11.67,0 -21.04,-4.1 -28.13,-12.25 -6.42,-7.34 -9.62,-17.22 -9.62,-29.64 0,-11.33 1.17,-22.71 3.5,-34.14 3.07,-10.24 6.47,-18.37 10.12,-24.37zm34.53 17.11c-0.75,6.02 -1.39,11.97 -1.88,17.88 3.41,0.43 6.7,0.87 9.88,1.39l-1.62 18.99c-3.27,-0.41 -6.47,-0.79 -9.65,-1.11 -0.17,3.59 -0.28,7.17 -0.36,10.76l-17.52 -2.13c0.09,-3.76 0.17,-7.38 0.26,-10.88 -2.41,-0.32 -4.72,-0.62 -6.87,-0.88 -0.09,1.43 -0.17,2.71 -0.26,3.88 0,6.91 1.62,13.91 4.89,21 3.07,4.59 7.36,6.89 12.87,6.89l4.25 0c3.18,0 6.59,-1.52 10.26,-4.5 2.33,-1.75 3.95,-5.01 4.87,-9.75 0.83,-4.18 1.26,-11.93 1.26,-23.26l0 -2.63c0,-4.93 -0.66,-9.97 -2.01,-15.13 -1,-4.1 -2.54,-6.94 -4.63,-8.51 -1.15,-0.92 -2.41,-1.58 -3.73,-2.01zm-19.63 15.64c0.49,-4.93 1,-9.67 1.49,-14.26 -1.32,0.58 -2.54,1.17 -3.63,1.75 -1.41,3.67 -2.71,7.51 -3.86,11.5l0 0.26c2.07,0.23 4.08,0.49 6,0.75z"/>
  <rect class="fil1" x="-0" y="-0" width="1047.51" height="1047.51"/>
 </g>
</svg>
