<?xml version="1.0" encoding="UTF-8"?>
<!DOCTYPE svg PUBLIC "-//W3C//DTD SVG 1.1//EN" "http://www.w3.org/Graphics/SVG/1.1/DTD/svg11.dtd">
<!-- Creator: CorelDRAW 2019 (64-Bit) -->
<svg xmlns="http://www.w3.org/2000/svg" xml:space="preserve" width="486.713mm" height="486.713mm" version="1.1" style="shape-rendering:geometricPrecision; text-rendering:geometricPrecision; image-rendering:optimizeQuality; fill-rule:evenodd; clip-rule:evenodd"
viewBox="0 0 1142.93 1142.93"
 xmlns:xlink="http://www.w3.org/1999/xlink"
 xmlns:xodm="http://www.corel.com/coreldraw/odm/2003">
 <defs>
  <style type="text/css">
   <![CDATA[
    .fil1 {fill:none}
    .fil0 {fill:#332C2B;fill-rule:nonzero}
   ]]>
  </style>
 </defs>
 <g id="图层_x0020_1">
  <metadata id="CorelCorpID_0Corel-Layer"/>
  <path class="fil0" d="M92.79 464.99l6.94 3.56c9.38,-2.38 19.28,-3.56 29.76,-3.56 7.73,0 14.76,0.42 21.14,1.23 6.54,1.56 12.78,4.91 18.7,10.11 6.45,6.36 9.69,15.04 9.69,26.05l0 3.14c3.54,0.54 7.03,1.16 10.5,1.91l-3.96 20.86c-3.19,-0.44 -6.24,-0.91 -9.15,-1.35 -1.35,3.91 -3.1,7.26 -5.17,10.08 -8.1,11.55 -19.16,17.32 -33.16,17.32l-11.6 0c-14.93,0 -26.8,-2.96 -35.62,-8.85 -8.27,-7.29 -12.95,-17.02 -14.04,-29.2 -3.63,-0.28 -7.19,-0.47 -10.64,-0.56l3.68 -20.86c2.82,0 5.59,0.05 8.34,0.14 2.26,-10.38 7.13,-20.37 14.6,-30.04zm36.84 16.51c5.36,4 10.04,8.66 14.04,13.92l-3.96 3.96c6.01,0.72 11.92,1.54 17.74,2.47 -0.65,-6.1 -2.68,-10.73 -6.15,-13.92 -4.1,-3.82 -11.32,-5.96 -21.68,-6.43zm-8.2 15.83c-2.72,-2.44 -5.5,-4.91 -8.31,-7.36l7.5 -7.92c-5.38,1 -11.11,2.91 -17.18,5.73 -1.47,2.54 -2.65,5.19 -3.56,7.92 7.29,0.35 14.46,0.91 21.56,1.63zm33.55 26.61c-8.36,-1.09 -16.42,-2.1 -24.15,-3 3.82,3 7.19,6.31 10.11,9.97l-7.24 7.08 0.56 0c9.08,0 15.55,-3.59 19.37,-10.78 0.54,-1.16 1,-2.26 1.35,-3.26zm-30.15 14.04c-4.45,-4.1 -9.5,-8.27 -15.13,-12.55l5.87 -6.12c-5.82,-0.56 -11.5,-1.05 -17.04,-1.51 1.16,6.54 3.35,11.11 6.54,13.64 5.63,4.19 12.22,6.36 19.77,6.54zm-29.73 -114.46l18.02 11.46c-1.28,1.37 -2.42,2.65 -3.42,3.82 23.91,1.56 47.2,3.52 69.85,5.87l-2.05 22.38c-29.55,-2.44 -57.6,-4.77 -84.17,-6.94 -3.63,5.17 -7.06,10.45 -10.24,15.81l-19.77 -14.32c10.64,-15.02 21.24,-27.68 31.78,-38.07z"/>
  <path id="1" class="fil0" d="M268.67 423.52l8.99 5.59c8.57,-1.63 15.88,-2.44 21.98,-2.44 6.82,0 12.32,1.44 16.51,4.35 5.82,4.1 8.73,9.43 8.73,15.97 0,5.01 -2.77,9.15 -8.34,12.41 7.01,1.37 14.16,2.47 21.42,3.28l-3.4 15.83c-15.02,-1.75 -28.78,-4.28 -41.35,-7.66 -8.45,3.66 -18.32,7.52 -29.59,11.6 6.29,-0.72 12.46,-1.35 18.56,-1.91 -0.19,-1.26 -0.37,-2.44 -0.56,-3.54l20.89 -2.19c0.28,1.47 0.49,2.86 0.68,4.24 7.92,-0.37 15.69,-0.54 23.33,-0.54l1.51 14.32c-7.73,0 -15.25,0.14 -22.52,0.4 0.09,0.75 0.19,1.42 0.28,2.05 6.82,-0.26 13.55,-0.4 20.19,-0.4l1.09 13.09c-6.66,0 -13.02,0.09 -19.12,0.28 0.09,0.91 0.23,1.77 0.42,2.58 8.17,-0.35 16.23,-0.54 24.15,-0.54l1.49 14.6c-7.99,0 -15.76,0.14 -23.33,0.4 0.75,4.28 1.42,8.52 2.05,12.69l-16.23 1.91 1.09 4.77c-12.27,3.56 -23.91,5.33 -34.93,5.33l-5.87 0c-11.01,0 -20.42,-2.68 -28.24,-8.06 -8.55,-6.64 -12.83,-16.14 -12.83,-28.5 0,-11.29 1.65,-24.17 4.91,-38.63l21.17 4.77c-3.28,11.39 -4.91,21.42 -4.91,30.15 0,7.92 1.91,13.69 5.73,17.32 3.54,3.66 9.45,5.47 17.72,5.47 8.82,0 18.74,-1.47 29.76,-4.38 -0.09,-0.63 -0.23,-1.16 -0.42,-1.63 -10.27,0.81 -20.23,1.91 -29.87,3.28l-1.63 -14.74c9.9,-1.28 19.63,-2.28 29.2,-3 -0.19,-0.81 -0.33,-1.63 -0.42,-2.47 -7.54,0.65 -14.79,1.42 -21.7,2.33l-1.09 -13.09c6.92,-0.91 13.83,-1.65 20.75,-2.19 -0.19,-0.81 -0.33,-1.56 -0.42,-2.19 -8.17,0.63 -16,1.51 -23.45,2.58l-1.65 -13.09c-3.17,1.19 -6.26,2.33 -9.27,3.4l-6.54 -16.9c2.63,-0.72 5.22,-1.51 7.78,-2.33l-9.55 -6.82 -1.09 4.24c-7.47,-3.28 -14.74,-5.63 -21.84,-7.1l5.47 -18.56c8.64,1.47 15.9,3.66 21.82,6.57l-2.86 10.08c8.45,-12.83 16.93,-23.82 25.38,-33.02zm-9.29 42.17c3.47,-1 6.64,-2 9.55,-3 -2.17,-0.91 -4.17,-1.77 -5.98,-2.58 -1.19,1.91 -2.38,3.77 -3.56,5.59zm13.5 -18.7c6.75,2.63 13.64,4.96 20.75,6.96 2.54,-0.91 4.77,-1.86 6.68,-2.86 3.19,-1.19 4.77,-2.19 4.77,-3 0,-3.38 -3.05,-5.05 -9.13,-5.05 -7.64,0 -15.34,1.33 -23.07,3.96z"/>
  <path id="2" class="fil0" d="M399.12 438.68l7.1 20.33c-3.66,1.16 -7.29,2.4 -10.92,3.68 -3.28,25.92 -5.15,52.83 -5.59,80.77l-22.93 -2.05c0.19,-24.29 1.61,-47.62 4.24,-69.99 -2.19,0.72 -4.28,1.44 -6.29,2.19l-5.98 -20.61c14.09,-5.63 27.55,-10.41 40.37,-14.32zm9.69 1.21c7.64,0 15.23,0.09 22.77,0.28 0.84,-5.26 1.84,-10.31 3,-15.13l21.84 2.17c-1,4.66 -1.86,9.2 -2.58,13.64 8.8,0.28 17.49,0.7 26.06,1.23l-2.33 21.28c-8.82,-0.54 -17.56,-1 -26.19,-1.35 -0.19,2.82 -0.37,5.59 -0.54,8.31 10.08,-0.54 20.33,-1.28 30.69,-2.19l2.05 21.28c-10.73,0.91 -21.42,1.7 -32.06,2.33 0.28,2.54 0.54,5.05 0.81,7.5 8.45,-0.28 16.88,-0.4 25.24,-0.4l2.33 20.05c-8.92,0 -17.42,0.14 -25.52,0.42 0.28,2.44 0.54,4.84 0.81,7.22 9.73,-0.72 19.37,-1.58 28.92,-2.58l2.33 21.28c-28.38,3.1 -57.12,5.1 -86.22,6.01l-2.33 -21.42c11.55,-0.37 23.14,-0.91 34.79,-1.65 -0.26,-2.63 -0.54,-5.22 -0.82,-7.78 -8.92,0.75 -17.46,1.56 -25.64,2.47l-2.19 -20.33c8.73,-0.81 17.28,-1.51 25.64,-2.05 -0.16,-2.63 -0.4,-5.15 -0.68,-7.5 -9.27,0.44 -18.56,0.77 -27.82,0.95l-2.05 -21.42c9.83,-0.28 19.7,-0.65 29.59,-1.09 0.09,-3.47 0.28,-6.78 0.56,-9.97 -7.54,-0.19 -15.06,-0.33 -22.52,-0.4l2.05 -21.17z"/>
  <path id="3" class="fil0" d="M630.54 435.53l2.05 21.82c-9.29,0 -18.56,0.09 -27.82,0.28 -1.56,4.28 -2.96,8.55 -4.24,12.83l-21.42 -7.1c0.63,-1.72 1.23,-3.35 1.77,-4.91 -8.01,0.37 -15.95,0.77 -23.87,1.23 0.26,3 0.54,6.05 0.81,9.15l-22.91 2.17c-0.37,-3.26 -0.7,-6.5 -0.95,-9.69 -5.56,0.47 -11.06,0.91 -16.51,1.37l-2.19 -21.7c5.54,-0.54 11.13,-1.09 16.76,-1.63 -0.35,-3.1 -0.63,-6.19 -0.81,-9.29l22.93 -2.31c0.26,3.26 0.54,6.59 0.81,9.97 11.27,-0.65 22.68,-1.14 34.25,-1.51 1.44,-3.91 2.82,-7.64 4.07,-11.18l21.28 7.08c-0.44,1.28 -0.91,2.47 -1.35,3.56 5.73,-0.09 11.5,-0.14 17.32,-0.14zm-56.21 34.93c17.18,0 29.92,1.91 38.21,5.73 9.27,4.54 14.13,11.11 14.6,19.65l0 6.12c-0.09,10.73 -1.93,20.93 -5.47,30.57l-22.91 -3.68c3.63,-10.73 5.45,-19.7 5.45,-26.89 0,-3.82 -3.49,-6.4 -10.5,-7.78 -6.38,-0.91 -15.13,-1.35 -26.33,-1.35 1.63,17.56 3.59,36.07 5.87,55.53l-23.47 2.86c-2.26,-17.84 -4.21,-35.62 -5.87,-53.34 -6.54,1.91 -12.78,4.21 -18.67,6.94l-7.1 -22.38c18.09,-7.99 36.84,-11.99 56.21,-11.99z"/>
  <path id="4" class="fil0" d="M677.35 448.08c0.09,0.91 0.19,1.82 0.28,2.72 5.29,-1.82 10.36,-2.72 15.27,-2.72 5.38,0 9.92,1 13.64,3 3.91,2.63 5.87,8.22 5.87,16.76 0,16.65 -1.44,36.98 -4.35,61l-19.79 -3.42c1,-6.73 1.86,-13.27 2.58,-19.65 -3,0.28 -5.87,0.61 -8.59,0.95 0.75,8.48 1.51,17.07 2.33,25.8l-18.7 1.77c-2.63,-28.2 -5.01,-56.44 -7.1,-84.73l18.56 -1.49zm3.68 44.61c3.75,-0.63 7.47,-1.09 11.2,-1.37 0.19,-1.72 0.33,-3.4 0.42,-5.03 -4.1,-0.47 -8.15,-0.79 -12.15,-0.98 0.19,2.56 0.37,5.01 0.54,7.38zm-1.63 -21.56c4.73,0.09 9.38,0.33 13.92,0.68 -0.19,-5.26 -2,-7.89 -5.47,-7.89 -2.98,0.35 -5.94,1.3 -8.85,2.86 0.09,1.44 0.21,2.91 0.4,4.35zm38.88 -1.23c5.63,0.28 11.15,0.56 16.51,0.84 -0.28,-4.1 -0.54,-8.1 -0.81,-12.01l-14.46 7.22c-4.73,-6.17 -8.38,-13.27 -10.92,-21.28l16.93 -6.54c1.91,6.01 4.63,11.6 8.17,16.79 -0.54,-8.45 -1.09,-16.55 -1.63,-24.29l21.7 -2.19c1.07,14.02 2.17,28.62 3.26,43.8 8.2,0.54 16.21,1.19 24.01,1.91l-1.49 20.33c-7.19,-0.54 -14.18,-1.09 -21,-1.63 0.26,3.73 0.54,7.45 0.81,11.18 8.17,-0.63 16.37,-1.3 24.54,-2.05l2.19 22.38c-8.36,0.81 -16.74,1.56 -25.1,2.19 0.56,7.36 1.09,14.83 1.63,22.38l-21.96 2.33c-0.54,-8.01 -1.09,-15.79 -1.63,-23.33 -8.2,0.44 -16.32,0.77 -24.42,0.95l-2.33 -22.38c8.29,-0.28 16.69,-0.65 25.24,-1.09 -0.35,-4.91 -0.77,-9.73 -1.21,-14.46 -7.19,-0.56 -14.25,-1.05 -21.17,-1.51l3.14 -19.51zm49.25 -32.88l18.02 6.01c-3.63,8.01 -6.78,16.02 -9.41,24.01l-18.02 -5.98c3.54,-9.1 6.68,-17.11 9.41,-24.03z"/>
  <path id="5" class="fil0" d="M819.82 433.21c34.3,0 69.41,3.1 105.34,9.29l-4.24 23.05c-40.65,-5.29 -75.81,-8.41 -105.45,-9.41l4.35 -22.93zm93.86 45.31l2.86 23.45c-30.92,0 -62.03,1.82 -93.3,5.47l-2.86 -23.47c29.17,-3.63 60.28,-5.45 93.3,-5.45zm14.88 41.47l2.58 24.68c-38.65,0 -77.58,2 -116.77,6.01l-2.61 -24.68c36.39,-4 75.32,-6.01 116.79,-6.01z"/>
  <path id="6" class="fil0" d="M1053 426.13l7.64 21.4c-21.63,4.28 -44.05,8.82 -67.24,13.64 -0.47,3.82 -0.91,7.68 -1.37,11.6 28.83,-2.26 57.35,-3.4 85.55,-3.4l2.05 22.24c-10.36,0 -20.51,0.19 -30.43,0.54 2.72,17.84 5.59,36.93 8.59,57.3l-25.1 2.89c-3.35,-21.93 -6.31,-41.68 -8.87,-59.21 -11.74,0.54 -23.05,1.3 -33.97,2.31 -1.63,17.56 -2.63,35.39 -2.98,53.48l-24.03 -2.58c0.37,-31.67 2.65,-61.98 6.82,-91.02l-3.4 -11.71c30.46,-6.75 59.4,-12.57 86.76,-17.46z"/>
  <path id="7" class="fil0" d="M74.77 614.07c10.45,1.28 19.23,3.28 26.33,6.01l-6.54 22.38c-9.01,-3 -17.79,-5.19 -26.33,-6.54l6.54 -21.84zm-3.68 32.06l24.01 5.45c-4.82,9.73 -7.22,18.32 -7.22,25.8 0,6.54 2.03,11.32 6.12,14.32 3.82,3.19 10.2,4.77 19.12,4.77 6.36,0 13.18,-0.49 20.44,-1.49l-14.46 -5.05c2,-6.01 4.05,-11.74 6.15,-17.18 -8.1,-2.56 -15.6,-5.43 -22.52,-8.62l6.01 -20.58c7.92,3.26 16.14,6.08 24.7,8.45 3.35,-8.1 6.78,-15.74 10.22,-22.91 -12.36,1 -24.73,2.31 -37.11,3.93l-2.31 -20.72c8.64,-1.28 17.46,-2.33 26.45,-3.14 -1.16,-2.63 -2.17,-5.36 -2.98,-8.17l20.86 -8.34c1.54,5.19 3.63,10.2 6.26,15.02 9.01,-0.47 18.21,-0.7 27.57,-0.7l2.05 20.61c-8.01,0 -15.93,0.19 -23.75,0.56l7.38 2.31c-4,8.73 -7.92,17.74 -11.74,27.01 8.73,1.75 17.79,3.1 27.15,4.1l-4.49 21.84c-11.11,-1.28 -21.42,-2.91 -30.97,-4.91 -2,4.98 -3.91,9.99 -5.75,15 6.01,-1.09 12.29,-2.45 18.84,-4.1l4.38 20.07c-17.74,4.73 -34.53,7.08 -50.36,7.08l-6.4 0c-12.01,0 -22.28,-2.49 -30.83,-7.5 -9.38,-6.26 -14.06,-15.23 -14.06,-26.87 0,-10.45 2.42,-22.47 7.24,-36.02z"/>
  <path id="8" class="fil0" d="M270.16 593.21l9.83 9.13c19.02,3.19 37.56,7.1 55.67,11.74l-3.68 22.91c-21.47,-5.17 -42.84,-9.55 -64.12,-13.09 -12.2,10.08 -24.52,20.47 -36.98,31.11l-16.93 -15.41c19.56,-17.11 38.3,-32.57 56.21,-46.38zm14.32 38.86c3,24.56 6.24,51.48 9.71,80.77l-24.56 2.61c-3.73,-30.29 -7.01,-57.21 -9.83,-80.77l24.68 -2.61z"/>
  <path id="9" class="fil0" d="M477.03 600.29l1.63 15.83c-18.37,0 -36.74,0.33 -55.11,0.95 -0.72,1.37 -1.51,2.63 -2.33,3.82 16.28,-0.91 32.88,-1.37 49.8,-1.37l1.63 15.16c-20.28,0 -40.61,0.77 -60.98,2.31 -0.81,1.37 -1.63,2.75 -2.47,4.1 24.75,-1.63 50.32,-2.44 76.67,-2.44l1.65 16.37c-3.1,0 -6.15,0.05 -9.15,0.14 3,4.07 6.38,8.03 10.11,11.85l-12.97 6.29c1.72,3.82 2.61,9.27 2.61,16.37l0 2.33c0,6.36 -2.24,11.74 -6.71,16.09 -5.54,6.01 -18.18,9.01 -37.93,9.01l-12.67 0c-11.74,0 -21.33,-1.28 -28.8,-3.82 -9.17,-3.82 -13.78,-10.15 -13.78,-18.98 0,-1 0.05,-1.91 0.14,-2.72l-19.09 -6.54c4,-8.29 8.06,-16.28 12.13,-24.01 -3.17,0.26 -6.36,0.58 -9.55,0.95l-1.63 -16.37c6.92,-0.84 13.88,-1.56 20.86,-2.19 0.75,-1.47 1.47,-2.82 2.19,-4.1 -2.82,0.28 -5.54,0.54 -8.17,0.81l-1.77 -15.13c6.54,-0.81 13.13,-1.56 19.77,-2.19 0.91,-1.44 1.82,-2.91 2.72,-4.35 -8.73,0.44 -17.46,0.98 -26.19,1.63l-1.77 -15.97c12.74,-0.91 25.66,-1.63 38.74,-2.17 2.47,-3.56 4.82,-6.96 7.1,-10.24l21.96 6.4c-0.63,1 -1.21,1.96 -1.77,2.89 14.11,-0.47 28.48,-0.7 43.12,-0.7zm-81.59 65.36l2.17 0.54c13.39,-4.54 26.57,-6.82 39.58,-6.82 8.27,0 14.37,0.42 18.28,1.23 -1,-1.72 -1.96,-3.4 -2.86,-5.05 -17.84,0.56 -35.58,1.51 -53.2,2.86 -1.47,2.47 -2.79,4.87 -3.96,7.24zm40.24 9.41c-9.45,0 -18.56,1.42 -27.29,4.24 8.38,0.28 16.74,0.68 25.1,1.23l-1.77 15.95c-9.64,-0.72 -19.28,-1.19 -28.92,-1.35 1.09,1.54 2.42,2.68 3.96,3.4 3.73,1.91 11.36,2.86 22.91,2.86 5.75,0 10.73,-0.33 15.02,-0.95 3.19,-0.54 5.82,-1.82 7.92,-3.82 1.54,-1.19 2.4,-3.59 2.58,-7.24 0,-6.54 -1.54,-10.69 -4.63,-12.41 -2.1,-1.28 -7.06,-1.91 -14.88,-1.91z"/>
  <path id="10" class="fil0" d="M630.54 602.62l2.05 21.82c-9.29,0 -18.56,0.09 -27.82,0.28 -1.56,4.28 -2.96,8.55 -4.24,12.83l-21.42 -7.1c0.63,-1.72 1.23,-3.35 1.77,-4.91 -8.01,0.37 -15.95,0.77 -23.87,1.23 0.26,3 0.54,6.05 0.81,9.15l-22.91 2.17c-0.37,-3.26 -0.7,-6.5 -0.95,-9.69 -5.56,0.47 -11.06,0.91 -16.51,1.37l-2.19 -21.7c5.54,-0.54 11.13,-1.09 16.76,-1.63 -0.35,-3.1 -0.63,-6.19 -0.81,-9.29l22.93 -2.31c0.26,3.26 0.54,6.59 0.81,9.97 11.27,-0.65 22.68,-1.14 34.25,-1.51 1.44,-3.91 2.82,-7.64 4.07,-11.18l21.28 7.08c-0.44,1.28 -0.91,2.47 -1.35,3.56 5.73,-0.09 11.5,-0.14 17.32,-0.14zm-56.21 34.93c17.18,0 29.92,1.91 38.21,5.73 9.27,4.54 14.13,11.11 14.6,19.65l0 6.12c-0.09,10.73 -1.93,20.93 -5.47,30.57l-22.91 -3.68c3.63,-10.73 5.45,-19.7 5.45,-26.89 0,-3.82 -3.49,-6.4 -10.5,-7.78 -6.38,-0.91 -15.13,-1.35 -26.33,-1.35 1.63,17.56 3.59,36.07 5.87,55.53l-23.47 2.86c-2.26,-17.84 -4.21,-35.62 -5.87,-53.34 -6.54,1.91 -12.78,4.21 -18.67,6.94l-7.1 -22.38c18.09,-7.99 36.84,-11.99 56.21,-11.99z"/>
  <path id="11" class="fil0" d="M777.92 615.56l2.17 21.98c-21.91,0 -43.73,0.77 -65.47,2.31 -7.54,24.84 -14.51,49.85 -20.89,75.04l-22.91 -4.91c6.1,-24.29 12.22,-46.92 18.42,-67.94 -7.82,0.72 -15.6,1.56 -23.33,2.47l-2.05 -21.84c10.64,-1.35 21.47,-2.54 32.48,-3.54 2.72,-9.01 5.54,-17.65 8.45,-25.92l22.91 4.89c-2.17,6.47 -4.21,12.83 -6.12,19.12 7.45,-0.47 15,-0.82 22.63,-1.09 -3.17,-2.28 -6.54,-4.59 -10.08,-6.96l14.86 -15.95c8.48,4.26 15.53,9.73 21.17,16.37l-6.01 6.12c4.54,-0.09 9.13,-0.14 13.78,-0.14zm-53.62 30.04l23.47 5.45c-6.47,11.46 -9.69,23.28 -9.69,35.46 0,3.19 0.81,5.56 2.44,7.1 1.72,1.54 4.14,2.33 7.24,2.33 5.82,0 15.27,-2.19 28.38,-6.57l4.35 21.17c-14.65,3.98 -25.38,5.98 -32.2,5.98l-4.21 0c-7.19,0 -13.55,-1.68 -19.12,-5.03 -6.92,-4.73 -10.36,-12.48 -10.36,-23.19 0,-10.57 3.24,-24.8 9.69,-42.7z"/>
  <path id="12" class="fil0" d="M886.95 623.76c12.36,0 22.42,2.86 30.15,8.59 7.26,5.82 10.92,12.74 10.92,20.75l0 3.26c0,7.82 -1.28,18.11 -3.84,30.85 -2.91,13.18 -6.03,23.73 -9.41,31.64l-24.01 -4.91c4.63,-11.83 8.01,-22.86 10.11,-33.16 2.07,-9.55 3.12,-17.32 3.12,-23.33 0,-3.17 -1.82,-5.59 -5.45,-7.22 -4.28,-2 -9.97,-3 -17.04,-3 -3.84,0 -8.15,0.28 -12.97,0.82 -7.45,23.38 -14.37,46.99 -20.75,70.81l-24.01 -5.45c5.63,-21.28 11.36,-41.31 17.18,-60.03 -6.64,1.98 -13.32,4.54 -20.05,7.64l-8.06 -22.93c5.29,-2.35 14.41,-5.17 27.43,-8.45 2.91,-0.81 5.82,-1.49 8.73,-2.05 4.1,-12.36 8.2,-24.19 12.27,-35.46l24.03 5.59c-3.1,8.73 -6.1,17.56 -9.01,26.47 3.45,-0.28 7.01,-0.42 10.64,-0.42zm-63.71 -24.56c9.99,2.38 18.49,4.96 25.5,7.78l-6.01 20.07c-9.73,-3 -18.23,-5.52 -25.5,-7.52l6.01 -20.33zm53.88 62.35c7.82,4.38 14.37,10.01 19.65,16.93l-15.16 15.13c-5.45,-5.36 -11.85,-10.78 -19.23,-16.23l14.74 -15.83z"/>
  <path id="13" class="fil0" d="M1077.03 601.52l1.49 17.46 -12.97 0c-1.26,12.92 -2.12,26.01 -2.58,39.28 5.19,-0.07 10.22,-0.12 15.13,-0.12l1.51 18.67c-8.64,0 -17.23,0.09 -25.8,0.28 2.65,2.1 5.43,4.38 8.34,6.82l-12.97 12.97c-4,-3.91 -9.31,-8.24 -15.95,-12.97l6.4 -6.4c-6.01,0.26 -11.97,0.54 -17.86,0.81 -2.28,6.64 -4.1,13.55 -5.47,20.72l-19.09 -4.21c0.91,-5.38 2.14,-10.43 3.68,-15.16 -3.73,0.28 -7.4,0.61 -11.06,0.95 -1.26,5.1 -1.91,9.64 -1.91,13.64 0.09,2.56 1.33,4.24 3.7,5.05 2.98,1 8.73,1.51 17.18,1.51 5.82,0 13.6,-0.33 23.33,-0.95 14.9,-1.19 28.55,-2.51 40.93,-3.96l3.4 18.42c-12.01,1.44 -24.29,2.63 -36.84,3.54 -13.55,1 -24.19,1.49 -31.92,1.51l-5.87 0c-11.83,-0.02 -20.42,-1.84 -25.78,-5.47 -5.82,-3.63 -8.73,-9.31 -8.73,-17.04 0.09,-4.73 0.44,-9.43 1.07,-14.06 -1.98,0.19 -4.03,0.37 -6.12,0.56l-1.51 -18.7c5.19,-0.63 10.43,-1.19 15.69,-1.63 -0.72,-13.92 -1.4,-27.8 -2.05,-41.63 -3.91,0.28 -7.78,0.51 -11.6,0.7l-1.49 -17.46c4.17,-0.19 8.27,-0.37 12.27,-0.56 -0.09,-2.63 -0.19,-5.12 -0.28,-7.5l22.38 -2.33c0.09,2.91 0.23,5.87 0.42,8.87 16.37,-0.63 32.55,-1.09 48.57,-1.35 0.37,-2.91 0.72,-5.77 1.09,-8.59l22.38 2.31c-0.28,2 -0.51,4 -0.7,6.01l9.57 0zm-78.19 59.61c13.74,-0.98 27.62,-1.77 41.61,-2.31 0.37,-13.55 1.14,-26.75 2.33,-39.56 -15.93,0.26 -31.2,0.68 -45.85,1.21 0.09,1 0.14,1.96 0.14,2.86 10.64,0.19 21.24,0.75 31.78,1.65l-1.63 14.6c-9.92,-0.65 -19.75,-1.09 -29.48,-1.37 0.09,1.56 0.19,3.14 0.28,4.77 9.17,-0.72 18.23,-1.09 27.15,-1.09l1.49 14.2c-9.8,0 -19.14,0.3 -27.96,0.95 0.09,1.44 0.14,2.82 0.14,4.07z"/>
  <rect class="fil1" x="-0" y="-0" width="1142.93" height="1142.93"/>
 </g>
</svg>
