<?xml version="1.0" encoding="UTF-8"?>
<!DOCTYPE svg PUBLIC "-//W3C//DTD SVG 1.1//EN" "http://www.w3.org/Graphics/SVG/1.1/DTD/svg11.dtd">
<!-- Creator: CorelDRAW 2019 (64-Bit) -->
<svg xmlns="http://www.w3.org/2000/svg" xml:space="preserve" width="486.713mm" height="486.713mm" version="1.1" style="shape-rendering:geometricPrecision; text-rendering:geometricPrecision; image-rendering:optimizeQuality; fill-rule:evenodd; clip-rule:evenodd"
viewBox="0 0 1142.93 1142.93"
 xmlns:xlink="http://www.w3.org/1999/xlink"
 xmlns:xodm="http://www.corel.com/coreldraw/odm/2003">
 <defs>
  <style type="text/css">
   <![CDATA[
    .fil1 {fill:none}
    .fil0 {fill:#332C2B;fill-rule:nonzero}
   ]]>
  </style>
 </defs>
 <g id="图层_x0020_1">
  <metadata id="CorelCorpID_0Corel-Layer"/>
  <path class="fil0" d="M397.88 511.78l2.05 20.61c-16.46,0 -33.02,0.3 -49.66,0.95 -1.82,3 -3.49,5.96 -5.05,8.87l2.33 0c8.82,0 16.9,0.54 24.29,1.63 7.26,1.91 14.27,5.87 21,11.87 7.29,7.64 10.92,18 10.92,31.11l0 7.36c0,9.73 -3.19,17.51 -9.55,23.33 -9.73,9.45 -23.1,14.18 -40.12,14.18l-12.55 0c-16.28,0 -29.2,-2.49 -38.74,-7.5 -10.45,-7.17 -15.69,-17.18 -15.69,-30.01 0,-17.65 4.87,-34.6 14.6,-50.88l6.82 3.4c3.19,-0.72 6.38,-1.42 9.55,-2.05 2,-3.45 3.87,-6.78 5.61,-9.97 -10.38,0.56 -20.75,1.23 -31.11,2.05l-2.19 -20.58c33.46,-2.91 69.29,-4.38 107.5,-4.38zm-51.97 50.06c-8.38,0 -17.74,1.96 -28.1,5.87 -1.37,2.82 -2.42,5.68 -3.14,8.59 10.55,0.65 20.82,1.47 30.83,2.47l-1.63 19.23c-11.01,-1 -21.51,-1.91 -31.53,-2.72 1,6.1 3.47,10.18 7.38,12.27 5.82,3 12.95,4.52 21.42,4.52l8.17 0c11.27,0 19.33,-2.28 24.15,-6.82 3.56,-3.47 5.33,-7.87 5.33,-13.25 0,-9.99 -2.42,-17.42 -7.24,-22.24 -4.63,-4.63 -13.18,-7.26 -25.64,-7.92z"/>
  <path id="1" class="fil0" d="M549.48 540.16l2.33 19.09c-9.73,0 -19.28,0.19 -28.66,0.56 -0.63,1.91 -1.21,3.73 -1.77,5.45l2.05 0c9.92,0 18.02,2.1 24.29,6.26 6.01,5.82 9.01,12.74 9.01,20.75l0 4.38c-0.63,13.27 -2.63,24.96 -6.01,35.04l-20.86 -3.68c3.45,-8.17 5.45,-17.56 5.98,-28.1 0,-6.01 -1.02,-10.27 -3.12,-12.83 -2.91,-1.91 -6.96,-2.86 -12.15,-2.86 -1.63,0.09 -3.21,0.19 -4.77,0.28 -0.91,3.19 -1.72,6.38 -2.44,9.55 6.36,3.28 12.99,5.15 19.91,5.59l-4.35 18.42c-7.19,-0.07 -13.83,-1.54 -19.93,-4.35 -0.54,3 -1.05,5.96 -1.49,8.87l-18.98 -4.52c1.65,-10.36 3.63,-20.4 6.01,-30.13 -3.19,0.81 -6.24,1.72 -9.15,2.72 1.37,12.74 2.75,26.05 4.1,39.98l-19.51 2.31c-2.17,-20.65 -4.07,-39.23 -5.73,-55.79 -1.44,18.72 -2.31,37.88 -2.58,57.44l-20.05 -2.33c0.09,-6.54 0.21,-13.02 0.4,-19.37 -1.91,0.54 -3.73,1 -5.45,1.35l-5.47 -21.14c4.1,-1.19 8.06,-2.54 11.87,-4.1 0.28,-4.17 0.56,-8.36 0.81,-12.55 -4.07,-0.82 -8.13,-1.26 -12.13,-1.35l2.31 -20.89c3.91,0 7.75,0.37 11.48,1.09 0.35,-4.19 0.77,-8.27 1.21,-12.27 -2.26,0.28 -4.49,0.54 -6.68,0.82l-2.31 -20.05c15.72,-2 31.2,-3.61 46.38,-4.77 -0.72,-1.37 -1.42,-2.75 -2.05,-4.1l20.61 -8.06c1.82,3.63 4.12,7.1 6.96,10.36 15.9,-1 31.46,-1.58 46.64,-1.77l2.19 20.33c-30.83,0.19 -61.17,1.82 -90.99,4.91 -1,9.29 -1.86,18.7 -2.58,28.24l18.14 -2.19c0.19,1.47 0.33,2.86 0.42,4.24 5.63,-1.63 11.27,-2.91 16.9,-3.82 0.63,-2.19 1.28,-4.33 1.91,-6.4 -9.83,0.54 -19.7,1.3 -29.59,2.31l-2.05 -19.23c24.63,-2.44 50.97,-3.68 78.98,-3.68z"/>
  <path id="2" class="fil0" d="M699.18 513.82l2.17 22.52c-13.71,0 -27.36,0.19 -40.91,0.54l5.45 5.33c-6.36,5.73 -12.69,11.55 -18.95,17.46 5.17,4.73 9.22,9.85 12.13,15.41 0.19,0.26 0.37,0.54 0.54,0.81l5.19 -15.69c13.11,8.29 26.92,12.83 41.47,13.64l-5.45 22.91c-13.74,-0.16 -26.1,-3.35 -37.11,-9.55 0.72,3.73 1.09,7.87 1.09,12.41 0,10.92 -2.28,18.88 -6.82,23.89 -5.63,5.82 -12.83,8.73 -21.56,8.73 -8.08,0 -14.67,-0.56 -19.77,-1.63l-2.19 -22.38c7.1,1.16 13.11,1.77 18,1.77 3,0 5.29,-0.91 6.82,-2.72 2.1,-1.75 3.14,-4.66 3.14,-8.73 0,-5.75 -1.09,-10.57 -3.26,-14.46 -2.28,-3.66 -4.91,-6.87 -7.92,-9.71 -11.29,10.48 -22.52,21.07 -33.72,31.81l-17.46 -15.97c19.02,-19 37.44,-36.46 55.25,-52.39 -15.53,0.65 -31.18,1.61 -46.92,2.86l-2.33 -22.38c35.3,-3 73,-4.49 113.11,-4.49z"/>
  <path id="3" class="fil0" d="M766.86 524.33l7.1 20.05c-3.82,1.09 -7.64,2.19 -11.46,3.28 -3.19,24.47 -5.01,49.94 -5.45,76.4l-22.93 -2.05c0.19,-23.38 1.61,-45.87 4.24,-67.52 -1.63,0.47 -3.24,0.91 -4.77,1.37l-6.01 -20.61c13.74,-4.28 26.82,-7.92 39.28,-10.92zm51.32 -15.95c12.36,0 20.86,2.31 25.5,6.94 3.73,3.75 5.61,8.48 5.61,14.2l0 5.87c0,9.73 -2.24,16.51 -6.71,20.33 -2.07,1.91 -4.49,3.26 -7.22,4.1 5.19,0.35 9.69,1.68 13.5,3.93 4.63,2.75 6.96,6.24 6.96,10.52 -0.19,6.17 -1.68,13.13 -4.52,20.86l-12.41 -2.05c0.28,1.09 0.42,2.24 0.42,3.42 -0.19,4.35 -2.91,8.78 -8.2,13.23 -1.35,1.09 -2.63,2.05 -3.82,2.86 5.47,1.09 10.97,1.82 16.51,2.19l-4.49 18.14c-12.01,-0.19 -23.19,-2.14 -33.58,-5.87 -5.63,3.1 -11.55,6.1 -17.72,9.01l-10.38 -16.93c2.56,-0.82 5.01,-1.68 7.38,-2.58 -2,-1.37 -3.87,-2.68 -5.59,-3.96l2.86 -9.97 -3.42 -10.5 -13.23 1.51c-1.28,-11.74 -2.33,-22.17 -3.14,-31.25l19.51 -2.19c0.19,1.28 0.33,2.58 0.4,3.96 7.92,-1.44 15.69,-2.54 23.33,-3.28 -10.18,-0.54 -20.42,-1.82 -30.69,-3.82l3.28 -14.32c12.36,3 25.24,4.49 38.61,4.49 6.54,0 10.06,-0.86 10.5,-2.58 0.09,-0.19 0.19,-0.37 0.28,-0.54 -15.46,-1.75 -30.87,-2.7 -46.27,-2.86l1.65 -15.41c15.27,0 30.41,0.98 45.43,2.98 -0.28,-2 -0.72,-3.4 -1.37,-4.21 -1.09,-1.28 -4.45,-1.91 -10.08,-1.91 -9.64,0 -21.84,0.54 -36.58,1.63l-3.4 -14.32c12.74,-1.09 26.43,-1.63 41.07,-1.63zm-25.12 91.25c4.84,2.75 9.62,5.01 14.34,6.82 0.91,-0.44 1.72,-0.91 2.45,-1.35 5.47,-3.1 8.2,-5.19 8.2,-6.29 0,-0.54 -0.56,-1.05 -1.65,-1.49 -1.16,-0.37 -2.96,-0.56 -5.31,-0.56 -6.29,0.28 -12.27,1.23 -18.02,2.86zm-8.31 -15.13c9.55,-2.63 19.23,-3.96 29.06,-3.96 7.38,0 13.11,1.14 17.18,3.42 0.75,0.35 1.47,0.77 2.19,1.21 0.47,-1.35 0.68,-2.63 0.68,-3.82 0,-3.82 -3.26,-5.73 -9.8,-5.73 -14.55,0.28 -27.8,1.86 -39.72,4.77 0.19,1.37 0.33,2.72 0.42,4.1z"/>
  <rect class="fil1" x="-0" y="-0" width="1142.93" height="1142.93"/>
 </g>
</svg>
