<?xml version="1.0" encoding="UTF-8"?>
<!DOCTYPE svg PUBLIC "-//W3C//DTD SVG 1.1//EN" "http://www.w3.org/Graphics/SVG/1.1/DTD/svg11.dtd">
<!-- Creator: CorelDRAW 2019 (64-Bit) -->
<svg xmlns="http://www.w3.org/2000/svg" xml:space="preserve" width="486.713mm" height="486.713mm" version="1.1" style="shape-rendering:geometricPrecision; text-rendering:geometricPrecision; image-rendering:optimizeQuality; fill-rule:evenodd; clip-rule:evenodd"
viewBox="0 0 1047.51 1047.51"
 xmlns:xlink="http://www.w3.org/1999/xlink"
 xmlns:xodm="http://www.corel.com/coreldraw/odm/2003">
 <defs>
  <style type="text/css">
   <![CDATA[
    .fil1 {fill:none}
    .fil0 {fill:#332C2B;fill-rule:nonzero}
   ]]>
  </style>
 </defs>
 <g id="图层_x0020_1">
  <metadata id="CorelCorpID_0Corel-Layer"/>
  <path class="fil0" d="M314.22 538.32l19.38 4.5c-2.92,5.42 -4.37,9.88 -4.37,13.38 0,1.75 0.62,3.07 1.88,3.99 1.32,1 3.67,1.52 7,1.52 4.42,0 11.91,-1.52 22.51,-4.5l3.5 17.63c-11.35,3.24 -20.81,4.91 -28.38,4.99 -8.77,0 -15.26,-1.45 -19.53,-4.37 -4.16,-3.07 -6.49,-7.17 -7,-12.25 0,-9.58 1.66,-17.88 5.02,-24.88zm-27.51 -68.52c0.09,1.32 0.19,2.62 0.36,3.88 12.68,-5.01 25.84,-7.51 39.52,-7.51 9.33,0 16.92,2.41 22.75,7.26 5.59,6.49 8.39,14.3 8.39,23.39l0 5.12c-0.75,15 -3.09,28.25 -7,39.76l-21.51 -3.88c3.91,-9.67 6.25,-20.61 7,-32.89 0,-7.17 -0.92,-12.29 -2.75,-15.37 -2.41,-2.26 -5.7,-3.39 -9.88,-3.39 -12.91,0.6 -24.46,3.59 -34.64,9.01 0.92,9.75 1.88,19.8 2.88,30.13 4.59,-9.67 9.18,-18.69 13.74,-27.12l19.63 6c-11.91,23.26 -23.62,49.15 -35.13,77.66l-19.38 -6.51c4.42,-11.76 8.88,-22.79 13.38,-33.14l-11.4 1.13c-2.5,-26.93 -4.65,-50.81 -6.49,-71.64l20.51 -1.88z"/>
  <path id="1" class="fil0" d="M442.04 508.42c-7.51,-0.32 -14.68,-0.79 -21.51,-1.37 -2.43,22.26 -3.88,45.01 -4.37,68.27l-20.02 -2.11c0.43,-36.28 3.41,-70.91 9.01,-103.93l20.12 1.88c-0.06,0.6 -0.15,1.22 -0.23,1.88 17.33,-1.49 35.74,-2.28 55.27,-2.37 7.32,0 13.08,1.58 17.24,4.76 4.16,2.82 6.25,7.49 6.25,14 0,7.49 -2.09,12.55 -6.25,15.13 -2.92,2.16 -6.66,3.54 -11.25,4.12l8.88 3.14c-2.26,3.67 -4.29,7.26 -6.12,10.76 5.48,0.32 10.9,0.7 16.24,1.11l-1.49 16.01c-4.76,-0.23 -9.28,-0.49 -13.64,-0.75 0.17,1.84 0.34,3.67 0.51,5.51 5.59,-0.09 11.08,-0.13 16.5,-0.13l2.13 17.39c-5.59,0 -11.14,0.06 -16.62,0.23 0.49,5.42 1.02,10.84 1.62,16.26l-20.15 2.13c-0.58,-6.17 -1.15,-12.1 -1.75,-17.76 -7.58,0.32 -15.09,0.83 -22.49,1.49 -1.52,5.34 -2.88,10.76 -4.14,16.26l-20.12 -4.5c0.83,-3.5 1.62,-6.81 2.37,-9.88 -2.58,0.23 -5.16,0.49 -7.75,0.75l-2.01 -17.39c4.84,-0.58 9.62,-1.07 14.38,-1.49 1.26,-4.25 2.41,-8.22 3.5,-11.89 -4.82,-0.23 -9.67,-0.49 -14.49,-0.75l2.62 -16.01c3.24,0.09 6.49,0.21 9.75,0.38 -1.17,-2.26 -2.13,-4.55 -2.88,-6.87l10.88 -4.27zm-19.4 -20c-0.15,1.26 -0.28,2.37 -0.36,3.37 21.25,1.66 39.93,2.5 56.02,2.5 2.5,0 4.37,-0.32 5.61,-1 1.17,-0.41 1.77,-1.37 1.77,-2.86 0,-1.75 -0.6,-3.05 -1.77,-3.88 -1.9,-0.49 -3.91,-0.75 -6,-0.75 -14.08,0 -32.5,0.87 -55.27,2.62zm53.16 20.76c-9.6,-0.09 -18.67,-0.26 -27.27,-0.51 1.75,4.16 3.8,8.13 6.12,11.89 5.01,0.32 9.88,0.62 14.64,0.88 2.41,-4.59 4.59,-8.66 6.51,-12.25zm-5.38 35.87c-0.26,-2.5 -0.51,-4.91 -0.75,-7.26 -4.18,-0.23 -8.3,-0.45 -12.4,-0.62 -0.92,2.92 -1.79,5.85 -2.62,8.75 5.25,-0.32 10.52,-0.62 15.77,-0.87z"/>
  <path id="2" class="fil0" d="M597.85 481.17l6.87 1.62c3.18,-1.09 6.72,-1.92 10.63,-2.5 8.34,0 13.76,0.83 16.26,2.5 3.99,1.75 7.3,5.68 9.88,11.76 3.07,5.76 4.72,17.31 4.87,34.64 0,15.92 -1.75,27.42 -5.25,34.51 -5.42,10.35 -13.7,15.51 -24.88,15.51 -10.99,0 -19.04,-3.46 -24.14,-10.37 -4.91,-7.34 -7.36,-17.84 -7.36,-31.52 0,-19.33 4.37,-38.05 13.12,-56.15zm16.5 79.15c4.5,0 7.64,-2.24 9.39,-6.74 1.66,-4.67 2.5,-11.59 2.5,-20.76 0,-18.42 -0.88,-28.34 -2.62,-29.75 -1.34,-1.92 -2.84,-3.01 -4.5,-3.26 -1.92,-0.41 -3.5,-0.62 -4.76,-0.62 -1.24,0.41 -2.28,0.75 -3.12,1 -4.25,11.99 -6.38,23.67 -6.38,35 0,9.6 0.62,16.05 1.88,19.4 1.41,3.82 3.95,5.74 7.62,5.74zm-63.51 -94.64l20 4.48c-2.5,7.68 -4.69,14.68 -6.62,21.02 1.15,0.26 2.24,0.45 3.24,0.62 0.75,-2.84 1.49,-5.51 2.26,-8l19.12 3.88c-0.58,2.24 -1.17,4.42 -1.75,6.49 0.92,0.09 1.79,0.13 2.62,0.13l-4.99 20.38c-1.09,0 -2.13,-0.04 -3.14,-0.11 -3.41,13.08 -6.62,26.12 -9.62,39.14 4.91,1.98 9.35,3.54 13.25,4.61l-10.99 17.01c-2.09,-0.83 -4.27,-1.84 -6.51,-2.99 -0.66,3.07 -1.3,6.08 -1.88,9.01l-19.14 -4.14c1,-4.99 2.09,-9.88 3.26,-14.62 -3.5,-2.09 -7.13,-4.35 -10.88,-6.76 -4.91,-3.59 -7.38,-7.92 -7.38,-13 0,-5.1 2.52,-17.05 7.51,-35.89 -2.26,-0.83 -4.42,-1.75 -6.51,-2.75l6.64 -20.38c1.98,0.75 3.91,1.45 5.74,2.13 1.75,-6.34 3.67,-13.1 5.76,-20.25zm10.99 47.14c-1.24,-0.17 -2.5,-0.38 -3.73,-0.64 -4.27,15.09 -6.38,24.61 -6.38,28.51 0,1.58 0.7,3.01 2.11,4.25 2.67,-11.25 5.34,-21.96 8,-32.12z"/>
  <path id="3" class="fil0" d="M778.81 468.79l2.01 17.37c-18.76,0 -37.6,0.26 -56.53,0.77 -1.15,2.07 -2.24,4.08 -3.24,6 3.01,-0.17 5.95,-0.26 8.88,-0.26 12.51,0 21.13,0.83 25.89,2.5 8.66,2.09 15.04,6.1 19.12,12.01 4.27,4.67 6.38,13.59 6.38,26.76l0 3.37c0,10.33 -2.41,19.16 -7.26,26.5 -6,9.92 -19.74,14.87 -41.25,14.87l-14.51 0c-13.83,0 -25.14,-2.07 -33.89,-6.25 -10.76,-6 -16.13,-16.05 -16.13,-30.13 0,-13.66 4.05,-29.34 12.14,-47.01l11.25 2.39c2.5,-0.68 5.08,-1.26 7.75,-1.77 1.52,-2.9 2.92,-5.66 4.25,-8.24 -10.41,0.41 -20.87,0.96 -31.37,1.62l-1.88 -17.63c33.85,-1.92 69.97,-2.88 108.41,-2.88zm-50.38 40.89c-4.18,0 -8.26,0.26 -12.27,0.75 -0.32,1.09 -0.62,2.13 -0.87,3.14 4.67,0.41 9.26,0.96 13.76,1.62 0.34,-1.84 0.7,-3.67 1.13,-5.51l-1.75 0zm-1.52 17.63c-4.82,-0.58 -9.71,-1.15 -14.62,-1.75 -0.34,1.52 -0.62,2.88 -0.87,4.14 5.16,0.49 10.16,1.15 15,1.98 0.17,-1.58 0.34,-3.03 0.49,-4.37zm-1.62 16.39c-5.08,-0.66 -10.2,-1.34 -15.39,-2.01 -0.23,2.41 -0.41,4.8 -0.49,7.13l-15.13 -1.62c0.34,-11.76 2.13,-23.13 5.38,-34.14 -2.01,0.51 -3.97,1.05 -5.87,1.62 -3.01,7.85 -4.5,15.22 -4.5,22.15 0,9.75 2.54,16.33 7.62,19.74 5.08,3.41 15.6,5.14 31.52,5.14 7.26,0 13.47,-0.68 18.63,-2.01 4.08,-1.09 7.41,-3.93 9.99,-8.51 1.92,-2.67 3.05,-8.15 3.39,-16.5 0,-11.25 -2.62,-18.54 -7.87,-21.87 -1.43,-0.92 -3.8,-1.64 -7.13,-2.13 -3.18,14.6 -5.02,29.75 -5.51,45.52l-15 -1.39c0,-3.76 0.11,-7.45 0.36,-11.12z"/>
  <rect class="fil1" x="-0" y="-0" width="1047.51" height="1047.51"/>
 </g>
</svg>
