<?xml version="1.0" encoding="UTF-8"?>
<!DOCTYPE svg PUBLIC "-//W3C//DTD SVG 1.1//EN" "http://www.w3.org/Graphics/SVG/1.1/DTD/svg11.dtd">
<!-- Creator: CorelDRAW 2019 (64-Bit) -->
<svg xmlns="http://www.w3.org/2000/svg" xml:space="preserve" width="486.713mm" height="486.713mm" version="1.1" style="shape-rendering:geometricPrecision; text-rendering:geometricPrecision; image-rendering:optimizeQuality; fill-rule:evenodd; clip-rule:evenodd"
viewBox="0 0 1142.93 1142.93"
 xmlns:xlink="http://www.w3.org/1999/xlink"
 xmlns:xodm="http://www.corel.com/coreldraw/odm/2003">
 <defs>
  <style type="text/css">
   <![CDATA[
    .fil1 {fill:none}
    .fil0 {fill:#332C2B;fill-rule:nonzero}
   ]]>
  </style>
 </defs>
 <g id="图层_x0020_1">
  <metadata id="CorelCorpID_0Corel-Layer"/>
  <path class="fil0" d="M297.2 447.06c10.45,1.28 19.23,3.28 26.33,6.01l-6.54 22.38c-9.01,-3 -17.79,-5.19 -26.33,-6.54l6.54 -21.84zm-2.05 33.83l24.01 5.47c-4.73,9.55 -7.08,18.09 -7.08,25.64 0,6.54 2,11.32 6.01,14.32 3.82,3.1 10.13,4.66 18.95,4.66 9.92,0 21.24,-1.65 33.97,-4.91l4.35 20.33c-12.71,3.26 -24.77,4.91 -36.14,4.91l-6.43 0c-11.99,0 -22.28,-2.56 -30.83,-7.64 -9.27,-6.29 -13.92,-15.2 -13.92,-26.75 0,-10.55 2.37,-22.56 7.1,-36.02zm111.74 -38.33l2.19 22.49c-5.56,0 -11.06,0.09 -16.51,0.28 1.91,19.37 4,39.61 6.26,60.73l-22.91 2.31c-2.47,-22.28 -4.63,-42.94 -6.54,-61.94 -13.2,0.91 -26.29,2.28 -39.3,4.1l-2.31 -22.38c12.81,-2 25.92,-3.42 39.28,-4.24 -0.54,-5.17 -1.05,-10.13 -1.49,-14.86l22.91 -2.33c0.54,5.36 1.09,10.73 1.63,16.09 5.63,-0.16 11.25,-0.26 16.79,-0.26zm-62.75 34.51c8.45,5.19 15.6,11.87 21.42,20.05l-14.88 14.88c-5.73,-6.64 -12.6,-13.41 -20.61,-20.33l14.06 -14.6z"/>
  <path id="1" class="fil0" d="M492.59 426.2l9.83 9.13c19.02,3.19 37.56,7.1 55.67,11.74l-3.68 22.91c-21.47,-5.17 -42.84,-9.55 -64.12,-13.09 -12.2,10.08 -24.52,20.47 -36.98,31.11l-16.93 -15.41c19.56,-17.11 38.3,-32.57 56.21,-46.38zm14.32 38.86c3,24.56 6.24,51.48 9.71,80.77l-24.56 2.61c-3.73,-30.29 -7.01,-57.21 -9.83,-80.77l24.68 -2.61z"/>
  <path id="2" class="fil0" d="M593.17 430.69l37.93 0c-0.19,-1.19 -0.33,-2.33 -0.4,-3.42l22.35 -2.17c0.19,2 0.42,3.86 0.7,5.59l47.34 0 -1.63 16.9 -43.66 0c0.09,0.84 0.16,1.65 0.26,2.47 11.74,-0.28 23.52,-0.58 35.35,-0.95l1.63 14.88c-11.74,0.35 -23.47,0.68 -35.21,0.95 0.09,0.72 0.19,1.49 0.28,2.31 14.65,-0.63 29.38,-1.35 44.22,-2.19l1.63 16.39c-9.45,0.54 -18.84,1.05 -28.1,1.49 1.82,0.63 3.63,1.28 5.45,1.91 6.73,2.47 10.11,5.68 10.11,9.69 0,2.91 -0.56,5.29 -1.63,7.1 4.73,6.01 7.08,11.46 7.08,16.37 -0.19,4.19 -2.49,7.1 -6.96,8.73 6.38,3.45 11.74,7.64 16.11,12.55l-14.6 14.6c-5.45,-4.54 -11.87,-9.24 -19.23,-14.06l10.92 -11.32c-7.66,1.28 -16.74,2.05 -27.29,2.33 0.54,6.36 1.12,12.99 1.77,19.91l-22.52 2.19c-0.72,-8.1 -1.37,-15.41 -1.91,-21.96 -10.36,-0.19 -17.98,-0.79 -22.8,-1.79 -7.82,-1.91 -11.71,-4.54 -11.71,-7.89 0.07,-6.01 2.72,-11.57 7.89,-16.65 -2.45,-2.38 -3.68,-5.05 -3.68,-8.06 0,-2.44 2.68,-5.19 8.06,-8.2 2.28,-1.07 4.54,-2.17 6.82,-3.26 -9.1,0.19 -18.23,0.35 -27.43,0.54l-1.63 -16.23c15.46,-0.28 31.06,-0.72 46.8,-1.37 -0.09,-0.91 -0.19,-1.77 -0.28,-2.58 -12.2,0.28 -24.38,0.47 -36.56,0.54l-1.79 -14.58c12.11,-0.28 24.29,-0.56 36.58,-0.84 -0.19,-1 -0.33,-2 -0.42,-3l-42.7 0 2.86 -16.9zm31.39 80.35c-0.28,0.47 -0.42,0.77 -0.42,0.95 0,1.09 0.91,1.91 2.72,2.47 2.47,0.44 9.06,0.68 19.79,0.68 8.1,0 15.09,-0.56 21,-1.63 2.28,-0.56 3.42,-1.75 3.42,-3.56 -8.64,1 -21.14,1.51 -37.51,1.51 -3.28,0 -6.29,-0.14 -9.01,-0.42zm9.55 -13.37c16.83,0 27.43,-0.81 31.78,-2.47 1.72,0 2.61,-0.58 2.61,-1.77 0,-0.54 -6.96,-1.49 -20.89,-2.86 -12.18,2 -19.47,3.63 -21.82,4.91 0,1.47 2.77,2.19 8.31,2.19zm-39.84 32.2l20.75 2.17c-1.56,6.66 -2.33,13.06 -2.33,19.26l-20.61 -2.33c0,-6.45 0.75,-12.83 2.19,-19.09z"/>
  <path id="3" class="fil0" d="M852.97 435.6l2.05 21.82c-9.29,0 -18.56,0.09 -27.82,0.28 -1.56,4.28 -2.96,8.55 -4.24,12.83l-21.42 -7.1c0.63,-1.72 1.23,-3.35 1.77,-4.91 -8.01,0.37 -15.95,0.77 -23.87,1.23 0.26,3 0.54,6.05 0.81,9.15l-22.91 2.17c-0.37,-3.26 -0.7,-6.5 -0.95,-9.69 -5.56,0.47 -11.06,0.91 -16.51,1.37l-2.19 -21.7c5.54,-0.54 11.13,-1.09 16.76,-1.63 -0.35,-3.1 -0.63,-6.19 -0.81,-9.29l22.93 -2.31c0.26,3.26 0.54,6.59 0.81,9.97 11.27,-0.65 22.68,-1.14 34.25,-1.51 1.44,-3.91 2.82,-7.64 4.07,-11.18l21.28 7.08c-0.44,1.28 -0.91,2.47 -1.35,3.56 5.73,-0.09 11.5,-0.14 17.32,-0.14zm-56.21 34.93c17.18,0 29.92,1.91 38.21,5.73 9.27,4.54 14.13,11.11 14.6,19.65l0 6.12c-0.09,10.73 -1.93,20.93 -5.47,30.57l-22.91 -3.68c3.63,-10.73 5.45,-19.7 5.45,-26.89 0,-3.82 -3.49,-6.4 -10.5,-7.78 -6.38,-0.91 -15.13,-1.35 -26.33,-1.35 1.63,17.56 3.59,36.07 5.87,55.53l-23.47 2.86c-2.26,-17.84 -4.21,-35.62 -5.87,-53.34 -6.54,1.91 -12.78,4.21 -18.67,6.94l-7.1 -22.38c18.09,-7.99 36.84,-11.99 56.21,-11.99z"/>
  <path id="4" class="fil0" d="M353.55 614.96c1.91,-6.64 3.91,-12.92 6.01,-18.81l22.91 4.91c-1.54,4.54 -3,9.03 -4.35,13.5 7.08,0.91 13.18,3.49 18.28,7.78 6.73,5.63 10.08,12.69 10.08,21.14 -0.26,11.64 -2.44,24.54 -6.54,38.74l-24.56 -4.24c4.38,-9.27 6.57,-18.05 6.57,-26.33 0,-7.54 -3.56,-12.36 -10.64,-14.46 -4,13.92 -7.73,28.01 -11.2,42.31l-23.05 -4.91c3.38,-13.3 6.73,-25.85 10.11,-37.65 -7.47,0.72 -14.6,1.86 -21.42,3.4 -3.38,12.36 -5.05,24.91 -5.05,37.65 0,6.29 2,10.92 6.01,13.92 4.07,3.1 9.9,4.63 17.46,4.63 12.81,0 33.74,-2.72 62.75,-8.17l4.49 21.14c-30.36,5.08 -52.6,7.64 -66.71,7.64l-6.26 0c-10.2,0 -19.3,-2.24 -27.29,-6.68 -9.92,-6.1 -14.88,-16.25 -14.88,-30.43 0,-9.01 1.33,-19.51 3.96,-31.5 -2.19,0.82 -4.24,1.68 -6.15,2.58l-7.78 -21.84c7.01,-2.35 13.88,-4.45 20.61,-6.26 1.82,-6.1 3.91,-12.36 6.29,-18.84l24.4 5.47c-1.26,2.63 -2.49,5.17 -3.68,7.64 6.64,-1.09 13.2,-1.86 19.65,-2.33z"/>
  <path id="5" class="fil0" d="M470.78 610.18l8.31 17.46c-10.08,4.28 -21.24,8.82 -33.41,13.64l-8.62 -18c11.92,-5.19 23.17,-9.57 33.72,-13.11zm3.82 27.96l6.96 18.98c1.26,-11.92 3.31,-24.24 6.12,-36.98 -0.63,0.19 -1.3,0.35 -2.05,0.54l-3.94 -18c14.18,-4.1 28.73,-6.29 43.66,-6.54 9.64,0 17.42,2.4 23.31,7.22 5.56,4.54 8.34,12.36 8.34,23.47l0 9.83c0,10.73 -2.51,18.05 -7.5,21.96 -2.82,2 -6.01,3.47 -9.57,4.38 3.56,0.81 6.87,2.31 9.97,4.49 6.64,4.54 9.97,10.22 9.97,17.04 0,4.1 -1.09,7.78 -3.28,11.06 1.28,0.19 2.56,0.33 3.82,0.42l-2.31 20.58c-4.56,0 -11.34,-1.21 -20.33,-3.68 -1.09,-0.35 -2.19,-0.77 -3.28,-1.23 -6.1,2.19 -12.6,3.28 -19.51,3.28 -11.36,0 -20.23,-2.63 -26.59,-7.92 -5.47,-5.26 -8.2,-13.69 -8.2,-25.24 0,-7.82 0.42,-15.81 1.23,-24.01 -3.82,1.28 -7.68,2.58 -11.6,3.96 0.91,12.92 2,26.52 3.26,40.79l-21.96 2.05c-1,-11.83 -1.86,-23.56 -2.58,-35.21 -2.47,0.82 -4.87,1.68 -7.24,2.58l-6.01 -20.33c13.83,-5.26 26.94,-9.78 39.3,-13.5zm36.16 -23.33c-0.56,2.19 -1,4.33 -1.37,6.43 7.36,0.54 14.55,1.21 21.56,2.05l-1.77 17.46c-8.1,-0.75 -15.93,-1.37 -23.47,-1.91 -0.37,2.07 -0.7,4.12 -0.95,6.12 6.45,0.91 12.6,1.51 18.42,1.77 4.54,0 7.92,-0.77 10.08,-2.31 2.1,-1.37 3.14,-4.56 3.14,-9.55 0,-9.38 -1.72,-15.41 -5.19,-18.16 -2.26,-1.72 -6.22,-2.58 -11.85,-2.58 -2.38,0 -5.24,0.23 -8.59,0.68zm-8.34 48.43c-0.81,7.82 -1.33,15.3 -1.49,22.38 0,3.47 0.91,6.05 2.72,7.78 2.19,2 4.91,3.05 8.17,3.14 -2.17,-3.45 -3.26,-6.96 -3.26,-10.5 0,-5.91 2.1,-11.36 6.26,-16.37 1.82,-2.1 3.82,-3.73 6.01,-4.91 -6.26,-0.09 -12.41,-0.61 -18.42,-1.51zm31.11 17.35c-1.19,0 -2.28,0.54 -3.28,1.63 -0.72,1 -1.07,2.28 -1.07,3.82 0,1.28 1.72,2.72 5.17,4.35 3.1,-2 4.63,-3.96 4.63,-5.87 0,-1.07 -0.49,-2.03 -1.49,-2.86 -1.28,-0.72 -2.58,-1.07 -3.96,-1.07z"/>
  <path id="6" class="fil0" d="M675.43 622.34c-25.36,-2.56 -50.6,-4.77 -75.72,-6.71l3.82 -21.82c32.85,2.19 65.01,5.15 96.47,8.87l-3.68 21.82c-5.29,-0.63 -10.34,-1.16 -15.16,-1.63 1,7.29 2.05,14.79 3.14,22.52 7.19,-0.19 14.41,-0.28 21.7,-0.28l2.31 22.52c-6.99,0 -13.95,0.09 -20.86,0.28 2,14.18 4,28.83 6.01,43.91l-23.89 2.61c-2.35,-16.21 -4.49,-31.43 -6.4,-45.71 -12.01,0.54 -24.05,1.35 -36.16,2.44 -3.63,13.02 -6.78,26.57 -9.41,40.65l-23.33 -5.45c2,-11.27 4.38,-22.19 7.1,-32.74 -4.56,0.44 -9.1,0.95 -13.64,1.49l-2.33 -22.38c7.54,-1 15.11,-1.86 22.66,-2.58 3.1,-9.36 6.45,-18.51 10.08,-27.43l23.47 5.47c-2.63,6.36 -5.1,12.85 -7.36,19.49 8.55,-0.72 17.09,-1.26 25.64,-1.63 -1,-7.54 -1.96,-14.74 -2.86,-21.56l18.42 -2.17z"/>
  <path id="7" class="fil0" d="M747.09 621.64l23.47 8.2c-6.38,15.74 -11.83,31.41 -16.37,47.06l-23.47 -8.31c6.1,-17.84 11.55,-33.48 16.37,-46.94zm32.06 2.86l26.33 6.01c-7.64,15.65 -11.46,32.53 -11.46,50.62 0,5.73 1.3,9.55 3.96,11.46 2.63,2.28 7.68,3.42 15.13,3.42 9.45,0 19.95,-2.77 31.53,-8.34l4.91 22.38c-11.29,5.19 -23.12,7.78 -35.48,7.78l-6.68 0c-12.01,0 -21.42,-2.31 -28.24,-6.96 -7.64,-5.36 -11.46,-14.13 -11.46,-26.33 0,-18.81 3.82,-38.84 11.46,-60.03zm44.89 14.6c12.83,3.19 23.68,6.68 32.6,10.5l-6.54 21.84c-12.55,-4.19 -23.42,-7.64 -32.6,-10.36l6.54 -21.98zm-19.12 -40.93c11.2,2 21.89,4.56 32.06,7.66l-6.4 21.28c-11.01,-3.56 -21.77,-6.24 -32.34,-8.06l6.68 -20.89z"/>
  <rect class="fil1" x="-0" y="-0" width="1142.93" height="1142.93"/>
 </g>
</svg>
