<?xml version="1.0" encoding="UTF-8"?>
<!DOCTYPE svg PUBLIC "-//W3C//DTD SVG 1.1//EN" "http://www.w3.org/Graphics/SVG/1.1/DTD/svg11.dtd">
<!-- Creator: CorelDRAW 2019 (64-Bit) -->
<svg xmlns="http://www.w3.org/2000/svg" xml:space="preserve" width="486.713mm" height="486.713mm" version="1.1" style="shape-rendering:geometricPrecision; text-rendering:geometricPrecision; image-rendering:optimizeQuality; fill-rule:evenodd; clip-rule:evenodd"
viewBox="0 0 1047.51 1047.51"
 xmlns:xlink="http://www.w3.org/1999/xlink"
 xmlns:xodm="http://www.corel.com/coreldraw/odm/2003">
 <defs>
  <style type="text/css">
   <![CDATA[
    .fil1 {fill:none}
    .fil0 {fill:#332C2B;fill-rule:nonzero}
   ]]>
  </style>
 </defs>
 <g id="图层_x0020_1">
  <metadata id="CorelCorpID_0Corel-Layer"/>
  <path class="fil0" d="M372.6 393.93l1.52 15.51c-22.68,0 -45.48,1.37 -68.4,4.12l-1.62 -15.64c21.4,-2.67 44.26,-3.99 68.5,-3.99zm-56.38 54.65c0.09,1.07 0.21,2.2 0.36,3.37 11.1,-2.67 22.51,-4.01 34.27,-4.01 7.83,0 14.3,1.84 19.38,5.51 4.67,5.16 7,11.2 7,18.14l0 3.86c-0.41,11.5 -1.79,21.68 -4.12,30.52l-17.01 -2.88c2.33,-7.34 3.71,-15.75 4.12,-25.25 0,-5.1 -0.83,-8.77 -2.5,-11.01 -0.26,-0.17 -0.49,-0.3 -0.75,-0.38 -1.75,3.59 -3.37,7.17 -4.87,10.76 1.32,-0.09 2.67,-0.13 3.99,-0.13l1.49 13.38c-2.99,0 -5.91,0.04 -8.75,0.13 0.43,4.5 0.87,9.13 1.39,13.89l-16.52 1.49c-0.58,-4.76 -1.09,-9.5 -1.49,-14.26 -2.75,0.26 -5.46,0.53 -8.13,0.87l-1.37 -13.64c1.49,-0.15 3.07,-0.32 4.74,-0.49 -2.16,-2.18 -4.46,-4.29 -6.87,-6.38l4.63 -4.87c-2.35,0.49 -4.63,1.07 -6.89,1.75 1.26,11.5 2.56,23.5 3.88,36l-16.5 1.49c-1.09,-9.41 -2.09,-18.42 -3.01,-27 -0.49,0.58 -0.96,1.13 -1.37,1.62 -4.01,3.99 -8.77,6 -14.26,6l-1.64 0c0.6,4.93 1.13,9.92 1.64,15l-17.88 2.01c-2.84,-24.75 -5.38,-46.76 -7.64,-66.03l18.14 -2.11c0.49,4.42 1,8.88 1.49,13.38 0.26,-0.51 0.55,-0.96 0.88,-1.39 0.75,-1.58 1.62,-3.76 2.62,-6.49 0.68,-2.18 1,-4.23 1,-6.15 0,-4.48 -1.24,-6.74 -3.76,-6.74 -4.91,0 -10.2,1.84 -15.88,5.51l-1.88 -18.14c8.51,-2.9 15.92,-4.37 22.26,-4.37 5.1,0 9.18,1.71 12.27,5.12 3.59,4.42 5.38,9.13 5.38,14.15 0,5.74 -2.01,11.99 -6.02,18.74 0.6,0.43 1.13,0.79 1.62,1.13 -0.06,-0.26 -0.11,-0.45 -0.11,-0.62l16.62 -1.49zm-34.14 8.88c0.43,4.08 0.87,8.24 1.39,12.48 0.83,0.09 1.58,0.13 2.24,0.13 0.75,0 1.49,-0.53 2.26,-1.62 0.75,-0.83 1.11,-1.79 1.11,-2.88 0,-1.32 -0.28,-2.58 -0.87,-3.73 -0.75,-1.09 -1.75,-1.84 -2.99,-2.26 -1.43,-0.58 -2.45,-1.28 -3.14,-2.11zm51.64 20.49c1.75,-0.15 3.46,-0.23 5.12,-0.23 2.09,-4.84 3.97,-9.13 5.63,-12.89 -4.33,0.26 -8.41,0.64 -12.25,1.13 2.41,2.01 4.59,4.33 6.51,7l-5.02 4.99zm-18.12 -63.02l6.87 1.75c5.83,-1.41 11.59,-2.16 17.24,-2.24 5.68,0 10.67,0.21 15.02,0.62 3.91,0.26 7.66,1.52 11.25,3.76 3.84,1.66 5.74,6.55 5.74,14.64l0 1.62c0,3.67 -2.86,6.57 -8.62,8.75 -5.16,2.09 -12.68,3.12 -22.51,3.12l-2.62 0c-11.5,0 -19.87,-1.54 -25.12,-4.61 -3.76,-2.35 -5.63,-5.8 -5.63,-10.39 0,-5.57 2.8,-11.25 8.39,-17.01zm23.62 12.01c-2.33,0 -6.96,1.71 -13.87,5.12 0.32,0.51 0.83,0.88 1.49,1.13 2.16,0.92 6.12,1.37 11.89,1.37 6.17,0 10.37,-0.28 12.61,-0.87 2.26,-0.58 3.39,-1.49 3.39,-2.75 -0.43,-2.07 -2.35,-3.24 -5.76,-3.5 -3.5,-0.32 -6.74,-0.49 -9.75,-0.49z"/>
  <path id="1" class="fil0" d="M480.55 460.58c8.58,0 15.96,1.84 22.13,5.51 5.51,3.67 8.32,8.96 8.49,15.88l0 1.62c-0.49,9.18 -2.5,17.67 -6,25.52l-19.89 -4.14c1.43,-2.75 2.54,-5.21 3.39,-7.38l-13.38 6.51c-1.34,-1.84 -2.52,-3.59 -3.52,-5.25 -7.92,2.75 -14.45,4.16 -19.61,4.25l-2.65 0c-5.25,0 -10.03,-1.75 -14.36,-5.25 -3.35,-2.75 -5.01,-6.51 -5.01,-11.25 0,-0.83 0.04,-1.52 0.13,-2.01 -3.33,0.92 -6.38,1.79 -9.13,2.62 1.17,4.93 2.52,9.88 4.01,14.87l-18.37 6.02c-3.67,-11.76 -6.38,-23.94 -8.13,-36.51l18.63 -5.51c0.17,1.09 0.28,2.07 0.36,2.99 5.19,-1.32 10.93,-2.58 17.26,-3.73 0.92,-2.58 2.05,-5.14 3.37,-7.64 -2.01,-0.09 -3.86,-0.19 -5.61,-0.36 -9.52,-0.83 -16.3,-2.35 -20.4,-4.5 -6.74,-3.01 -10.12,-7.43 -10.12,-13.25 0,-6.59 2.33,-13.94 7,-22.02l16.01 3.88c-3.16,4.08 -5.51,8.62 -7,13.64 0,2.67 2.01,4.65 6,6 0.83,0.26 1.96,0.45 3.37,0.62l-2.86 -6.62c3.16,-1.17 6.23,-2.39 9.24,-3.63 -2.67,-0.66 -5.21,-1.3 -7.62,-1.88l3.86 -12.01c8,1.92 15.73,4.1 23.13,6.51 4.42,-1.75 8.73,-3.46 12.89,-5.12 -24.26,-1.92 -46.05,-3.09 -65.41,-3.5l2.88 -16.01c13.17,0 26.42,0.36 39.76,1.13 -0.41,-1.09 -0.79,-2.09 -1.11,-3.01l16.01 -6.51c1.24,3.84 2.95,7.43 5.12,10.76 15,1.09 30.09,2.67 45.26,4.76l-3.01 16.01c-2.24,-0.26 -4.5,-0.47 -6.74,-0.64 3.5,6.51 5.25,12.85 5.25,19.01 0,5.08 -2.28,9.05 -6.87,11.89 -5.68,3.76 -15.39,5.61 -29.13,5.61l-5.63 0c-1.26,0 -2.54,0 -3.88,0 -0.66,1.17 -1.24,2.26 -1.75,3.26 7.43,-0.75 15.3,-1.13 23.64,-1.13zm-30.52 19.63c-0.09,0.58 -0.17,1.05 -0.26,1.37 0,2.58 1.96,3.88 5.89,3.88 1.32,0 4.29,-0.75 8.88,-2.24 -0.51,-1.26 -0.96,-2.52 -1.39,-3.76l2.62 -1c-4.82,0.41 -10.07,1 -15.75,1.75zm31.01 -2.01c2.18,5.93 4.99,11.46 8.49,16.65 1.17,-3.44 1.77,-6.38 1.77,-8.9 -0.26,-2.82 -1.43,-4.91 -3.52,-6.25 -1.98,-0.83 -4.25,-1.32 -6.74,-1.49zm-37.26 -35.51c5.51,0.17 11.97,0.26 19.38,0.26 1.84,0 3.5,-0.04 5.01,-0.13 -4.35,-1.66 -8.56,-3.2 -12.63,-4.63 -3.76,1.49 -7.68,3.01 -11.76,4.5zm35.64 -0.62c2.75,-0.43 4.72,-1 5.87,-1.75 1.92,-1 2.88,-2.62 2.88,-4.89 0,-1.66 -2.01,-5.34 -6,-10.99l12.12 -3.01c-5.51,-0.58 -10.8,-1.09 -15.88,-1.49l3.37 7.62c-2.67,1.09 -5.55,2.26 -8.62,3.5 2.92,1.17 5.78,2.35 8.62,3.5l-2.37 7.51z"/>
  <path id="2" class="fil0" d="M642.24 422.57l2.13 17.5c-8.92,0 -17.67,0.17 -26.27,0.51 -0.58,1.75 -1.11,3.41 -1.62,4.99l1.88 0c9.09,0 16.52,1.92 22.26,5.74 5.51,5.34 8.26,11.67 8.26,19.01l0 4.01c-0.58,12.16 -2.41,22.88 -5.51,32.12l-19.12 -3.37c3.16,-7.49 4.99,-16.09 5.48,-25.76 0,-5.51 -0.94,-9.41 -2.86,-11.76 -2.67,-1.75 -6.38,-2.62 -11.14,-2.62 -1.49,0.09 -2.95,0.17 -4.37,0.26 -0.83,2.92 -1.58,5.85 -2.24,8.75 5.83,3.01 11.91,4.72 18.25,5.12l-3.99 16.88c-6.59,-0.06 -12.68,-1.41 -18.27,-3.99 -0.49,2.75 -0.96,5.46 -1.37,8.13l-17.39 -4.14c1.52,-9.5 3.33,-18.69 5.51,-27.61 -2.92,0.75 -5.72,1.58 -8.39,2.5 1.26,11.67 2.52,23.88 3.76,36.64l-17.88 2.11c-1.98,-18.93 -3.73,-35.96 -5.25,-51.13 -1.32,17.16 -2.11,34.72 -2.37,52.65l-18.37 -2.13c0.09,-6 0.19,-11.93 0.36,-17.76 -1.75,0.49 -3.41,0.92 -4.99,1.24l-5.01 -19.38c3.76,-1.09 7.38,-2.33 10.88,-3.76 0.26,-3.82 0.51,-7.66 0.75,-11.5 -3.73,-0.75 -7.45,-1.15 -11.12,-1.24l2.11 -19.14c3.59,0 7.11,0.34 10.52,1 0.32,-3.84 0.7,-7.58 1.11,-11.25 -2.07,0.26 -4.12,0.49 -6.12,0.75l-2.11 -18.37c14.4,-1.84 28.6,-3.31 42.51,-4.37 -0.66,-1.26 -1.3,-2.52 -1.88,-3.76l18.89 -7.38c1.66,3.33 3.78,6.51 6.38,9.5 14.58,-0.92 28.83,-1.45 42.74,-1.62l2.01 18.63c-28.25,0.17 -56.06,1.66 -83.4,4.5 -0.92,8.51 -1.71,17.14 -2.37,25.89l16.62 -2.01c0.17,1.34 0.3,2.62 0.38,3.88 5.16,-1.49 10.33,-2.67 15.49,-3.5 0.58,-2.01 1.17,-3.97 1.75,-5.87 -9.01,0.49 -18.05,1.2 -27.12,2.11l-1.88 -17.63c22.58,-2.24 46.71,-3.37 72.39,-3.37z"/>
  <path id="3" class="fil0" d="M774.95 396.07l1.49 14.36c-13.08,0 -26.1,0.3 -39.01,0.88 0.09,1.09 0.17,2.13 0.26,3.14 8.83,-0.34 17.58,-0.51 26.25,-0.51l1 12.51c-9.01,0 -17.67,0.13 -26.01,0.38 0.09,1.09 0.17,2.09 0.26,3.01 12.25,-0.51 24.8,-0.77 37.64,-0.77l1.49 15.02c-33.35,0 -67.03,1.98 -101.02,6l-1.52 -15c13.42,-1.66 27.19,-3.01 41.27,-4.01 -0.09,-1.09 -0.17,-2.07 -0.26,-2.99 -11.25,0.66 -22.04,1.62 -32.37,2.86l-1 -12.38c10.76,-1.15 21.47,-2.16 32.14,-2.99 -0.17,-1.09 -0.3,-2.18 -0.38,-3.27 -11.67,0.68 -23.26,1.56 -34.76,2.62l-1.49 -14.36c11.33,-1.17 22.92,-2.09 34.76,-2.75 -0.09,-1.52 -0.21,-2.97 -0.38,-4.37l22 -2.39c0.17,1.92 0.34,3.84 0.51,5.76 12.83,-0.51 25.89,-0.75 39.14,-0.75zm-86.04 54.01l3.52 1.75c11.42,-3.24 23.71,-4.89 36.88,-4.89 7.34,0 14.08,0.34 20.25,1 6.17,1.17 12.06,3.54 17.63,7.13 6.17,4.5 9.26,10.67 9.26,18.5l0 1.75c3.59,0.6 7.08,1.17 10.5,1.75l-2.62 15.02c-3.59,-0.51 -7.04,-1 -10.37,-1.52 -1.26,2.67 -2.88,5.01 -4.89,7 -7.66,8 -18.03,12.01 -31.14,12.01l-10.99 0c-14.17,0 -25.48,-2.09 -33.89,-6.25 -8.09,-5.25 -12.59,-12.38 -13.51,-21.38 -3.5,-0.17 -6.87,-0.3 -10.14,-0.38l2.39 -15c3.07,0 6.12,0.04 9.11,0.13 1.69,-5.74 4.35,-11.29 8,-16.62zm50.02 12.63c1.43,1.32 2.75,2.62 4.01,3.86l-3.76 3.76c5.83,0.58 11.54,1.26 17.14,2.01 -0.92,-2.92 -2.84,-5.12 -5.76,-6.64 -2.58,-1.41 -6.47,-2.41 -11.63,-2.99zm-17.01 5.87c-1.49,-1 -2.99,-2.01 -4.5,-3.01l2.62 -2.99c-5.25,0.83 -10.82,2.45 -16.75,4.87 6.17,0.34 12.38,0.7 18.63,1.13zm31.01 19.51c-6.17,-0.66 -12.16,-1.28 -17.99,-1.88 1.24,1.09 2.41,2.18 3.5,3.27l-5.01 4.99 0.87 0c8.77,0 14.94,-2.09 18.52,-6.25 0.09,-0.09 0.11,-0.13 0.11,-0.13zm-32.12 6.12c-2.67,-1.92 -5.46,-3.82 -8.39,-5.74l3.88 -4.14c-5.68,-0.41 -11.14,-0.83 -16.39,-1.24 1.17,3.59 3.2,6.08 6.12,7.49 4.25,2.01 9.18,3.22 14.77,3.63z"/>
  <path id="4" class="fil0" d="M369.74 543.93l1.98 20.64c-12.57,0 -25.07,0.17 -37.49,0.49l4.99 4.89c-5.83,5.25 -11.63,10.58 -17.37,16.01 4.74,4.33 8.45,9.03 11.12,14.13 0.17,0.23 0.34,0.49 0.49,0.75l4.76 -14.38c12.01,7.6 24.67,11.76 38.01,12.51l-4.99 21c-12.59,-0.15 -23.92,-3.07 -34.02,-8.75 0.66,3.41 1,7.21 1,11.37 0,10.01 -2.09,17.31 -6.25,21.9 -5.16,5.33 -11.76,8 -19.76,8 -7.4,0 -13.44,-0.51 -18.12,-1.49l-2.01 -20.51c6.51,1.07 12.01,1.62 16.5,1.62 2.75,0 4.84,-0.83 6.25,-2.5 1.92,-1.6 2.88,-4.27 2.88,-8 0,-5.27 -1,-9.69 -2.99,-13.25 -2.09,-3.35 -4.5,-6.3 -7.26,-8.9 -10.35,9.6 -20.64,19.31 -30.9,29.15l-16.01 -14.64c17.43,-17.41 34.31,-33.42 50.64,-48.02 -14.23,0.6 -28.57,1.47 -43,2.62l-2.13 -20.51c32.35,-2.75 66.9,-4.12 103.67,-4.12z"/>
  <path id="5" class="fil0" d="M509.17 539.43l1.52 15.51c-22.68,0 -45.48,1.37 -68.4,4.12l-1.62 -15.64c21.4,-2.67 44.26,-3.99 68.5,-3.99zm-56.38 54.65c0.09,1.07 0.21,2.2 0.36,3.37 11.1,-2.67 22.51,-4.01 34.27,-4.01 7.83,0 14.3,1.84 19.38,5.51 4.67,5.16 7,11.2 7,18.14l0 3.86c-0.41,11.5 -1.79,21.68 -4.12,30.52l-17.01 -2.88c2.33,-7.34 3.71,-15.75 4.12,-25.25 0,-5.1 -0.83,-8.77 -2.5,-11.01 -0.26,-0.17 -0.49,-0.3 -0.75,-0.38 -1.75,3.59 -3.37,7.17 -4.87,10.76 1.32,-0.09 2.67,-0.13 3.99,-0.13l1.49 13.38c-2.99,0 -5.91,0.04 -8.75,0.13 0.43,4.5 0.87,9.13 1.39,13.89l-16.52 1.49c-0.58,-4.76 -1.09,-9.5 -1.49,-14.26 -2.75,0.26 -5.46,0.53 -8.13,0.87l-1.37 -13.64c1.49,-0.15 3.07,-0.32 4.74,-0.49 -2.16,-2.18 -4.46,-4.29 -6.87,-6.38l4.63 -4.87c-2.35,0.49 -4.63,1.07 -6.89,1.75 1.26,11.5 2.56,23.5 3.88,36l-16.5 1.49c-1.09,-9.41 -2.09,-18.42 -3.01,-27 -0.49,0.58 -0.96,1.13 -1.37,1.62 -4.01,3.99 -8.77,6 -14.26,6l-1.64 0c0.6,4.93 1.13,9.92 1.64,15l-17.88 2.01c-2.84,-24.75 -5.38,-46.76 -7.64,-66.03l18.14 -2.11c0.49,4.42 1,8.88 1.49,13.38 0.26,-0.51 0.55,-0.96 0.88,-1.39 0.75,-1.58 1.62,-3.76 2.62,-6.49 0.68,-2.18 1,-4.23 1,-6.15 0,-4.48 -1.24,-6.74 -3.76,-6.74 -4.91,0 -10.2,1.84 -15.88,5.51l-1.88 -18.14c8.51,-2.9 15.92,-4.37 22.26,-4.37 5.1,0 9.18,1.71 12.27,5.12 3.59,4.42 5.38,9.13 5.38,14.15 0,5.74 -2.01,11.99 -6.02,18.74 0.6,0.43 1.13,0.79 1.62,1.13 -0.06,-0.26 -0.11,-0.45 -0.11,-0.62l16.62 -1.49zm-34.14 8.88c0.43,4.08 0.87,8.24 1.39,12.48 0.83,0.09 1.58,0.13 2.24,0.13 0.75,0 1.49,-0.53 2.26,-1.62 0.75,-0.83 1.11,-1.79 1.11,-2.88 0,-1.32 -0.28,-2.58 -0.87,-3.73 -0.75,-1.09 -1.75,-1.84 -2.99,-2.26 -1.43,-0.58 -2.45,-1.28 -3.14,-2.11zm51.64 20.49c1.75,-0.15 3.46,-0.23 5.12,-0.23 2.09,-4.84 3.97,-9.13 5.63,-12.89 -4.33,0.26 -8.41,0.64 -12.25,1.13 2.41,2.01 4.59,4.33 6.51,7l-5.02 4.99zm-18.12 -63.02l6.87 1.75c5.83,-1.41 11.59,-2.16 17.24,-2.24 5.68,0 10.67,0.21 15.02,0.62 3.91,0.26 7.66,1.52 11.25,3.76 3.84,1.66 5.74,6.55 5.74,14.64l0 1.62c0,3.67 -2.86,6.57 -8.62,8.75 -5.16,2.09 -12.68,3.12 -22.51,3.12l-2.62 0c-11.5,0 -19.87,-1.54 -25.12,-4.61 -3.76,-2.35 -5.63,-5.8 -5.63,-10.39 0,-5.57 2.8,-11.25 8.39,-17.01zm23.62 12.01c-2.33,0 -6.96,1.71 -13.87,5.12 0.32,0.51 0.83,0.88 1.49,1.13 2.16,0.92 6.12,1.37 11.89,1.37 6.17,0 10.37,-0.28 12.61,-0.87 2.26,-0.58 3.39,-1.49 3.39,-2.75 -0.43,-2.07 -2.35,-3.24 -5.76,-3.5 -3.5,-0.32 -6.74,-0.49 -9.75,-0.49z"/>
  <path id="6" class="fil0" d="M617.12 606.07c8.58,0 15.96,1.84 22.13,5.51 5.51,3.67 8.32,8.96 8.49,15.88l0 1.62c-0.49,9.18 -2.5,17.67 -6,25.52l-19.89 -4.14c1.43,-2.75 2.54,-5.21 3.39,-7.38l-13.38 6.51c-1.34,-1.84 -2.52,-3.59 -3.52,-5.25 -7.92,2.75 -14.45,4.16 -19.61,4.25l-2.65 0c-5.25,0 -10.03,-1.75 -14.36,-5.25 -3.35,-2.75 -5.01,-6.51 -5.01,-11.25 0,-0.83 0.04,-1.52 0.13,-2.01 -3.33,0.92 -6.38,1.79 -9.13,2.62 1.17,4.93 2.52,9.88 4.01,14.87l-18.37 6.02c-3.67,-11.76 -6.38,-23.94 -8.13,-36.51l18.63 -5.51c0.17,1.09 0.28,2.07 0.36,2.99 5.19,-1.32 10.93,-2.58 17.26,-3.73 0.92,-2.58 2.05,-5.14 3.37,-7.64 -2.01,-0.09 -3.86,-0.19 -5.61,-0.36 -9.52,-0.83 -16.3,-2.35 -20.4,-4.5 -6.74,-3.01 -10.12,-7.43 -10.12,-13.25 0,-6.59 2.33,-13.94 7,-22.02l16.01 3.88c-3.16,4.08 -5.51,8.62 -7,13.64 0,2.67 2.01,4.65 6,6 0.83,0.26 1.96,0.45 3.37,0.62l-2.86 -6.62c3.16,-1.17 6.23,-2.39 9.24,-3.63 -2.67,-0.66 -5.21,-1.3 -7.62,-1.88l3.86 -12.01c8,1.92 15.73,4.1 23.13,6.51 4.42,-1.75 8.73,-3.46 12.89,-5.12 -24.26,-1.92 -46.05,-3.09 -65.41,-3.5l2.88 -16.01c13.17,0 26.42,0.36 39.76,1.13 -0.41,-1.09 -0.79,-2.09 -1.11,-3.01l16.01 -6.51c1.24,3.84 2.95,7.43 5.12,10.76 15,1.09 30.09,2.67 45.26,4.76l-3.01 16.01c-2.24,-0.26 -4.5,-0.47 -6.74,-0.64 3.5,6.51 5.25,12.85 5.25,19.01 0,5.08 -2.28,9.05 -6.87,11.89 -5.68,3.76 -15.39,5.61 -29.13,5.61l-5.63 0c-1.26,0 -2.54,0 -3.88,0 -0.66,1.17 -1.24,2.26 -1.75,3.26 7.43,-0.75 15.3,-1.13 23.64,-1.13zm-30.52 19.63c-0.09,0.58 -0.17,1.05 -0.26,1.37 0,2.58 1.96,3.88 5.89,3.88 1.32,0 4.29,-0.75 8.88,-2.24 -0.51,-1.26 -0.96,-2.52 -1.39,-3.76l2.62 -1c-4.82,0.41 -10.07,1 -15.75,1.75zm31.01 -2.01c2.18,5.93 4.99,11.46 8.49,16.65 1.17,-3.44 1.77,-6.38 1.77,-8.9 -0.26,-2.82 -1.43,-4.91 -3.52,-6.25 -1.98,-0.83 -4.25,-1.32 -6.74,-1.49zm-37.26 -35.51c5.51,0.17 11.97,0.26 19.38,0.26 1.84,0 3.5,-0.04 5.01,-0.13 -4.35,-1.66 -8.56,-3.2 -12.63,-4.63 -3.76,1.49 -7.68,3.01 -11.76,4.5zm35.64 -0.62c2.75,-0.43 4.72,-1 5.87,-1.75 1.92,-1 2.88,-2.62 2.88,-4.89 0,-1.66 -2.01,-5.34 -6,-10.99l12.12 -3.01c-5.51,-0.58 -10.8,-1.09 -15.88,-1.49l3.37 7.62c-2.67,1.09 -5.55,2.26 -8.62,3.5 2.92,1.17 5.78,2.35 8.62,3.5l-2.37 7.51z"/>
  <path id="7" class="fil0" d="M775.95 537.93l1.37 15.62c-4.08,0 -8.09,0.04 -11.99,0.13l7 6.74c-1.6,1.6 -3.27,3.09 -5.01,4.5 4.18,0.43 7.68,1.09 10.52,2.01 5.16,2.09 7.87,5.38 8.11,9.88 -0.09,3.67 -1.28,8.71 -3.63,15.13l-4.61 -0.62 1.11 12.12c-22.58,0 -45.13,0.66 -67.65,2.01 -1.24,1.41 -2.33,2.71 -3.24,3.86 11.76,-1.84 22,-2.75 30.75,-2.75 9.09,0 16.47,1.09 22.15,3.26 7.66,3.41 11.5,7.75 11.5,13 0,4.42 -3.18,8.05 -9.52,10.88 7.08,0.92 14.26,1.66 21.51,2.24l-3.37 16.01c-17.93,-1.49 -34.34,-3.65 -49.27,-6.49 -10.33,3.5 -22.26,7.17 -35.74,10.99l-6.51 -16.5c3.59,-0.66 6.96,-1.34 10.14,-2.01 -3.52,-1.09 -6.85,-2.16 -10.01,-3.24 -2.18,3.07 -4.2,6.21 -6.12,9.37l-15 -10.5c6.66,-9.58 13.21,-18.46 19.61,-26.63 -2.58,0.17 -5.12,0.34 -7.62,0.49l-1.13 -11.87 -4.87 0.49c-1.17,-8.49 -2.22,-17.05 -3.14,-25.63l16.01 -1.37c0.09,0.49 0.13,0.87 0.13,1.11 1.26,-0.15 2.45,-0.32 3.63,-0.49 -0.66,-2.84 -1.22,-5.59 -1.62,-8.26l17.01 -4.99c0.41,3.59 1.2,7.26 2.37,10.99 3.5,-0.49 7.04,-0.88 10.63,-1.11 -0.83,-2.75 -1.49,-5.51 -2.01,-8.26l10.52 -3.24c-16.26,0.83 -32.44,2.07 -48.53,3.73l-1.49 -15.49c30.58,-3.41 63.27,-5.12 98.04,-5.12zm-86.04 52.26c4.33,-0.34 8.69,-0.62 13.02,-0.87 1.92,-2.09 3.67,-4.01 5.25,-5.76 -6.59,0.75 -12.85,1.62 -18.76,2.62 0.17,1.43 0.34,2.75 0.49,4.01zm36.15 -2.13c13,-0.58 26.33,-0.96 40.01,-1.11 0.92,-2.35 1.49,-4.4 1.75,-6.15 0,-0.49 -4.8,-0.75 -14.38,-0.75 -10.26,0.34 -20.06,0.92 -29.39,1.75l4.76 3.27c-1,1.07 -1.92,2.07 -2.75,2.99zm-14.26 36.02c7.92,2.07 16.05,3.86 24.37,5.38 4.76,-1.26 8.83,-2.39 12.27,-3.37 3.33,-0.92 4.99,-1.73 4.99,-2.39 0,-1.09 -6.12,-1.62 -18.37,-1.62 -7.77,0 -15.51,0.66 -23.26,2.01zm25.5 -58.9c4.16,-0.17 8.34,-0.34 12.51,-0.49l-2.37 -2.13c3.24,-3.16 6.38,-6.08 9.37,-8.75 -7.58,0.17 -15.13,0.41 -22.62,0.75 0.66,3.41 1.71,6.96 3.12,10.63z"/>
  <rect class="fil1" x="-0" y="-0" width="1047.51" height="1047.51"/>
 </g>
</svg>
