<?xml version="1.0" encoding="UTF-8"?>
<!DOCTYPE svg PUBLIC "-//W3C//DTD SVG 1.1//EN" "http://www.w3.org/Graphics/SVG/1.1/DTD/svg11.dtd">
<!-- Creator: CorelDRAW 2019 (64-Bit) -->
<svg xmlns="http://www.w3.org/2000/svg" xml:space="preserve" width="486.713mm" height="486.713mm" version="1.1" style="shape-rendering:geometricPrecision; text-rendering:geometricPrecision; image-rendering:optimizeQuality; fill-rule:evenodd; clip-rule:evenodd"
viewBox="0 0 1142.93 1142.93"
 xmlns:xlink="http://www.w3.org/1999/xlink"
 xmlns:xodm="http://www.corel.com/coreldraw/odm/2003">
 <defs>
  <style type="text/css">
   <![CDATA[
    .fil1 {fill:none}
    .fil0 {fill:#332C2B;fill-rule:nonzero}
   ]]>
  </style>
 </defs>
 <g id="图层_x0020_1">
  <metadata id="CorelCorpID_0Corel-Layer"/>
  <path class="fil0" d="M191.36 507.35l7.52 17.46c-10.48,2.17 -21.75,4.45 -33.83,6.82 -0.19,0.44 -0.33,0.86 -0.42,1.21 7.82,0.56 15.6,1.37 23.33,2.47l-1.51 16.9c-8.64,-1.16 -17.18,-2 -25.64,-2.44 0.44,1.63 2.19,2.82 5.17,3.54 5.29,1 12.01,1.77 20.21,2.33 13.18,0.54 23.42,0.81 30.69,0.81 8.92,0 14.55,-0.81 16.93,-2.44 0.26,-0.19 0.49,-0.37 0.68,-0.56 -9.73,-1 -19.05,-2 -27.96,-3l2.86 -16.76c8.92,0.63 17.51,1.49 25.78,2.58 -0.72,-1.37 -1.49,-2.51 -2.31,-3.42 -2.82,-2.35 -11.43,-3.54 -25.8,-3.54l2.33 -18.56c20.65,0 33.93,2.91 39.84,8.73 6.08,5.82 9.13,15.27 9.13,28.38 0,7.92 -2.91,14.37 -8.73,19.37 -2.26,2 -5.08,3.59 -8.45,4.77 0.72,11.46 2.47,20.47 5.19,27.01 3.26,7.92 8.22,12.15 14.86,12.69l-4.49 22.38c-5.73,0 -11.22,-2.1 -16.51,-6.26 -6.82,-4.75 -12.36,-13.88 -16.65,-27.43 -2.19,-7.73 -3.63,-15.97 -4.35,-24.7l-2.86 0c-2.75,0 -5.47,-0.05 -8.2,-0.14 -0.37,1.19 -0.72,2.24 -1.09,3.14 3.47,0.19 6.92,0.42 10.38,0.68l-1.51 14.88c-4.28,-0.37 -8.5,-0.63 -12.69,-0.82 -0.19,0.91 -0.35,1.68 -0.54,2.33 -0.09,0.26 -0.14,0.44 -0.14,0.54l14.88 0 1.77 14.88 -17.6 0c0.91,2.91 3.1,4.35 6.54,4.35 3,0 6.68,-0.58 11.06,-1.77l4.21 19.23c-5.91,1.09 -11.9,1.63 -18,1.65 -9.36,-0.02 -16.07,-2.61 -20.05,-7.8 -3.28,-4.54 -4.91,-10.22 -4.91,-17.04 0,-6.64 2,-18.56 5.98,-35.74 -2.07,-0.19 -4.12,-0.37 -6.12,-0.56 -5.1,-0.54 -9.55,-1.16 -13.37,-1.91 -0.75,2.1 -1.33,3.87 -1.79,5.33 5.29,0.19 10.38,0.44 15.3,0.82l-1.65 14.88c-5.91,-0.47 -11.78,-0.82 -17.6,-1.09 -0.07,0.44 -0.16,0.82 -0.26,1.09 -0.28,1 -0.51,1.96 -0.7,2.86 5.19,-0.19 10.25,-0.28 15.16,-0.28l1.63 14.88c-6.1,0 -11.83,0.09 -17.18,0.28 1.28,2.26 3.35,3.4 6.26,3.4 3,0 6.66,-0.54 10.92,-1.63l4.38 19.09c-5.91,1.19 -11.92,1.77 -18.02,1.77 -9.36,0 -16.04,-2.72 -20.05,-8.17 -3.28,-4.66 -4.91,-10.52 -4.91,-17.6 0,-7.54 2.68,-21.65 8.06,-42.31 -4.66,-3.26 -6.96,-7.68 -6.96,-13.23 0,-8.64 1.72,-17.51 5.17,-26.61l-3.68 -7.78c17.84,-3.91 34.62,-7.22 50.34,-9.94z"/>
  <path id="1" class="fil0" d="M403.15 513.89l2.17 22.52c-13.71,0 -27.36,0.19 -40.91,0.54l5.45 5.33c-6.36,5.73 -12.69,11.55 -18.95,17.46 5.17,4.73 9.22,9.85 12.13,15.41 0.19,0.26 0.37,0.54 0.54,0.81l5.19 -15.69c13.11,8.29 26.92,12.83 41.47,13.64l-5.45 22.91c-13.74,-0.16 -26.1,-3.35 -37.11,-9.55 0.72,3.73 1.09,7.87 1.09,12.41 0,10.92 -2.28,18.88 -6.82,23.89 -5.63,5.82 -12.83,8.73 -21.56,8.73 -8.08,0 -14.67,-0.56 -19.77,-1.63l-2.19 -22.38c7.1,1.16 13.11,1.77 18,1.77 3,0 5.29,-0.91 6.82,-2.72 2.1,-1.75 3.14,-4.66 3.14,-8.73 0,-5.75 -1.09,-10.57 -3.26,-14.46 -2.28,-3.66 -4.91,-6.87 -7.92,-9.71 -11.29,10.48 -22.52,21.07 -33.72,31.81l-17.46 -15.97c19.02,-19 37.44,-36.46 55.25,-52.39 -15.53,0.65 -31.18,1.61 -46.92,2.86l-2.33 -22.38c35.3,-3 73,-4.49 113.11,-4.49z"/>
  <path id="2" class="fil0" d="M516.39 513.89c12.2,0 21.17,2.54 26.89,7.64 5.45,4.63 8.17,12.11 8.17,22.38 0,10.01 -2.12,16.83 -6.4,20.47 -1,0.91 -2.05,1.68 -3.14,2.33 6.73,5.89 12.88,12.71 18.42,20.44l-16.51 15.16c-4.91,-6.1 -10.18,-11.83 -15.81,-17.21l-1.65 18.44c-19.91,-3 -38.84,-5.8 -56.74,-8.34l2.86 -18c19.09,1.72 37.46,4.21 55.11,7.5 -5.1,-4.63 -10.41,-8.96 -15.97,-12.97 -18.53,-0.19 -35.09,-1 -49.64,-2.44 -2.65,18.72 -4.28,37.74 -4.91,57.02l-22.38 -2.19c0.63,-38.47 5.59,-75.21 14.86,-110.23l22.38 2.33 0 0.26c14.39,-1.72 29.2,-2.58 44.47,-2.58zm-48.97 22.52c-0.91,4.63 -1.72,9.17 -2.44,13.64 15.9,1.82 32.04,2.72 48.43,2.72 4.26,0 7.68,-0.77 10.22,-2.33 1.47,-1.19 2.19,-3.35 2.19,-6.54 0,-3.82 -0.68,-6.5 -2.05,-8.06 -2,-1.91 -5.68,-2.86 -11.06,-2.86 -12.64,0 -27.73,1.14 -45.29,3.42zm3.96 63.29c20.91,7.92 42.89,12.25 65.89,12.97l-4.91 19.65c-25.1,-0.09 -47.43,-4.47 -66.99,-13.11l6.01 -19.51z"/>
  <path id="3" class="fil0" d="M622.02 510.08l6.96 19.77c-9.45,3.47 -19.37,7.24 -29.73,11.34l10.64 2.19c1.72,-0.47 3.59,-0.84 5.59,-1.09 8.82,0 14.55,0.77 17.18,2.31 0.91,0.28 1.72,0.7 2.47,1.23 3.1,-12.27 7.03,-23.96 11.87,-35.07l20.86 4.24c-2.38,5.36 -4.45,10.73 -6.29,16.09 7.1,-1.54 14.69,-2.31 22.8,-2.31 6.92,0 12.6,2.96 17.04,8.85 4.19,6.47 6.29,13.92 6.29,22.38l0 3.56c0,8.45 -0.81,19.42 -2.47,32.88 -1.72,14.09 -3.68,25.33 -5.84,33.69l-21.17 -4.35c2.72,-12.92 4.77,-25.03 6.15,-36.3 1.28,-10.55 1.91,-19.09 1.91,-25.66 0,-4.35 -0.54,-7.68 -1.63,-9.94 -1.37,-2.65 -3.1,-3.96 -5.19,-3.96 -3.38,0 -7.64,0.44 -12.83,1.35 -3.91,0.84 -7.82,2.1 -11.74,3.82 -1,3.56 -1.82,7.1 -2.44,10.64l-6.01 -1.21c1,5.1 1.54,11.5 1.63,19.23 0,14.93 -1.77,25.68 -5.31,32.34 -5.63,9.73 -14.23,14.6 -25.8,14.6 -11.64,0 -20.14,-3.66 -25.5,-10.92 -5.19,-7.47 -7.78,-18.32 -7.78,-32.62 0,-15.46 2.63,-30.36 7.92,-44.73l-5.61 -18.56c12.55,-5.38 24.56,-9.97 36.02,-13.78zm-7.64 53.06c-2.91,0.56 -5.54,1.19 -7.92,1.91 -0.35,2.1 -0.68,4.14 -0.95,6.15 5.38,0.28 10.69,0.82 15.97,1.63l-1.65 17.46c-5.17,-0.72 -10.27,-1.28 -15.27,-1.63 0.19,7.54 0.86,12.78 2.05,15.69 1.56,3.82 4.33,5.73 8.34,5.73 4.73,0 7.99,-1.82 9.8,-5.47 1.84,-3.82 2.75,-9.45 2.75,-16.9 0,-13.55 -1,-20.84 -3,-21.84 -1.47,-1.44 -3.1,-2.26 -4.91,-2.44 -2.1,-0.19 -3.82,-0.28 -5.19,-0.28zm43.52 7.64c8.48,1.47 16.46,3.47 24.03,6.01l-6.01 19.51c-8.1,-2.82 -16.11,-5.01 -24.03,-6.54l6.01 -18.98z"/>
  <path id="4" class="fil0" d="M816.88 546.77c3,0.28 5.82,1.14 8.45,2.58 1,-1.54 1.77,-3 2.33,-4.35 2.19,-2.63 3.28,-4.82 3.28,-6.54 0,-2.1 -2.79,-3.14 -8.34,-3.14 -6.19,0.63 -13.74,2.96 -22.66,6.96l-5.03 -21.28c11.74,-4.56 22.4,-6.92 32.06,-7.1 7.26,0 13.23,1.63 17.86,4.91 5.63,5.01 8.45,10.31 8.45,15.95 -0.16,4.82 -1.91,10.15 -5.17,15.97 -2.1,4.82 -4.82,9.5 -8.2,14.04 1.28,2.37 2.28,5.1 3,8.2 4.82,-0.63 9.59,-1.37 14.32,-2.19l2.05 22.93c-4.73,0.91 -9.41,1.68 -14.04,2.31 -0.47,17.11 -7.24,30.29 -20.33,39.56l-18.56 -12.95c8.82,-6.01 13.95,-13.78 15.41,-23.33 -10.55,1.19 -21.14,2 -31.78,2.44l-2.05 -22.91c10.27,-0.54 20.65,-1.42 31.11,-2.58 -3,-7.01 -7.92,-11.78 -14.74,-14.34l12.55 -15.13zm-63.84 -38.33l21.82 4.89c-3,9.38 -5.63,17.84 -7.92,25.38 1.28,0.28 2.51,0.61 3.7,0.95 1,-3.73 2,-7.36 3,-10.9l20.86 4.21c-0.91,3.19 -1.77,6.38 -2.58,9.55 2.1,0.09 4.21,0.19 6.4,0.28l-5.45 22.52c-2.47,0 -4.77,-0.05 -6.96,-0.14 -3.47,13.11 -6.73,26.29 -9.83,39.56 6.19,2.56 11.78,4.52 16.79,5.87l-12.01 18.56c-3,-1.19 -6.15,-2.58 -9.41,-4.24 -0.72,3.38 -1.42,6.61 -2.05,9.71l-20.89 -4.52c1.09,-5.36 2.28,-10.64 3.56,-15.83 -3.73,-2.17 -7.54,-4.54 -11.46,-7.08 -5.66,-4 -8.48,-8.87 -8.48,-14.6 0,-5.38 2.56,-17.74 7.64,-37.11 -2.17,-0.82 -4.35,-1.72 -6.54,-2.72l7.24 -22.38c1.82,0.72 3.68,1.44 5.59,2.19 2.1,-7.57 4.4,-15.6 6.96,-24.15zm11.32 54.3c-1.54,-0.37 -2.91,-0.7 -4.1,-0.95 -4.17,14.99 -6.26,24.49 -6.26,28.5 0,1.72 0.77,3.28 2.31,4.63 2.65,-11.18 5.33,-21.91 8.06,-32.18z"/>
  <path id="5" class="fil0" d="M892.07 529.31c10.45,1.28 19.23,3.28 26.33,6.01l-6.54 22.38c-9.01,-3 -17.79,-5.19 -26.33,-6.54l6.54 -21.84zm-3.68 32.06l24.01 5.45c-4.82,9.73 -7.22,18.32 -7.22,25.8 0,6.17 2.03,10.73 6.12,13.64 3.82,2.91 10.2,4.35 19.12,4.35 9.45,0 20.33,-1.3 32.6,-3.96l4.91 21.42c-12.46,2.47 -24.29,3.68 -35.48,3.68l-6.4 0c-12.01,0 -22.28,-2.49 -30.83,-7.5 -9.38,-6.26 -14.06,-15.23 -14.06,-26.87 0,-10.45 2.42,-22.47 7.24,-36.02zm44.05 -50.62c21.56,1.09 42.35,2.68 62.35,4.77l-1.63 20.89c-22.47,-1.82 -43.75,-3.52 -63.85,-5.05l3.12 -20.61zm68.9 29.48l2.05 21.68c-13.9,0.09 -27.59,0.65 -41.05,1.65 -2.65,4.63 -4.96,9.55 -6.96,14.74 0,2.63 1.68,3.94 5.05,3.94 4.91,-0.26 9.31,-0.91 13.23,-1.91 -0.47,-2.35 -0.86,-4.68 -1.23,-6.94l21.28 -6.57c1.82,12.83 5.43,26.1 10.78,39.84l-21.14 6.57c-1.47,-3.66 -2.72,-7.24 -3.82,-10.78 -5.73,1.44 -12.46,2.35 -20.19,2.72l-2.86 0c-9.01,0 -16.16,-2.05 -21.42,-6.15 -3.82,-3.19 -5.73,-8.45 -5.73,-15.83 0.35,-5.82 1.63,-11.5 3.82,-17.04 -3.47,0.47 -6.73,0.86 -9.83,1.23l-2.33 -21.7c28.01,-3.35 54.81,-5.19 80.35,-5.45z"/>
  <rect class="fil1" x="-0" y="-0" width="1142.93" height="1142.93"/>
 </g>
</svg>
