<?xml version="1.0" encoding="UTF-8"?>
<!DOCTYPE svg PUBLIC "-//W3C//DTD SVG 1.1//EN" "http://www.w3.org/Graphics/SVG/1.1/DTD/svg11.dtd">
<!-- Creator: CorelDRAW 2019 (64-Bit) -->
<svg xmlns="http://www.w3.org/2000/svg" xml:space="preserve" width="486.713mm" height="486.713mm" version="1.1" style="shape-rendering:geometricPrecision; text-rendering:geometricPrecision; image-rendering:optimizeQuality; fill-rule:evenodd; clip-rule:evenodd"
viewBox="0 0 1142.93 1142.93"
 xmlns:xlink="http://www.w3.org/1999/xlink"
 xmlns:xodm="http://www.corel.com/coreldraw/odm/2003">
 <defs>
  <style type="text/css">
   <![CDATA[
    .fil1 {fill:none}
    .fil0 {fill:#332C2B;fill-rule:nonzero}
   ]]>
  </style>
 </defs>
 <g id="图层_x0020_1">
  <metadata id="CorelCorpID_0Corel-Layer"/>
  <path class="fil0" d="M340.64 507.82l7.52 17.46c-10.48,2.17 -21.75,4.45 -33.83,6.82 -0.19,0.44 -0.33,0.86 -0.42,1.21 7.82,0.56 15.6,1.37 23.33,2.47l-1.51 16.9c-8.64,-1.16 -17.18,-2 -25.64,-2.44 0.44,1.63 2.19,2.82 5.17,3.54 5.29,1 12.01,1.77 20.21,2.33 13.18,0.54 23.42,0.81 30.69,0.81 8.92,0 14.55,-0.81 16.93,-2.44 0.26,-0.19 0.49,-0.37 0.68,-0.56 -9.73,-1 -19.05,-2 -27.96,-3l2.86 -16.76c8.92,0.63 17.51,1.49 25.78,2.58 -0.72,-1.37 -1.49,-2.51 -2.31,-3.42 -2.82,-2.35 -11.43,-3.54 -25.8,-3.54l2.33 -18.56c20.65,0 33.93,2.91 39.84,8.73 6.08,5.82 9.13,15.27 9.13,28.38 0,7.92 -2.91,14.37 -8.73,19.37 -2.26,2 -5.08,3.59 -8.45,4.77 0.72,11.46 2.47,20.47 5.19,27.01 3.26,7.92 8.22,12.15 14.86,12.69l-4.49 22.38c-5.73,0 -11.22,-2.1 -16.51,-6.26 -6.82,-4.75 -12.36,-13.88 -16.65,-27.43 -2.19,-7.73 -3.63,-15.97 -4.35,-24.7l-2.86 0c-2.75,0 -5.47,-0.05 -8.2,-0.14 -0.37,1.19 -0.72,2.24 -1.09,3.14 3.47,0.19 6.92,0.42 10.38,0.68l-1.51 14.88c-4.28,-0.37 -8.5,-0.63 -12.69,-0.82 -0.19,0.91 -0.35,1.68 -0.54,2.33 -0.09,0.26 -0.14,0.44 -0.14,0.54l14.88 0 1.77 14.88 -17.6 0c0.91,2.91 3.1,4.35 6.54,4.35 3,0 6.68,-0.58 11.06,-1.77l4.21 19.23c-5.91,1.09 -11.9,1.63 -18,1.65 -9.36,-0.02 -16.07,-2.61 -20.05,-7.8 -3.28,-4.54 -4.91,-10.22 -4.91,-17.04 0,-6.64 2,-18.56 5.98,-35.74 -2.07,-0.19 -4.12,-0.37 -6.12,-0.56 -5.1,-0.54 -9.55,-1.16 -13.37,-1.91 -0.75,2.1 -1.33,3.87 -1.79,5.33 5.29,0.19 10.38,0.44 15.3,0.82l-1.65 14.88c-5.91,-0.47 -11.78,-0.82 -17.6,-1.09 -0.07,0.44 -0.16,0.82 -0.26,1.09 -0.28,1 -0.51,1.96 -0.7,2.86 5.19,-0.19 10.25,-0.28 15.16,-0.28l1.63 14.88c-6.1,0 -11.83,0.09 -17.18,0.28 1.28,2.26 3.35,3.4 6.26,3.4 3,0 6.66,-0.54 10.92,-1.63l4.38 19.09c-5.91,1.19 -11.92,1.77 -18.02,1.77 -9.36,0 -16.04,-2.72 -20.05,-8.17 -3.28,-4.66 -4.91,-10.52 -4.91,-17.6 0,-7.54 2.68,-21.65 8.06,-42.31 -4.66,-3.26 -6.96,-7.68 -6.96,-13.23 0,-8.64 1.72,-17.51 5.17,-26.61l-3.68 -7.78c17.84,-3.91 34.62,-7.22 50.34,-9.94z"/>
  <path id="1" class="fil0" d="M457.33 507.82l22.91 5.03c-1,2.1 -1.96,4.33 -2.86,6.71 27.01,1.07 53.06,2.68 78.16,4.77l-2.03 22.38c-11.48,-0.84 -22.61,-1.56 -33.44,-2.19 0.28,3 0.49,6.05 0.68,9.13 8.38,-0.26 16.93,-0.4 25.66,-0.4l2.19 20.61c-8.73,0 -17.46,0.12 -26.19,0.4 0.63,6.01 1.16,12.06 1.63,18.14 11.36,-0.35 22.82,-0.54 34.37,-0.54l2.19 21.84c-11.64,0 -23.24,0.16 -34.79,0.54 0.47,6.01 0.91,12.01 1.37,18l-24.56 2.89c-0.54,-6.92 -1.09,-13.62 -1.63,-20.07 -20.12,0.91 -40.3,2.28 -60.59,4.1l-2.05 -21.84c5.47,-0.54 11.01,-1 16.65,-1.35 0.47,-13.37 2.1,-25.96 4.91,-37.79l-17.74 -3.82c3.19,-16.37 8.24,-31.88 15.16,-46.52zm41.75 85.41c-0.47,-6.1 -0.91,-11.97 -1.37,-17.6 -6.36,0.44 -12.74,0.95 -19.09,1.49 -0.82,5.63 -1.37,11.41 -1.65,17.32 7.47,-0.44 14.83,-0.86 22.12,-1.21zm-2.86 -38.49c-0.28,-4.07 -0.61,-8.03 -0.95,-11.85 -8.82,-0.56 -17.42,-1.05 -25.8,-1.51 -1.28,4.63 -2.4,9.29 -3.4,13.92l9.94 0.95c6.66,-0.65 13.39,-1.14 20.21,-1.51z"/>
  <path id="2" class="fil0" d="M700.2 532.92l2.86 23.47c-18.65,0 -37.35,0.44 -56.07,1.35 -3.82,8.73 -7.47,17.32 -10.92,25.8 20.84,8.36 43.84,14.09 69.04,17.18l-5.45 24.43c-28.29,-3.47 -52.44,-9.64 -72.46,-18.56 -3.54,9.01 -6.87,17.95 -9.97,26.87l-24.96 -8.87c9.73,-23.54 18.74,-45.38 27.01,-65.47 -9.9,0.63 -19.86,1.35 -29.87,2.19l-2.58 -23.47c13.83,-1.28 28.01,-2.28 42.56,-3 3.45,-8.29 6.73,-16.16 9.83,-23.61l24.96 8.59c-2.19,4.66 -4.31,9.24 -6.4,13.78 13.9,-0.44 28.06,-0.68 42.42,-0.68z"/>
  <path id="3" class="fil0" d="M852.07 520.37l2.05 21.42c-16.37,0 -32.64,0.4 -48.85,1.21 0.28,2.47 0.56,4.77 0.82,6.96 12.11,-0.72 23.94,-1.14 35.48,-1.23l2.19 20.89c-33.76,0.19 -67.03,2.54 -99.87,7.1l-2.05 -20.89c13.27,-1.63 26.31,-3 39.14,-4.1 -0.35,-2.54 -0.72,-4.96 -1.09,-7.22 -14.46,1.19 -28.97,2.58 -43.52,4.21l-2.19 -21.28c13.92,-1.72 28.24,-3.12 42.98,-4.21 -0.54,-4 -1.05,-7.82 -1.49,-11.46l24.96 -2.86c0.54,4.17 1.09,8.41 1.63,12.67 16.3,-0.81 32.88,-1.21 49.8,-1.21zm-107.11 57.84l9.29 2.58c13.18,-2.72 26.33,-4.07 39.42,-4.07 24.66,0 41.21,2.21 49.66,6.68 7.92,3.82 11.69,9.99 11.32,18.56l0.56 3.12c0,11.11 -2.86,18.56 -8.59,22.38 -5.82,4.38 -20.98,6.57 -45.45,6.57l-18.53 0c-18.56,0 -31.62,-1.75 -39.16,-5.19 -6.19,-3.63 -9.29,-9.36 -9.29,-17.18 0,-11.01 3.61,-22.17 10.78,-33.44zm51.32 18.02c-11.57,0 -23.26,2.31 -35.07,6.94 -0.37,1.47 -0.7,2.79 -0.95,3.96 0,2.65 1.35,4.33 4.07,5.05 4.56,1.37 12.34,2.05 23.33,2.05l11.48 0c11.46,0 19.86,-0.81 25.24,-2.47 3.17,-1.54 4.77,-4.35 4.77,-8.45 -0.37,-3 -2.7,-4.91 -6.96,-5.73 -5.19,-0.91 -13.83,-1.35 -25.92,-1.35z"/>
  <rect class="fil1" x="-0" y="-0" width="1142.93" height="1142.93"/>
 </g>
</svg>
