<?xml version="1.0" encoding="UTF-8"?>
<!DOCTYPE svg PUBLIC "-//W3C//DTD SVG 1.1//EN" "http://www.w3.org/Graphics/SVG/1.1/DTD/svg11.dtd">
<!-- Creator: CorelDRAW 2019 (64-Bit) -->
<svg xmlns="http://www.w3.org/2000/svg" xml:space="preserve" width="688.065mm" height="54.8425mm" version="1.1" style="shape-rendering:geometricPrecision; text-rendering:geometricPrecision; image-rendering:optimizeQuality; fill-rule:evenodd; clip-rule:evenodd"
viewBox="0 0 2196.15 175.05"
 xmlns:xlink="http://www.w3.org/1999/xlink"
 xmlns:xodm="http://www.corel.com/coreldraw/odm/2003">
 <defs>
  <style type="text/css">
   <![CDATA[
    .fil0 {fill:#332C2B;fill-rule:nonzero}
   ]]>
  </style>
 </defs>
 <g id="图层_x0020_1">
  <metadata id="CorelCorpID_0Corel-Layer"/>
  <path class="fil0" d="M161.91 8.89l2.94 30.6c-18.64,0 -37.19,0.25 -55.61,0.73l7.41 7.25c-8.64,7.79 -17.25,15.7 -25.76,23.74 7.03,6.42 12.53,13.39 16.49,20.95 0.25,0.35 0.51,0.73 0.73,1.11l7.06 -21.33c17.82,11.27 36.59,17.44 56.37,18.55l-7.41 31.14c-18.67,-0.22 -35.48,-4.56 -50.45,-12.98 0.98,5.06 1.49,10.7 1.49,16.87 0,14.84 -3.1,25.67 -9.27,32.47 -7.66,7.91 -17.44,11.87 -29.31,11.87 -10.98,0 -19.94,-0.76 -26.87,-2.22l-2.98 -30.41c9.65,1.58 17.82,2.41 24.46,2.41 4.08,0 7.18,-1.23 9.27,-3.7 2.85,-2.37 4.27,-6.33 4.27,-11.87 0,-7.82 -1.49,-14.37 -4.43,-19.65 -3.1,-4.97 -6.68,-9.34 -10.76,-13.2 -15.35,14.24 -30.6,28.64 -45.83,43.23l-23.74 -21.71c25.86,-25.82 50.89,-49.56 75.1,-71.21 -21.11,0.89 -42.38,2.18 -63.77,3.89l-3.16 -30.41c47.98,-4.08 99.22,-6.11 153.75,-6.11z"/>
  <path id="1" class="fil0" d="M255.39 1.49l10.22 22.25c-3.83,1.49 -7.69,2.94 -11.52,4.43 -0.73,8.04 -1.36,16.08 -1.84,24.12 3.2,-0.13 6.49,-0.19 9.81,-0.19l2.97 28.01c-4.81,0 -9.65,0.13 -14.46,0.38 -0.25,3.7 -0.44,7.41 -0.57,11.11 4.59,-1.36 9.11,-2.72 13.55,-4.08l8.17 27.63c-7.41,2.85 -15.1,5.44 -23.01,7.79 -0.35,12.12 -0.6,24.31 -0.73,36.55l-28.36 -2.79c0,-9.4 0.1,-18.61 0.35,-27.63 -3.32,0.47 -6.68,1.04 -10,1.68l-7.44 -28.2c6.33,-1.11 12.44,-2.28 18.36,-3.51 0.25,-5.82 0.57,-11.39 0.95,-16.71 -4.21,0.63 -8.36,1.17 -12.44,1.68l-2.97 -28.39c5.57,-0.73 11.27,-1.36 17.09,-1.84 0.22,-5.19 0.54,-10.19 0.92,-15.03 -3.48,1.23 -6.74,2.41 -9.84,3.54l-11.3 -23.01c18.42,-7.06 35.79,-12.98 52.09,-17.79zm109.79 5.35l2.79 28.01c-13.48,0 -26.46,0.19 -38.93,0.57 0.22,3.32 0.41,6.61 0.54,9.81 9.4,-0.35 18.8,-0.54 28.2,-0.54l2.79 28.01c-9.78,0 -19.5,0.16 -29.12,0.54 0.22,3.1 0.41,6.08 0.54,8.89 10.16,-0.35 20.16,-0.54 30.07,-0.54l3.13 27.63c-10.76,0 -21.2,0.19 -31.33,0.54 0.25,2.97 0.44,6.01 0.54,9.11 11.87,-1.14 23.8,-2.37 35.79,-3.73l3.16 28.01c-12.5,1.61 -24.84,3.04 -37.09,4.27 0.51,6.68 0.92,13.42 1.3,20.22l-30.41 3.13c-0.47,-7.41 -0.92,-14.46 -1.3,-21.14 -11.36,0.76 -22.75,1.3 -34.12,1.68l-3.16 -28.01c11.74,-0.6 23.55,-1.3 35.41,-2.03 -0.22,-3.35 -0.41,-6.55 -0.54,-9.65 -9.27,0.63 -18.17,1.49 -26.71,2.59l-2.98 -27.25c9.4,-1.11 18.67,-1.99 27.82,-2.6 -0.22,-3.1 -0.41,-6.08 -0.54,-8.92 -8.17,0.76 -16.27,1.61 -24.31,2.6l-2.98 -28.36c8.29,-1.11 16.71,-1.99 25.22,-2.6 -0.22,-3.45 -0.47,-6.8 -0.73,-10 -10.13,0.6 -20.03,1.39 -29.69,2.41l-2.94 -28.39c33.36,-2.85 66.56,-4.27 99.56,-4.27z"/>
  <path id="2" class="fil0" d="M437.73 0l31.14 6.84c-1.36,2.85 -2.66,5.89 -3.89,9.11 36.71,1.46 72.13,3.64 106.24,6.49l-2.75 30.41c-15.6,-1.14 -30.73,-2.12 -45.45,-2.97 0.38,4.08 0.66,8.23 0.92,12.41 11.39,-0.35 23.01,-0.54 34.88,-0.54l2.97 28.01c-11.87,0 -23.74,0.16 -35.6,0.54 0.85,8.17 1.58,16.39 2.22,24.65 15.44,-0.47 31.02,-0.73 46.71,-0.73l2.98 29.69c-15.82,0 -31.58,0.22 -47.28,0.73 0.63,8.17 1.23,16.33 1.87,24.46l-33.39 3.92c-0.73,-9.4 -1.49,-18.51 -2.22,-27.28 -27.34,1.23 -54.78,3.1 -82.35,5.57l-2.79 -29.69c7.44,-0.73 14.97,-1.36 22.63,-1.84 0.63,-18.17 2.85,-35.29 6.68,-51.37l-24.12 -5.19c4.34,-22.25 11.2,-43.33 20.6,-63.23zm56.75 116.09c-0.63,-8.29 -1.23,-16.27 -1.87,-23.93 -8.64,0.6 -17.31,1.3 -25.95,2.03 -1.11,7.66 -1.87,15.51 -2.25,23.55 10.16,-0.6 20.16,-1.17 30.07,-1.65zm-3.89 -52.31c-0.38,-5.54 -0.82,-10.92 -1.3,-16.11 -11.99,-0.76 -23.67,-1.42 -35.07,-2.06 -1.74,6.3 -3.26,12.63 -4.62,18.93l13.51 1.3c9.05,-0.89 18.2,-1.55 27.47,-2.06z"/>
  <path id="3" class="fil0" d="M667.32 146.66c0,5.44 -1.11,10.7 -3.32,15.76 -2.12,4.97 -4.91,8.86 -8.35,11.71l-14.27 -8.73c3.96,-4.43 5.92,-8.23 5.92,-11.3 -2.47,0.85 -4.87,1.3 -7.22,1.3 -4.46,0 -7.98,-1.42 -10.57,-4.27 -2.72,-2.6 -4.08,-6.11 -4.08,-10.57 0,-5.7 1.87,-10.25 5.57,-13.74 3.7,-3.58 8.39,-5.35 14.08,-5.35 7.28,0 12.91,2.41 16.87,7.22 3.61,4.34 5.38,10.32 5.38,17.98z"/>
  <path id="4" class="fil0" d="M823.69 7.6c21.14,1.96 41.36,4.75 60.64,8.36 -0.73,-4.46 -1.23,-8.23 -1.49,-11.33l29.12 -3.13c1.99,11.96 5.76,25.89 11.33,41.71 0.35,1.11 0.73,2.03 1.11,2.79 10.51,-0.89 20.76,-1.55 30.76,-2.06 -11.61,-3.58 -21.81,-6.61 -30.57,-9.08l8.89 -29.46c13.83,2.94 25.63,6.42 35.41,10.38l-8.36 27.98c5.95,-0.35 11.71,-0.6 17.25,-0.73l3.16 30.41c-15.32,0.13 -30.48,0.79 -45.45,2.03 1.87,4.34 3.83,8.73 5.95,13.17 0.85,1.87 1.68,3.54 2.41,5.03 4.59,-4.21 9.02,-8.23 13.36,-12.06l22.06 20.95c-6.42,6.04 -12.91,12.18 -19.46,18.36 6.8,10.63 14.59,21.81 23.36,33.58l-29.12 15.38c-6.42,-7.53 -12.66,-15.95 -18.74,-25.22 -7.03,7.06 -14.15,14.02 -21.3,20.95l-23.01 -20.95c9.65,-9.91 19.05,-19.18 28.2,-27.82 -5.95,-12.6 -11.39,-25.48 -16.33,-38.58 -12.12,1.23 -24.18,2.79 -36.14,4.65 0.47,6.42 0.98,12.85 1.46,19.27 7.18,-1.96 14.05,-4.15 20.6,-6.49l8.17 27.63c-8.42,3.48 -17.18,6.55 -26.33,9.27 0.85,10.51 1.71,21.01 2.6,31.52l-31.9 3.54c-0.76,-9.53 -1.49,-18.67 -2.22,-27.47 -5.82,1.14 -11.71,2.12 -17.63,2.98l-7.44 -28.01c7.69,-1.58 15.16,-3.2 22.44,-4.81 -0.47,-7.41 -1.04,-14.72 -1.65,-21.87 -7.06,1.36 -13.99,2.82 -20.79,4.43l-3.13 -30.41c7.41,-1.49 14.59,-2.91 21.52,-4.27 -0.51,-6.65 -1.01,-13.1 -1.49,-19.27 -4.08,-0.6 -8.04,-1.17 -11.87,-1.68l4.62 -29.65zm68.61 41.52c-2.72,-9.87 -4.81,-18.42 -6.3,-25.57l-2.41 23.36c-6.93,-1.11 -13.61,-2.09 -20.03,-2.97 0.25,2.97 0.51,6.01 0.73,9.08 9.53,-1.46 18.86,-2.75 28.01,-3.89z"/>
  <path id="5" class="fil0" d="M1064.8 23.17l9.65 27.25c-3.96,1.49 -7.91,2.91 -11.87,4.27 -5.7,31.77 -8.99,65.04 -9.84,99.79l-29.65 -3.16c0.22,-29.43 2.59,-57.73 7.03,-84.94 -3.07,1.23 -6.17,2.41 -9.27,3.54l-8.17 -28.39c18.32,-7.15 35.67,-13.29 52.12,-18.36zm31.14 31.9c3.1,28.2 6.55,59.09 10.38,92.73l-28.36 2.75c-3.83,-34.72 -7.31,-65.64 -10.38,-92.7l28.36 -2.79zm55.64 -52.85c7.41,0 14.08,3.39 20.03,10.19 6.8,8.04 10.19,22.12 10.19,42.28l0 8.17c0,13.74 -0.92,29.65 -2.79,47.85 -1.49,16.55 -3.51,29.65 -6.11,39.31l-27.25 -6.11c3.45,-17.31 5.86,-34.56 7.22,-51.74 0.98,-14.72 1.49,-26.05 1.49,-33.96 0,-12.72 -1.04,-21.24 -3.16,-25.57 -1.71,-2.34 -4.08,-3.51 -7.03,-3.51 -5.82,1.46 -12.31,4.43 -19.46,8.89l-6.68 -25.22c10.73,-7.06 21.93,-10.57 33.55,-10.57zm-62.32 4.62c10.89,5.57 19.97,12.75 27.28,21.52l-18.36 18.55c-7.56,-6.8 -16.46,-13.77 -26.71,-20.95l17.79 -19.12z"/>
  <path id="6" class="fil0" d="M1308.13 30.95c2.6,-9.02 5.32,-17.56 8.17,-25.57l31.14 6.68c-2.09,6.17 -4.08,12.28 -5.92,18.36 9.62,1.23 17.91,4.75 24.84,10.57 9.15,7.66 13.7,17.25 13.7,28.74 -0.35,15.82 -3.32,33.36 -8.89,52.66l-33.39 -5.76c5.95,-12.6 8.92,-24.53 8.92,-35.79 0,-10.25 -4.84,-16.81 -14.46,-19.65 -5.44,18.93 -10.51,38.07 -15.22,57.5l-31.33 -6.68c4.59,-18.07 9.15,-35.13 13.74,-51.18 -10.16,0.98 -19.84,2.53 -29.12,4.62 -4.59,16.81 -6.87,33.86 -6.87,51.17 0,8.55 2.72,14.84 8.16,18.93 5.54,4.21 13.45,6.3 23.74,6.3 17.41,0 45.86,-3.7 85.29,-11.11l6.11 28.74c-41.27,6.9 -71.49,10.38 -90.67,10.38l-8.51 0c-13.86,0 -26.24,-3.04 -37.09,-9.08 -13.48,-8.29 -20.22,-22.09 -20.22,-41.36 0,-12.25 1.8,-26.52 5.38,-42.82 -2.97,1.11 -5.76,2.28 -8.35,3.51l-10.57 -29.69c9.53,-3.2 18.86,-6.04 28.01,-8.51 2.47,-8.29 5.32,-16.81 8.55,-25.6l33.17 7.44c-1.71,3.58 -3.39,7.03 -5,10.38 9.02,-1.49 17.94,-2.53 26.71,-3.16z"/>
  <path id="7" class="fil0" d="M1430.56 7.6l13.17 2.97c20.13,-6.55 39.97,-9.84 59.53,-9.84 20.13,0 33.93,0.85 41.33,2.6 13.99,2.22 24.18,6.42 30.6,12.63 6.8,5.06 10.19,14.46 10.19,28.17l0 3.35c0,9.87 -3.39,18.29 -10.19,25.22 -8.77,9.49 -28.61,14.27 -59.53,14.27l-22.06 0c-20.89,0 -38.01,-2.31 -51.37,-6.87 -16.33,-6.42 -24.5,-17.31 -24.5,-32.63 0,-11.52 4.27,-24.81 12.82,-39.88zm70.45 18.36c-16.93,0 -33.2,2.85 -48.77,8.51 15.7,0.25 30.92,0.7 45.64,1.33l-1.49 20.57c-12.85,-0.51 -25.29,-0.92 -37.28,-1.3 1.23,0.73 2.34,1.3 3.35,1.68 7.53,3.32 23.1,5 46.71,5 9.65,0 17.98,-0.51 25.03,-1.49 5.57,-0.73 9.97,-2.6 13.17,-5.57 2.72,-1.71 4.27,-5.32 4.65,-10.76 0,-8.13 -4.08,-13.36 -12.25,-15.57 -5.19,-1.61 -18.1,-2.41 -38.77,-2.41zm80.13 61.56l2.03 25.22c-25.1,0 -50.07,0.57 -74.91,1.68 0.25,1.74 0.47,3.32 0.73,4.81 16.93,-0.25 34.24,-0.6 51.93,-1.11l2.22 20.76c-16.93,0.63 -33.99,1.08 -51.17,1.3 0.13,1.14 0.25,2.12 0.38,2.98 21.74,2.85 42.69,4.4 62.85,4.65l-2.98 27.25c-25.82,-0.25 -51.11,-2.12 -75.83,-5.57 -16.2,-2.6 -30.67,-5.38 -43.39,-8.32 -0.76,3.07 -1.36,5.98 -1.87,8.7l-28.74 -6.49c2.6,-15.35 6.3,-29.97 11.11,-43.96 -2.94,0.25 -5.92,0.51 -8.89,0.76l-2.22 -25.22c49.43,-4.97 102.35,-7.44 158.75,-7.44zm-121.47 46.93c6.3,1.36 12.85,2.6 19.65,3.7 -1.23,-7.66 -2.41,-14.97 -3.54,-21.87 -3.32,0.22 -6.71,0.47 -10.19,0.73 -2.09,5.82 -4.08,11.61 -5.92,17.44z"/>
  <path id="8" class="fil0" d="M1736.93 53.58c4.08,0.38 7.91,1.55 11.49,3.51 1.36,-2.09 2.41,-4.08 3.16,-5.92 2.98,-3.58 4.46,-6.55 4.46,-8.89 0,-2.85 -3.8,-4.27 -11.33,-4.27 -8.42,0.85 -18.67,4.02 -30.79,9.46l-6.84 -28.93c15.95,-6.2 30.45,-9.4 43.58,-9.65 9.87,0 17.98,2.22 24.27,6.68 7.66,6.8 11.49,14.02 11.49,21.68 -0.22,6.55 -2.59,13.8 -7.03,21.71 -2.85,6.55 -6.55,12.91 -11.14,19.08 1.74,3.23 3.1,6.93 4.08,11.14 6.55,-0.85 13.04,-1.87 19.46,-2.98l2.78 31.17c-6.42,1.23 -12.79,2.28 -19.08,3.13 -0.63,23.26 -9.84,41.17 -27.63,53.77l-25.22 -17.6c11.99,-8.17 18.96,-18.74 20.95,-31.71 -14.34,1.61 -28.74,2.72 -43.2,3.32l-2.79 -31.14c13.96,-0.73 28.07,-1.93 42.28,-3.51 -4.08,-9.53 -10.76,-16.01 -20.03,-19.5l17.06 -20.57zm-86.78 -52.09l29.65 6.65c-4.08,12.75 -7.66,24.24 -10.76,34.5 1.74,0.38 3.42,0.82 5.03,1.3 1.36,-5.06 2.72,-10 4.08,-14.81l28.36 5.73c-1.23,4.34 -2.41,8.67 -3.51,12.98 2.85,0.13 5.73,0.25 8.7,0.38l-7.41 30.6c-3.35,0 -6.49,-0.06 -9.46,-0.19 -4.72,17.82 -9.15,35.73 -13.36,53.77 8.42,3.48 16.01,6.14 22.82,7.98l-16.33 25.22c-4.08,-1.61 -8.36,-3.51 -12.79,-5.76 -0.98,4.59 -1.93,8.99 -2.78,13.2l-28.39 -6.14c1.49,-7.28 3.1,-14.46 4.84,-21.52 -5.06,-2.94 -10.25,-6.17 -15.57,-9.62 -7.69,-5.44 -11.52,-12.06 -11.52,-19.84 0,-7.31 3.48,-24.12 10.38,-50.45 -2.94,-1.11 -5.92,-2.34 -8.89,-3.7l9.84 -30.41c2.47,0.98 5,1.96 7.6,2.98 2.85,-10.29 5.98,-21.2 9.46,-32.82zm15.38 73.8c-2.09,-0.51 -3.96,-0.95 -5.57,-1.3 -5.67,20.38 -8.51,33.29 -8.51,38.74 0,2.34 1.04,4.46 3.13,6.3 3.61,-15.19 7.25,-29.78 10.95,-43.74z"/>
  <path id="9" class="fil0" d="M1850.44 15.76c0.13,1.36 0.25,2.6 0.38,3.7 7.53,-2.47 15.22,-3.7 23.01,-3.7 8.04,0 15.25,3.32 21.68,10 7.56,8.17 11.33,22.38 11.33,42.66l0 8.17c0,13.7 -1.23,29.72 -3.7,48.01 -1.87,16.71 -4.4,29.88 -7.63,39.5l-27.98 -5.92c3.7,-15.48 6.42,-30.67 8.13,-45.64 -4.81,1.74 -9.81,3.23 -15,4.46 1.23,12.72 2.47,25.7 3.7,38.93l-27.25 2.78c-5.44,-52.54 -10.22,-99.25 -14.3,-140.17l27.63 -2.78zm7.82 76.4c5.41,-1.49 10.73,-3.04 15.92,-4.65l2.97 10.38c0.89,-10.98 1.3,-19.65 1.3,-25.95 0,-11.49 -1.42,-19.21 -4.27,-23.17 -2.09,-2.25 -5.19,-3.35 -9.27,-3.35 -3.45,0.89 -7.15,2.18 -11.11,3.89 0.25,1.99 0.44,3.83 0.57,5.57 6.65,1.49 13.77,2.22 21.3,2.22l-2.41 23.74c-5.92,0 -11.42,-0.35 -16.49,-1.11 0.35,4.08 0.85,8.23 1.49,12.44zm74.53 -81.05c0.13,1.11 0.25,2.18 0.38,3.16 7.91,-2.6 15.95,-3.89 24.08,-3.89 8.8,0 16.65,3.64 23.58,10.95 8.04,8.39 12.03,23.29 12.03,44.69l0 8.51c0,14.72 -1.46,31.71 -4.43,50.99 -2.22,17.44 -5.19,31.24 -8.89,41.36l-28.39 -5.92c4.72,-16.2 8.04,-32.22 10.03,-48.04 -5.57,2.22 -11.52,4.08 -17.82,5.57 1.49,14.21 2.91,28.61 4.27,43.2l-28.39 3.16c-5.54,-56.62 -10.51,-106.81 -14.81,-150.58l28.36 -3.16zm8.35 82.54c5.92,-1.61 11.74,-3.42 17.44,-5.38l3.89 13.36c1.36,-13.61 2.03,-24.05 2.03,-31.36 0,-13.45 -1.68,-22.5 -5,-27.06 -2.25,-2.47 -5.7,-3.7 -10.38,-3.7 -4.21,0.85 -8.61,2.09 -13.17,3.7 0.22,2.98 0.6,5.92 1.11,8.89 7.79,1.99 16.01,2.97 24.65,2.97l-2.41 23.74c-7.41,0 -14.02,-0.63 -19.84,-1.87 0.51,5.57 1.04,11.14 1.68,16.71z"/>
  <path id="10" class="fil0" d="M2192.99 18.55l3.16 30.41c-33.39,0 -66.71,1.23 -99.94,3.7 -2.37,4.81 -4.65,9.46 -6.87,13.89 12.98,-2.72 26.14,-4.08 39.5,-4.08 13.96,0 24.84,2.41 32.63,7.25 10.63,5.44 15.95,14.08 15.95,25.95 -0.47,8.67 -5.06,17.18 -13.7,25.6 10.51,2.47 20.76,5.06 30.76,7.79l-5 31.14c-19.4,-4.81 -38.71,-9.15 -57.85,-12.98 -14.21,10 -29.56,19.27 -45.98,27.82l-18.74 -30.41c5.7,-2.22 11.08,-4.59 16.14,-7.06 -4.84,-0.85 -9.65,-1.71 -14.46,-2.6l5 -31.14c17.79,2.72 35.35,5.79 52.66,9.27 9.02,-6.08 13.55,-10.32 13.55,-12.79 0,-2.85 -1.36,-5.38 -4.08,-7.63 -2.59,-1.96 -6.61,-2.94 -12.06,-2.94 -18.42,0.85 -35.29,4.62 -50.64,11.3 -5.92,12.98 -11.61,26.08 -17.06,39.31l-33.36 -7.41c11.36,-27.44 22.91,-53.11 34.65,-76.97 -7.91,0.89 -15.82,1.74 -23.74,2.59l-2.79 -30.22c14.24,-1.84 28.64,-3.39 43.23,-4.62 4.18,-7.69 8.32,-15.1 12.41,-22.25l33.2 7.41c-2.22,4.08 -4.46,8.1 -6.68,12.06 26.2,-1.61 52.92,-2.41 80.1,-2.41z"/>
 </g>
</svg>
