<?xml version="1.0" encoding="UTF-8"?>
<!DOCTYPE svg PUBLIC "-//W3C//DTD SVG 1.1//EN" "http://www.w3.org/Graphics/SVG/1.1/DTD/svg11.dtd">
<!-- Creator: CorelDRAW 2019 (64-Bit) -->
<svg xmlns="http://www.w3.org/2000/svg" xml:space="preserve" width="244.514mm" height="52.7504mm" version="1.1" style="shape-rendering:geometricPrecision; text-rendering:geometricPrecision; image-rendering:optimizeQuality; fill-rule:evenodd; clip-rule:evenodd"
viewBox="0 0 275.53 59.44"
 xmlns:xlink="http://www.w3.org/1999/xlink"
 xmlns:xodm="http://www.corel.com/coreldraw/odm/2003">
 <defs>
  <style type="text/css">
   <![CDATA[
    .fil0 {fill:#332C2B;fill-rule:nonzero}
   ]]>
  </style>
 </defs>
 <g id="图层_x0020_1">
  <metadata id="CorelCorpID_0Corel-Layer"/>
  <path class="fil0" d="M17.49 8.89l3.14 8.97c-1.74,0.53 -3.49,1.05 -5.24,1.58 -1.17,10.95 -1.85,22.37 -2.02,34.24l-10.28 -1.05c0.09,-10.34 0.63,-20.25 1.63,-29.72 -0.78,0.27 -1.49,0.5 -2.09,0.73l-2.63 -9.23c6.11,-2.15 11.94,-3.98 17.49,-5.51zm22.92 -2.94c0.26,-1.74 0.5,-3.48 0.72,-5.17l9.36 1.11c-0.18,1.27 -0.32,2.49 -0.46,3.68 2.66,0.17 4.93,0.92 6.8,2.22 2.23,1.49 3.34,3.39 3.34,5.7 -0.09,2.87 -0.6,5.98 -1.56,9.3l0.51 4.97c-3.74,0 -7.47,0.11 -11.2,0.32 -0.08,1.05 -0.15,2.08 -0.19,3.08l0.46 0c3.58,0 6.61,0.78 9.1,2.36 2.49,1.61 3.73,3.81 3.73,6.6 0,2.72 -0.72,6.73 -2.16,12.04l-9.36 -1.89c1.35,-3.41 2.03,-5.94 2.03,-7.6 0,-0.66 -0.41,-1.16 -1.25,-1.51 -0.96,-0.3 -1.98,-0.46 -3.07,-0.46 -0.3,6.2 -0.5,12.44 -0.59,18.73l-9.49 -1.05c0.04,-5.72 0.19,-11.33 0.46,-16.83 -0.7,0.13 -1.37,0.27 -2.03,0.39 -0.21,4.98 -0.39,9.96 -0.53,14.93l-9.69 -1.11c0.04,-3.98 0.13,-7.85 0.26,-11.65 -0.56,0.09 -0.97,0.12 -1.24,0.12 -5.77,0 -8.64,-2.85 -8.64,-8.57 0,-4.63 0.85,-9.6 2.55,-14.93l4.51 0.92c1.44,-0.26 2.86,-0.48 4.26,-0.66 0.09,-1.31 0.2,-2.57 0.34,-3.79 -1.62,0.56 -3.17,1.2 -4.65,1.89l-2.88 -8.57c2.88,-1.01 5.7,-1.83 8.45,-2.49 0.21,-1.92 0.46,-3.82 0.72,-5.7l9.75 1.05c-0.13,0.96 -0.23,1.9 -0.32,2.82 0.69,-0.13 1.35,-0.21 1.97,-0.26zm-2.95 8.77c-0.18,1.7 -0.32,3.36 -0.46,4.97 0.74,-0.09 1.42,-0.15 2.03,-0.19 0.12,-1.71 0.28,-3.39 0.46,-5.05 -0.66,0.09 -1.34,0.18 -2.03,0.27zm11.65 -0.13c-0.18,1.49 -0.32,2.91 -0.46,4.26 0.74,-0.04 1.42,-0.07 2.03,-0.07 0.21,-0.87 0.32,-1.68 0.32,-2.42 0,-0.83 -0.64,-1.42 -1.9,-1.77zm-10.99 17.88c0.08,-1.26 0.17,-2.47 0.26,-3.6 -0.78,0.08 -1.49,0.17 -2.1,0.26 -0.08,1.22 -0.17,2.47 -0.26,3.73 0.7,-0.13 1.4,-0.26 2.1,-0.39zm-12.11 2.36c0.08,-1.49 0.17,-2.95 0.26,-4.39 -0.57,0.09 -1.12,0.18 -1.63,0.27 -0.13,0.87 -0.22,1.72 -0.27,2.55 0,0.96 0.55,1.49 1.64,1.58z"/>
  <path id="1" class="fil0" d="M99.27 2.87l12.25 1.37c-2.58,13.41 -4.23,27.4 -4.98,41.97 5.2,-0.26 8.69,-0.87 10.48,-1.83 2.27,-0.65 3.4,-2.36 3.4,-5.11 -0.12,-3.88 -0.5,-7.85 -1.11,-11.91 -0.7,-4.37 -1.64,-8.15 -2.82,-11.33l11.79 -2.61c1.35,4.15 2.31,8.4 2.87,12.76 0.75,5.59 1.12,10.92 1.12,15.98 0,6.16 -2.4,10.17 -7.21,12.04 -3.92,2.06 -12.44,3.12 -25.53,3.21l-3.14 0c-7.6,0 -13.62,-1.2 -18.07,-3.6 -4.23,-2.54 -6.36,-6.83 -6.36,-12.89 0,-2.54 0.45,-6.53 1.32,-11.99 1.22,-5.8 2.2,-10.1 2.94,-12.89l11.79 2.61c-1.26,3.59 -2.2,6.93 -2.82,10.02 -0.83,3.75 -1.31,6.5 -1.44,8.25 0,3.84 1.03,6.29 3.07,7.33 1.84,1.01 4.28,1.64 7.34,1.9 0.48,-15.05 2.18,-29.48 5.11,-43.27z"/>
  <path id="2" class="fil0" d="M155.85 9.88c0.83,-3.1 1.68,-6.13 2.55,-9.1l11.01 2.36c-0.57,2.04 -1.14,4.15 -1.71,6.28 2.72,0.44 4.98,1.75 6.82,3.93 1.56,2.04 2.57,4.32 3.01,6.8 0.92,-4.84 2.25,-9.89 4,-15.12l3.14 0.65c1.74,-0.21 3.66,-0.37 5.77,-0.46 2.53,0.09 4.67,0.36 6.41,0.79 1.88,0.69 3.36,1.74 4.45,3.14 1.83,1.22 2.75,9.6 2.75,25.14l0 3.99c0,8.65 -0.85,13.97 -2.55,15.98 -1.79,2.97 -5.47,4.51 -11.06,4.65l-1.18 -0.2c-4.49,0 -7.61,-0.69 -9.36,-2.09 -1.56,-0.87 -2.66,-2.73 -3.27,-5.56 -0.3,-2.7 -0.48,-6.57 -0.53,-11.59 -0.04,0.21 -0.08,0.44 -0.12,0.65 -1.44,6.42 -3.02,11.55 -4.72,15.39l-11.01 -2.36c2.28,-5.75 3.96,-11.15 5.05,-16.17 0.99,-4.67 1.5,-8.49 1.5,-11.45 0,-1.66 -0.28,-2.93 -0.85,-3.8 -0.35,-0.57 -0.76,-0.96 -1.24,-1.18 -3.41,12.66 -6.55,25.54 -9.43,38.63l-10.99 -2.29c2.75,-12.61 5.54,-24.35 8.38,-35.22 -1.79,0.48 -3.62,1.14 -5.5,1.97l-3.68 -10.74c1.62,-0.66 4.35,-1.4 8.19,-2.22 1.4,-0.31 2.79,-0.57 4.19,-0.79zm34.05 38.63c1.7,0 2.66,-0.41 2.88,-1.24 0.35,-1.09 0.51,-4.12 0.51,-9.1l0 -3.02c0,-11.87 -0.37,-18.18 -1.11,-18.92 -0.7,-0.31 -1.37,-0.46 -2.03,-0.46 -0.21,0 -0.59,0.04 -1.11,0.12 -1.53,5.42 -2.3,10.78 -2.3,16.11 0,7.51 0.13,12.48 0.4,14.93 0.26,1.04 1.17,1.56 2.75,1.56z"/>
  <path id="3" class="fil0" d="M220.02 3.99c2.04,0.13 5.64,1.42 10.79,3.87 3.45,1.96 5.17,4.34 5.17,7.13 0,2.31 -1.01,4.28 -3.01,5.9 -2.45,2.04 -4.12,3.51 -5.04,4.38 -1.14,0.87 -1.71,1.62 -1.71,2.22 0,1.49 2.56,3.08 7.66,4.78l-4 7.53c-4.4,-0.35 -8.64,-2.45 -12.69,-6.28 -1.32,-1.92 -1.97,-3.93 -1.97,-6.03 0,-2.09 1.31,-4.17 3.92,-6.21 0.96,-0.92 2.51,-2.22 4.65,-3.93 0.79,-0.6 1.18,-1.13 1.18,-1.56 0,-0.84 -0.73,-1.55 -2.16,-2.17 -2.1,-0.78 -4.37,-1.65 -6.82,-2.61l4 -7.01zm10.74 38.69l2.87 9.75c-4.31,2.13 -9.21,3.71 -14.66,4.72l-2.63 -10.02c5.12,-1.17 9.91,-2.66 14.41,-4.45zm10.73 -35.81l3.8 0.92c0.61,-0.18 1.27,-0.35 1.97,-0.53 1.4,-0.35 2.82,-0.59 4.26,-0.73 0.35,-2.22 0.76,-4.4 1.24,-6.54l9.17 1.11c-0.36,1.83 -0.68,3.66 -0.98,5.5 2.96,0.44 5.47,1.4 7.53,2.88 2.09,1.53 3.71,3.89 4.84,7.07 1.4,4.23 2.15,8.73 2.22,13.49l0 0.85c0,7.37 -0.5,12.92 -1.5,16.63 -1.23,4.46 -3.75,7.58 -7.6,9.36 -3.45,1.71 -6.55,2.56 -9.3,2.56l-3.02 0c-6.11,0 -11.02,-2.15 -14.73,-6.41 -3.36,-3.84 -5.04,-9.02 -5.04,-15.52 0,-5.93 0.61,-11.89 1.83,-17.88 1.61,-5.36 3.39,-9.62 5.3,-12.76zm18.08 8.96c-0.39,3.15 -0.73,6.27 -0.98,9.36 1.79,0.22 3.51,0.46 5.17,0.73l-0.85 9.94c-1.71,-0.21 -3.39,-0.41 -5.05,-0.58 -0.09,1.88 -0.15,3.75 -0.19,5.63l-9.17 -1.12c0.04,-1.97 0.09,-3.87 0.13,-5.7 -1.26,-0.17 -2.47,-0.32 -3.6,-0.46 -0.04,0.75 -0.09,1.42 -0.13,2.03 0,3.62 0.85,7.29 2.56,10.99 1.61,2.4 3.85,3.61 6.74,3.61l2.22 0c1.66,0 3.45,-0.79 5.37,-2.36 1.22,-0.92 2.07,-2.63 2.55,-5.11 0.44,-2.19 0.66,-6.25 0.66,-12.18l0 -1.37c0,-2.58 -0.35,-5.22 -1.05,-7.92 -0.53,-2.15 -1.33,-3.63 -2.42,-4.46 -0.6,-0.48 -1.26,-0.83 -1.96,-1.05zm-10.28 8.19c0.26,-2.58 0.53,-5.06 0.78,-7.46 -0.69,0.3 -1.33,0.61 -1.9,0.92 -0.74,1.92 -1.42,3.93 -2.02,6.02l0 0.13c1.08,0.12 2.13,0.26 3.14,0.39z"/>
 </g>
</svg>
