<?xml version="1.0" encoding="UTF-8"?>
<!DOCTYPE svg PUBLIC "-//W3C//DTD SVG 1.1//EN" "http://www.w3.org/Graphics/SVG/1.1/DTD/svg11.dtd">
<!-- Creator: CorelDRAW 2019 (64-Bit) -->
<svg xmlns="http://www.w3.org/2000/svg" xml:space="preserve" width="89.9252mm" height="89.9252mm" version="1.1" style="shape-rendering:geometricPrecision; text-rendering:geometricPrecision; image-rendering:optimizeQuality; fill-rule:evenodd; clip-rule:evenodd"
viewBox="0 0 40.98 40.98"
 xmlns:xlink="http://www.w3.org/1999/xlink"
 xmlns:xodm="http://www.corel.com/coreldraw/odm/2003">
 <defs>
  <style type="text/css">
   <![CDATA[
    .fil0 {fill:#332C2B;fill-rule:nonzero}
   ]]>
  </style>
 </defs>
 <g id="图层_x0020_1">
  <metadata id="CorelCorpID_0Corel-Layer"/>
  <path class="fil0" d="M22.03 0c0.39,1.46 0.89,2.83 1.52,4.11 2.48,-0.27 5,-0.43 7.56,-0.49 3.04,0 5.39,0.41 7.05,1.25 1.79,1.16 2.73,2.91 2.81,5.22 -0.05,1.97 -0.65,4.64 -1.78,8l-6.97 -0.94c0.86,-2.17 1.4,-3.99 1.61,-5.45 0,-1.13 -1.5,-1.69 -4.51,-1.69 -7.57,0.59 -14.49,2.01 -20.77,4.24 0.18,0.69 0.35,1.36 0.53,2.01 7.03,-1.73 13.72,-3.22 20.07,-4.47l2.19 6.08c-2.72,0.59 -5.42,1.19 -8.14,1.78 -0.44,1.19 -0.88,2.36 -1.29,3.49 5.48,-0.44 10.82,-0.7 16.04,-0.76l0.67 6.74c-6.2,0.03 -12.3,0.33 -18.32,0.9 -0.03,0.47 -0.05,0.91 -0.05,1.3 0,0.92 0.27,1.6 0.8,2.05 0.72,0.5 1.78,0.76 3.17,0.76 5.81,-0.3 10.2,-0.84 13.19,-1.61l1.21 6.83c-1.78,0.45 -4.03,0.81 -6.75,1.08 -2.56,0.33 -4.93,0.5 -7.1,0.53l-0.95 0c-3.39,0 -6.05,-0.59 -7.95,-1.78 -2.08,-1.49 -3.13,-3.7 -3.13,-6.61 0,-0.57 0.02,-1.15 0.05,-1.75 -3.13,0.42 -6.18,0.88 -9.16,1.39l-0.72 -6.84c3.64,-0.53 7.24,-1 10.81,-1.38 0.18,-0.81 0.37,-1.58 0.58,-2.33 -1.93,0.47 -3.88,0.94 -5.85,1.39l-1.08 -3.67 -4.29 1.39c-1.4,-4.03 -2.43,-8.21 -3.09,-12.56l6.84 -1.97c0.06,0.48 0.13,0.94 0.22,1.39 2.8,-0.98 5.74,-1.75 8.8,-2.33 -0.3,-0.8 -0.56,-1.61 -0.8,-2.41l6.97 -2.91z"/>
 </g>
</svg>
