<?xml version="1.0" encoding="UTF-8"?>
<!DOCTYPE svg PUBLIC "-//W3C//DTD SVG 1.1//EN" "http://www.w3.org/Graphics/SVG/1.1/DTD/svg11.dtd">
<!-- Creator: CorelDRAW 2019 (64-Bit) -->
<svg xmlns="http://www.w3.org/2000/svg" xml:space="preserve" width="241.202mm" height="54.783mm" version="1.1" style="shape-rendering:geometricPrecision; text-rendering:geometricPrecision; image-rendering:optimizeQuality; fill-rule:evenodd; clip-rule:evenodd"
viewBox="0 0 311.12 70.66"
 xmlns:xlink="http://www.w3.org/1999/xlink"
 xmlns:xodm="http://www.corel.com/coreldraw/odm/2003">
 <defs>
  <style type="text/css">
   <![CDATA[
    .fil0 {fill:#332C2B;fill-rule:nonzero}
   ]]>
  </style>
 </defs>
 <g id="图层_x0020_1">
  <metadata id="CorelCorpID_0Corel-Layer"/>
  <path class="fil0" d="M61.45 2.4l1.13 11.91c-8.15,0 -16.24,0.15 -24.29,0.45 0.65,7.85 1.3,15.99 1.94,24.44 8.2,-0.31 16.45,-0.68 24.74,-1.13l1.2 12.29c-8.25,0.45 -16.54,0.82 -24.89,1.11 0.46,5.31 0.88,10.6 1.28,15.9l-13.49 1.5c-0.45,-5.84 -0.92,-11.47 -1.42,-16.86 -8.79,0.29 -17.64,0.52 -26.53,0.67l-1.13 -12.21c8.79,-0.15 17.69,-0.4 26.68,-0.74 -0.7,-8.65 -1.38,-16.79 -2.02,-24.44 -6.94,0.31 -13.86,0.68 -20.76,1.13l-1.2 -11.98c18.33,-1.36 37.92,-2.02 58.76,-2.02zm-46.84 15.88c1.5,5.14 3.59,9.91 6.29,14.31l-11.63 5.77c-2.84,-4.49 -5.04,-9.62 -6.59,-15.36l11.92 -4.72zm36.04 -0.68l12.89 2.99c-2.4,4.95 -4.2,10.35 -5.4,16.19l-12.89 -2.92c1.1,-5.7 2.9,-11.13 5.4,-16.27z"/>
  <path id="1" class="fil0" d="M116.92 0.52c0.81,2.75 1.88,5.35 3.22,7.79 4,-0.45 7.99,-0.74 12,-0.9 5.14,0 9.16,0.7 12.06,2.1 3.04,1.8 4.64,4.58 4.8,8.33 -0.1,3.1 -0.9,7.32 -2.4,12.66l-12.06 -1.5c1.15,-3.4 1.88,-6.25 2.17,-8.54 0,-1.25 -2.52,-1.88 -7.57,-1.88 -8.89,0.7 -17.19,2.12 -24.88,4.27l9.67 3.15c-1.91,2.6 -3.58,5.13 -5.03,7.57 3.75,-0.15 7.47,-0.29 11.17,-0.45 -0.24,-2.1 -0.52,-4.07 -0.82,-5.92l12.58 -1.2c0.31,2.25 0.63,4.5 0.97,6.75 4.9,-0.1 9.77,-0.15 14.62,-0.15l1.27 12.06c-4.94,0 -9.71,0.03 -14.31,0.08 0.31,2.46 0.6,4.87 0.91,7.28 3.59,-0.51 6.64,-1.06 9.14,-1.65l2.16 11.31c-2.79,0.75 -6.06,1.36 -9.81,1.8 0.24,2 0.5,4.02 0.74,6.08l-12.58 1.11c-0.24,-2.05 -0.5,-4.02 -0.75,-5.91 -2.55,0.14 -4.99,0.22 -7.34,0.22l-2.02 0c-7.24,0 -12.92,-1 -17.01,-2.99 -4.45,-2.55 -6.68,-6.32 -6.68,-11.32 0.05,-1.34 0.15,-2.67 0.31,-3.98 -2.9,0.2 -5.72,0.43 -8.47,0.68l-1.13 -11.98c4.25,-0.36 8.49,-0.65 12.74,-0.91 1.45,-3.59 3.22,-7.06 5.32,-10.41 -2.1,0.65 -4.12,1.32 -6.08,2.02 0.6,1.41 1.2,2.78 1.8,4.12l-11.09 3.68c-2.65,-6 -4.55,-12.2 -5.69,-18.6l11.01 -3.29c0.15,0.95 0.32,1.89 0.52,2.84 5.14,-1.79 10.46,-3.27 15.96,-4.41 -0.65,-1.56 -1.23,-3.13 -1.73,-4.73l12.29 -5.17zm4.64 44.52c-6.04,0.19 -11.91,0.45 -17.61,0.74 -0.14,1.05 -0.22,1.97 -0.22,2.78 0,1.65 0.82,2.88 2.47,3.67 2.2,0.95 5.45,1.42 9.75,1.42 2.35,-0.09 4.57,-0.22 6.66,-0.37 -0.35,-2.85 -0.69,-5.59 -1.05,-8.24z"/>
  <path id="2" class="fil0" d="M165.72 2.1c8.54,0.26 16.96,0.52 25.26,0.83 0.24,-1.01 0.52,-1.98 0.82,-2.93l12.6 1.13c-0.26,0.84 -0.49,1.62 -0.68,2.33 8.39,0.4 16.64,0.82 24.72,1.27l-0.59 8.39c-8.8,-0.45 -17.37,-0.84 -25.71,-1.19 -0.1,0.65 -0.18,1.27 -0.23,1.87 7.39,0.36 14.75,0.75 22.04,1.2l-1.28 7.49c-17.53,-0.95 -35.09,-1.78 -52.68,-2.47l1.13 -7.43c6.05,0.2 12.06,0.43 18.06,0.68 0.05,-0.7 0.1,-1.37 0.15,-2.02 -8.44,-0.4 -16.69,-0.78 -24.74,-1.13l1.13 -8.02zm9.3 37.1c-1.7,-0.31 -3.01,-0.68 -3.9,-1.13 -2.55,-1.3 -3.82,-3.4 -3.82,-6.31 0,-2.79 1.68,-5.61 5.03,-8.47l6.89 1.57c6.5,-1.45 12.92,-2.17 19.26,-2.17 9.94,0 16.73,0.65 20.37,1.96 4.21,1.05 6.31,3.75 6.31,8.1l0 1.13c0,2.34 -1.36,3.89 -4.05,4.64 -0.79,0.24 -1.62,0.45 -2.47,0.6 -0.36,0.55 -0.63,1.13 -0.83,1.71 3.01,-0.04 6.02,-0.06 9.07,-0.06l0.98 8.61c-20.49,0 -41.09,1.23 -61.82,3.68l-0.91 -8.7c2.95,-0.36 5.92,-0.7 8.91,-1.05 0.2,-1.45 0.54,-2.83 0.98,-4.12zm29.3 0.59l-17.47 0c-0.24,0.91 -0.47,1.73 -0.67,2.48 5.79,-0.45 11.66,-0.81 17.61,-1.05 0.14,-0.5 0.32,-0.97 0.52,-1.43zm-5.24 -10.49c-6.5,0.15 -12.97,1.05 -19.41,2.7 0.1,0.26 0.2,0.45 0.29,0.6 0.46,0.4 0.91,0.6 1.36,0.6l23.61 0c3.15,0 5.49,-0.08 7.03,-0.23 0.75,-0.24 1.13,-0.84 1.13,-1.79 0,-0.6 -0.72,-1.05 -2.17,-1.36 -1.65,-0.35 -5.59,-0.52 -11.83,-0.52zm-26.09 23.76l4.66 1.05c7.05,-1.56 14.08,-2.33 21.13,-2.33 10.09,0 16.96,0.68 20.6,2.02 4.21,1.1 6.31,3.95 6.31,8.54l0 1.2c0,2.7 -1.38,4.46 -4.13,5.32 -2.79,0.95 -6.89,1.47 -12.29,1.57l-25.32 0c-6.55,0 -10.99,-0.7 -13.34,-2.1 -2.6,-1.45 -3.9,-3.88 -3.9,-7.28 0,-2.65 2.1,-5.32 6.29,-8.01zm26.38 5.91c-6.45,0.15 -12.84,0.93 -19.18,2.33 0.1,0.5 0.23,0.87 0.37,1.13 0.36,0.55 0.75,0.82 1.2,0.82l22.33 0c3.3,0 5.72,-0.12 7.26,-0.37 0.81,-0.35 1.2,-1.13 1.2,-2.33 0,-0.5 -0.69,-0.87 -2.1,-1.11 -1.55,-0.31 -5.24,-0.46 -11.09,-0.46z"/>
  <path id="3" class="fil0" d="M278.52 18.29l12 1.13c-1.01,4.3 -1.88,8.63 -2.63,13.03 5.7,-0.79 12.55,-1.94 20.54,-3.44l2.39 12.66c-5.19,1.2 -12.53,2.37 -22.02,3.52 -0.95,0.15 -1.91,0.28 -2.85,0.38 -0.9,7.94 -1.47,16.03 -1.73,24.27l-12.06 -1.28c0.1,-7.39 0.52,-14.63 1.28,-21.73 -2.01,0.15 -3.68,0.23 -5.03,0.23l-2.7 0c-5.9,0 -10.24,-1.41 -13.03,-4.2 -2.56,-2.4 -3.82,-5.63 -3.82,-9.67 0,-4.11 1.22,-8.15 3.67,-12.14l-3.07 -10.64c18.08,-3.85 35.24,-7.15 51.48,-9.9l3.9 11.17c-13.15,2.49 -26.83,5.15 -41.07,7.94l2.99 0.68c-2.6,2.8 -4.59,6.32 -6,10.56 0,2.4 2.25,3.59 6.75,3.59 2.24,0 4.82,-0.14 7.71,-0.45 0.91,-5.4 2,-10.64 3.3,-15.73zm-24.95 29.9l10.86 3.59c-2.89,5.95 -5.41,11.87 -7.56,17.76l-10.72 -3.61c2.8,-6.79 5.27,-12.71 7.42,-17.75zm42.27 -0.52c6.09,3.84 11.19,8.71 15.28,14.61l-8.02 8.17c-4.2,-4.8 -9.2,-9.72 -14.99,-14.76l7.72 -8.02z"/>
 </g>
</svg>
