<?xml version="1.0" encoding="UTF-8"?>
<!DOCTYPE svg PUBLIC "-//W3C//DTD SVG 1.1//EN" "http://www.w3.org/Graphics/SVG/1.1/DTD/svg11.dtd">
<!-- Creator: CorelDRAW 2019 (64-Bit) -->
<svg xmlns="http://www.w3.org/2000/svg" xml:space="preserve" width="244.514mm" height="56.1811mm" version="1.1" style="shape-rendering:geometricPrecision; text-rendering:geometricPrecision; image-rendering:optimizeQuality; fill-rule:evenodd; clip-rule:evenodd"
viewBox="0 0 314.36 72.23"
 xmlns:xlink="http://www.w3.org/1999/xlink"
 xmlns:xodm="http://www.corel.com/coreldraw/odm/2003">
 <defs>
  <style type="text/css">
   <![CDATA[
    .fil0 {fill:#332C2B;fill-rule:nonzero}
   ]]>
  </style>
 </defs>
 <g id="图层_x0020_1">
  <metadata id="CorelCorpID_0Corel-Layer"/>
  <path class="fil0" d="M61.48 9.27l1.26 10.98c-3.82,0 -7.58,0.03 -11.27,0.08 -0.6,1.99 -1.15,3.96 -1.64,5.9 5.52,-0.15 11.03,-0.23 16.51,-0.23l1.11 10.99 -1.86 0c1.75,1.59 3.37,3.3 4.86,5.15l-7.99 7.99c-4.08,-3.89 -8.96,-7.84 -14.65,-11.88l0.91 -1.05c-10.86,0.36 -21.24,0.89 -31.16,1.64l4.56 4.1c-4.44,4.28 -8.91,8.77 -13.45,13.45l-8.67 -7.99c2.94,-3.24 5.79,-6.17 8.52,-8.81 -2.19,0.19 -4.32,0.42 -6.42,0.66l-1.26 -10.98c4.39,-0.45 8.73,-0.82 13.07,-1.12 -0.29,-2.04 -0.57,-4 -0.82,-5.9 -2.84,0.25 -5.63,0.5 -8.36,0.75l-1.2 -11.13c2.64,-0.25 5.3,-0.47 7.99,-0.68 -0.41,-2.43 -0.78,-4.81 -1.12,-7.1l12.85 -1.41c0.4,2.49 0.79,5.04 1.19,7.62 5.58,-0.31 11.13,-0.55 16.66,-0.75 0.84,-2.49 1.7,-4.91 2.54,-7.24l12.85 2.98c-0.5,1.35 -0.97,2.69 -1.41,4.04 2.14,-0.05 4.28,-0.08 6.42,-0.08zm-34.66 17.92c3.14,-0.2 6.2,-0.34 9.19,-0.45 0.59,-2.09 1.13,-4.1 1.64,-6.06 -3.99,0.15 -7.88,0.36 -11.66,0.6 0.31,1.99 0.57,3.96 0.83,5.9zm11.65 13.37c0.75,5.38 1.59,10.95 2.54,16.72l5.61 -5.9c3.98,2.4 7.37,5.48 10.16,9.27l-6.28 6.27c-2.64,-2.98 -5.75,-5.93 -9.33,-8.81 0.45,3.29 0.94,6.59 1.49,9.93l-13.14 1.57c-1.59,-9.22 -2.97,-18.37 -4.1,-27.48l13.07 -1.57zm-20.54 11.65l7.76 7.16c-3.39,3.19 -6.77,6.48 -10.16,9.87l-8.13 -7.18c3.63,-3.63 7.14,-6.92 10.53,-9.85zm38.84 -5.01c4.47,2.35 8.23,5.3 11.27,8.9l-6.27 6.27c-3.03,-2.89 -6.69,-5.85 -10.98,-8.89l5.98 -6.28z"/>
  <path id="1" class="fil0" d="M85.99 2.69c8.52,0.25 16.9,0.52 25.18,0.83 0.24,-1.01 0.52,-1.98 0.82,-2.92l12.56 1.12c-0.25,0.84 -0.48,1.62 -0.68,2.32 8.36,0.4 16.58,0.82 24.64,1.26l-0.59 8.36c-8.77,-0.45 -17.31,-0.84 -25.62,-1.19 -0.1,0.65 -0.18,1.26 -0.23,1.86 7.37,0.36 14.7,0.75 21.96,1.2l-1.27 7.47c-17.48,-0.94 -34.98,-1.77 -52.51,-2.46l1.12 -7.41c6.03,0.2 12.02,0.43 18,0.68 0.05,-0.7 0.1,-1.36 0.15,-2.01 -8.41,-0.4 -16.64,-0.78 -24.65,-1.12l1.12 -7.99zm9.27 36.98c-1.7,-0.31 -3,-0.68 -3.89,-1.12 -2.54,-1.3 -3.81,-3.39 -3.81,-6.28 0,-2.78 1.67,-5.6 5.01,-8.44l6.87 1.57c6.48,-1.44 12.88,-2.17 19.2,-2.17 9.91,0 16.67,0.65 20.31,1.95 4.19,1.05 6.28,3.74 6.28,8.07l0 1.12c0,2.33 -1.35,3.88 -4.04,4.63 -0.79,0.24 -1.62,0.45 -2.46,0.6 -0.36,0.55 -0.62,1.12 -0.83,1.71 3,-0.04 6,-0.06 9.04,-0.06l0.98 8.58c-20.42,0 -40.96,1.22 -61.62,3.67l-0.91 -8.67c2.94,-0.36 5.9,-0.7 8.89,-1.05 0.2,-1.44 0.54,-2.82 0.98,-4.1zm29.2 0.59l-17.41 0c-0.24,0.91 -0.47,1.72 -0.66,2.47 5.77,-0.45 11.63,-0.8 17.55,-1.05 0.14,-0.5 0.32,-0.97 0.52,-1.43zm-5.23 -10.45c-6.48,0.15 -12.93,1.05 -19.35,2.69 0.1,0.25 0.2,0.45 0.29,0.6 0.46,0.4 0.91,0.6 1.35,0.6l23.53 0c3.14,0 5.47,-0.08 7.01,-0.23 0.75,-0.24 1.12,-0.84 1.12,-1.78 0,-0.6 -0.71,-1.05 -2.17,-1.35 -1.64,-0.34 -5.57,-0.52 -11.79,-0.52zm-26.01 23.69l4.64 1.05c7.02,-1.56 14.04,-2.32 21.06,-2.32 10.06,0 16.9,0.68 20.54,2.01 4.19,1.1 6.28,3.94 6.28,8.52l0 1.2c0,2.69 -1.38,4.45 -4.12,5.3 -2.78,0.94 -6.87,1.47 -12.25,1.57l-25.24 0c-6.53,0 -10.95,-0.7 -13.3,-2.09 -2.59,-1.44 -3.89,-3.86 -3.89,-7.25 0,-2.64 2.09,-5.3 6.27,-7.98zm26.3 5.89c-6.42,0.15 -12.8,0.93 -19.12,2.32 0.1,0.5 0.23,0.87 0.37,1.12 0.36,0.55 0.75,0.82 1.2,0.82l22.26 0c3.29,0 5.7,-0.11 7.24,-0.37 0.8,-0.34 1.2,-1.12 1.2,-2.32 0,-0.5 -0.69,-0.87 -2.09,-1.11 -1.54,-0.31 -5.23,-0.46 -11.05,-0.46z"/>
  <path id="2" class="fil0" d="M191.55 0l11.94 2.69c-1.99,4.68 -3.93,9.38 -5.83,14.12 1.05,-0.1 2.12,-0.23 3.21,-0.38 3.14,-0.29 6.83,-0.76 11.07,-1.41 -2.45,-2.19 -5.06,-4.1 -7.85,-5.75l7.7 -6.95c3.98,1.99 7.47,4.68 10.45,8.07l-4.03 3.74c3.14,-0.46 6.48,-0.98 10.01,-1.57l2.09 11.27c-5.28,1.2 -12.8,2.32 -22.56,3.37 -5.91,0.75 -10.82,1.25 -14.71,1.49 -0.4,1.1 -0.79,2.22 -1.2,3.37 5.48,-1.2 10.89,-1.8 16.22,-1.8 6.92,0 12.35,0.83 16.28,2.47 3.99,1.78 5.98,4.31 5.98,7.53 0,3.99 -1.33,6.97 -3.96,8.97 -1.34,1.19 -2.78,2.38 -4.32,3.58 4.13,0.74 8.29,1.36 12.47,1.86l-2.32 11.96c-8.55,-1.05 -16.55,-2.45 -23.97,-4.18 -5.09,3.19 -10.84,6.45 -17.26,9.78l-5.15 -9.85c2.29,-1.4 4.6,-2.84 6.95,-4.33 -3.09,-1.1 -6.08,-2.24 -8.96,-3.44 -1.64,4.88 -3.24,9.76 -4.78,14.65l-12.03 -2.61c4.28,-13.5 8.62,-26.12 13,-37.87 -4.04,-0.45 -7.15,-1.62 -9.34,-3.51 -2.64,-2.19 -3.95,-5.11 -3.95,-8.74 0,-4.78 1.72,-9.51 5.15,-14.19l12.54 2.69c-2.18,2.38 -3.88,5.41 -5.07,9.04 0,2.04 1.67,3.19 5.01,3.43 2.38,-6.12 4.81,-11.94 7.24,-17.48zm14.71 49.37c1.85,-1.2 3.66,-2.38 5.46,-3.58 2.43,-1.64 3.66,-2.74 3.66,-3.29 0,-0.74 -3.14,-1.12 -9.41,-1.12 -4.88,0.2 -10.13,1.15 -15.77,2.84 5.19,1.99 10.54,3.71 16.06,5.15z"/>
  <path id="3" class="fil0" d="M254.3 6.87c0.75,9.42 1.62,19.25 2.63,29.51 1.08,-5.98 2.21,-11.63 3.35,-16.95l10.68 2.38c-2.09,10.31 -4.03,20.74 -5.83,31.3 6.17,1.49 11.5,3.11 15.99,4.86l-2.98 10.08c-5.43,-1.59 -10.34,-2.98 -14.72,-4.18 -0.34,2.35 -0.71,4.65 -1.12,6.95l-10.75 -2.46c0.79,-5.33 1.62,-10.49 2.46,-15.46l-5.75 0.6c-1.59,-15.3 -2.97,-30.56 -4.1,-45.79l10.15 -0.83zm14.94 -3.29c3.05,0 5.8,1.12 8.3,3.37 2.64,2.49 4.05,6.79 4.26,12.93 3.88,-0.75 7.84,-1.38 11.87,-1.87 -0.4,-4.28 -0.76,-8.52 -1.12,-12.7l13.08 -1.41c0.45,4.33 0.87,8.73 1.26,13.22 2.05,-0.1 4.12,-0.15 6.21,-0.15l1.26 12.03c-2.09,0 -4.18,0.05 -6.27,0.14 1.2,11.96 2.47,24.36 3.81,37.2l-13.07 1.43c-0.65,-5.69 -1.27,-11.28 -1.87,-16.81 -3.03,3.79 -6.12,7.6 -9.25,11.43l-9.19 -8.59c5.67,-7.57 11.23,-14.47 16.66,-20.69 -0.1,-0.99 -0.2,-1.99 -0.31,-2.98 -4.08,0.45 -8.15,1.07 -12.17,1.86l-0.89 -9.04 0 0.83c0,4.58 -0.47,9.91 -1.43,15.97 -0.69,5.58 -1.64,9.94 -2.83,13.08l-10.16 -2.01c1.7,-5.83 2.83,-11.61 3.43,-17.34 0.5,-4.88 0.75,-8.62 0.75,-11.21 0,-3.63 -0.57,-6.04 -1.72,-7.24 -0.79,-0.7 -1.99,-1.05 -3.58,-1.05 -2.43,0.6 -5.15,1.7 -8.15,3.29l-2.69 -9.87c4.44,-2.54 9.04,-3.81 13.82,-3.81z"/>
 </g>
</svg>
