<?xml version="1.0" encoding="UTF-8"?>
<!DOCTYPE svg PUBLIC "-//W3C//DTD SVG 1.1//EN" "http://www.w3.org/Graphics/SVG/1.1/DTD/svg11.dtd">
<!-- Creator: CorelDRAW 2019 (64-Bit) -->
<svg xmlns="http://www.w3.org/2000/svg" xml:space="preserve" width="433.769mm" height="55.249mm" version="1.1" style="shape-rendering:geometricPrecision; text-rendering:geometricPrecision; image-rendering:optimizeQuality; fill-rule:evenodd; clip-rule:evenodd"
viewBox="0 0 882.71 112.43"
 xmlns:xlink="http://www.w3.org/1999/xlink"
 xmlns:xodm="http://www.corel.com/coreldraw/odm/2003">
 <defs>
  <style type="text/css">
   <![CDATA[
    .fil0 {fill:#332C2B;fill-rule:nonzero}
   ]]>
  </style>
 </defs>
 <g id="图层_x0020_1">
  <metadata id="CorelCorpID_0Corel-Layer"/>
  <path class="fil0" d="M8.15 6.15c13.48,1.25 26.37,3.03 38.66,5.33 -0.46,-2.85 -0.79,-5.25 -0.95,-7.22l18.56 -2c1.27,7.63 3.67,16.51 7.22,26.59 0.22,0.71 0.46,1.29 0.71,1.78 6.7,-0.57 13.24,-0.99 19.61,-1.31 -7.41,-2.28 -13.9,-4.22 -19.49,-5.79l5.67 -18.79c8.82,1.88 16.34,4.1 22.58,6.62l-5.33 17.84c3.79,-0.22 7.47,-0.38 11,-0.46l2.02 19.39c-9.77,0.08 -19.43,0.5 -28.98,1.29 1.19,2.76 2.44,5.57 3.79,8.39 0.54,1.19 1.07,2.26 1.53,3.21 2.93,-2.68 5.75,-5.25 8.51,-7.69l14.06 13.36c-4.1,3.85 -8.23,7.77 -12.41,11.7 4.34,6.78 9.3,13.9 14.89,21.41l-18.56 9.81c-4.1,-4.8 -8.07,-10.17 -11.95,-16.08 -4.48,4.5 -9.02,8.94 -13.58,13.36l-14.67 -13.36c6.15,-6.32 12.15,-12.23 17.98,-17.74 -3.79,-8.03 -7.26,-16.24 -10.41,-24.6 -7.73,0.79 -15.42,1.78 -23.04,2.97 0.3,4.1 0.63,8.19 0.93,12.29 4.58,-1.25 8.96,-2.64 13.14,-4.14l5.21 17.62c-5.37,2.22 -10.96,4.18 -16.79,5.91 0.54,6.7 1.09,13.4 1.65,20.1l-20.34 2.26c-0.48,-6.07 -0.95,-11.91 -1.41,-17.51 -3.71,0.73 -7.47,1.35 -11.24,1.9l-4.74 -17.86c4.9,-1.01 9.67,-2.04 14.31,-3.07 -0.3,-4.72 -0.67,-9.38 -1.05,-13.94 -4.5,0.87 -8.92,1.8 -13.26,2.82l-2 -19.39c4.72,-0.95 9.3,-1.86 13.72,-2.72 -0.32,-4.24 -0.65,-8.35 -0.95,-12.29 -2.6,-0.38 -5.13,-0.75 -7.57,-1.07l2.95 -18.91zm43.75 26.47c-1.74,-6.3 -3.07,-11.74 -4.02,-16.3l-1.53 14.89c-4.42,-0.71 -8.68,-1.33 -12.77,-1.9 0.16,1.9 0.32,3.83 0.46,5.79 6.07,-0.93 12.03,-1.76 17.86,-2.48z"/>
  <path id="1" class="fil0" d="M135.87 14.67c6.94,0.22 13.78,0.54 20.56,0.95 2.38,-4.66 4.78,-9.12 7.22,-13.36l19.98 6.13c-1.41,2.76 -2.84,5.57 -4.26,8.39 19.79,1.11 39.02,2.44 57.69,4.02l-2 19.39c-22.38,-1.57 -44.11,-3.03 -65.15,-4.36 -3.23,6.84 -6.46,13.9 -9.69,21.15 1.82,16.24 3.77,33.48 5.91,51.68l-20.46 2.48c-1.17,-9.77 -2.32,-19.47 -3.43,-29.08l-13.6 -4.62c5.99,-15.38 12.15,-29.72 18.46,-43.04 -4.74,-0.3 -9.42,-0.63 -14.08,-0.95l2.85 -18.79zm31.22 37.23c6.07,0.4 12.01,0.81 17.86,1.19 -0.48,-3.85 -0.91,-7.57 -1.31,-11.12l19.86 -1.78c0.56,4.74 1.11,9.62 1.65,14.67 8.92,0.79 17.64,1.69 26.13,2.72l-1.88 19.39c-7.43,-0.71 -14.67,-1.39 -21.75,-2.02 0.38,3.31 0.79,6.62 1.17,9.93 9.06,-0.79 18.14,-1.69 27.2,-2.72l2 19.05c-23,2.68 -46.35,4.42 -69.98,5.21l-1.9 -19.05c7.49,-0.22 15.05,-0.59 22.7,-1.05 -0.54,-4.66 -1.07,-9.12 -1.53,-13.38 -7.97,-0.71 -15.7,-1.37 -23.18,-2l2.97 -19.05z"/>
  <path id="2" class="fil0" d="M316.07 0.48c1.57,4.1 3.83,7.91 6.74,11.46 6.15,-0.54 12.45,-0.91 18.93,-1.07 7.87,0 14.02,1.07 18.44,3.19 4.72,2.76 7.2,7.06 7.45,12.89 -0.16,4.88 -1.61,11.48 -4.38,19.75l-18.44 -2.26c2.12,-5.27 3.39,-9.69 3.77,-13.24 0,-3.47 -3.69,-5.21 -11.1,-5.21 -14.27,0.95 -27.66,2.85 -40.21,5.69 16,0.22 32,0.97 48,2.24l-1.41 14.19c-8.19,-0.54 -16.38,-1.03 -24.6,-1.41 -1.25,0.87 -2.44,1.74 -3.53,2.6 4.32,1.72 8.23,4.52 11.7,8.39 1.25,1.33 2.4,2.87 3.43,4.6 7.49,-2.91 14.53,-5.39 21.15,-7.45l6.98 15.6c-7.41,3.01 -15.46,6.15 -24.11,9.46l0 1.19c11.42,2.99 21.35,6.21 29.78,9.69l-5.19 16.91c-10.33,-3.31 -19.63,-6.23 -27.91,-8.76 -2.6,5.37 -6.56,9.87 -11.82,13.48l-15.13 -10.75c7.65,-4.96 11.46,-11.74 11.46,-20.34 -0.46,-10.47 -6.07,-17.33 -16.79,-20.56 -5.29,3.77 -10.59,7.61 -15.96,11.46l-12.65 -11.22c7.1,-5.37 13.98,-10.37 20.7,-15.03 -2.6,-0.06 -5.13,-0.1 -7.57,-0.1l1.05 -11c-2.12,0.54 -4.3,1.17 -6.5,1.88 1.25,3.95 2.64,7.89 4.14,11.82l-17.49 5.81c-3.93,-10.57 -6.78,-21.49 -8.51,-32.77l17.37 -5.19c0.24,1.57 0.48,3.15 0.71,4.72 8.29,-2.6 16.95,-4.68 26.03,-6.26 -1.43,-2.3 -2.56,-4.62 -3.43,-6.98l18.91 -7.45zm-20.8 66.55l9.34 9.12c-7.89,6.3 -15.88,12.91 -24.01,19.85l-9.93 -8.98c8.43,-7.41 16.63,-14.08 24.6,-20zm7.91 13.84l9.58 8.98c-7.65,6.62 -15.42,13.56 -23.29,20.82l-9.93 -9c8.19,-7.73 16.06,-14.65 23.63,-20.8z"/>
  <path id="3" class="fil0" d="M424.98 94.82c0,3.47 -0.71,6.82 -2.12,10.05 -1.35,3.17 -3.13,5.65 -5.33,7.47l-9.1 -5.57c2.52,-2.82 3.77,-5.25 3.77,-7.2 -1.57,0.54 -3.11,0.83 -4.6,0.83 -2.84,0 -5.08,-0.91 -6.74,-2.72 -1.74,-1.65 -2.6,-3.89 -2.6,-6.74 0,-3.63 1.19,-6.54 3.55,-8.76 2.36,-2.28 5.35,-3.41 8.98,-3.41 4.64,0 8.23,1.53 10.75,4.6 2.3,2.76 3.43,6.58 3.43,11.46z"/>
  <path id="4" class="fil0" d="M524.67 6.15c13.48,1.25 26.37,3.03 38.66,5.33 -0.46,-2.85 -0.79,-5.25 -0.95,-7.22l18.56 -2c1.27,7.63 3.67,16.51 7.22,26.59 0.22,0.71 0.46,1.29 0.71,1.78 6.7,-0.57 13.24,-0.99 19.61,-1.31 -7.41,-2.28 -13.9,-4.22 -19.49,-5.79l5.67 -18.79c8.82,1.88 16.34,4.1 22.58,6.62l-5.33 17.84c3.79,-0.22 7.47,-0.38 11,-0.46l2.02 19.39c-9.77,0.08 -19.43,0.5 -28.98,1.29 1.19,2.76 2.44,5.57 3.79,8.39 0.54,1.19 1.07,2.26 1.53,3.21 2.93,-2.68 5.75,-5.25 8.51,-7.69l14.06 13.36c-4.1,3.85 -8.23,7.77 -12.41,11.7 4.34,6.78 9.3,13.9 14.89,21.41l-18.56 9.81c-4.1,-4.8 -8.07,-10.17 -11.95,-16.08 -4.48,4.5 -9.02,8.94 -13.58,13.36l-14.67 -13.36c6.15,-6.32 12.15,-12.23 17.98,-17.74 -3.79,-8.03 -7.26,-16.24 -10.41,-24.6 -7.73,0.79 -15.42,1.78 -23.04,2.97 0.3,4.1 0.63,8.19 0.93,12.29 4.58,-1.25 8.96,-2.64 13.14,-4.14l5.21 17.62c-5.37,2.22 -10.96,4.18 -16.79,5.91 0.54,6.7 1.09,13.4 1.65,20.1l-20.34 2.26c-0.48,-6.07 -0.95,-11.91 -1.41,-17.51 -3.71,0.73 -7.47,1.35 -11.24,1.9l-4.74 -17.86c4.9,-1.01 9.67,-2.04 14.31,-3.07 -0.3,-4.72 -0.67,-9.38 -1.05,-13.94 -4.5,0.87 -8.92,1.8 -13.26,2.82l-2 -19.39c4.72,-0.95 9.3,-1.86 13.72,-2.72 -0.32,-4.24 -0.65,-8.35 -0.95,-12.29 -2.6,-0.38 -5.13,-0.75 -7.57,-1.07l2.95 -18.91zm43.75 26.47c-1.74,-6.3 -3.07,-11.74 -4.02,-16.3l-1.53 14.89c-4.42,-0.71 -8.68,-1.33 -12.77,-1.9 0.16,1.9 0.32,3.83 0.46,5.79 6.07,-0.93 12.03,-1.76 17.86,-2.48z"/>
  <path id="5" class="fil0" d="M696.72 0l6.28 13.6c-2.6,1.03 -5.25,2.02 -7.93,2.97 1.19,-0.08 2.4,-0.12 3.67,-0.12 6.78,0 13.52,0.3 20.22,0.95 8.03,1.17 15.25,4.36 21.63,9.56 7.65,6.94 11.46,17.66 11.46,32.16l0 6.62c0,12.85 -4.18,23.45 -12.53,31.8 -8.6,8.43 -19.39,12.65 -32.39,12.65l-6.62 0c-15.62,0 -28.49,-3.65 -38.66,-11 -10.33,-8.03 -15.58,-19.35 -15.74,-33.92 0,-13.48 3.83,-28.31 11.48,-44.47l6.62 2.02c0.3,-0.08 0.59,-0.16 0.83,-0.24l-5.21 -10.39c13.08,-4.82 25.38,-8.88 36.89,-12.19zm0.48 34.52c-7.34,0 -14.55,1.49 -21.65,4.5 9.71,0.79 19.17,1.65 28.39,2.6l-1.55 16.91c-11.82,-1.03 -23.16,-1.98 -34.04,-2.85 -0.24,1.74 -0.44,3.43 -0.59,5.08 12.53,0.38 25.02,1.37 37.47,2.95l-1.78 16.69c-11.34,-1.43 -22.62,-2.38 -33.82,-2.85 1.43,3.39 3.51,6.19 6.28,8.39 6.46,4.1 14.14,6.15 23.04,6.15l7.22 0c7.41,0 13.4,-2.64 17.98,-7.93 4.4,-5.59 6.62,-12.25 6.62,-19.98l0 -3.79c0,-10.23 -2.06,-16.79 -6.15,-19.61 -3.55,-3.01 -8.51,-4.86 -14.89,-5.57 -4.42,-0.46 -8.6,-0.71 -12.53,-0.71z"/>
  <path id="6" class="fil0" d="M828.82 0.48c1.57,2.99 3.61,5.71 6.13,8.15 14.35,-0.4 28.35,-0.63 41.97,-0.71l1.07 11.95c-33.66,0.06 -66.75,1.13 -99.32,3.19l-0.95 -11.7c13.18,-0.79 26.05,-1.43 38.66,-1.9 -0.71,-1.19 -1.33,-2.28 -1.88,-3.31l14.31 -5.67zm-39.85 22.58l7.69 1.78c12.99,-1.51 25.89,-2.26 38.66,-2.26 15.29,0 25.65,0.95 31.09,2.85 6.38,1.49 9.58,5.41 9.58,11.7l0 1.53c0,3.55 -2.14,5.95 -6.4,7.22 -4.34,1.09 -10.67,1.69 -19.03,1.78l-39.02 0c-10.17,0 -17.11,-0.73 -20.8,-2.14 -4.02,-1.57 -6.03,-4.18 -6.03,-7.81 0,-4.8 1.41,-9.69 4.26,-14.65zm47.3 9.93c-11.58,0.16 -23.14,0.87 -34.65,2.12 0.16,0.79 0.46,1.35 0.95,1.65 0.79,0.32 1.53,0.48 2.24,0.48l39.97 0c5.75,0 9.97,-0.08 12.65,-0.24 1.41,-0.3 2.12,-0.99 2.12,-2 0,-0.73 -1.23,-1.19 -3.67,-1.43 -2.74,-0.38 -9.3,-0.59 -19.61,-0.59zm-47.66 15.6c0.24,1.82 0.52,3.55 0.83,5.21 23.18,-3.31 46.79,-5.04 70.82,-5.21 6.46,0 11.66,0.95 15.62,2.85 4.18,2.2 6.46,4.5 6.84,6.86l0 1.65c-0.14,3.23 -1.41,8.15 -3.77,14.77l-15.6 -2.82c1.49,-3.63 2.24,-6.03 2.24,-7.22 0,-2.74 -3.51,-4.14 -10.53,-4.14 -9.69,0 -19.53,0.4 -29.54,1.19 11.02,0.54 21.75,1.21 32.14,2l-1.05 11c-5.53,-0.38 -10.96,-0.75 -16.32,-1.05 1.57,2.28 2.68,5.15 3.31,8.62 6.46,-3.07 12.89,-5.79 19.27,-8.15l6.62 11c-5.35,2.2 -10.96,4.64 -16.79,7.32 7.89,1.11 16.32,1.98 25.3,2.6l-2.95 14.06c-13.1,-0.71 -24.4,-2 -33.94,-3.89 -1.65,2.85 -3.89,5.25 -6.74,7.2l-12.19 -8.98c4.42,-2.82 6.64,-6.74 6.64,-11.7 -0.16,-4.96 -1.39,-8.86 -3.67,-11.7 -5.37,2.12 -10.96,4.34 -16.79,6.62l3.89 0.71c-2.68,6.23 -4.76,13.01 -6.26,20.34l-11.82 -2.24c0.95,-5.29 2.32,-10.29 4.14,-15.01 -2.52,0.87 -5,1.74 -7.45,2.6l-5.67 -10.9c9.06,-3.69 17.68,-7.04 25.89,-10.05 -4.74,-0.22 -9.38,-0.46 -13.96,-0.71l0.83 -6.5c-1.88,0.24 -3.69,0.5 -5.43,0.83 0.63,2.2 1.33,4.38 2.12,6.5l-15.13 4.74c-2.82,-7.57 -4.84,-15.46 -6.03,-23.65l15.13 -4.74zm26.86 37.49l11.46 3.77c-2.76,5.75 -5.17,11.56 -7.22,17.39l-11.22 -3.79c2.68,-6.62 5,-12.41 6.98,-17.37z"/>
 </g>
</svg>
