<?xml version="1.0" encoding="UTF-8"?>
<!DOCTYPE svg PUBLIC "-//W3C//DTD SVG 1.1//EN" "http://www.w3.org/Graphics/SVG/1.1/DTD/svg11.dtd">
<!-- Creator: CorelDRAW 2019 (64-Bit) -->
<svg xmlns="http://www.w3.org/2000/svg" xml:space="preserve" width="363.987mm" height="125.994mm" version="1.1" style="shape-rendering:geometricPrecision; text-rendering:geometricPrecision; image-rendering:optimizeQuality; fill-rule:evenodd; clip-rule:evenodd"
viewBox="0 0 662.44 229.3"
 xmlns:xlink="http://www.w3.org/1999/xlink"
 xmlns:xodm="http://www.corel.com/coreldraw/odm/2003">
 <defs>
  <style type="text/css">
   <![CDATA[
    .fil0 {fill:#332C2B;fill-rule:nonzero}
   ]]>
  </style>
 </defs>
 <g id="图层_x0020_1">
  <metadata id="CorelCorpID_0Corel-Layer"/>
  <path class="fil0" d="M61.97 4.33c12.05,1.12 23.59,2.71 34.58,4.76 -0.42,-2.54 -0.7,-4.69 -0.85,-6.46l16.6 -1.79c1.14,6.82 3.28,14.76 6.46,23.78 0.2,0.63 0.42,1.15 0.63,1.59 5.99,-0.51 11.84,-0.88 17.54,-1.17 -6.62,-2.04 -12.43,-3.77 -17.43,-5.18l5.07 -16.8c7.89,1.68 14.62,3.66 20.19,5.92l-4.76 15.95c3.39,-0.2 6.68,-0.34 9.84,-0.42l1.8 17.34c-8.73,0.07 -17.38,0.45 -25.91,1.15 1.06,2.47 2.18,4.98 3.39,7.51 0.49,1.06 0.96,2.02 1.37,2.87 2.62,-2.4 5.14,-4.69 7.62,-6.88l12.58 11.95c-3.66,3.45 -7.36,6.95 -11.1,10.47 3.88,6.06 8.32,12.43 13.32,19.15l-16.6 8.77c-3.66,-4.29 -7.22,-9.1 -10.68,-14.38 -4.01,4.02 -8.07,7.99 -12.14,11.95l-13.12 -11.95c5.5,-5.65 10.86,-10.94 16.08,-15.86 -3.39,-7.18 -6.5,-14.53 -9.31,-22 -6.91,0.7 -13.79,1.59 -20.61,2.65 0.27,3.66 0.56,7.33 0.83,10.99 4.1,-1.12 8.01,-2.36 11.75,-3.7l4.66 15.75c-4.8,1.99 -9.8,3.74 -15.01,5.29 0.49,5.99 0.97,11.98 1.48,17.97l-18.19 2.02c-0.43,-5.43 -0.85,-10.65 -1.26,-15.66 -3.32,0.65 -6.68,1.21 -10.05,1.7l-4.24 -15.97c4.38,-0.9 8.64,-1.82 12.79,-2.74 -0.27,-4.22 -0.6,-8.39 -0.94,-12.47 -4.02,0.78 -7.98,1.61 -11.86,2.53l-1.79 -17.34c4.22,-0.85 8.32,-1.66 12.27,-2.44 -0.29,-3.79 -0.58,-7.47 -0.85,-10.99 -2.33,-0.34 -4.58,-0.67 -6.77,-0.96l2.63 -16.91zm39.12 23.68c-1.55,-5.63 -2.74,-10.5 -3.59,-14.58l-1.37 13.32c-3.95,-0.63 -7.76,-1.19 -11.42,-1.7 0.14,1.7 0.29,3.43 0.41,5.18 5.43,-0.83 10.76,-1.57 15.97,-2.22z"/>
  <path id="1" class="fil0" d="M220.49 3.07c0.14,0.97 0.25,1.86 0.31,2.63 7.83,-1.62 14.53,-2.51 20.1,-2.63 10.14,0.13 15.32,3.77 15.54,10.88 0,1.14 -0.81,4.96 -2.44,11.53 0,1.62 1.14,2.44 3.39,2.44 2.53,0 4.89,-0.81 7.07,-2.44l3.07 15.12c-3.52,1.75 -8.03,2.63 -13.53,2.63 -5.22,0 -9.26,-0.92 -12.14,-2.74 -2.69,-1.41 -4.02,-3.84 -4.02,-7.31 0,-2.26 0.88,-6.37 2.63,-12.36 0,-1.77 -1.68,-2.65 -5.07,-2.65 -2.18,0 -6.33,0.85 -12.47,2.54 0.97,7.54 2.04,15.34 3.16,23.37l-16.91 1.59c-2.11,-15.37 -3.95,-29.04 -5.5,-41.04l16.82 -1.57zm21.56 42.61c6.35,0 11.24,1.12 14.71,3.37 4.08,2.54 6.14,6.53 6.14,11.96 -0.14,2.82 -1.52,5.92 -4.13,9.29 -1.41,1.62 -2.92,3.28 -4.55,4.98 3.39,1.05 6.66,2.18 9.83,3.37l-4.55 14.91c-6.21,-2.33 -12.31,-4.48 -18.3,-6.44 -4.78,4.01 -10,8.1 -15.65,12.25l-10.57 -13.53c2.33,-1.48 4.55,-2.96 6.66,-4.44 -5.14,-1.26 -10.18,-2.45 -15.1,-3.59l4.64 -14.38c0.29,0.07 0.54,0.14 0.74,0.22l-3.59 -11.1c10.86,-4.37 22.11,-6.66 33.73,-6.88zm-22.52 19.78c5.99,1.34 11.84,2.85 17.56,4.55 1.05,-0.99 2.08,-1.88 3.07,-2.65 1.55,-1.19 2.33,-2.33 2.33,-3.37 0,-1.99 -1.41,-2.96 -4.24,-2.96 -6.14,0.76 -12.36,2.26 -18.71,4.44zm-40.49 -61.12c3.39,0.14 9.24,2.33 17.56,6.55 5.56,3.39 8.36,7.36 8.36,11.95 0,3.81 -1.59,7.09 -4.76,9.83 -3.74,3.32 -6.39,5.76 -7.94,7.29 -1.68,1.35 -2.53,2.58 -2.53,3.72 0,2.26 4.04,4.75 12.16,7.51l-6.24 13.1c-7.4,-0.56 -14.53,-4.08 -21.37,-10.57 -2.18,-3.23 -3.27,-6.59 -3.27,-10.03 0,-3.54 2.04,-7.02 6.14,-10.48 1.55,-1.41 3.97,-3.52 7.29,-6.33 1.26,-0.99 1.89,-1.91 1.89,-2.74 0,-1.21 -1.08,-2.29 -3.27,-3.28 -3.18,-1.34 -6.6,-2.74 -10.27,-4.22l6.24 -12.27zm16.19 65.02l4.64 15.75c-6.89,3.46 -14.65,5.99 -23.26,7.62l-4.22 -16.06c8.1,-1.99 15.72,-4.4 22.85,-7.31z"/>
  <path id="2" class="fil0" d="M292.09 11.51c9.1,0.22 18.12,0.47 27.07,0.74 4.66,-4.37 9.31,-8.45 13.97,-12.25l13.95 8.99c-1.62,1.34 -3.14,2.71 -4.55,4.11 13.05,0.51 25.81,1.06 38.28,1.7l-1.59 17.34c-18.53,-0.78 -36.47,-1.52 -53.81,-2.22 -2.18,2.26 -4.29,4.51 -6.35,6.77 10.02,-1.84 19.85,-2.92 29.5,-3.28 9.31,0 15.93,1.48 19.89,4.44 5.36,2.62 8.14,10.02 8.36,22.21l0 2.85c0,11.13 -1.91,22.63 -5.72,34.47l-18.19 -3.37c3.81,-11.01 5.72,-20.91 5.72,-29.72 0,-7.04 -1.14,-11.55 -3.39,-13.53 -2.6,-1.05 -5.63,-1.59 -9.1,-1.59 -3.37,0 -8.91,0.47 -16.6,1.37 -3.66,0.65 -7.33,1.46 -10.99,2.44 9.31,0.78 18.23,1.73 26.76,2.85l-1.28 14.92c-10,-1.21 -19.63,-2.26 -28.86,-3.18 0.27,2.53 0.52,5 0.74,7.4 9.29,-0.99 18.15,-2.11 26.53,-3.39l4.24 13.97c-8.82,1.77 -18.55,3.14 -29.18,4.11 0.27,2.33 0.52,4.58 0.74,6.77l-17.78 1.8c-1.62,-14.02 -3.14,-28.02 -4.55,-41.97l-11.1 -7.94c5.85,-6.97 11.66,-13.46 17.45,-19.45 -4.37,-0.2 -8.64,-0.38 -12.79,-0.52l2.63 -16.82z"/>
  <path id="3" class="fil0" d="M415.08 17.87c0.07,0.7 0.14,1.41 0.22,2.11 4.1,-1.41 8.03,-2.11 11.84,-2.11 4.17,0 7.69,0.78 10.57,2.33 3.03,2.04 4.55,6.37 4.55,12.99 0,12.9 -1.12,28.66 -3.37,47.28l-15.34 -2.65c0.78,-5.22 1.44,-10.29 2,-15.23 -2.33,0.22 -4.55,0.47 -6.66,0.74 0.58,6.57 1.17,13.23 1.8,19.99l-14.49 1.37c-2.04,-21.85 -3.88,-43.74 -5.5,-65.67l14.38 -1.15zm2.85 34.58c2.91,-0.49 5.79,-0.85 8.68,-1.06 0.14,-1.34 0.25,-2.63 0.32,-3.9 -3.18,-0.36 -6.32,-0.61 -9.42,-0.76 0.14,1.99 0.29,3.88 0.41,5.72zm-1.26 -16.71c3.66,0.07 7.27,0.25 10.79,0.52 -0.14,-4.08 -1.55,-6.12 -4.24,-6.12 -2.31,0.27 -4.6,1.01 -6.86,2.22 0.07,1.12 0.16,2.26 0.31,3.37zm30.14 -0.96c4.37,0.22 8.64,0.43 12.79,0.65 -0.22,-3.18 -0.42,-6.28 -0.63,-9.31l-11.21 5.59c-3.66,-4.78 -6.5,-10.29 -8.46,-16.49l13.12 -5.07c1.48,4.66 3.59,8.99 6.33,13.01 -0.42,-6.55 -0.85,-12.83 -1.26,-18.82l16.82 -1.7c0.83,10.86 1.68,22.18 2.53,33.94 6.35,0.41 12.56,0.92 18.61,1.48l-1.15 15.75c-5.58,-0.41 -10.99,-0.85 -16.28,-1.26 0.2,2.89 0.41,5.77 0.63,8.66 6.33,-0.49 12.69,-1.01 19.02,-1.59l1.7 17.34c-6.48,0.63 -12.97,1.21 -19.45,1.7 0.43,5.7 0.85,11.5 1.26,17.34l-17.02 1.8c-0.42,-6.21 -0.85,-12.24 -1.26,-18.08 -6.35,0.34 -12.65,0.6 -18.93,0.74l-1.8 -17.34c6.42,-0.22 12.94,-0.51 19.56,-0.85 -0.27,-3.81 -0.6,-7.54 -0.94,-11.21 -5.58,-0.43 -11.04,-0.81 -16.4,-1.17l2.44 -15.12zm38.17 -25.48l13.97 4.66c-2.82,6.21 -5.25,12.42 -7.29,18.61l-13.97 -4.64c2.74,-7.06 5.18,-13.26 7.29,-18.62z"/>
  <path id="4" class="fil0" d="M550.24 83.62c0,3.1 -0.63,6.1 -1.89,8.99 -1.21,2.83 -2.8,5.05 -4.76,6.68l-8.14 -4.98c2.26,-2.53 3.37,-4.69 3.37,-6.44 -1.41,0.49 -2.78,0.74 -4.11,0.74 -2.54,0 -4.55,-0.81 -6.03,-2.44 -1.55,-1.48 -2.33,-3.48 -2.33,-6.03 0,-3.25 1.06,-5.85 3.18,-7.83 2.11,-2.04 4.78,-3.05 8.03,-3.05 4.15,0 7.36,1.37 9.62,4.11 2.06,2.47 3.07,5.88 3.07,10.25z"/>
  <path id="5" class="fil0" d="M11.31 134.98l4.55 2.33c10.07,-3.81 20.68,-5.7 31.81,-5.7 6.84,0 13.12,0.38 18.82,1.15 5.58,1.28 11.01,4.02 16.3,8.25 5.63,5.22 8.45,12.38 8.45,21.47l0 5.07c0,8.46 -2.6,15.23 -7.81,20.3 -8.1,8.25 -19.18,12.38 -33.2,12.38l-9.42 0c-12.18,0 -21.87,-2.06 -29.07,-6.14 -7.81,-5.72 -11.73,-13.71 -11.73,-24 0,-12.13 3.77,-23.84 11.31,-35.12zm35.1 13.53c-6.77,0 -14.35,1.95 -22.74,5.83 -1.97,3.86 -3.14,7.99 -3.48,12.36 0,6.62 1.77,11.01 5.29,13.12 4.08,2.33 9.06,3.48 14.91,3.48l5.61 0c9.58,0 16.42,-2.04 20.5,-6.14 3.03,-3.03 4.55,-6.91 4.55,-11.62 0,-5.72 -1.82,-9.91 -5.49,-12.6 -3.46,-2.6 -9.83,-4.08 -19.15,-4.44zm-29.92 49.91l13.95 8.88c-5.56,5.58 -10.54,11.5 -14.91,17.78l-15.12 -10.9c5.36,-6.21 10.72,-11.46 16.08,-15.75zm49.37 1.37c9.38,1.84 17.31,3.95 23.8,6.35l-5.09 17.34c-9.1,-2.54 -17.02,-4.69 -23.78,-6.46l5.07 -17.23z"/>
  <path id="6" class="fil0" d="M119.29 133.82l7.51 1.7c11.48,-3.74 22.79,-5.61 33.94,-5.61 11.48,0 19.35,0.49 23.57,1.48 7.98,1.26 13.79,3.66 17.45,7.2 3.88,2.89 5.81,8.25 5.81,16.06l0 1.91c0,5.63 -1.93,10.43 -5.81,14.38 -5,5.41 -16.31,8.14 -33.94,8.14l-12.58 0c-11.91,0 -21.67,-1.32 -29.29,-3.92 -9.31,-3.66 -13.97,-9.87 -13.97,-18.61 0,-6.57 2.44,-14.15 7.31,-22.74zm40.17 10.47c-9.65,0 -18.93,1.62 -27.81,4.85 8.95,0.14 17.63,0.4 26.02,0.76l-0.85 11.73c-7.33,-0.29 -14.42,-0.52 -21.26,-0.74 0.7,0.42 1.34,0.74 1.91,0.96 4.29,1.89 13.17,2.85 26.64,2.85 5.5,0 10.25,-0.29 14.27,-0.85 3.18,-0.42 5.68,-1.48 7.51,-3.18 1.55,-0.97 2.44,-3.03 2.65,-6.14 0,-4.64 -2.33,-7.62 -6.98,-8.88 -2.96,-0.92 -10.32,-1.37 -22.11,-1.37zm45.69 35.1l1.15 14.38c-14.31,0 -28.55,0.32 -42.71,0.96 0.14,0.99 0.27,1.89 0.42,2.74 9.65,-0.14 19.53,-0.34 29.61,-0.63l1.26 11.84c-9.65,0.36 -19.38,0.61 -29.18,0.74 0.07,0.65 0.14,1.21 0.22,1.7 12.4,1.62 24.34,2.51 35.84,2.65l-1.7 15.54c-14.73,-0.14 -29.14,-1.21 -43.24,-3.18 -9.24,-1.48 -17.49,-3.07 -24.74,-4.75 -0.43,1.75 -0.78,3.41 -1.06,4.96l-16.39 -3.7c1.48,-8.75 3.59,-17.09 6.33,-25.07 -1.68,0.14 -3.37,0.29 -5.07,0.43l-1.26 -14.38c28.19,-2.83 58.36,-4.24 90.52,-4.24zm-69.26 26.76c3.59,0.78 7.33,1.48 11.21,2.11 -0.7,-4.37 -1.37,-8.54 -2.02,-12.47 -1.89,0.13 -3.83,0.27 -5.81,0.41 -1.19,3.32 -2.33,6.62 -3.37,9.94z"/>
  <path id="7" class="fil0" d="M271.99 132.56c18.97,0.63 37.26,1.57 54.88,2.85l-1.15 13.53c-5.14,-0.29 -10.12,-0.54 -14.91,-0.74 -0.29,0.85 -0.54,1.66 -0.74,2.44 3.59,0.78 7.04,2.31 10.36,4.64 3.81,3.03 5.7,7.13 5.7,12.27l0 2.96c0,4.58 -1.62,8.14 -4.85,10.68 -4.94,4.51 -11.68,6.77 -20.19,6.77l-6.57 0c-8.52,0 -15.28,-1.17 -20.3,-3.48 -4.15,-2.47 -6.73,-5.68 -7.71,-9.64 -0.58,10.5 -1.99,22.36 -4.24,35.53l-15.32 -2.63c1.05,-5.29 1.93,-10.45 2.63,-15.45 -1.34,0.07 -2.63,0.14 -3.92,0.22 0.43,5.07 0.85,10.14 1.28,15.23 0.13,1.75 0.31,3.45 0.52,5.07l-14.49 1.37c-2.04,-21.85 -3.88,-43.74 -5.5,-65.67l14.38 -1.15c0.07,0.7 0.11,1.34 0.11,1.89 3.46,-1.05 6.84,-1.59 10.16,-1.59 4.15,0 7.62,0.85 10.36,2.54 2.96,1.97 4.44,6.28 4.44,12.9 0.99,-4.66 2.92,-9.24 5.81,-13.75l4.76 2.44c3.1,-0.63 6.32,-1.14 9.62,-1.48 0.22,-1.19 0.45,-2.33 0.74,-3.39 -6.21,-0.27 -12.24,-0.56 -18.08,-0.83l2.22 -13.53zm-27.29 49.05c2.26,-0.13 4.35,-0.27 6.24,-0.42 0.14,-1.21 0.25,-2.33 0.32,-3.39l-6.88 0c0.14,1.28 0.25,2.54 0.31,3.81zm-1.15 -14.91l8.57 0c-0.07,-4.44 -1.35,-6.66 -3.81,-6.66 -1.77,0.22 -3.5,0.74 -5.18,1.59 0.13,1.77 0.27,3.45 0.42,5.07zm56.46 -16.8c0.22,-0.85 0.42,-1.62 0.63,-2.33 -0.92,0 -1.8,-0.04 -2.63,-0.11 -0.22,0.78 -0.4,1.59 -0.54,2.44l2.54 0zm-4.02 11.3l-0.94 0c-0.72,4.1 -1.35,8.23 -1.91,12.38l-9.83 -2.22c0.43,-2.74 0.85,-5.4 1.28,-7.92 -1.21,0.34 -2.33,0.74 -3.39,1.15 -0.42,1.26 -0.67,2.58 -0.74,3.92 0,3.23 1.19,5.32 3.59,6.23 2.89,1.14 6.42,1.7 10.57,1.7l4.02 0c5,0 8.55,-0.81 10.68,-2.44 1.61,-1.26 2.42,-2.82 2.42,-4.64 0,-2.69 -1.15,-4.73 -3.48,-6.14 -0.36,-0.14 -0.67,-0.29 -0.96,-0.43 -0.7,3.88 -1.37,7.76 -2,11.64l-9.73 -2.22c0.49,-3.74 1.12,-7.4 1.89,-11.01l-1.48 0zm-21.98 24.11l14.47 4.66c-0.2,0.51 -0.45,0.96 -0.74,1.37 2.76,0.14 5.47,0.29 8.14,0.43 -0.13,-0.78 -0.23,-1.52 -0.31,-2.22l14.38 -1.28c0.2,1.5 0.45,2.91 0.74,4.24 4.29,0.27 8.55,0.56 12.79,0.85l-0.85 12.36c-3.52,-0.2 -6.98,-0.42 -10.36,-0.63 0.2,1.34 0.38,2.69 0.52,4.02 1.97,-0.56 3.7,-1.17 5.18,-1.8l2.65 13.12c-1.91,0.78 -3.95,1.44 -6.14,2 0.13,1.48 0.34,2.96 0.63,4.44l-14.49 1.28c-0.14,-1.06 -0.27,-2.13 -0.41,-3.18 -2.89,0.34 -5.58,0.52 -8.05,0.52l-1.89 0c-6.84,0 -12.24,-0.92 -16.19,-2.74 -4.29,-2.4 -6.44,-5.94 -6.44,-10.57 0.07,-3.03 0.38,-6.28 0.96,-9.73 -1.28,-0.07 -2.58,-0.14 -3.92,-0.22l1.8 -11.73c1.82,0.05 3.66,0.13 5.49,0.2 0.63,-1.82 1.32,-3.63 2.02,-5.4zm23.57 18.93c-5,-0.34 -9.91,-0.67 -14.69,-0.96 -0.56,2.54 -0.85,4.66 -0.85,6.35 0,0.85 0.63,1.52 1.89,2 1.55,0.51 3.88,0.74 6.98,0.74 2.74,-0.2 5.29,-0.45 7.62,-0.74 -0.36,-2.6 -0.67,-5.07 -0.96,-7.4z"/>
  <path id="8" class="fil0" d="M393.72 132.56c0.14,0.97 0.25,1.86 0.31,2.63 7.83,-1.62 14.53,-2.51 20.1,-2.63 10.14,0.13 15.32,3.77 15.54,10.88 0,1.14 -0.81,4.96 -2.44,11.53 0,1.62 1.14,2.44 3.39,2.44 2.53,0 4.89,-0.81 7.07,-2.44l3.07 15.12c-3.52,1.75 -8.03,2.63 -13.53,2.63 -5.22,0 -9.26,-0.92 -12.14,-2.74 -2.69,-1.41 -4.02,-3.84 -4.02,-7.31 0,-2.26 0.88,-6.37 2.63,-12.36 0,-1.77 -1.68,-2.65 -5.07,-2.65 -2.18,0 -6.33,0.85 -12.47,2.54 0.97,7.54 2.04,15.34 3.16,23.37l-16.91 1.59c-2.11,-15.37 -3.95,-29.04 -5.5,-41.04l16.82 -1.57zm21.56 42.61c6.35,0 11.24,1.12 14.71,3.37 4.08,2.54 6.14,6.53 6.14,11.96 -0.14,2.82 -1.52,5.92 -4.13,9.29 -1.41,1.62 -2.92,3.28 -4.55,4.98 3.39,1.05 6.66,2.18 9.83,3.37l-4.55 14.91c-6.21,-2.33 -12.31,-4.48 -18.3,-6.44 -4.78,4.01 -10,8.1 -15.65,12.25l-10.57 -13.53c2.33,-1.48 4.55,-2.96 6.66,-4.44 -5.14,-1.26 -10.18,-2.45 -15.1,-3.59l4.64 -14.38c0.29,0.07 0.54,0.14 0.74,0.22l-3.59 -11.1c10.86,-4.37 22.11,-6.66 33.73,-6.88zm-22.52 19.78c5.99,1.34 11.84,2.85 17.56,4.55 1.05,-0.99 2.08,-1.88 3.07,-2.65 1.55,-1.19 2.33,-2.33 2.33,-3.37 0,-1.99 -1.41,-2.96 -4.24,-2.96 -6.14,0.76 -12.36,2.26 -18.71,4.44zm-40.49 -61.12c3.39,0.14 9.24,2.33 17.56,6.55 5.56,3.39 8.36,7.36 8.36,11.95 0,3.81 -1.59,7.09 -4.76,9.83 -3.74,3.32 -6.39,5.76 -7.94,7.29 -1.68,1.35 -2.53,2.58 -2.53,3.72 0,2.26 4.04,4.75 12.16,7.51l-6.24 13.1c-7.4,-0.56 -14.53,-4.08 -21.37,-10.57 -2.18,-3.23 -3.27,-6.59 -3.27,-10.03 0,-3.54 2.04,-7.02 6.14,-10.48 1.55,-1.41 3.97,-3.52 7.29,-6.33 1.26,-0.99 1.89,-1.91 1.89,-2.74 0,-1.21 -1.08,-2.29 -3.27,-3.28 -3.18,-1.34 -6.6,-2.74 -10.27,-4.22l6.24 -12.27zm16.19 65.02l4.64 15.75c-6.89,3.46 -14.65,5.99 -23.26,7.62l-4.22 -16.06c8.1,-1.99 15.72,-4.4 22.85,-7.31z"/>
  <path id="9" class="fil0" d="M465.32 141c9.1,0.22 18.12,0.47 27.07,0.74 4.66,-4.37 9.31,-8.45 13.97,-12.25l13.95 8.99c-1.62,1.34 -3.14,2.71 -4.55,4.11 13.05,0.51 25.81,1.06 38.28,1.7l-1.59 17.34c-18.53,-0.78 -36.47,-1.52 -53.81,-2.22 -2.18,2.26 -4.29,4.51 -6.35,6.77 10.02,-1.84 19.85,-2.92 29.5,-3.28 9.31,0 15.93,1.48 19.89,4.44 5.36,2.62 8.14,10.02 8.36,22.21l0 2.85c0,11.13 -1.91,22.63 -5.72,34.47l-18.19 -3.37c3.81,-11.01 5.72,-20.91 5.72,-29.72 0,-7.04 -1.14,-11.55 -3.39,-13.53 -2.6,-1.05 -5.63,-1.59 -9.1,-1.59 -3.37,0 -8.91,0.47 -16.6,1.37 -3.66,0.65 -7.33,1.46 -10.99,2.44 9.31,0.78 18.23,1.73 26.76,2.85l-1.28 14.92c-10,-1.21 -19.63,-2.26 -28.86,-3.18 0.27,2.53 0.52,5 0.74,7.4 9.29,-0.99 18.15,-2.11 26.53,-3.39l4.24 13.97c-8.82,1.77 -18.55,3.14 -29.18,4.11 0.27,2.33 0.52,4.58 0.74,6.77l-17.78 1.8c-1.62,-14.02 -3.14,-28.02 -4.55,-41.97l-11.1 -7.94c5.85,-6.97 11.66,-13.46 17.45,-19.45 -4.37,-0.2 -8.64,-0.38 -12.79,-0.52l2.63 -16.82z"/>
  <path id="10" class="fil0" d="M634.52 132.13c9.17,0 16.04,1.21 20.61,3.59 4.87,3.1 7.31,7.16 7.31,12.16 0,3.39 -1.03,6.77 -3.07,10.16 -2.47,4.22 -7.9,10.25 -16.3,18.08 0.72,1.05 1.28,2 1.7,2.85 3.81,5.5 5.72,13.68 5.72,24.52 0,7.83 -1.84,13.5 -5.5,17.04 -4.8,4.22 -10.83,6.33 -18.08,6.33 -8.66,0 -15.75,-0.45 -21.26,-1.37l-2 -19.78c7.69,0.78 14.27,1.17 19.78,1.17 2.26,0 3.93,-0.36 5.07,-1.06 1.48,-0.7 2.22,-1.89 2.22,-3.59 0,-5.92 -1.14,-10.94 -3.39,-15.01 -4.08,-6.5 -9.33,-12.05 -15.75,-16.71l15.75 -11.31c1.06,0.85 2.17,1.7 3.28,2.54 2.69,-2.47 5.07,-4.87 7.2,-7.2 1.48,-1.34 2.22,-2.38 2.22,-3.16 -1.48,-1.62 -4.17,-2.44 -8.05,-2.44 -14.09,0.97 -29.6,4.96 -46.52,11.95l-6.03 -17.02c17.63,-7.54 35.98,-11.46 55.09,-11.75z"/>
 </g>
</svg>
