<?xml version="1.0" encoding="UTF-8"?>
<!DOCTYPE svg PUBLIC "-//W3C//DTD SVG 1.1//EN" "http://www.w3.org/Graphics/SVG/1.1/DTD/svg11.dtd">
<!-- Creator: CorelDRAW 2019 (64-Bit) -->
<svg xmlns="http://www.w3.org/2000/svg" xml:space="preserve" width="288.971mm" height="121.988mm" version="1.1" style="shape-rendering:geometricPrecision; text-rendering:geometricPrecision; image-rendering:optimizeQuality; fill-rule:evenodd; clip-rule:evenodd"
viewBox="0 0 404.68 170.83"
 xmlns:xlink="http://www.w3.org/1999/xlink"
 xmlns:xodm="http://www.corel.com/coreldraw/odm/2003">
 <defs>
  <style type="text/css">
   <![CDATA[
    .fil0 {fill:#332C2B;fill-rule:nonzero}
   ]]>
  </style>
 </defs>
 <g id="图层_x0020_1">
  <metadata id="CorelCorpID_0Corel-Layer"/>
  <path class="fil0" d="M27.66 20.51l1.39 12.61c-2.61,0 -5.18,0.08 -7.73,0.25 0.17,2.11 0.32,4.17 0.49,6.18 1.85,-0.49 3.61,-0.97 5.29,-1.47l2.53 8.64c0.81,-6.19 1.92,-12.21 3.33,-18.07l11.3 1.06c3.42,-0.71 6.48,-1.06 9.19,-1.06 4.51,0 8.25,1.32 11.23,3.99 2.87,3.3 4.32,7.15 4.32,11.55 0,0.92 -0.19,2.17 -0.57,3.74 -1.1,4.01 -1.82,7.08 -2.21,9.21 -0.32,1.68 -0.49,2.79 -0.49,3.33 0,1.35 0.79,2.03 2.36,2.03 2.55,-0.65 4.37,-1.32 5.46,-2.03l2.28 12.44c-2.5,1.19 -5.64,1.82 -9.44,1.87 -9.11,0 -13.66,-4.96 -13.66,-14.89 0,-0.82 0.15,-2.12 0.49,-3.92 0.54,-2.87 1.4,-6.44 2.6,-10.73 0.11,-0.49 0.17,-0.85 0.17,-1.06 0,-2.11 -1.51,-3.18 -4.55,-3.18 -0.92,0 -3.55,0.57 -7.89,1.71 -1.58,9.98 -2.5,20.26 -2.78,30.84l-13.09 -1.31c0.11,-7.43 0.6,-14.64 1.47,-21.63 -2.07,0.81 -4.15,1.51 -6.28,2.11 0.28,3.85 0.57,7.73 0.9,11.64l-13.34 1.39c-0.28,-3.47 -0.54,-6.82 -0.82,-10.01 -1.79,0.32 -3.58,0.6 -5.36,0.81l-3.26 -12.36c2.67,-0.43 5.21,-0.9 7.65,-1.39 -0.22,-2.76 -0.4,-5.42 -0.57,-7.97 -2.28,0.37 -4.5,0.79 -6.68,1.22l-1.37 -12.69c2.28,-0.49 4.61,-0.93 7,-1.31 -0.28,-3.47 -0.51,-6.83 -0.74,-10.08l13.34 -1.22c0.28,3.3 0.51,6.64 0.74,10 2.43,-0.15 4.87,-0.24 7.32,-0.24zm27.34 -19.29c1.31,4.07 3.01,7.85 5.12,11.32 4.98,0.54 9.93,1.14 14.8,1.78l-1.37 13.34c-15.79,-1.68 -30.76,-3.22 -44.92,-4.64l1.96 -12.93c4.67,0.26 9.28,0.6 13.83,0.97 -0.65,-1.62 -1.25,-3.25 -1.79,-4.87l12.37 -4.97z"/>
  <path id="1" class="fil0" d="M160.22 27.99l1.54 14c-10.09,0.06 -20.04,0.24 -29.87,0.57 -0.37,6.07 -0.64,12.12 -0.81,18.13 4.99,-0.15 9.11,-0.57 12.36,-1.22 2.29,-0.37 3.43,-1.14 3.43,-2.28 -0.22,-3.03 -1.42,-5.83 -3.58,-8.37l13.01 -2.93c2.39,4.67 3.58,9.73 3.58,15.22 0,3.74 -1.51,6.43 -4.55,8.05 -2.55,1.46 -6.4,2.6 -11.55,3.42 -6.12,0.81 -12.04,1.22 -17.73,1.22l-6.11 0c-10.19,0 -17.44,-0.68 -21.72,-2.04 -4.67,-1.57 -7,-5.01 -7,-10.33 0,-4.39 1.08,-9.39 3.25,-14.97l12.61 3.01c-1.4,1.89 -2.36,4.17 -2.85,6.83 0,1.9 1.33,3.1 3.99,3.58 2.33,0.38 5.37,0.62 9.12,0.72 0.1,-5.96 0.35,-11.82 0.72,-17.57 -8.4,0.37 -16.73,0.89 -24.97,1.54l-1.56 -14c9.33,-0.65 18.47,-1.17 27.42,-1.54 0.11,-1.46 0.24,-2.87 0.4,-4.24 -7.21,0.39 -14.43,0.87 -21.63,1.47l-1.39 -13.68c7.97,-0.69 16.11,-1.26 24.41,-1.71 0.32,-2.87 0.68,-5.67 1.06,-8.37l13.66 1.37c-0.32,2.24 -0.6,4.4 -0.81,6.51 6.67,-0.21 13.43,-0.32 20.26,-0.32l1.37 13.66c-7.69,0 -15.37,0.14 -23.02,0.4 -0.17,1.42 -0.29,2.86 -0.4,4.32 9.33,-0.28 18.44,-0.43 27.34,-0.49z"/>
  <path id="2" class="fil0" d="M219.05 0c0.6,2.17 1.39,4.18 2.36,6.03 10.09,-0.87 19.94,-1.39 29.54,-1.56l1.39 12.14c-17.73,0.1 -35.23,1.37 -52.47,3.82 -0.06,0.86 -0.11,1.71 -0.17,2.53l11.3 -1.22c0.06,0.54 0.14,1.06 0.25,1.54 7.6,-3.04 14,-4.72 19.2,-5.04 8.29,0.11 12.52,3.03 12.69,8.79 0,0.58 -0.4,2.62 -1.22,6.1 0,1.57 0.83,2.36 2.53,2.36 2.37,0 4.55,-0.57 6.5,-1.71l2.36 12.12c-2.82,0.97 -6.32,1.49 -10.5,1.54 0.44,1.25 0.65,2.58 0.65,3.99 0,2.39 -1.4,5.18 -4.22,8.39 3.9,1.03 7.69,2.14 11.39,3.33l-1.87 11.64c-6.83,-2.01 -13.61,-3.82 -20.34,-5.46 -3.85,2.83 -7.94,5.32 -12.27,7.5l-7.82 -8.14c1.9,-0.93 3.69,-1.85 5.37,-2.78 -2.5,-0.49 -4.94,-1 -7.33,-1.54l1.31 -7.48c-0.81,0.22 -1.57,0.43 -2.28,0.65l-2.19 -10.41c8.73,-3.53 17.3,-5.61 25.7,-6.26 0,-0.28 0,-0.5 0,-0.65 0,-1.42 0.42,-3.99 1.22,-7.73 0,-1.51 -1.29,-2.28 -3.9,-2.28 -2.11,0 -6.6,1.71 -13.43,5.12 0.33,2.39 0.71,4.8 1.14,7.25l-12.12 1.29c-0.92,-5.75 -1.74,-11.44 -2.44,-17.08 -1.14,16.05 -1.81,32.63 -2.03,49.71l-12.44 -1.39c0,-4.11 0.04,-8.21 0.15,-12.27 -1.57,0.49 -3.22,0.89 -4.96,1.22l-3.26 -13.02c3.04,-0.76 5.92,-1.65 8.62,-2.68 0.11,-2.18 0.25,-4.32 0.42,-6.43 -2.99,-0.33 -5.92,-0.51 -8.79,-0.57l1.31 -12.46c2.82,0 5.55,0.19 8.22,0.57 0.15,-2.43 0.32,-4.79 0.49,-7.07 -1.85,0.32 -3.67,0.64 -5.46,0.97l-1.22 -12.04c9.39,-1.64 18.55,-2.93 27.51,-3.92 -0.28,-0.81 -0.54,-1.68 -0.82,-2.6l11.96 -4.8zm8.22 56.79c1.9,-1.51 2.96,-2.57 3.18,-3.17 0,-1.47 -0.62,-2.21 -1.87,-2.21 -3.75,0.71 -7.94,1.68 -12.61,2.93 3.85,0.82 7.62,1.62 11.3,2.44z"/>
  <path id="3" class="fil0" d="M272.53 14.89l9.11 2.36c-2.82,6.25 -4.58,11.64 -5.29,16.19 0,2.24 0.76,3.64 2.28,4.24 1.57,-10.04 3.87,-19.8 6.92,-29.29l11.96 1.37c-2.6,8.73 -4.68,17.63 -6.26,26.69 0.76,-0.17 1.47,-0.29 2.12,-0.4l1.86 10.08c-1.94,0.44 -3.82,0.82 -5.61,1.14 -1.14,8.47 -1.87,17.01 -2.19,25.63l-11.96 -1.37c0.1,-7.82 0.61,-15.5 1.54,-23.04 -2.76,-0.15 -5.32,-1.49 -7.65,-3.99 -1.85,-2.17 -2.76,-5.1 -2.76,-8.79 0.17,-6.23 2.14,-13.18 5.94,-20.83zm27.33 -10.98c3.37,0.11 6.71,0.25 10.01,0.42 -0.11,-0.93 -0.19,-1.85 -0.25,-2.76l12.94 -1.22c0.11,1.62 0.25,3.17 0.4,4.64 5.65,0.32 11.15,0.72 16.52,1.22l-0.9 10c-5.1,-0.26 -10,-0.54 -14.72,-0.81 0.06,0.81 0.11,1.57 0.17,2.28 3.79,-0.06 7.64,-0.08 11.55,-0.08l0.97 9.44c-3.9,0 -7.82,0.01 -11.72,0.07 0.06,0.82 0.11,1.61 0.17,2.36 5.21,-0.15 10.36,-0.35 15.45,-0.57l1.06 10.41c-14.91,0.71 -29.99,1.14 -45.23,1.31l-1.07 -10.41c5.6,-0.11 11.18,-0.22 16.76,-0.32 -0.1,-0.82 -0.18,-1.61 -0.24,-2.36 -4.01,0.11 -7.97,0.26 -11.89,0.49l-1.06 -9.53c3.96,-0.21 8,-0.38 12.12,-0.49 -0.11,-1.19 -0.21,-2.31 -0.32,-3.33 -4.29,-0.22 -8.44,-0.43 -12.46,-0.65l1.71 -10.09zm9.36 37.44c0.11,0.54 0.19,1.08 0.25,1.62 3.79,-0.87 7.72,-1.31 11.79,-1.31 5.8,0 10.12,1.08 12.94,3.26 3.15,2.6 4.8,6.4 4.96,11.39l0 3.5c-0.04,6.18 -1.14,12.04 -3.25,17.57l-11.64 -1.94c2.17,-6.23 3.26,-11.44 3.26,-15.62 0,-3.53 -0.93,-5.89 -2.78,-7.08 -1.74,-0.86 -4.1,-1.31 -7.07,-1.31 -2.61,0.44 -5.08,1.01 -7.42,1.71l0 0.33c5.15,0.21 10.12,0.49 14.9,0.81l-0.57 7.57c-4.78,-0.32 -9.33,-0.6 -13.68,-0.81 0.06,0.6 0.11,1.17 0.17,1.71 4.78,0.26 9.39,0.6 13.83,0.97l-0.65 7.48c-4.39,-0.32 -8.6,-0.6 -12.61,-0.81 0.17,1.89 0.32,3.82 0.49,5.78l-12.29 1.21c-1.14,-13.07 -2.11,-24.67 -2.93,-34.81l12.29 -1.22z"/>
  <path id="4" class="fil0" d="M381.32 65.25c0,2.39 -0.49,4.69 -1.46,6.92 -0.93,2.18 -2.15,3.89 -3.67,5.14l-6.26 -3.83c1.74,-1.94 2.6,-3.61 2.6,-4.96 -1.08,0.37 -2.14,0.57 -3.17,0.57 -1.96,0 -3.5,-0.62 -4.64,-1.87 -1.19,-1.14 -1.79,-2.68 -1.79,-4.64 0,-2.5 0.82,-4.5 2.44,-6.03 1.62,-1.57 3.68,-2.35 6.18,-2.35 3.19,0 5.67,1.06 7.4,3.17 1.58,1.9 2.36,4.53 2.36,7.89z"/>
  <path id="5" class="fil0" d="M9.51 105.08l8.22 1.79c4.5,-1.51 9.01,-2.62 13.51,-3.33 0.43,-2.5 0.89,-4.94 1.37,-7.32l15.3 1.71c-0.32,1.62 -0.6,3.25 -0.82,4.87 5.05,0.17 8.71,0.68 10.98,1.54 5.37,1.31 9.3,3.89 11.8,7.73 2.65,3.04 3.99,8.76 3.99,17.16l0 2.12c0,6.12 -1.43,11.36 -4.3,15.7 -3.58,5.8 -11.8,8.71 -24.66,8.71l-3.65 0c-0.22,4.61 -0.39,9.28 -0.5,13.98l-15.29 -1.54c0.06,-4.33 0.17,-8.62 0.32,-12.86 -5.47,-0.54 -10.14,-1.62 -14,-3.25 -7.43,-3.53 -11.14,-9.47 -11.14,-17.82 0,-8.53 2.96,-18.26 8.86,-29.22zm35.39 11.4c-1.14,8.46 -2.06,17 -2.76,25.62 3.75,-0.06 6.97,-0.38 9.68,-0.97 2.28,-0.43 4.12,-1.71 5.54,-3.82 1.08,-1.19 1.71,-3.69 1.87,-7.5 0,-6.07 -1.5,-10 -4.49,-11.79 -1.51,-0.87 -4.79,-1.39 -9.85,-1.54zm-18.3 24.81c0.6,-8.04 1.43,-15.93 2.53,-23.68 -4.24,0.92 -8.33,2.33 -12.29,4.22 -0.99,2.93 -1.47,5.78 -1.47,8.54 0,4.62 1.68,7.73 5.05,9.36 1.46,0.65 3.51,1.17 6.18,1.56z"/>
  <path id="6" class="fil0" d="M109.04 129.49c2.76,0 5.48,0.03 8.14,0.08 -0.17,-1.62 -0.33,-3.24 -0.49,-4.8 -2.99,-0.17 -5.94,-0.24 -8.87,-0.24l0.97 -10.09c10.64,0 21.25,0.57 31.81,1.71l-0.89 10.09c-3.75,-0.33 -7.43,-0.6 -11.07,-0.82 0.17,1.51 0.33,3.07 0.49,4.64 3.21,0.17 6.4,0.37 9.61,0.65l-0.82 7.8 3.01 -2.85c2.33,1.85 5.07,4.35 8.22,7.48l-7.25 7.17c-0.71,-0.86 -1.43,-1.68 -2.19,-2.44l0.57 6.03c-10.58,0.65 -21.26,1.06 -32.06,1.22 0.06,0.11 0.11,0.18 0.17,0.24 3.1,2.87 7.54,4.32 13.34,4.32l4.32 0c4.55,0 9.4,-0.68 14.55,-2.04 3.37,-0.75 5.71,-2.22 7,-4.39 1.25,-1.85 1.87,-5.32 1.87,-10.41l0 -3.18c-0.06,-5.69 -0.97,-11.58 -2.76,-17.65 -1.31,-4.72 -3.36,-8 -6.18,-9.85 -2.78,-2.11 -6.4,-3.18 -10.91,-3.18l-3.82 0c-3.96,0.44 -7.37,0.96 -10.25,1.56 -2.87,1.03 -5.72,2.28 -8.55,3.74 -0.92,3.32 -1.72,6.73 -2.43,10.26 -0.76,6.61 -1.22,12.47 -1.39,17.57 0,3.96 1.42,7.93 4.24,11.89l-0.97 -8.62c4.05,-0.11 8.18,-0.22 12.36,-0.33 -0.21,-1.85 -0.4,-3.61 -0.57,-5.29 -3.47,-0.1 -6.83,-0.15 -10.08,-0.15l0.89 -10.09zm26.92 14.8c-0.75,-0.64 -1.49,-1.24 -2.19,-1.78l1.96 -1.87c-1.96,-0.17 -3.83,-0.28 -5.61,-0.33 0.15,1.47 0.32,2.87 0.49,4.24 1.79,-0.06 3.58,-0.14 5.36,-0.25zm-38.56 -43.12l4.32 1.06c2.82,-1.14 5.96,-2.08 9.43,-2.85 4.94,-0.97 9.82,-1.46 14.65,-1.46l3.82 0c8.3,0 15.05,1.92 20.26,5.78 3.75,2.82 6.65,7.15 8.71,13.01 2.44,7.82 3.72,16.05 3.83,24.73l0 1.71c0,7.11 -0.93,12.46 -2.76,16.04 -2.44,4.33 -7.44,7.37 -14.98,9.11 -6.72,1.68 -12.75,2.53 -18.05,2.53l-4.8 0c-9.82,0 -17.69,-2.61 -23.59,-7.82 -5.32,-4.61 -7.98,-10.82 -7.98,-18.63 0,-8.35 0.57,-16.73 1.72,-25.13 1.68,-7.54 3.49,-13.57 5.44,-18.07z"/>
  <path id="7" class="fil0" d="M184.24 117.69l12.12 2.61c-3.15,7.76 -5.57,16.22 -7.25,25.38l-12.04 -2.53c1.57,-8.94 3.96,-17.43 7.17,-25.47zm18.22 -6.83l13.68 3.58c-3.32,7.76 -5.6,14.86 -6.85,21.31 9.39,-10.62 18.5,-20.55 27.34,-29.77l9.53 9.19c-11.46,12.41 -22.93,25.16 -34.42,38.24 1.96,0.92 4.5,1.37 7.65,1.37 5.69,0 12.12,-1.37 19.29,-4.15l2.92 13.34c-8.46,2.83 -16.08,4.24 -22.86,4.24l-4.72 0c-4.07,0 -8.05,-1.31 -11.96,-3.9 -1.85,2.11 -3.64,4.18 -5.37,6.18l-9.76 -8.87c2.6,-3.08 5.18,-6.15 7.73,-9.19 -0.17,-1.03 -0.25,-2.08 -0.25,-3.17 0,-11.98 2.68,-24.79 8.05,-38.41zm39.13 14.73c4.78,3.47 8.76,7.89 11.97,13.26l-9.44 9.44c-3.25,-4.35 -7.14,-8.79 -11.64,-13.34l9.11 -9.36zm-22.54 -27.02c4.57,2.61 8.36,5.97 11.4,10.09l-9.04 9.03c-3.14,-3.19 -6.83,-6.42 -11.07,-9.68l8.71 -9.44z"/>
  <path id="8" class="fil0" d="M277.66 112.25c0,0.32 0.03,0.65 0.08,0.97 3.14,-0.86 6.21,-1.31 9.19,-1.31 3.3,0 6.1,0.6 8.37,1.79 2.07,1.36 3.24,3.96 3.5,7.82 1.57,-6.68 3.53,-13.14 5.86,-19.37l11.39 2.61c-0.81,2.22 -1.57,4.42 -2.28,6.58 1.79,0.06 3.5,0.14 5.12,0.25 0.5,-4.67 1.1,-9.22 1.79,-13.66l13.02 1.21c-0.65,4.46 -1.22,8.96 -1.71,13.51 3.08,0.33 6.15,0.71 9.19,1.14l-2.36 12.77c-2.76,-0.32 -5.46,-0.62 -8.05,-0.89 -0.22,2.6 -0.4,5.24 -0.57,7.89 2.87,-0.11 5.75,-0.17 8.62,-0.17l1.31 13.02c-3.58,0 -7.16,0.08 -10.75,0.24 -0.15,3.15 -0.29,6.25 -0.4,9.28 3.75,-0.21 7.46,-0.49 11.15,-0.81l1.37 12.77c-13.18,1.14 -26.55,1.86 -40.1,2.19l-1.22 -12.61c5.15,-0.17 10.36,-0.39 15.62,-0.65 0.06,-3.21 0.14,-6.29 0.24,-9.28 -4.28,0.32 -8.6,0.78 -12.93,1.37l-1.39 -12.93c4.89,-0.76 9.93,-1.33 15.14,-1.71 0.22,-3.32 0.46,-6.6 0.74,-9.85 -2.55,-0.17 -5,-0.31 -7.33,-0.42 -0.81,3.32 -1.49,6.62 -2.03,9.93l-9.53 -2.19c-0.26,8.25 -0.97,17.69 -2.11,28.31l-11.39 -2.03c0.49,-4.01 0.92,-7.85 1.29,-11.47 -2.17,-0.17 -4.25,-0.28 -6.26,-0.33 0.33,4.18 0.65,8.43 0.99,12.77l-10.41 1.06c-1.31,-17.57 -2.5,-33.21 -3.58,-46.95l10.41 -0.89zm2.03 25.7c2.5,0.06 5,0.19 7.48,0.42 0.11,-1.31 0.19,-2.58 0.25,-3.83 -2.71,-0.21 -5.37,-0.37 -7.97,-0.49 0.1,1.36 0.18,2.67 0.24,3.9zm-0.89 -12.04c3.04,0.06 6.04,0.22 9.03,0.49 -0.06,-2.93 -1.33,-4.39 -3.82,-4.39 -1.85,0.17 -3.64,0.62 -5.37,1.39 0.06,0.86 0.11,1.71 0.17,2.51z"/>
  <path id="9" class="fil0" d="M404.68 104.68l-5.61 40.52 -13.51 -1.79c0.92,-8.25 2.51,-21.97 4.8,-41.17l14.32 2.44zm0 48.25l-4.24 11.05c-3.64,-0.86 -10.04,-2.4 -19.2,-4.64l4.15 -11.14c3.69,0.81 10.12,2.39 19.29,4.72z"/>
 </g>
</svg>
