<?xml version="1.0" encoding="UTF-8"?>
<!DOCTYPE svg PUBLIC "-//W3C//DTD SVG 1.1//EN" "http://www.w3.org/Graphics/SVG/1.1/DTD/svg11.dtd">
<!-- Creator: CorelDRAW 2019 (64-Bit) -->
<svg xmlns="http://www.w3.org/2000/svg" xml:space="preserve" width="309.773mm" height="126.4mm" version="1.1" style="shape-rendering:geometricPrecision; text-rendering:geometricPrecision; image-rendering:optimizeQuality; fill-rule:evenodd; clip-rule:evenodd"
viewBox="0 0 474.11 193.46"
 xmlns:xlink="http://www.w3.org/1999/xlink"
 xmlns:xodm="http://www.corel.com/coreldraw/odm/2003">
 <defs>
  <style type="text/css">
   <![CDATA[
    .fil0 {fill:#332C2B;fill-rule:nonzero}
   ]]>
  </style>
 </defs>
 <g id="图层_x0020_1">
  <metadata id="CorelCorpID_0Corel-Layer"/>
  <path class="fil0" d="M76.74 5.95l1.06 10.32c-11.97,0 -23.95,0.21 -35.92,0.62 -0.47,0.9 -0.99,1.71 -1.52,2.49 10.61,-0.59 21.43,-0.9 32.46,-0.9l1.06 9.88c-13.22,0 -26.47,0.5 -39.75,1.5 -0.53,0.9 -1.06,1.79 -1.61,2.67 16.13,-1.06 32.79,-1.59 49.97,-1.59l1.08 10.67c-2.02,0 -4.01,0.03 -5.96,0.09 1.96,2.66 4.16,5.24 6.59,7.72l-8.45 4.1c1.12,2.49 1.7,6.04 1.7,10.67l0 1.52c0,4.14 -1.46,7.65 -4.37,10.49 -3.61,3.92 -11.85,5.87 -24.72,5.87l-8.26 0c-7.65,0 -13.9,-0.83 -18.77,-2.49 -5.98,-2.49 -8.98,-6.62 -8.98,-12.37 0,-0.65 0.03,-1.24 0.09,-1.78l-12.44 -4.26c2.61,-5.4 5.25,-10.61 7.91,-15.65 -2.06,0.17 -4.14,0.38 -6.22,0.62l-1.06 -10.67c4.51,-0.55 9.04,-1.02 13.6,-1.43 0.49,-0.96 0.96,-1.84 1.43,-2.67 -1.84,0.18 -3.61,0.35 -5.33,0.53l-1.15 -9.86c4.26,-0.53 8.56,-1.02 12.88,-1.43 0.59,-0.94 1.18,-1.9 1.78,-2.84 -5.69,0.29 -11.38,0.64 -17.07,1.06l-1.15 -10.41c8.3,-0.59 16.72,-1.06 25.25,-1.41 1.61,-2.32 3.14,-4.54 4.63,-6.68l14.31 4.17c-0.41,0.65 -0.79,1.27 -1.15,1.88 9.2,-0.3 18.56,-0.46 28.11,-0.46zm-53.18 42.6l1.41 0.35c8.73,-2.96 17.32,-4.45 25.8,-4.45 5.39,0 9.36,0.27 11.91,0.8 -0.65,-1.12 -1.27,-2.22 -1.87,-3.29 -11.62,0.36 -23.19,0.99 -34.68,1.87 -0.96,1.61 -1.82,3.17 -2.58,4.72zm26.22 6.13c-6.16,0 -12.1,0.93 -17.79,2.76 5.46,0.18 10.91,0.44 16.36,0.8l-1.15 10.4c-6.28,-0.47 -12.57,-0.77 -18.85,-0.88 0.71,1 1.58,1.75 2.58,2.22 2.43,1.24 7.41,1.87 14.93,1.87 3.75,0 7,-0.21 9.79,-0.62 2.08,-0.35 3.79,-1.18 5.16,-2.49 1,-0.77 1.56,-2.34 1.68,-4.72 0,-4.26 -1,-6.97 -3.02,-8.09 -1.37,-0.83 -4.6,-1.24 -9.7,-1.24z"/>
  <path id="1" class="fil0" d="M176.79 7.47l1.34 14.22c-6.06,0 -12.09,0.06 -18.13,0.18 -1.02,2.79 -1.93,5.57 -2.76,8.36l-13.96 -4.63c0.41,-1.12 0.8,-2.19 1.15,-3.2 -5.22,0.24 -10.4,0.5 -15.55,0.8 0.17,1.96 0.35,3.95 0.53,5.96l-14.93 1.41c-0.24,-2.12 -0.46,-4.23 -0.62,-6.31 -3.63,0.3 -7.21,0.59 -10.76,0.9l-1.43 -14.14c3.61,-0.35 7.25,-0.71 10.93,-1.06 -0.23,-2.02 -0.41,-4.04 -0.53,-6.06l14.95 -1.5c0.17,2.12 0.35,4.29 0.53,6.5 7.35,-0.42 14.78,-0.74 22.32,-0.99 0.94,-2.55 1.84,-4.98 2.66,-7.28l13.87 4.61c-0.29,0.83 -0.59,1.61 -0.88,2.32 3.73,-0.06 7.5,-0.09 11.29,-0.09zm-36.63 22.76c11.2,0 19.5,1.24 24.9,3.73 6.04,2.96 9.21,7.24 9.52,12.81l0 3.99c-0.06,7 -1.26,13.64 -3.57,19.93l-14.93 -2.4c2.37,-7 3.55,-12.84 3.55,-17.53 0,-2.49 -2.28,-4.17 -6.84,-5.07 -4.16,-0.59 -9.86,-0.88 -17.16,-0.88 1.06,11.44 2.34,23.51 3.82,36.19l-15.3 1.87c-1.47,-11.62 -2.75,-23.22 -3.82,-34.77 -4.26,1.24 -8.33,2.75 -12.17,4.52l-4.63 -14.58c11.79,-5.21 24.01,-7.82 36.63,-7.82z"/>
  <path id="2" class="fil0" d="M239.05 0.97c0.77,2.91 1.78,5.63 3.02,8.18 4.93,-0.53 9.94,-0.85 15.04,-0.97 6.04,0 10.73,0.82 14.04,2.49 3.57,2.31 5.43,5.78 5.6,10.4 -0.11,3.92 -1.29,9.23 -3.55,15.92l-13.87 -1.87c1.71,-4.33 2.79,-7.94 3.2,-10.85 0,-2.25 -2.99,-3.37 -8.98,-3.37 -15.05,1.18 -28.83,3.99 -41.34,8.44 0.35,1.37 0.7,2.7 1.06,4.01 13.99,-3.45 27.3,-6.4 39.93,-8.89l4.36 12.09c-5.4,1.18 -10.79,2.37 -16.19,3.55 -0.88,2.37 -1.75,4.69 -2.56,6.94 10.9,-0.88 21.53,-1.4 31.91,-1.5l1.34 13.42c-12.34,0.06 -24.48,0.65 -36.45,1.79 -0.06,0.94 -0.09,1.81 -0.09,2.58 0,1.84 0.53,3.19 1.59,4.08 1.43,1 3.54,1.52 6.31,1.52 11.56,-0.59 20.31,-1.67 26.24,-3.2l2.4 13.6c-3.55,0.9 -8.03,1.61 -13.43,2.14 -5.1,0.65 -9.8,1 -14.13,1.06l-1.88 0c-6.75,0 -12.03,-1.18 -15.83,-3.55 -4.14,-2.97 -6.22,-7.36 -6.22,-13.16 0,-1.14 0.03,-2.29 0.09,-3.48 -6.22,0.83 -12.29,1.75 -18.23,2.76l-1.43 -13.61c7.24,-1.06 14.4,-1.99 21.52,-2.75 0.36,-1.61 0.74,-3.14 1.15,-4.63 -3.84,0.94 -7.72,1.87 -11.64,2.76l-2.14 -7.3 -8.53 2.76c-2.79,-8.01 -4.84,-16.33 -6.15,-24.99l13.61 -3.92c0.12,0.96 0.26,1.87 0.44,2.76 5.57,-1.96 11.41,-3.49 17.51,-4.63 -0.59,-1.59 -1.12,-3.2 -1.59,-4.8l13.87 -5.78z"/>
  <path id="3" class="fil0" d="M297.76 10.67c5.22,0.17 10.37,0.41 15.46,0.71 1.79,-3.51 3.6,-6.86 5.43,-10.05l15.02 4.61c-1.06,2.08 -2.14,4.19 -3.2,6.31 14.89,0.83 29.35,1.84 43.39,3.02l-1.5 14.58c-16.83,-1.18 -33.17,-2.28 -49,-3.28 -2.43,5.14 -4.86,10.46 -7.28,15.9 1.37,12.22 2.84,25.18 4.45,38.86l-15.39 1.87c-0.88,-7.34 -1.75,-14.64 -2.58,-21.87l-10.23 -3.48c4.51,-11.56 9.14,-22.35 13.89,-32.37 -3.57,-0.23 -7.09,-0.47 -10.59,-0.71l2.14 -14.13zm23.48 28c4.57,0.3 9.03,0.61 13.43,0.9 -0.36,-2.9 -0.68,-5.69 -0.99,-8.36l14.93 -1.34c0.42,3.57 0.83,7.24 1.24,11.03 6.71,0.59 13.26,1.27 19.65,2.05l-1.41 14.58c-5.58,-0.53 -11.03,-1.05 -16.36,-1.52 0.29,2.49 0.59,4.98 0.88,7.47 6.81,-0.59 13.64,-1.27 20.46,-2.05l1.5 14.33c-17.3,2.02 -34.86,3.32 -52.63,3.92l-1.43 -14.33c5.63,-0.17 11.32,-0.44 17.07,-0.79 -0.41,-3.51 -0.8,-6.86 -1.15,-10.06 -5.99,-0.53 -11.81,-1.03 -17.44,-1.5l2.23 -14.33z"/>
  <path id="4" class="fil0" d="M433.29 0c1.18,3.08 2.88,5.95 5.07,8.62 4.63,-0.41 9.36,-0.68 14.23,-0.8 5.92,0 10.55,0.8 13.87,2.4 3.55,2.08 5.42,5.31 5.6,9.7 -0.12,3.67 -1.21,8.64 -3.29,14.86l-13.87 -1.7c1.59,-3.96 2.55,-7.28 2.84,-9.96 0,-2.61 -2.78,-3.92 -8.35,-3.92 -10.73,0.71 -20.81,2.14 -30.25,4.28 12.03,0.17 24.07,0.73 36.1,1.68l-1.06 10.67c-6.16,-0.41 -12.32,-0.77 -18.5,-1.06 -0.94,0.65 -1.84,1.31 -2.66,1.96 3.25,1.29 6.19,3.4 8.8,6.31 0.94,1 1.81,2.15 2.58,3.46 5.63,-2.19 10.93,-4.05 15.9,-5.6l5.25 11.73c-5.57,2.26 -11.62,4.63 -18.13,7.12l0 0.9c8.59,2.25 16.06,4.67 22.4,7.28l-3.9 12.72c-7.77,-2.49 -14.77,-4.69 -20.99,-6.59 -1.96,4.04 -4.93,7.42 -8.89,10.14l-11.38 -8.09c5.75,-3.73 8.62,-8.83 8.62,-15.3 -0.35,-7.88 -4.57,-13.04 -12.63,-15.46 -3.98,2.84 -7.97,5.72 -12,8.62l-9.52 -8.44c5.34,-4.04 10.52,-7.8 15.57,-11.31 -1.96,-0.05 -3.85,-0.08 -5.69,-0.08l0.79 -8.27c-1.59,0.41 -3.23,0.88 -4.89,1.41 0.94,2.97 1.99,5.93 3.11,8.89l-13.16 4.37c-2.96,-7.95 -5.1,-16.16 -6.4,-24.65l13.07 -3.9c0.18,1.18 0.36,2.37 0.53,3.55 6.24,-1.96 12.75,-3.52 19.58,-4.7 -1.08,-1.73 -1.93,-3.48 -2.58,-5.25l14.22 -5.6zm-15.65 50.05l7.03 6.86c-5.93,4.73 -11.94,9.71 -18.06,14.93l-7.47 -6.75c6.34,-5.57 12.5,-10.59 18.5,-15.04zm5.95 10.41l7.21 6.75c-5.75,4.98 -11.59,10.2 -17.51,15.66l-7.47 -6.77c6.16,-5.81 12.08,-11.02 17.77,-15.65z"/>
  <path id="5" class="fil0" d="M29.17 108.9c1.12,2.9 2.58,5.63 4.36,8.18 5.16,-0.24 10.23,-0.36 15.21,-0.36l1.34 12.37c-16.89,0 -32.4,1.18 -46.51,3.55l-1.5 -12.35c5.45,-0.77 10.82,-1.46 16.09,-2.05 -0.71,-1.37 -1.34,-2.73 -1.87,-4.1l12.9 -5.24zm-22.41 26.31l2.41 1.15c5.45,-2.25 11.29,-3.37 17.51,-3.37 3.37,0 6.51,0.2 9.42,0.62 2.84,0.65 5.6,2.03 8.27,4.17 1.18,1.18 2.09,2.46 2.75,3.82l2.32 -11.47c2.43,0 4.83,0.09 7.19,0.27 1.67,-6.53 3.38,-12.75 5.16,-18.68l12.46 2.76c-1.61,5.75 -3.17,11.47 -4.72,17.16 4.33,0.65 8.65,1.44 12.98,2.4l-2.49 12.88c-4.98,-0.82 -9.59,-1.56 -13.87,-2.22 -3.96,15.59 -7.66,31.38 -11.11,47.39l-12.44 -2.93c3.43,-16.31 7,-31.57 10.67,-45.8 -1.96,-0.18 -3.82,-0.29 -5.6,-0.35 0.7,1.84 1.06,3.79 1.06,5.86l0 2.58c0,4.22 -1.27,7.53 -3.82,9.97 -3.51,3.55 -8.03,5.54 -13.61,5.95 0.12,1.43 0.27,2.82 0.46,4.17 4.14,0.42 8.24,1.11 12.26,2.05l-2.03 12.37c-3.14,-0.53 -6.09,-0.99 -8.8,-1.34 0.17,2.02 0.38,4.01 0.62,5.95l-12.9 1.52c-0.53,-4.8 -1.03,-9.55 -1.52,-14.22 -2.49,4.14 -4.7,8.38 -6.66,12.7l-11.38 -7.82c3.38,-5.99 6.72,-11.09 10.05,-15.3l7.47 4.98c-0.23,-1.78 -0.41,-3.52 -0.53,-5.25 -4.26,-0.41 -7.77,-1.35 -10.49,-2.84 -4.34,-2.85 -6.5,-6.9 -6.5,-12.19 0,-5.87 1.81,-11.53 5.42,-16.98zm19.21 9.17c-2.9,0 -6.1,0.88 -9.61,2.66 -0.41,0.96 -0.65,1.99 -0.71,3.11 0,2.44 0.65,4.01 1.96,4.72 1.65,0.83 3.67,1.24 6.06,1.24l2.31 0c3.26,0 5.57,-0.68 6.94,-2.05 1.06,-1.06 1.59,-2.37 1.59,-3.92 0,-1.9 -0.65,-3.31 -1.96,-4.26 -1.18,-0.88 -3.37,-1.4 -6.57,-1.5zm41.61 6.13l11.38 2.4c-3.43,8.65 -5.57,16.13 -6.4,22.41 0,2.12 0.96,3.2 2.85,3.2 0.77,0 2.99,-0.58 6.66,-1.7l2.14 11.38c-4.57,1.37 -8.24,2.05 -11.03,2.05l-1.5 0c-3.04,0 -5.81,-1.24 -8.36,-3.73 -1.9,-2.08 -2.85,-4.86 -2.85,-8.36 0.18,-8.3 2.55,-17.51 7.12,-27.65zm7.47 -33.8c3.92,0.77 7.21,1.96 9.88,3.57l-3.2 11.02c-3.38,-1.84 -6.68,-3.14 -9.88,-3.92l3.2 -10.67z"/>
  <path id="6" class="fil0" d="M104.24 113.16l6.31 1.43c9.65,-3.14 19.17,-4.72 28.55,-4.72 9.65,0 16.27,0.41 19.82,1.24 6.71,1.06 11.59,3.08 14.67,6.06 3.26,2.43 4.89,6.94 4.89,13.51l0 1.61c0,4.73 -1.62,8.77 -4.89,12.09 -4.2,4.55 -13.72,6.84 -28.55,6.84l-10.58 0c-10.02,0 -18.23,-1.11 -24.63,-3.29 -7.83,-3.08 -11.75,-8.3 -11.75,-15.65 0,-5.52 2.05,-11.9 6.15,-19.12zm33.78 8.8c-8.12,0 -15.92,1.37 -23.39,4.08 7.53,0.12 14.83,0.33 21.88,0.64l-0.71 9.86c-6.16,-0.24 -12.13,-0.44 -17.88,-0.62 0.59,0.35 1.12,0.62 1.61,0.8 3.61,1.59 11.08,2.4 22.4,2.4 4.63,0 8.62,-0.24 12,-0.71 2.67,-0.35 4.78,-1.24 6.31,-2.67 1.31,-0.82 2.05,-2.55 2.23,-5.16 0,-3.9 -1.96,-6.4 -5.87,-7.47 -2.49,-0.77 -8.68,-1.15 -18.59,-1.15zm38.42 29.52l0.97 12.09c-12.03,0 -24.01,0.27 -35.92,0.8 0.12,0.83 0.23,1.59 0.35,2.31 8.12,-0.12 16.42,-0.29 24.9,-0.53l1.06 9.96c-8.12,0.3 -16.3,0.52 -24.54,0.62 0.06,0.55 0.12,1.02 0.18,1.43 10.43,1.37 20.47,2.11 30.14,2.23l-1.43 13.07c-12.38,-0.12 -24.51,-1.02 -36.36,-2.67 -7.77,-1.24 -14.71,-2.58 -20.81,-3.99 -0.36,1.47 -0.65,2.87 -0.9,4.17l-13.78 -3.11c1.24,-7.36 3.02,-14.37 5.33,-21.08 -1.41,0.12 -2.84,0.24 -4.26,0.36l-1.06 -12.1c23.7,-2.38 49.08,-3.57 76.12,-3.57zm-58.24 22.51c3.02,0.65 6.16,1.24 9.42,1.78 -0.59,-3.67 -1.15,-7.18 -1.7,-10.49 -1.59,0.11 -3.22,0.23 -4.89,0.35 -1,2.79 -1.96,5.57 -2.84,8.36z"/>
  <path id="7" class="fil0" d="M218.68 118.76l3.92 11.2c1.9,0.12 3.73,0.3 5.51,0.53 1.49,-7.22 3,-13.98 4.54,-20.26l13.52 2.93c-1.49,6.16 -2.91,12.41 -4.26,18.76 1.31,0.12 2.52,0.27 3.64,0.46 3.14,-8.24 5.95,-15.63 8.44,-22.14l12.46 4.26c-1.67,3.73 -3.17,7.38 -4.54,10.94 5.34,0.59 10.52,1.35 15.56,2.31l-1.15 12.35c-6.57,-0.94 -12.84,-1.87 -18.76,-2.75 -0.77,2.12 -1.49,4.23 -2.14,6.31l-8.18 -2.76 -0.35 4.98c-2.61,-0.35 -5.13,-0.68 -7.56,-0.97 -0.43,2.37 -0.87,4.7 -1.34,7.03 0.53,0.11 0.97,0.2 1.34,0.26 2.12,0.3 4.17,1.71 6.13,4.26 0.83,0.77 1.49,1.99 1.96,3.66l1.15 -6.77c2.96,0.42 5.84,0.9 8.62,1.43 1.43,-4.73 2.85,-9.27 4.28,-13.6l12.79 2.84c-1.41,4.51 -2.78,8.98 -4.08,13.43 2.61,0.59 5.16,1.21 7.65,1.87l-2.58 13.96c-3.02,-0.71 -5.99,-1.43 -8.89,-2.14 -1.65,5.99 -3.17,11.91 -4.54,17.79l-12.88 -2.93c1.47,-6.12 2.93,-11.91 4.36,-17.44 -1.61,-0.41 -3.23,-0.74 -4.9,-0.97 0.12,1.78 0.18,3.64 0.18,5.6l0 1.78c0,4.81 -1.43,8.54 -4.26,11.2 -2.67,2.73 -6.46,4.1 -11.38,4.1l-1.52 0c-6.46,0 -11.17,-1.84 -14.13,-5.51 -2.14,-2.73 -3.2,-6.8 -3.2,-12.19 0,-7.47 2.28,-14.93 6.84,-22.41l3.29 0.71c0.47,-2.61 0.91,-5.1 1.32,-7.47 -2.31,-0.24 -4.58,-0.47 -6.84,-0.71l1.7 -9.86c-1.55,0.41 -3.04,0.83 -4.45,1.24 -2.08,16.6 -3.26,33.9 -3.57,51.93l-13.6 -1.34c0.12,-16.19 1.06,-31.63 2.84,-46.33 -0.94,0.24 -1.9,0.5 -2.84,0.8l-3.92 -13.61c8.36,-2.61 16.3,-4.86 23.83,-6.75zm12.54 60.82c1.9,0 3.2,-0.62 3.92,-1.87 0.71,-1.18 1.08,-3.17 1.08,-5.96 -0.18,-5.22 -0.87,-8.12 -2.05,-8.71 -1.18,-0.53 -2.31,-0.8 -3.38,-0.8 -0.65,0 -1.65,0.36 -3.02,1.08 -0.83,2.43 -1.24,4.67 -1.24,6.75 0,3.32 0.29,5.72 0.9,7.19 0.7,1.55 1.97,2.32 3.81,2.32z"/>
  <path id="8" class="fil0" d="M301.22 110.58c22.54,0.24 44.25,0.62 65.18,1.15l-1.15 13.07c-9.3,-0.17 -18.44,-0.35 -27.39,-0.53 0.12,1.49 0.24,3 0.36,4.54 9.77,-0.41 19.65,-0.88 29.61,-1.43l1.34 13.08c-23.66,1.53 -47.73,2.52 -72.21,2.93l-1.34 -13.25c9.36,-0.18 18.79,-0.44 28.27,-0.8 -0.17,-1.9 -0.32,-3.7 -0.44,-5.42 -8.3,-0.12 -16.39,-0.27 -24.27,-0.44l2.03 -12.9zm6.77 36.01c0.06,0.65 0.11,1.24 0.17,1.78 10.2,-3.14 20.79,-4.7 31.75,-4.7 7.47,0 13.58,1 18.32,3.02 4.45,2.73 6.68,5.95 6.68,9.7l0 2.12c-0.42,6.16 -1.73,11.65 -3.92,16.45l-14.58 -2.75c2.19,-3.44 3.49,-7.33 3.92,-11.65 0,-1.55 -0.87,-2.64 -2.58,-3.29 -2.43,-0.53 -5.78,-0.8 -10.05,-0.8 -3.67,0.12 -7.24,0.46 -10.67,0.99l6.31 1.87c-4.39,9.77 -8.67,20.71 -12.81,32.81l-13.25 -4.63c3.55,-10.73 7.25,-20.18 11.11,-28.36 -3.14,0.71 -6.1,1.64 -8.89,2.76 0.36,3.79 0.71,7.71 1.08,11.73l-13.25 1.34c-0.96,-10.14 -1.76,-19.15 -2.41,-27.03l13.08 -1.34zm23.48 23.73c13.04,2.5 25.36,5.72 36.98,9.7l-3.92 12.81c-12.5,-4.39 -24.83,-7.74 -36.98,-10.05l3.92 -12.46z"/>
  <path id="9" class="fil0" d="M391.31 119.91c5.16,0.3 10.26,0.65 15.3,1.08 0.96,-3.57 1.99,-7.03 3.11,-10.41l14.23 3.2c-0.96,2.79 -1.81,5.6 -2.58,8.45 5.87,0.65 11.59,1.29 17.16,1.94l-0.99 13.43c-6.75,-0.59 -13.28,-1.18 -19.56,-1.78 -0.23,1.12 -0.47,2.25 -0.71,3.38 1.31,-0.06 2.58,-0.09 3.82,-0.09 4.69,0 8.51,1.5 11.47,4.54 2.85,3.26 4.26,7.06 4.26,11.38l0 1.78c0,4.33 -0.41,9.96 -1.24,16.89 -0.94,7.24 -1.97,12.99 -3.11,17.25l-12.08 -2.4c0.88,-3.79 1.62,-7.39 2.22,-10.76 -1.65,-0.18 -3.29,-0.33 -4.89,-0.46 0.17,3.32 0.38,6.71 0.62,10.14l-10.67 1.08c-0.3,-4.22 -0.56,-8.15 -0.8,-11.84 -1.71,-0.11 -3.41,-0.17 -5.07,-0.17 0.23,4.08 0.53,8.21 0.88,12.35l-11.38 0.99c-1.29,-16.07 -2.37,-32.2 -3.19,-48.38l11.38 -1.06c0.05,0.59 0.08,1.18 0.08,1.78 0.77,-0.24 1.55,-0.47 2.32,-0.71 0.47,-2.43 0.94,-4.73 1.43,-6.94 -4.87,-0.47 -9.61,-0.9 -14.23,-1.24l2.22 -13.43zm9.88 47.92c1.71,0 3.43,0.06 5.16,0.18 0,-0.77 -0.03,-1.49 -0.09,-2.14 -1.61,-0.05 -3.17,-0.08 -4.72,-0.08l0.71 -8.54 1.61 0c-0.18,-1.37 -0.36,-2.61 -0.53,-3.73 -1.02,0.36 -1.99,0.71 -2.94,1.06 0.24,4.45 0.5,8.86 0.8,13.25zm15.74 -1.32c0.06,0.76 0.12,1.5 0.18,2.22 2.25,0.24 4.48,0.47 6.66,0.71 0.12,-0.83 0.21,-1.55 0.27,-2.14 -2.38,-0.29 -4.75,-0.56 -7.12,-0.79zm-4.72 -8.98c0.42,0 0.8,0.03 1.17,0.09 0.65,-2.26 1.24,-4.37 1.78,-6.31 -1.18,0.11 -2.43,0.23 -3.73,0.35 0.23,2.02 0.5,3.98 0.79,5.87zm9.88 0.88c0.94,0.12 1.81,0.24 2.58,0.36l0 -1.52c0,-1.78 -0.42,-3.08 -1.24,-3.92 -0.49,1.73 -0.93,3.41 -1.34,5.07zm17.88 -28.99c2.12,0.18 4.26,0.36 6.39,0.53 1.2,-5.57 2.38,-10.96 3.57,-16.18l12.81 2.93c-0.36,1.67 -0.68,3.23 -0.99,4.72l3.82 -4.1c3.44,2.02 6.28,4.51 8.54,7.47l-7.03 7.21c-1.84,-2.02 -3.95,-4.01 -6.31,-5.96 -0.42,1.85 -0.8,3.66 -1.17,5.43 3.32,0.47 6.62,0.97 9.88,1.52l-1.34 14.93c-4.04,-0.53 -7.92,-1.03 -11.65,-1.52 -1.24,5.99 -2.4,11.97 -3.46,17.97 7.22,4.73 13.34,10.52 18.32,17.33l-10.05 10.06c-3.38,-3.69 -7.12,-7.33 -11.2,-10.94 -0.65,3.61 -1.27,7.25 -1.88,10.94l-12.88 -2.85c2.61,-15.71 5.28,-30.44 8,-44.19 -1.96,-0.24 -3.88,-0.47 -5.78,-0.71l2.41 -14.58z"/>
 </g>
</svg>
