<?xml version="1.0" encoding="UTF-8"?>
<!DOCTYPE svg PUBLIC "-//W3C//DTD SVG 1.1//EN" "http://www.w3.org/Graphics/SVG/1.1/DTD/svg11.dtd">
<!-- Creator: CorelDRAW 2019 (64-Bit) -->
<svg xmlns="http://www.w3.org/2000/svg" xml:space="preserve" width="243.175mm" height="53.7419mm" version="1.1" style="shape-rendering:geometricPrecision; text-rendering:geometricPrecision; image-rendering:optimizeQuality; fill-rule:evenodd; clip-rule:evenodd"
viewBox="0 0 274.32 60.63"
 xmlns:xlink="http://www.w3.org/1999/xlink"
 xmlns:xodm="http://www.corel.com/coreldraw/odm/2003">
 <defs>
  <style type="text/css">
   <![CDATA[
    .fil0 {fill:#332C2B;fill-rule:nonzero}
   ]]>
  </style>
 </defs>
 <g id="图层_x0020_1">
  <metadata id="CorelCorpID_0Corel-Layer"/>
  <path class="fil0" d="M4.26 2.62c6.33,1.61 13.41,2.43 21.23,2.43l-0.85 9.37c-8.87,0 -16.21,-0.96 -22.01,-2.89l1.63 -8.92zm52.95 11.8l0.98 9.77c-4.45,0 -8.87,0.07 -13.23,0.19 0.3,1.71 0.65,3.23 1.04,4.59 1.8,7.08 4.16,12.35 7.08,15.81 1.49,1.91 3.89,3.77 7.21,5.57l-5.25 10.29c-5.81,-2.49 -10.47,-6.71 -13.96,-12.65 -2.84,-5.11 -5,-11.52 -6.49,-19.21 -0.22,-1.26 -0.41,-2.61 -0.59,-4 -10.96,0.53 -21.94,1.44 -32.9,2.75l-1.12 -9.63c10.58,-1.35 21.54,-2.29 32.91,-2.82 -0.36,-4.41 -0.57,-9.17 -0.66,-14.28l11.07 0.32c0,5.02 0.13,9.53 0.39,13.5 2.54,-0.09 5.09,-0.13 7.67,-0.13 -2.1,-1.91 -4.54,-3.86 -7.34,-5.83l6.03 -6.49c3.45,1.79 6.33,4.04 8.65,6.74l-5.76 5.57c1.43,-0.03 2.85,-0.06 4.25,-0.06zm-35.19 12.38c0.35,2.14 0.67,4.35 0.98,6.62 3.19,-0.27 6.44,-0.64 9.77,-1.12l0.78 8.66c-3.1,0.48 -6.22,0.83 -9.37,1.04 0.27,1.76 0.53,3.48 0.79,5.18 2.84,-0.48 6.07,-1.17 9.7,-2.09l1.51 8.98c-8.43,2.18 -15.49,3.31 -21.17,3.4 -4.77,0 -8.3,-0.83 -10.62,-2.48 -2.27,-1.76 -3.55,-4.09 -3.8,-7.01 0,-5.77 0.59,-10.75 1.77,-14.94l8.98 2.16c-1.05,3.94 -1.58,7.15 -1.58,9.63 0,1.1 0.44,1.9 1.31,2.43 0.7,0.44 1.76,0.73 3.15,0.85 -1.14,-6.77 -2.1,-13.55 -2.89,-20.31l10.68 -0.98z"/>
  <path id="1" class="fil0" d="M75.59 1.89c2.05,0.13 5.65,1.67 10.81,4.6 3.46,2.27 5.18,5 5.18,8.19 0,2.4 -0.92,4.44 -2.75,6.1 -2.23,2.09 -3.78,3.6 -4.65,4.52 -1.05,0.83 -1.57,1.58 -1.57,2.23 0,1.62 2.62,3.39 7.86,5.31l-4.13 8.13c-4.68,-0.4 -9.16,-2.7 -13.45,-6.89 -1.4,-2.09 -2.09,-4.27 -2.09,-6.55 0,-2.14 1.2,-4.25 3.6,-6.35 0.92,-0.96 2.34,-2.32 4.26,-4.06 0.7,-0.57 1.05,-1.1 1.05,-1.58 0,-1.05 -0.66,-1.95 -1.97,-2.68 -1.97,-1.05 -4.11,-2.16 -6.42,-3.34l4.26 -7.61zm13.1 41.16l2.89 9.63c-5.16,2.19 -11.03,3.78 -17.63,4.79l-2.62 -10.02c6.2,-1.14 11.99,-2.61 17.36,-4.4zm26.42 -41.68c3.93,0 7.1,1.24 9.5,3.74 2.28,2.66 3.41,5.48 3.41,8.45l0 1.58c0,2.49 -0.53,5.44 -1.58,8.85 -1.52,4.54 -3.88,9.22 -7.07,14.03 4.06,1.49 8,3.05 11.79,4.72l-3.4 11.01c-5.11,-2.27 -10.17,-4.33 -15.15,-6.16 -3.32,4.46 -6.95,8.72 -10.87,12.79l-7.87 -8.91c2.54,-2.8 4.81,-5.41 6.82,-7.86 -3.19,-1.01 -6.32,-1.88 -9.37,-2.62l3.41 -10.75c4.41,1.13 8.74,2.38 12.98,3.74 0.04,-0.09 0.09,-0.16 0.12,-0.2 2.84,-3.93 4.99,-7.64 6.43,-11.14 1.26,-2.71 1.9,-4.85 1.9,-6.42 0,-1.1 -0.22,-2.01 -0.66,-2.75 -0.48,-0.7 -1.14,-1.05 -1.97,-1.05 -1.97,0 -4.28,0.35 -6.95,1.05 -3.19,1.22 -6.1,2.71 -8.71,4.45l-4.26 -11.01c2.09,-1.31 4.93,-2.54 8.52,-3.67 4.27,-1.23 8.6,-1.83 12.98,-1.83z"/>
  <path id="2" class="fil0" d="M154.51 9.89c0.83,-3.1 1.68,-6.14 2.55,-9.11l11.02 2.36c-0.57,2.05 -1.14,4.15 -1.71,6.29 2.72,0.44 4.99,1.76 6.82,3.94 1.57,2.05 2.57,4.33 3.01,6.81 0.92,-4.84 2.25,-9.9 4,-15.13l3.14 0.65c1.74,-0.21 3.67,-0.37 5.77,-0.46 2.53,0.09 4.68,0.36 6.42,0.79 1.88,0.69 3.37,1.75 4.45,3.14 1.83,1.22 2.75,9.61 2.75,25.17l0 3.99c0,8.66 -0.85,13.98 -2.55,16 -1.79,2.98 -5.48,4.52 -11.07,4.65l-1.19 -0.2c-4.5,0 -7.62,-0.69 -9.37,-2.09 -1.57,-0.87 -2.66,-2.73 -3.28,-5.57 -0.3,-2.71 -0.48,-6.58 -0.53,-11.6 -0.04,0.21 -0.08,0.44 -0.12,0.65 -1.44,6.43 -3.02,11.57 -4.72,15.4l-11.02 -2.36c2.28,-5.76 3.96,-11.16 5.06,-16.19 1,-4.68 1.5,-8.5 1.5,-11.47 0,-1.67 -0.28,-2.93 -0.85,-3.8 -0.35,-0.57 -0.76,-0.96 -1.24,-1.19 -3.41,12.67 -6.55,25.57 -9.44,38.67l-11.01 -2.29c2.75,-12.63 5.55,-24.37 8.39,-35.26 -1.79,0.48 -3.62,1.14 -5.5,1.97l-3.68 -10.75c1.62,-0.66 4.35,-1.4 8.2,-2.23 1.4,-0.31 2.8,-0.57 4.19,-0.79zm34.08 38.67c1.7,0 2.66,-0.41 2.89,-1.24 0.35,-1.1 0.51,-4.13 0.51,-9.11l0 -3.02c0,-11.88 -0.37,-18.2 -1.11,-18.94 -0.7,-0.31 -1.38,-0.46 -2.04,-0.46 -0.21,0 -0.59,0.04 -1.11,0.12 -1.53,5.43 -2.3,10.79 -2.3,16.13 0,7.52 0.13,12.49 0.4,14.94 0.26,1.04 1.17,1.57 2.75,1.57z"/>
  <path id="3" class="fil0" d="M218.75 3.99c2.05,0.13 5.65,1.42 10.81,3.87 3.46,1.96 5.18,4.34 5.18,7.14 0,2.32 -1.01,4.28 -3.01,5.91 -2.45,2.05 -4.13,3.51 -5.04,4.38 -1.14,0.87 -1.71,1.62 -1.71,2.23 0,1.49 2.56,3.09 7.67,4.79l-4 7.54c-4.41,-0.35 -8.65,-2.45 -12.71,-6.29 -1.32,-1.92 -1.97,-3.94 -1.97,-6.04 0,-2.09 1.31,-4.17 3.93,-6.22 0.96,-0.92 2.52,-2.23 4.65,-3.94 0.79,-0.6 1.19,-1.13 1.19,-1.57 0,-0.84 -0.73,-1.55 -2.16,-2.17 -2.1,-0.78 -4.37,-1.66 -6.82,-2.62l4 -7.01zm10.75 38.74l2.87 9.77c-4.32,2.14 -9.22,3.71 -14.68,4.72l-2.63 -10.03c5.12,-1.17 9.92,-2.66 14.43,-4.45zm10.74 -35.85l3.8 0.92c0.62,-0.18 1.28,-0.35 1.97,-0.53 1.4,-0.35 2.82,-0.59 4.26,-0.73 0.35,-2.23 0.76,-4.41 1.24,-6.54l9.18 1.11c-0.36,1.83 -0.68,3.67 -0.98,5.5 2.96,0.44 5.48,1.4 7.54,2.89 2.09,1.53 3.71,3.89 4.84,7.08 1.4,4.24 2.15,8.74 2.23,13.5l0 0.85c0,7.38 -0.5,12.93 -1.5,16.64 -1.23,4.46 -3.76,7.58 -7.61,9.37 -3.46,1.71 -6.55,2.56 -9.31,2.56l-3.02 0c-6.12,0 -11.03,-2.15 -14.74,-6.42 -3.37,-3.85 -5.04,-9.03 -5.04,-15.54 0,-5.94 0.62,-11.9 1.83,-17.9 1.61,-5.37 3.39,-9.63 5.3,-12.77zm18.1 8.97c-0.39,3.15 -0.73,6.28 -0.98,9.37 1.79,0.22 3.51,0.46 5.18,0.73l-0.85 9.96c-1.71,-0.21 -3.39,-0.41 -5.06,-0.58 -0.09,1.88 -0.15,3.76 -0.19,5.64l-9.18 -1.12c0.04,-1.97 0.09,-3.87 0.13,-5.7 -1.26,-0.17 -2.47,-0.32 -3.6,-0.46 -0.04,0.75 -0.09,1.42 -0.13,2.04 0,3.62 0.85,7.29 2.56,11.01 1.61,2.4 3.86,3.61 6.74,3.61l2.23 0c1.67,0 3.46,-0.79 5.38,-2.36 1.22,-0.92 2.07,-2.63 2.55,-5.11 0.44,-2.19 0.66,-6.25 0.66,-12.19l0 -1.38c0,-2.58 -0.35,-5.22 -1.05,-7.93 -0.53,-2.15 -1.33,-3.64 -2.43,-4.46 -0.6,-0.48 -1.26,-0.83 -1.96,-1.05zm-10.29 8.2c0.26,-2.58 0.53,-5.07 0.78,-7.47 -0.69,0.3 -1.33,0.62 -1.9,0.92 -0.74,1.92 -1.42,3.94 -2.02,6.03l0 0.13c1.09,0.12 2.14,0.26 3.14,0.39z"/>
 </g>
</svg>
