<?xml version="1.0" encoding="UTF-8"?>
<!DOCTYPE svg PUBLIC "-//W3C//DTD SVG 1.1//EN" "http://www.w3.org/Graphics/SVG/1.1/DTD/svg11.dtd">
<!-- Creator: CorelDRAW 2019 (64-Bit) -->
<svg xmlns="http://www.w3.org/2000/svg" xml:space="preserve" width="432.787mm" height="126.004mm" version="1.1" style="shape-rendering:geometricPrecision; text-rendering:geometricPrecision; image-rendering:optimizeQuality; fill-rule:evenodd; clip-rule:evenodd"
viewBox="0 0 954.65 277.94"
 xmlns:xlink="http://www.w3.org/1999/xlink"
 xmlns:xodm="http://www.corel.com/coreldraw/odm/2003">
 <defs>
  <style type="text/css">
   <![CDATA[
    .fil0 {fill:#332C2B;fill-rule:nonzero}
   ]]>
  </style>
 </defs>
 <g id="图层_x0020_1">
  <metadata id="CorelCorpID_0Corel-Layer"/>
  <path class="fil0" d="M27.69 38.95l6.52 3.35c8.81,-2.23 18.11,-3.35 27.95,-3.35 7.26,0 13.87,0.39 19.86,1.16 6.15,1.47 12.01,4.61 17.56,9.49 6.06,5.97 9.1,14.13 9.1,24.47l0 2.95c3.32,0.5 6.61,1.09 9.86,1.79l-3.72 19.6c-3,-0.42 -5.86,-0.85 -8.6,-1.27 -1.27,3.67 -2.91,6.82 -4.86,9.47 -7.61,10.85 -18,16.27 -31.15,16.27l-10.89 0c-14.02,0 -25.17,-2.78 -33.46,-8.31 -7.76,-6.85 -12.16,-15.99 -13.19,-27.43 -3.41,-0.26 -6.76,-0.44 -10,-0.52l3.46 -19.6c2.65,0 5.25,0.04 7.83,0.13 2.12,-9.75 6.69,-19.14 13.71,-28.21zm34.6 15.51c5.03,3.76 9.43,8.14 13.19,13.08l-3.72 3.72c5.64,0.68 11.2,1.44 16.67,2.32 -0.61,-5.73 -2.52,-10.08 -5.77,-13.08 -3.85,-3.59 -10.63,-5.6 -20.36,-6.04zm-7.7 14.87c-2.56,-2.3 -5.16,-4.61 -7.81,-6.91l7.04 -7.44c-5.05,0.94 -10.43,2.73 -16.14,5.38 -1.38,2.38 -2.49,4.88 -3.35,7.44 6.85,0.33 13.58,0.85 20.25,1.53zm31.52 25c-7.85,-1.03 -15.42,-1.97 -22.68,-2.82 3.59,2.82 6.76,5.93 9.49,9.36l-6.8 6.65 0.52 0c8.53,0 14.61,-3.37 18.2,-10.13 0.5,-1.09 0.94,-2.12 1.27,-3.06zm-28.32 13.19c-4.18,-3.85 -8.92,-7.76 -14.22,-11.79l5.51 -5.75c-5.47,-0.52 -10.8,-0.98 -16.01,-1.42 1.09,6.15 3.15,10.43 6.15,12.82 5.29,3.94 11.48,5.97 18.57,6.15zm-27.93 -107.52l16.93 10.76c-1.2,1.29 -2.27,2.49 -3.21,3.59 22.46,1.47 44.33,3.3 65.62,5.51l-1.92 21.02c-27.76,-2.3 -54.11,-4.48 -79.07,-6.52 -3.41,4.86 -6.63,9.82 -9.62,14.85l-18.57 -13.45c10,-14.11 19.95,-26.01 29.86,-35.76z"/>
  <path id="1" class="fil0" d="M192.9 0l8.44 5.25c8.05,-1.53 14.92,-2.3 20.65,-2.3 6.41,0 11.57,1.36 15.51,4.09 5.47,3.85 8.2,8.86 8.2,15 0,4.7 -2.6,8.6 -7.83,11.66 6.58,1.29 13.3,2.32 20.12,3.08l-3.19 14.87c-14.11,-1.64 -27.03,-4.02 -38.84,-7.2 -7.94,3.43 -17.21,7.06 -27.8,10.89 5.91,-0.68 11.7,-1.27 17.43,-1.79 -0.17,-1.18 -0.35,-2.3 -0.52,-3.32l19.62 -2.06c0.26,1.38 0.46,2.69 0.63,3.98 7.44,-0.35 14.74,-0.5 21.92,-0.5l1.42 13.45c-7.26,0 -14.33,0.13 -21.15,0.37 0.09,0.7 0.17,1.33 0.26,1.92 6.41,-0.24 12.73,-0.37 18.96,-0.37l1.03 12.29c-6.26,0 -12.23,0.09 -17.96,0.26 0.09,0.85 0.22,1.66 0.39,2.43 7.68,-0.33 15.24,-0.5 22.68,-0.5l1.4 13.71c-7.5,0 -14.81,0.13 -21.92,0.37 0.7,4.02 1.33,8.01 1.92,11.92l-15.24 1.79 1.03 4.48c-11.53,3.35 -22.46,5.01 -32.81,5.01l-5.51 0c-10.35,0 -19.18,-2.52 -26.53,-7.57 -8.03,-6.23 -12.05,-15.16 -12.05,-26.77 0,-10.61 1.55,-22.7 4.62,-36.29l19.88 4.48c-3.08,10.7 -4.61,20.12 -4.61,28.32 0,7.44 1.79,12.86 5.38,16.27 3.32,3.43 8.88,5.14 16.64,5.14 8.29,0 17.61,-1.38 27.95,-4.11 -0.09,-0.59 -0.22,-1.09 -0.39,-1.53 -9.65,0.77 -19.01,1.79 -28.06,3.08l-1.53 -13.84c9.3,-1.2 18.44,-2.14 27.43,-2.82 -0.17,-0.77 -0.31,-1.53 -0.39,-2.32 -7.09,0.61 -13.89,1.33 -20.38,2.19l-1.03 -12.29c6.5,-0.85 12.99,-1.55 19.49,-2.06 -0.17,-0.77 -0.31,-1.47 -0.39,-2.06 -7.68,0.59 -15.03,1.42 -22.02,2.43l-1.55 -12.29c-2.97,1.12 -5.88,2.19 -8.7,3.19l-6.15 -15.88c2.47,-0.68 4.9,-1.42 7.31,-2.19l-8.97 -6.41 -1.03 3.98c-7.02,-3.08 -13.84,-5.29 -20.52,-6.67l5.14 -17.43c8.11,1.38 14.94,3.43 20.49,6.17l-2.69 9.47c7.94,-12.05 15.9,-22.37 23.84,-31.01zm-8.73 39.61c3.26,-0.94 6.23,-1.88 8.97,-2.82 -2.03,-0.85 -3.92,-1.66 -5.62,-2.43 -1.12,1.79 -2.23,3.54 -3.35,5.25zm12.69 -17.56c6.34,2.47 12.82,4.66 19.49,6.54 2.38,-0.85 4.48,-1.75 6.28,-2.69 3,-1.12 4.48,-2.06 4.48,-2.82 0,-3.17 -2.87,-4.75 -8.57,-4.75 -7.17,0 -14.41,1.25 -21.67,3.72z"/>
  <path id="2" class="fil0" d="M315.44 14.24l6.67 19.09c-3.43,1.09 -6.85,2.25 -10.26,3.46 -3.08,24.34 -4.83,49.63 -5.25,75.87l-21.54 -1.92c0.17,-22.81 1.51,-44.73 3.98,-65.75 -2.06,0.68 -4.02,1.36 -5.91,2.06l-5.62 -19.36c13.23,-5.29 25.87,-9.78 37.93,-13.45zm9.1 1.14c7.17,0 14.3,0.09 21.39,0.26 0.79,-4.94 1.73,-9.69 2.82,-14.22l20.52 2.03c-0.94,4.37 -1.75,8.64 -2.43,12.82 8.27,0.26 16.43,0.66 24.47,1.16l-2.19 19.99c-8.29,-0.5 -16.49,-0.94 -24.61,-1.27 -0.17,2.65 -0.35,5.25 -0.5,7.81 9.47,-0.5 19.09,-1.2 28.83,-2.06l1.92 19.99c-10.08,0.85 -20.12,1.6 -30.12,2.19 0.26,2.38 0.5,4.75 0.77,7.04 7.94,-0.26 15.86,-0.37 23.71,-0.37l2.19 18.83c-8.38,0 -16.36,0.13 -23.97,0.39 0.26,2.3 0.5,4.55 0.77,6.78 9.14,-0.68 18.2,-1.49 27.17,-2.43l2.19 19.99c-26.66,2.91 -53.65,4.79 -80.99,5.64l-2.19 -20.12c10.85,-0.35 21.74,-0.85 32.68,-1.55 -0.24,-2.47 -0.5,-4.9 -0.77,-7.31 -8.38,0.7 -16.4,1.47 -24.08,2.32l-2.06 -19.09c8.2,-0.77 16.23,-1.42 24.08,-1.92 -0.15,-2.47 -0.37,-4.83 -0.63,-7.04 -8.7,0.42 -17.43,0.72 -26.14,0.9l-1.92 -20.12c9.23,-0.26 18.5,-0.61 27.8,-1.03 0.09,-3.26 0.26,-6.36 0.52,-9.36 -7.09,-0.17 -14.15,-0.31 -21.15,-0.37l1.92 -19.88z"/>
  <path id="3" class="fil0" d="M532.82 11.29l1.92 20.49c-8.73,0 -17.43,0.09 -26.14,0.26 -1.47,4.02 -2.78,8.03 -3.98,12.05l-20.12 -6.67c0.59,-1.62 1.16,-3.15 1.66,-4.62 -7.52,0.35 -14.98,0.72 -22.42,1.16 0.24,2.82 0.5,5.69 0.77,8.6l-21.52 2.03c-0.35,-3.06 -0.66,-6.1 -0.9,-9.1 -5.23,0.44 -10.39,0.85 -15.51,1.29l-2.06 -20.38c5.21,-0.5 10.45,-1.03 15.75,-1.53 -0.33,-2.91 -0.59,-5.82 -0.77,-8.73l21.54 -2.17c0.24,3.06 0.5,6.19 0.77,9.36 10.59,-0.61 21.3,-1.07 32.17,-1.42 1.36,-3.67 2.65,-7.17 3.83,-10.5l19.99 6.65c-0.42,1.2 -0.85,2.32 -1.27,3.35 5.38,-0.09 10.8,-0.13 16.27,-0.13zm-52.8 32.81c16.14,0 28.11,1.79 35.89,5.38 8.7,4.26 13.28,10.43 13.71,18.46l0 5.75c-0.09,10.08 -1.82,19.66 -5.14,28.72l-21.52 -3.46c3.41,-10.08 5.12,-18.5 5.12,-25.26 0,-3.59 -3.28,-6.01 -9.86,-7.31 -5.99,-0.85 -14.22,-1.27 -24.74,-1.27 1.53,16.49 3.37,33.88 5.51,52.16l-22.05 2.69c-2.12,-16.75 -3.96,-33.46 -5.51,-50.11 -6.15,1.79 -12.01,3.96 -17.54,6.52l-6.67 -21.02c16.99,-7.5 34.6,-11.26 52.8,-11.26z"/>
  <path id="4" class="fil0" d="M576.79 23.07c0.09,0.85 0.17,1.71 0.26,2.56 4.96,-1.71 9.73,-2.56 14.35,-2.56 5.05,0 9.32,0.94 12.82,2.82 3.67,2.47 5.51,7.72 5.51,15.75 0,15.64 -1.36,34.73 -4.09,57.3l-18.59 -3.22c0.94,-6.32 1.75,-12.47 2.43,-18.46 -2.82,0.26 -5.51,0.57 -8.07,0.9 0.7,7.96 1.42,16.03 2.19,24.23l-17.56 1.66c-2.47,-26.49 -4.7,-53.02 -6.67,-79.59l17.43 -1.4zm3.46 41.91c3.52,-0.59 7.02,-1.03 10.52,-1.29 0.17,-1.62 0.31,-3.19 0.39,-4.72 -3.85,-0.44 -7.66,-0.74 -11.42,-0.92 0.17,2.41 0.35,4.7 0.5,6.93zm-1.53 -20.25c4.44,0.09 8.81,0.31 13.08,0.63 -0.17,-4.94 -1.88,-7.41 -5.14,-7.41 -2.8,0.33 -5.58,1.22 -8.31,2.69 0.09,1.36 0.2,2.73 0.37,4.09zm36.53 -1.16c5.29,0.26 10.48,0.52 15.51,0.79 -0.26,-3.85 -0.5,-7.61 -0.77,-11.29l-13.58 6.78c-4.44,-5.8 -7.87,-12.47 -10.26,-19.99l15.9 -6.15c1.79,5.64 4.35,10.89 7.68,15.77 -0.5,-7.94 -1.03,-15.55 -1.53,-22.81l20.38 -2.06c1.01,13.17 2.03,26.88 3.06,41.14 7.7,0.5 15.22,1.12 22.55,1.79l-1.4 19.09c-6.76,-0.5 -13.32,-1.03 -19.73,-1.53 0.24,3.5 0.5,7 0.77,10.5 7.68,-0.59 15.38,-1.22 23.05,-1.92l2.06 21.02c-7.85,0.77 -15.73,1.47 -23.58,2.06 0.52,6.91 1.03,13.93 1.53,21.02l-20.63 2.19c-0.5,-7.52 -1.03,-14.83 -1.53,-21.92 -7.7,0.42 -15.33,0.72 -22.94,0.9l-2.19 -21.02c7.79,-0.26 15.68,-0.61 23.71,-1.03 -0.33,-4.62 -0.72,-9.14 -1.14,-13.58 -6.76,-0.52 -13.39,-0.98 -19.88,-1.42l2.95 -18.33zm46.26 -30.88l16.93 5.64c-3.41,7.52 -6.36,15.05 -8.84,22.55l-16.93 -5.62c3.32,-8.55 6.28,-16.08 8.84,-22.57z"/>
  <path id="5" class="fil0" d="M710.62 9.1c32.22,0 65.2,2.91 98.95,8.73l-3.98 21.65c-38.19,-4.96 -71.21,-7.9 -99.06,-8.84l4.09 -21.54zm88.17 42.56l2.69 22.02c-29.05,0 -58.27,1.71 -87.64,5.14l-2.69 -22.05c27.41,-3.41 56.63,-5.12 87.64,-5.12zm13.98 38.95l2.43 23.18c-36.31,0 -72.88,1.88 -109.69,5.64l-2.45 -23.18c34.19,-3.76 70.76,-5.64 109.71,-5.64z"/>
  <path id="6" class="fil0" d="M929.65 2.45l7.17 20.1c-20.32,4.02 -41.38,8.29 -63.17,12.82 -0.44,3.59 -0.85,7.22 -1.29,10.89 27.08,-2.12 53.87,-3.19 80.36,-3.19l1.92 20.89c-9.73,0 -19.27,0.18 -28.59,0.5 2.56,16.75 5.25,34.69 8.07,53.83l-23.58 2.71c-3.15,-20.6 -5.93,-39.15 -8.33,-55.62 -11.02,0.5 -21.65,1.22 -31.91,2.17 -1.53,16.49 -2.47,33.25 -2.8,50.24l-22.57 -2.43c0.35,-29.75 2.49,-58.22 6.41,-85.5l-3.19 -11c28.61,-6.34 55.8,-11.81 81.49,-16.4z"/>
  <path id="7" class="fil0" d="M10.76 178.99c9.82,1.2 18.07,3.08 24.74,5.64l-6.15 21.02c-8.46,-2.82 -16.71,-4.88 -24.74,-6.15l6.15 -20.52zm-3.46 30.12l22.55 5.12c-4.53,9.14 -6.78,17.21 -6.78,24.23 0,6.15 1.9,10.63 5.75,13.45 3.59,3 9.58,4.48 17.96,4.48 5.97,0 12.38,-0.46 19.2,-1.4l-13.58 -4.75c1.88,-5.64 3.81,-11.02 5.77,-16.14 -7.61,-2.41 -14.65,-5.1 -21.15,-8.09l5.64 -19.33c7.44,3.06 15.16,5.71 23.21,7.94 3.15,-7.61 6.36,-14.79 9.6,-21.52 -11.61,0.94 -23.23,2.17 -34.86,3.7l-2.17 -19.47c8.11,-1.2 16.4,-2.19 24.85,-2.95 -1.09,-2.47 -2.03,-5.03 -2.8,-7.68l19.6 -7.83c1.44,4.88 3.41,9.58 5.88,14.11 8.46,-0.44 17.1,-0.66 25.9,-0.66l1.92 19.36c-7.52,0 -14.96,0.17 -22.31,0.52l6.93 2.17c-3.76,8.2 -7.44,16.67 -11.02,25.37 8.2,1.64 16.71,2.91 25.5,3.85l-4.22 20.52c-10.43,-1.2 -20.12,-2.73 -29.09,-4.62 -1.88,4.68 -3.67,9.38 -5.4,14.09 5.64,-1.03 11.55,-2.3 17.69,-3.85l4.11 18.85c-16.67,4.44 -32.44,6.65 -47.31,6.65l-6.01 0c-11.29,0 -20.93,-2.34 -28.96,-7.04 -8.81,-5.88 -13.21,-14.3 -13.21,-25.24 0,-9.82 2.27,-21.11 6.8,-33.84z"/>
  <path id="8" class="fil0" d="M194.3 159.4l9.23 8.57c17.87,3 35.28,6.67 52.3,11.02l-3.46 21.52c-20.17,-4.86 -40.24,-8.97 -60.24,-12.29 -11.46,9.47 -23.03,19.23 -34.73,29.22l-15.9 -14.48c18.37,-16.08 35.98,-30.6 52.8,-43.57zm13.45 36.5c2.82,23.07 5.86,48.36 9.12,75.87l-23.07 2.45c-3.5,-28.46 -6.58,-53.74 -9.23,-75.87l23.18 -2.45z"/>
  <path id="9" class="fil0" d="M388.62 166.05l1.53 14.87c-17.26,0 -34.51,0.31 -51.77,0.9 -0.68,1.29 -1.42,2.47 -2.19,3.59 15.29,-0.85 30.88,-1.29 46.78,-1.29l1.53 14.24c-19.05,0 -38.14,0.72 -57.28,2.17 -0.77,1.29 -1.53,2.58 -2.32,3.85 23.25,-1.53 47.26,-2.3 72.02,-2.3l1.55 15.38c-2.91,0 -5.77,0.04 -8.6,0.13 2.82,3.83 5.99,7.55 9.49,11.13l-12.18 5.91c1.62,3.59 2.45,8.71 2.45,15.38l0 2.19c0,5.97 -2.1,11.02 -6.3,15.11 -5.21,5.64 -17.08,8.46 -35.63,8.46l-11.9 0c-11.02,0 -20.03,-1.2 -27.06,-3.59 -8.62,-3.59 -12.95,-9.54 -12.95,-17.83 0,-0.94 0.04,-1.79 0.13,-2.56l-17.93 -6.15c3.76,-7.79 7.57,-15.29 11.4,-22.55 -2.97,0.24 -5.97,0.55 -8.97,0.9l-1.53 -15.38c6.5,-0.79 13.04,-1.47 19.6,-2.06 0.7,-1.38 1.38,-2.65 2.06,-3.85 -2.65,0.26 -5.21,0.5 -7.68,0.77l-1.66 -14.22c6.15,-0.77 12.34,-1.47 18.57,-2.06 0.85,-1.36 1.71,-2.73 2.56,-4.09 -8.2,0.42 -16.4,0.92 -24.61,1.53l-1.66 -15c11.96,-0.85 24.1,-1.53 36.39,-2.03 2.32,-3.35 4.53,-6.54 6.67,-9.62l20.63 6.01c-0.59,0.94 -1.14,1.84 -1.66,2.71 13.25,-0.44 26.75,-0.66 40.51,-0.66zm-76.64 61.39l2.03 0.5c12.58,-4.26 24.96,-6.41 37.18,-6.41 7.76,0 13.49,0.39 17.17,1.16 -0.94,-1.62 -1.84,-3.19 -2.69,-4.75 -16.75,0.52 -33.42,1.42 -49.98,2.69 -1.38,2.32 -2.62,4.57 -3.72,6.8zm37.79 8.84c-8.88,0 -17.43,1.33 -25.63,3.98 7.87,0.26 15.73,0.63 23.58,1.16l-1.66 14.98c-9.05,-0.68 -18.11,-1.12 -27.16,-1.27 1.03,1.44 2.27,2.52 3.72,3.19 3.5,1.79 10.67,2.69 21.52,2.69 5.4,0 10.08,-0.31 14.11,-0.9 3,-0.5 5.47,-1.71 7.44,-3.59 1.44,-1.12 2.25,-3.37 2.43,-6.8 0,-6.15 -1.44,-10.04 -4.35,-11.66 -1.97,-1.2 -6.63,-1.79 -13.98,-1.79z"/>
  <path id="10" class="fil0" d="M532.82 168.23l1.92 20.49c-8.73,0 -17.43,0.09 -26.14,0.26 -1.47,4.02 -2.78,8.03 -3.98,12.05l-20.12 -6.67c0.59,-1.62 1.16,-3.15 1.66,-4.62 -7.52,0.35 -14.98,0.72 -22.42,1.16 0.24,2.82 0.5,5.69 0.77,8.6l-21.52 2.03c-0.35,-3.06 -0.66,-6.1 -0.9,-9.1 -5.23,0.44 -10.39,0.85 -15.51,1.29l-2.06 -20.38c5.21,-0.5 10.45,-1.03 15.75,-1.53 -0.33,-2.91 -0.59,-5.82 -0.77,-8.73l21.54 -2.17c0.24,3.06 0.5,6.19 0.77,9.36 10.59,-0.61 21.3,-1.07 32.17,-1.42 1.36,-3.67 2.65,-7.17 3.83,-10.5l19.99 6.65c-0.42,1.2 -0.85,2.32 -1.27,3.35 5.38,-0.09 10.8,-0.13 16.27,-0.13zm-52.8 32.81c16.14,0 28.11,1.79 35.89,5.38 8.7,4.26 13.28,10.43 13.71,18.46l0 5.75c-0.09,10.08 -1.82,19.66 -5.14,28.72l-21.52 -3.46c3.41,-10.08 5.12,-18.5 5.12,-25.26 0,-3.59 -3.28,-6.01 -9.86,-7.31 -5.99,-0.85 -14.22,-1.27 -24.74,-1.27 1.53,16.49 3.37,33.88 5.51,52.16l-22.05 2.69c-2.12,-16.75 -3.96,-33.46 -5.51,-50.11 -6.15,1.79 -12.01,3.96 -17.54,6.52l-6.67 -21.02c16.99,-7.5 34.6,-11.26 52.8,-11.26z"/>
  <path id="11" class="fil0" d="M671.26 180.39l2.03 20.65c-20.58,0 -41.08,0.72 -61.5,2.17 -7.09,23.34 -13.63,46.83 -19.62,70.49l-21.52 -4.62c5.73,-22.81 11.48,-44.07 17.3,-63.82 -7.35,0.68 -14.65,1.47 -21.92,2.32l-1.92 -20.52c10,-1.27 20.17,-2.38 30.51,-3.32 2.56,-8.46 5.21,-16.58 7.94,-24.34l21.52 4.59c-2.03,6.08 -3.96,12.05 -5.75,17.96 7,-0.44 14.09,-0.77 21.26,-1.03 -2.97,-2.14 -6.15,-4.31 -9.47,-6.54l13.95 -14.98c7.96,4 14.59,9.14 19.88,15.38l-5.64 5.75c4.26,-0.09 8.57,-0.13 12.95,-0.13zm-50.37 28.21l22.05 5.12c-6.08,10.76 -9.1,21.87 -9.1,33.31 0,3 0.77,5.23 2.3,6.67 1.62,1.44 3.89,2.19 6.8,2.19 5.47,0 14.35,-2.06 26.66,-6.17l4.09 19.88c-13.76,3.74 -23.84,5.62 -30.25,5.62l-3.96 0c-6.76,0 -12.73,-1.57 -17.96,-4.72 -6.5,-4.44 -9.73,-11.72 -9.73,-21.78 0,-9.93 3.04,-23.29 9.1,-40.11z"/>
  <path id="12" class="fil0" d="M773.67 188.09c11.61,0 21.06,2.69 28.32,8.07 6.82,5.47 10.26,11.96 10.26,19.49l0 3.06c0,7.35 -1.2,17.02 -3.61,28.98 -2.73,12.38 -5.66,22.29 -8.84,29.72l-22.55 -4.61c4.35,-11.11 7.52,-21.48 9.49,-31.15 1.95,-8.97 2.93,-16.27 2.93,-21.92 0,-2.97 -1.71,-5.25 -5.12,-6.78 -4.02,-1.88 -9.36,-2.82 -16.01,-2.82 -3.61,0 -7.66,0.26 -12.18,0.77 -7,21.96 -13.49,44.14 -19.49,66.51l-22.55 -5.12c5.29,-19.99 10.67,-38.8 16.14,-56.39 -6.23,1.86 -12.51,4.26 -18.83,7.17l-7.57 -21.54c4.96,-2.21 13.54,-4.86 25.77,-7.94 2.73,-0.77 5.47,-1.4 8.2,-1.92 3.85,-11.61 7.7,-22.72 11.53,-33.31l22.57 5.25c-2.91,8.2 -5.73,16.49 -8.46,24.87 3.24,-0.26 6.58,-0.39 10,-0.39zm-59.84 -23.07c9.38,2.23 17.37,4.66 23.95,7.31l-5.64 18.85c-9.14,-2.82 -17.13,-5.18 -23.95,-7.06l5.64 -19.09zm50.61 58.57c7.35,4.11 13.49,9.4 18.46,15.9l-14.24 14.22c-5.12,-5.03 -11.13,-10.13 -18.07,-15.24l13.84 -14.87z"/>
  <path id="13" class="fil0" d="M952.23 167.2l1.4 16.4 -12.18 0c-1.18,12.14 -1.99,24.43 -2.43,36.9 4.88,-0.07 9.6,-0.11 14.22,-0.11l1.42 17.54c-8.11,0 -16.19,0.09 -24.23,0.26 2.49,1.97 5.1,4.11 7.83,6.41l-12.18 12.18c-3.76,-3.67 -8.75,-7.74 -14.98,-12.18l6.01 -6.01c-5.64,0.24 -11.24,0.5 -16.78,0.77 -2.14,6.23 -3.85,12.73 -5.14,19.47l-17.93 -3.96c0.85,-5.05 2.01,-9.8 3.46,-14.24 -3.5,0.26 -6.96,0.57 -10.39,0.9 -1.18,4.79 -1.79,9.05 -1.79,12.82 0.09,2.41 1.25,3.98 3.48,4.75 2.8,0.94 8.2,1.42 16.14,1.42 5.47,0 12.77,-0.31 21.92,-0.9 14,-1.12 26.81,-2.36 38.45,-3.72l3.19 17.3c-11.29,1.36 -22.81,2.47 -34.6,3.32 -12.73,0.94 -22.72,1.4 -29.99,1.42l-5.51 0c-11.11,-0.02 -19.18,-1.73 -24.21,-5.14 -5.47,-3.41 -8.2,-8.75 -8.2,-16.01 0.09,-4.44 0.42,-8.86 1.01,-13.21 -1.86,0.17 -3.78,0.35 -5.75,0.52l-1.42 -17.56c4.88,-0.59 9.8,-1.12 14.74,-1.53 -0.68,-13.08 -1.31,-26.11 -1.92,-39.11 -3.67,0.26 -7.31,0.48 -10.89,0.66l-1.4 -16.4c3.91,-0.17 7.76,-0.35 11.53,-0.52 -0.09,-2.47 -0.17,-4.81 -0.26,-7.04l21.02 -2.19c0.09,2.73 0.22,5.51 0.39,8.33 15.38,-0.59 30.58,-1.03 45.62,-1.27 0.35,-2.73 0.68,-5.42 1.03,-8.07l21.02 2.17c-0.26,1.88 -0.48,3.76 -0.66,5.64l8.99 0zm-73.45 55.99c12.9,-0.92 25.94,-1.66 39.09,-2.17 0.35,-12.73 1.07,-25.13 2.19,-37.16 -14.96,0.24 -29.31,0.63 -43.07,1.14 0.09,0.94 0.13,1.84 0.13,2.69 10,0.18 19.95,0.7 29.86,1.55l-1.53 13.71c-9.32,-0.61 -18.55,-1.03 -27.69,-1.29 0.09,1.47 0.17,2.95 0.26,4.48 8.62,-0.68 17.13,-1.03 25.5,-1.03l1.4 13.34c-9.21,0 -17.98,0.28 -26.27,0.9 0.09,1.36 0.13,2.65 0.13,3.83z"/>
 </g>
</svg>
