<?xml version="1.0" encoding="UTF-8"?>
<!DOCTYPE svg PUBLIC "-//W3C//DTD SVG 1.1//EN" "http://www.w3.org/Graphics/SVG/1.1/DTD/svg11.dtd">
<!-- Creator: CorelDRAW 2019 (64-Bit) -->
<svg xmlns="http://www.w3.org/2000/svg" xml:space="preserve" width="242.193mm" height="55.021mm" version="1.1" style="shape-rendering:geometricPrecision; text-rendering:geometricPrecision; image-rendering:optimizeQuality; fill-rule:evenodd; clip-rule:evenodd"
viewBox="0 0 312.29 70.95"
 xmlns:xlink="http://www.w3.org/1999/xlink"
 xmlns:xodm="http://www.corel.com/coreldraw/odm/2003">
 <defs>
  <style type="text/css">
   <![CDATA[
    .fil0 {fill:#332C2B;fill-rule:nonzero}
   ]]>
  </style>
 </defs>
 <g id="图层_x0020_1">
  <metadata id="CorelCorpID_0Corel-Layer"/>
  <path class="fil0" d="M60.83 2.7l1.13 11.31c-9.04,0 -18.13,0.17 -27.27,0.52 -1,1.65 -1.92,3.27 -2.77,4.87l1.28 0c4.85,0 9.28,0.29 13.34,0.89 3.99,1.05 7.84,3.22 11.53,6.52 4,4.19 6,9.88 6,17.08l0 4.04c0,5.34 -1.75,9.61 -5.24,12.81 -5.34,5.19 -12.68,7.79 -22.03,7.79l-6.89 0c-8.94,0 -16.03,-1.37 -21.27,-4.12 -5.74,-3.94 -8.62,-9.44 -8.62,-16.48 0,-9.69 2.67,-19 8.02,-27.94l3.75 1.87c1.75,-0.4 3.5,-0.78 5.24,-1.13 1.1,-1.89 2.12,-3.72 3.08,-5.47 -5.7,0.31 -11.39,0.68 -17.08,1.13l-1.2 -11.3c18.37,-1.6 38.05,-2.4 59.03,-2.4zm-28.54 27.49c-4.6,0 -9.74,1.07 -15.43,3.22 -0.75,1.55 -1.33,3.12 -1.73,4.72 5.79,0.36 11.43,0.81 16.93,1.36l-0.89 10.56c-6.05,-0.55 -11.81,-1.05 -17.31,-1.5 0.55,3.35 1.9,5.59 4.05,6.74 3.2,1.65 7.11,2.48 11.76,2.48l4.49 0c6.19,0 10.61,-1.25 13.26,-3.75 1.96,-1.9 2.93,-4.32 2.93,-7.27 0,-5.48 -1.33,-9.56 -3.98,-12.21 -2.54,-2.54 -7.24,-3.99 -14.08,-4.35z"/>
  <path id="1" class="fil0" d="M144.07 18.28l1.28 10.48c-5.34,0 -10.59,0.1 -15.74,0.31 -0.35,1.05 -0.66,2.05 -0.97,2.99l1.13 0c5.45,0 9.9,1.15 13.33,3.44 3.3,3.2 4.95,6.99 4.95,11.39l0 2.4c-0.35,7.29 -1.44,13.71 -3.3,19.24l-11.46 -2.02c1.89,-4.49 2.99,-9.64 3.29,-15.43 0,-3.3 -0.56,-5.64 -1.71,-7.04 -1.6,-1.05 -3.82,-1.57 -6.67,-1.57 -0.89,0.05 -1.76,0.1 -2.62,0.15 -0.5,1.75 -0.95,3.5 -1.34,5.24 3.49,1.8 7.13,2.83 10.93,3.07l-2.39 10.11c-3.95,-0.04 -7.59,-0.84 -10.94,-2.39 -0.29,1.65 -0.58,3.27 -0.82,4.87l-10.42 -2.48c0.91,-5.69 1.99,-11.2 3.3,-16.54 -1.75,0.45 -3.43,0.95 -5.02,1.5 0.75,6.99 1.51,14.31 2.25,21.95l-10.71 1.27c-1.19,-11.34 -2.24,-21.54 -3.15,-30.63 -0.79,10.28 -1.27,20.8 -1.42,31.54l-11.01 -1.28c0.05,-3.59 0.12,-7.15 0.22,-10.64 -1.05,0.29 -2.05,0.55 -2.99,0.74l-3 -11.61c2.25,-0.65 4.42,-1.39 6.52,-2.25 0.15,-2.29 0.31,-4.59 0.45,-6.89 -2.24,-0.45 -4.46,-0.69 -6.66,-0.74l1.27 -11.47c2.15,0 4.26,0.2 6.3,0.6 0.19,-2.3 0.42,-4.54 0.66,-6.74 -1.24,0.15 -2.47,0.29 -3.67,0.45l-1.27 -11.01c8.63,-1.1 17.13,-1.98 25.47,-2.62 -0.4,-0.75 -0.78,-1.51 -1.13,-2.25l11.31 -4.42c1,1.99 2.26,3.9 3.82,5.69 8.73,-0.55 17.27,-0.87 25.61,-0.97l1.2 11.16c-16.93,0.1 -33.59,1 -49.96,2.7 -0.55,5.1 -1.02,10.27 -1.42,15.51l9.96 -1.2c0.1,0.81 0.18,1.57 0.23,2.33 3.09,-0.89 6.19,-1.6 9.28,-2.1 0.35,-1.2 0.7,-2.38 1.05,-3.52 -5.4,0.29 -10.82,0.72 -16.25,1.27l-1.13 -10.56c13.53,-1.34 27.99,-2.02 43.37,-2.02z"/>
  <path id="2" class="fil0" d="M226.28 3.82l1.19 12.36c-7.53,0 -15.02,0.1 -22.46,0.29l2.99 2.93c-3.49,3.15 -6.97,6.34 -10.41,9.59 2.84,2.6 5.06,5.41 6.66,8.46 0.1,0.14 0.2,0.29 0.29,0.45l2.85 -8.62c7.2,4.55 14.78,7.04 22.77,7.49l-2.99 12.58c-7.54,-0.09 -14.33,-1.84 -20.38,-5.24 0.4,2.05 0.6,4.32 0.6,6.81 0,6 -1.25,10.37 -3.75,13.12 -3.09,3.2 -7.04,4.79 -11.84,4.79 -4.44,0 -8.05,-0.31 -10.85,-0.89l-1.2 -12.29c3.9,0.64 7.2,0.97 9.88,0.97 1.65,0 2.9,-0.5 3.75,-1.5 1.15,-0.96 1.73,-2.56 1.73,-4.79 0,-3.16 -0.6,-5.8 -1.79,-7.94 -1.25,-2.01 -2.7,-3.77 -4.35,-5.33 -6.2,5.75 -12.36,11.57 -18.51,17.46l-9.59 -8.77c10.45,-10.43 20.56,-20.02 30.34,-28.77 -8.53,0.36 -17.12,0.88 -25.76,1.57l-1.28 -12.29c19.38,-1.65 40.08,-2.47 62.11,-2.47z"/>
  <path id="3" class="fil0" d="M263.44 9.59l3.9 11.01c-2.1,0.6 -4.19,1.2 -6.29,1.8 -1.75,13.44 -2.75,27.42 -2.99,41.95l-12.59 -1.13c0.1,-12.84 0.88,-25.19 2.33,-37.08 -0.89,0.26 -1.78,0.5 -2.62,0.75l-3.3 -11.31c7.54,-2.35 14.73,-4.35 21.57,-6zm28.18 -8.76c6.79,0 11.46,1.27 14,3.81 2.05,2.06 3.08,4.65 3.08,7.8l0 3.22c0,5.34 -1.23,9.06 -3.68,11.16 -1.14,1.05 -2.47,1.79 -3.96,2.25 2.85,0.19 5.32,0.92 7.42,2.16 2.54,1.51 3.82,3.43 3.82,5.78 -0.1,3.39 -0.92,7.21 -2.48,11.46l-6.81 -1.13c0.15,0.6 0.23,1.23 0.23,1.88 -0.1,2.39 -1.6,4.82 -4.5,7.26 -0.74,0.6 -1.44,1.13 -2.1,1.57 3,0.6 6.02,1 9.06,1.2l-2.47 9.96c-6.6,-0.1 -12.73,-1.18 -18.44,-3.22 -3.09,1.7 -6.34,3.35 -9.73,4.95l-5.7 -9.29c1.41,-0.45 2.75,-0.92 4.05,-1.42 -1.1,-0.75 -2.12,-1.47 -3.07,-2.17l1.57 -5.47 -1.88 -5.77 -7.26 0.83c-0.7,-6.44 -1.28,-12.17 -1.73,-17.16l10.71 -1.2c0.1,0.7 0.18,1.42 0.22,2.17 4.35,-0.79 8.62,-1.39 12.81,-1.8 -5.59,-0.29 -11.21,-1 -16.85,-2.1l1.8 -7.86c6.79,1.65 13.86,2.47 21.2,2.47 3.59,0 5.52,-0.47 5.77,-1.42 0.05,-0.1 0.1,-0.2 0.15,-0.29 -8.49,-0.96 -16.95,-1.48 -25.4,-1.57l0.91 -8.46c8.39,0 16.7,0.54 24.94,1.64 -0.15,-1.1 -0.4,-1.87 -0.75,-2.31 -0.6,-0.7 -2.44,-1.05 -5.54,-1.05 -5.29,0 -11.99,0.29 -20.09,0.89l-1.87 -7.86c6.99,-0.6 14.51,-0.89 22.55,-0.89zm-13.8 50.11c2.66,1.51 5.28,2.75 7.88,3.75 0.5,-0.24 0.95,-0.5 1.34,-0.74 3,-1.7 4.5,-2.85 4.5,-3.45 0,-0.29 -0.31,-0.58 -0.91,-0.82 -0.64,-0.2 -1.62,-0.31 -2.91,-0.31 -3.45,0.15 -6.74,0.68 -9.9,1.57zm-4.56 -8.31c5.24,-1.44 10.56,-2.17 15.96,-2.17 4.05,0 7.2,0.63 9.44,1.88 0.41,0.19 0.81,0.42 1.2,0.66 0.26,-0.74 0.37,-1.44 0.37,-2.1 0,-2.1 -1.79,-3.15 -5.38,-3.15 -7.99,0.15 -15.27,1.02 -21.81,2.62 0.1,0.75 0.18,1.5 0.23,2.25z"/>
 </g>
</svg>
