<?xml version="1.0" encoding="UTF-8"?>
<!DOCTYPE svg PUBLIC "-//W3C//DTD SVG 1.1//EN" "http://www.w3.org/Graphics/SVG/1.1/DTD/svg11.dtd">
<!-- Creator: CorelDRAW 2019 (64-Bit) -->
<svg xmlns="http://www.w3.org/2000/svg" xml:space="preserve" width="239.338mm" height="53.97mm" version="1.1" style="shape-rendering:geometricPrecision; text-rendering:geometricPrecision; image-rendering:optimizeQuality; fill-rule:evenodd; clip-rule:evenodd"
viewBox="0 0 279.72 63.08"
 xmlns:xlink="http://www.w3.org/1999/xlink"
 xmlns:xodm="http://www.corel.com/coreldraw/odm/2003">
 <defs>
  <style type="text/css">
   <![CDATA[
    .fil0 {fill:#332C2B;fill-rule:nonzero}
   ]]>
  </style>
 </defs>
 <g id="图层_x0020_1">
  <metadata id="CorelCorpID_0Corel-Layer"/>
  <path class="fil0" d="M26.07 39.45l10.52 2.45c-1.59,2.94 -2.38,5.37 -2.38,7.27 0,0.95 0.34,1.67 1.02,2.17 0.72,0.54 1.99,0.82 3.8,0.82 2.4,0 6.47,-0.82 12.23,-2.45l1.9 9.57c-6.17,1.76 -11.3,2.67 -15.41,2.71 -4.76,0 -8.29,-0.79 -10.6,-2.38 -2.26,-1.67 -3.52,-3.89 -3.8,-6.65 0,-5.2 0.9,-9.71 2.72,-13.51zm-14.94 -37.21c0.05,0.72 0.1,1.43 0.2,2.11 6.88,-2.72 14.03,-4.08 21.46,-4.08 5.06,0 9.19,1.31 12.35,3.94 3.04,3.52 4.55,7.76 4.55,12.7l0 2.78c-0.41,8.15 -1.68,15.34 -3.8,21.59l-11.68 -2.11c2.12,-5.25 3.4,-11.19 3.8,-17.86 0,-3.89 -0.5,-6.68 -1.49,-8.34 -1.31,-1.23 -3.09,-1.84 -5.37,-1.84 -7.01,0.32 -13.28,1.95 -18.81,4.89 0.5,5.3 1.02,10.75 1.56,16.36 2.49,-5.25 4.98,-10.15 7.46,-14.73l10.66 3.26c-6.47,12.63 -12.83,26.69 -19.07,42.17l-10.52 -3.53c2.4,-6.39 4.82,-12.38 7.27,-18l-6.19 0.61c-1.36,-14.62 -2.53,-27.59 -3.52,-38.9l11.14 -1.02z"/>
  <path id="1" class="fil0" d="M95.49 23.21c-4.08,-0.17 -7.97,-0.43 -11.68,-0.74 -1.32,12.09 -2.11,24.44 -2.38,37.07l-10.87 -1.15c0.23,-19.7 1.85,-38.51 4.89,-56.44l10.93 1.02c-0.03,0.32 -0.08,0.66 -0.13,1.02 9.41,-0.81 19.41,-1.24 30.01,-1.29 3.97,0 7.1,0.86 9.36,2.58 2.26,1.53 3.4,4.07 3.4,7.6 0,4.07 -1.14,6.81 -3.4,8.22 -1.59,1.17 -3.62,1.92 -6.11,2.24l4.82 1.7c-1.23,1.99 -2.33,3.94 -3.33,5.84 2.98,0.17 5.92,0.38 8.82,0.6l-0.81 8.69c-2.58,-0.13 -5.04,-0.27 -7.41,-0.41 0.09,1 0.19,1.99 0.28,2.99 3.04,-0.05 6.01,-0.07 8.96,-0.07l1.16 9.44c-3.04,0 -6.05,0.03 -9.03,0.13 0.27,2.94 0.56,5.89 0.88,8.83l-10.94 1.16c-0.31,-3.35 -0.63,-6.57 -0.95,-9.64 -4.11,0.17 -8.19,0.45 -12.21,0.81 -0.82,2.9 -1.56,5.84 -2.25,8.83l-10.93 -2.45c0.45,-1.9 0.88,-3.7 1.29,-5.37 -1.4,0.13 -2.8,0.27 -4.21,0.41l-1.09 -9.44c2.63,-0.31 5.23,-0.58 7.81,-0.81 0.68,-2.31 1.31,-4.46 1.9,-6.45 -2.62,-0.13 -5.25,-0.27 -7.87,-0.41l1.43 -8.69c1.76,0.05 3.52,0.12 5.3,0.21 -0.64,-1.23 -1.16,-2.47 -1.56,-3.73l5.91 -2.32zm-10.53 -10.86c-0.08,0.68 -0.15,1.29 -0.2,1.83 11.54,0.9 21.68,1.36 30.42,1.36 1.36,0 2.38,-0.17 3.05,-0.54 0.64,-0.22 0.96,-0.74 0.96,-1.55 0,-0.95 -0.32,-1.66 -0.96,-2.11 -1.03,-0.27 -2.12,-0.41 -3.26,-0.41 -7.65,0 -17.65,0.48 -30.01,1.43zm28.87 11.28c-5.21,-0.05 -10.14,-0.14 -14.81,-0.28 0.95,2.26 2.06,4.42 3.33,6.45 2.72,0.17 5.37,0.34 7.95,0.48 1.31,-2.49 2.49,-4.7 3.53,-6.65zm-2.92 19.48c-0.14,-1.36 -0.28,-2.67 -0.41,-3.94 -2.27,-0.13 -4.51,-0.24 -6.73,-0.34 -0.5,1.59 -0.97,3.18 -1.43,4.75 2.85,-0.17 5.71,-0.34 8.56,-0.48z"/>
  <path id="2" class="fil0" d="M180.1 8.41l3.73 0.88c1.73,-0.59 3.65,-1.04 5.77,-1.36 4.53,0 7.47,0.45 8.83,1.36 2.17,0.95 3.96,3.08 5.37,6.39 1.67,3.13 2.56,9.4 2.64,18.81 0,8.65 -0.95,14.89 -2.85,18.74 -2.94,5.62 -7.44,8.42 -13.51,8.42 -5.97,0 -10.34,-1.88 -13.11,-5.63 -2.67,-3.99 -4,-9.69 -4,-17.12 0,-10.5 2.38,-20.66 7.13,-30.49zm8.96 42.98c2.45,0 4.15,-1.22 5.1,-3.66 0.9,-2.54 1.36,-6.29 1.36,-11.28 0,-10 -0.48,-15.39 -1.43,-16.15 -0.73,-1.04 -1.54,-1.63 -2.45,-1.77 -1.04,-0.22 -1.9,-0.34 -2.58,-0.34 -0.67,0.22 -1.24,0.41 -1.69,0.54 -2.31,6.51 -3.46,12.85 -3.46,19.01 0,5.21 0.34,8.71 1.02,10.53 0.76,2.07 2.14,3.12 4.14,3.12zm-34.49 -51.4l10.86 2.43c-1.36,4.17 -2.55,7.97 -3.59,11.41 0.63,0.14 1.22,0.24 1.76,0.34 0.41,-1.54 0.81,-2.99 1.23,-4.35l10.38 2.11c-0.31,1.22 -0.64,2.4 -0.95,3.52 0.5,0.05 0.97,0.07 1.43,0.07l-2.71 11.07c-0.59,0 -1.16,-0.02 -1.7,-0.06 -1.85,7.1 -3.59,14.18 -5.23,21.25 2.67,1.08 5.08,1.92 7.2,2.5l-5.97 9.24c-1.14,-0.45 -2.32,-1 -3.53,-1.62 -0.36,1.67 -0.71,3.3 -1.02,4.89l-10.39 -2.25c0.54,-2.71 1.14,-5.37 1.77,-7.94 -1.9,-1.14 -3.87,-2.36 -5.91,-3.67 -2.67,-1.95 -4.01,-4.3 -4.01,-7.06 0,-2.77 1.37,-9.26 4.08,-19.49 -1.23,-0.45 -2.4,-0.95 -3.53,-1.49l3.6 -11.07c1.08,0.41 2.12,0.79 3.12,1.16 0.95,-3.44 1.99,-7.12 3.13,-11zm5.97 25.6c-0.67,-0.09 -1.36,-0.21 -2.03,-0.35 -2.32,8.19 -3.46,13.36 -3.46,15.48 0,0.86 0.38,1.63 1.15,2.31 1.45,-6.11 2.9,-11.92 4.35,-17.44z"/>
  <path id="3" class="fil0" d="M278.37 1.69l1.09 9.43c-10.19,0 -20.42,0.14 -30.7,0.42 -0.63,1.12 -1.22,2.21 -1.76,3.26 1.63,-0.09 3.23,-0.14 4.82,-0.14 6.79,0 11.47,0.45 14.06,1.36 4.7,1.14 8.17,3.31 10.38,6.52 2.32,2.54 3.46,7.38 3.46,14.53l0 1.83c0,5.61 -1.31,10.41 -3.94,14.39 -3.26,5.39 -10.72,8.08 -22.4,8.08l-7.88 0c-7.51,0 -13.65,-1.12 -18.4,-3.4 -5.84,-3.26 -8.76,-8.71 -8.76,-16.36 0,-7.42 2.2,-15.93 6.59,-25.53l6.11 1.3c1.36,-0.37 2.76,-0.68 4.21,-0.96 0.82,-1.58 1.59,-3.07 2.31,-4.47 -5.66,0.22 -11.33,0.52 -17.04,0.88l-1.02 -9.57c18.38,-1.04 38,-1.56 58.87,-1.56zm-27.36 22.2c-2.27,0 -4.48,0.14 -6.66,0.41 -0.17,0.59 -0.34,1.16 -0.48,1.7 2.54,0.22 5.03,0.52 7.47,0.88 0.19,-1 0.38,-1.99 0.61,-2.99l-0.95 0zm-0.82 9.57c-2.62,-0.31 -5.27,-0.63 -7.94,-0.95 -0.19,0.82 -0.34,1.56 -0.48,2.25 2.8,0.27 5.52,0.63 8.15,1.08 0.09,-0.86 0.19,-1.65 0.27,-2.38zm-0.88 8.9c-2.76,-0.36 -5.54,-0.73 -8.36,-1.09 -0.13,1.31 -0.22,2.61 -0.27,3.87l-8.22 -0.88c0.19,-6.39 1.16,-12.56 2.92,-18.54 -1.09,0.28 -2.16,0.57 -3.19,0.88 -1.63,4.26 -2.45,8.26 -2.45,12.03 0,5.3 1.38,8.87 4.14,10.72 2.76,1.85 8.47,2.79 17.12,2.79 3.94,0 7.31,-0.37 10.12,-1.09 2.21,-0.59 4.02,-2.13 5.42,-4.62 1.04,-1.45 1.66,-4.43 1.84,-8.96 0,-6.11 -1.43,-10.07 -4.28,-11.88 -0.78,-0.5 -2.06,-0.89 -3.87,-1.16 -1.73,7.93 -2.72,16.15 -2.99,24.72l-8.15 -0.75c0,-2.04 0.06,-4.04 0.2,-6.04z"/>
 </g>
</svg>
