<?xml version="1.0" encoding="UTF-8"?>
<!DOCTYPE svg PUBLIC "-//W3C//DTD SVG 1.1//EN" "http://www.w3.org/Graphics/SVG/1.1/DTD/svg11.dtd">
<!-- Creator: CorelDRAW 2019 (64-Bit) -->
<svg xmlns="http://www.w3.org/2000/svg" xml:space="preserve" width="242.888mm" height="124.655mm" version="1.1" style="shape-rendering:geometricPrecision; text-rendering:geometricPrecision; image-rendering:optimizeQuality; fill-rule:evenodd; clip-rule:evenodd"
viewBox="0 0 304.43 156.24"
 xmlns:xlink="http://www.w3.org/1999/xlink"
 xmlns:xodm="http://www.corel.com/coreldraw/odm/2003">
 <defs>
  <style type="text/css">
   <![CDATA[
    .fil0 {fill:#332C2B;fill-rule:nonzero}
   ]]>
  </style>
 </defs>
 <g id="图层_x0020_1">
  <metadata id="CorelCorpID_0Corel-Layer"/>
  <path class="fil0" d="M5.83 11.72c5.58,0.68 10.27,1.75 14.06,3.21l-3.49 11.94c-4.81,-1.6 -9.49,-2.77 -14.06,-3.49l3.49 -11.66zm-1.09 18.06l12.81 2.92c-2.52,5.1 -3.78,9.66 -3.78,13.68 0,3.49 1.07,6.04 3.21,7.64 2.04,1.65 5.41,2.49 10.12,2.49 5.29,0 11.33,-0.88 18.13,-2.62l2.32 10.85c-6.79,1.74 -13.22,2.62 -19.29,2.62l-3.43 0c-6.4,0 -11.89,-1.37 -16.45,-4.08 -4.95,-3.36 -7.43,-8.12 -7.43,-14.28 0,-5.63 1.27,-12.04 3.79,-19.23zm59.64 -20.46l1.17 12.01c-2.97,0 -5.9,0.05 -8.81,0.15 1.02,10.34 2.14,21.14 3.34,32.41l-12.23 1.23c-1.32,-11.89 -2.47,-22.92 -3.49,-33.06 -7.05,0.48 -14.03,1.22 -20.98,2.19l-1.23 -11.94c6.84,-1.07 13.83,-1.83 20.97,-2.26 -0.29,-2.76 -0.56,-5.41 -0.8,-7.93l12.23 -1.24c0.29,2.86 0.58,5.73 0.87,8.59 3.01,-0.09 6,-0.14 8.96,-0.14zm-33.49 18.42c4.51,2.77 8.33,6.34 11.43,10.7l-7.94 7.94c-3.06,-3.54 -6.72,-7.16 -11,-10.85l7.51 -7.79z"/>
  <path id="1" class="fil0" d="M110.12 0.58l5.24 4.87c10.15,1.7 20.05,3.79 29.72,6.26l-1.96 12.23c-11.46,-2.76 -22.87,-5.1 -34.23,-6.98 -6.51,5.38 -13.09,10.92 -19.74,16.6l-9.04 -8.23c10.44,-9.13 20.44,-17.39 30,-24.76zm7.64 20.74c1.6,13.11 3.33,27.48 5.18,43.11l-13.11 1.39c-1.99,-16.17 -3.74,-30.54 -5.24,-43.11l13.17 -1.39z"/>
  <path id="2" class="fil0" d="M163.8 2.98l20.25 0c-0.1,-0.63 -0.17,-1.24 -0.21,-1.83l11.93 -1.16c0.1,1.07 0.22,2.06 0.37,2.98l25.27 0 -0.87 9.02 -23.3 0c0.05,0.45 0.09,0.88 0.14,1.32 6.26,-0.15 12.55,-0.31 18.87,-0.51l0.87 7.94c-6.26,0.19 -12.53,0.36 -18.79,0.51 0.05,0.39 0.1,0.8 0.15,1.23 7.82,-0.34 15.68,-0.72 23.6,-1.17l0.87 8.75c-5.05,0.29 -10.05,0.56 -15,0.8 0.97,0.34 1.94,0.68 2.91,1.02 3.59,1.32 5.39,3.03 5.39,5.17 0,1.55 -0.3,2.82 -0.87,3.79 2.52,3.21 3.78,6.11 3.78,8.74 -0.1,2.24 -1.33,3.79 -3.72,4.66 3.41,1.84 6.26,4.08 8.6,6.7l-7.79 7.79c-2.91,-2.42 -6.34,-4.93 -10.27,-7.51l5.83 -6.04c-4.09,0.68 -8.94,1.09 -14.57,1.24 0.29,3.39 0.6,6.93 0.94,10.63l-12.02 1.17c-0.39,-4.32 -0.73,-8.23 -1.02,-11.72 -5.53,-0.1 -9.59,-0.42 -12.17,-0.96 -4.18,-1.02 -6.25,-2.42 -6.25,-4.21 0.04,-3.21 1.45,-6.18 4.21,-8.89 -1.31,-1.27 -1.96,-2.7 -1.96,-4.3 0,-1.3 1.43,-2.77 4.3,-4.37 1.22,-0.57 2.42,-1.16 3.64,-1.74 -4.86,0.1 -9.73,0.19 -14.64,0.29l-0.87 -8.66c8.25,-0.15 16.58,-0.39 24.98,-0.73 -0.05,-0.48 -0.1,-0.94 -0.15,-1.38 -6.51,0.15 -13.01,0.25 -19.51,0.29l-0.96 -7.78c6.46,-0.15 12.96,-0.3 19.52,-0.45 -0.1,-0.53 -0.17,-1.07 -0.22,-1.6l-22.79 0 1.53 -9.02zm16.75 42.89c-0.15,0.25 -0.22,0.41 -0.22,0.51 0,0.58 0.48,1.02 1.45,1.32 1.32,0.24 4.83,0.36 10.56,0.36 4.32,0 8.05,-0.3 11.21,-0.87 1.22,-0.3 1.83,-0.93 1.83,-1.9 -4.61,0.53 -11.28,0.81 -20.02,0.81 -1.75,0 -3.36,-0.07 -4.81,-0.22zm5.1 -7.13c8.99,0 14.64,-0.43 16.96,-1.32 0.92,0 1.39,-0.31 1.39,-0.94 0,-0.29 -3.72,-0.8 -11.15,-1.53 -6.5,1.07 -10.39,1.94 -11.65,2.62 0,0.78 1.48,1.17 4.44,1.17zm-21.26 17.19l11.07 1.16c-0.83,3.55 -1.24,6.97 -1.24,10.28l-11 -1.24c0,-3.44 0.4,-6.85 1.17,-10.19z"/>
  <path id="3" class="fil0" d="M302.47 5.61l1.09 11.65c-4.96,0 -9.91,0.05 -14.85,0.15 -0.83,2.29 -1.58,4.56 -2.26,6.85l-11.43 -3.79c0.34,-0.92 0.66,-1.79 0.94,-2.62 -4.28,0.2 -8.51,0.41 -12.74,0.66 0.14,1.6 0.29,3.23 0.43,4.88l-12.23 1.16c-0.2,-1.74 -0.37,-3.47 -0.51,-5.17 -2.97,0.25 -5.9,0.48 -8.81,0.73l-1.17 -11.58c2.96,-0.29 5.94,-0.58 8.95,-0.87 -0.19,-1.65 -0.34,-3.31 -0.43,-4.96l12.24 -1.23c0.14,1.74 0.29,3.52 0.43,5.32 6.02,-0.35 12.1,-0.61 18.28,-0.81 0.77,-2.09 1.5,-4.08 2.17,-5.97l11.36 3.78c-0.24,0.68 -0.48,1.32 -0.72,1.9 3.06,-0.05 6.14,-0.07 9.25,-0.07zm-30 18.64c9.17,0 15.97,1.02 20.39,3.06 4.95,2.42 7.54,5.93 7.79,10.49l0 3.27c-0.05,5.73 -1.03,11.17 -2.92,16.32l-12.23 -1.96c1.94,-5.73 2.91,-10.51 2.91,-14.35 0,-2.04 -1.86,-3.42 -5.6,-4.15 -3.41,-0.48 -8.08,-0.72 -14.06,-0.72 0.87,9.37 1.91,19.25 3.13,29.64l-12.53 1.53c-1.21,-9.52 -2.25,-19.01 -3.13,-28.47 -3.49,1.02 -6.82,2.25 -9.97,3.7l-3.79 -11.94c9.66,-4.26 19.66,-6.4 30,-6.4z"/>
  <path id="4" class="fil0" d="M35.9 101.33c1.02,-3.54 2.09,-6.9 3.21,-10.04l12.23 2.62c-0.82,2.42 -1.6,4.82 -2.32,7.21 3.78,0.48 7.03,1.86 9.76,4.15 3.59,3.01 5.38,6.77 5.38,11.28 -0.14,6.21 -1.3,13.1 -3.49,20.68l-13.11 -2.26c2.34,-4.95 3.5,-9.63 3.5,-14.06 0,-4.03 -1.9,-6.6 -5.68,-7.72 -2.14,7.43 -4.13,14.95 -5.98,22.58l-12.3 -2.62c1.8,-7.1 3.59,-13.8 5.39,-20.1 -3.99,0.39 -7.79,0.99 -11.43,1.81 -1.8,6.6 -2.7,13.3 -2.7,20.1 0,3.36 1.07,5.83 3.21,7.43 2.18,1.65 5.28,2.47 9.32,2.47 6.84,0 18.01,-1.45 33.49,-4.36l2.4 11.28c-16.21,2.71 -28.07,4.08 -35.61,4.08l-3.34 0c-5.44,0 -10.3,-1.19 -14.57,-3.57 -5.29,-3.26 -7.94,-8.67 -7.94,-16.24 0,-4.81 0.71,-10.41 2.11,-16.82 -1.17,0.44 -2.26,0.89 -3.28,1.38l-4.15 -11.66c3.74,-1.26 7.41,-2.37 11,-3.34 0.97,-3.26 2.09,-6.6 3.36,-10.05l13.02 2.92c-0.67,1.4 -1.33,2.76 -1.96,4.08 3.54,-0.58 7.05,-0.99 10.49,-1.24z"/>
  <path id="5" class="fil0" d="M98.47 98.79l4.44 9.32c-5.38,2.29 -11.33,4.71 -17.83,7.28l-4.6 -9.61c6.36,-2.77 12.37,-5.11 18,-7zm2.04 14.93l3.72 10.13c0.67,-6.36 1.76,-12.94 3.27,-19.74 -0.34,0.1 -0.7,0.19 -1.09,0.29l-2.1 -9.61c7.57,-2.19 15.34,-3.36 23.3,-3.49 5.15,0 9.3,1.28 12.44,3.85 2.97,2.42 4.45,6.6 4.45,12.53l0 5.24c0,5.73 -1.34,9.63 -4,11.72 -1.5,1.07 -3.21,1.85 -5.11,2.34 1.9,0.43 3.67,1.23 5.32,2.4 3.54,2.42 5.32,5.46 5.32,9.1 0,2.19 -0.58,4.15 -1.75,5.9 0.68,0.1 1.37,0.17 2.04,0.22l-1.23 10.99c-2.44,0 -6.05,-0.65 -10.85,-1.96 -0.58,-0.19 -1.17,-0.41 -1.75,-0.66 -3.26,1.17 -6.72,1.75 -10.41,1.75 -6.06,0 -10.8,-1.4 -14.19,-4.23 -2.92,-2.81 -4.37,-7.31 -4.37,-13.47 0,-4.18 0.22,-8.44 0.66,-12.81 -2.04,0.68 -4.1,1.38 -6.19,2.11 0.48,6.9 1.07,14.16 1.74,21.77l-11.72 1.09c-0.53,-6.31 -0.99,-12.58 -1.38,-18.79 -1.32,0.44 -2.6,0.89 -3.87,1.38l-3.21 -10.85c7.38,-2.81 14.38,-5.22 20.98,-7.21zm19.3 -12.45c-0.3,1.17 -0.53,2.31 -0.73,3.43 3.93,0.29 7.77,0.65 11.51,1.09l-0.94 9.32c-4.32,-0.4 -8.5,-0.73 -12.53,-1.02 -0.2,1.11 -0.37,2.2 -0.51,3.27 3.44,0.48 6.72,0.81 9.83,0.94 2.42,0 4.23,-0.41 5.38,-1.23 1.12,-0.73 1.68,-2.44 1.68,-5.1 0,-5.01 -0.92,-8.23 -2.77,-9.69 -1.21,-0.92 -3.32,-1.38 -6.33,-1.38 -1.27,0 -2.8,0.12 -4.59,0.36zm-4.45 25.85c-0.43,4.18 -0.71,8.17 -0.8,11.94 0,1.85 0.48,3.23 1.45,4.15 1.17,1.07 2.62,1.63 4.36,1.68 -1.16,-1.84 -1.74,-3.72 -1.74,-5.61 0,-3.16 1.12,-6.06 3.34,-8.74 0.97,-1.12 2.04,-1.99 3.21,-2.62 -3.34,-0.05 -6.62,-0.32 -9.83,-0.81zm16.6 9.26c-0.63,0 -1.22,0.29 -1.75,0.87 -0.39,0.53 -0.57,1.22 -0.57,2.04 0,0.68 0.92,1.45 2.76,2.32 1.65,-1.07 2.47,-2.11 2.47,-3.13 0,-0.57 -0.26,-1.08 -0.8,-1.53 -0.68,-0.39 -1.38,-0.57 -2.11,-0.57z"/>
  <path id="6" class="fil0" d="M207.71 105.27c-13.53,-1.37 -27.01,-2.55 -40.42,-3.58l2.04 -11.65c17.54,1.17 34.7,2.75 51.49,4.74l-1.96 11.65c-2.82,-0.34 -5.52,-0.62 -8.09,-0.87 0.53,3.89 1.09,7.89 1.68,12.02 3.84,-0.1 7.69,-0.15 11.58,-0.15l1.23 12.02c-3.73,0 -7.44,0.05 -11.14,0.15 1.07,7.57 2.14,15.39 3.21,23.44l-12.75 1.39c-1.26,-8.65 -2.4,-16.78 -3.42,-24.4 -6.41,0.29 -12.84,0.72 -19.3,1.3 -1.94,6.95 -3.62,14.18 -5.02,21.7l-12.45 -2.91c1.07,-6.02 2.34,-11.84 3.79,-17.47 -2.44,0.24 -4.86,0.51 -7.28,0.8l-1.24 -11.94c4.03,-0.53 8.07,-0.99 12.09,-1.38 1.65,-5 3.44,-9.88 5.38,-14.64l12.53 2.92c-1.4,3.39 -2.72,6.86 -3.93,10.4 4.56,-0.39 9.12,-0.67 13.68,-0.87 -0.53,-4.03 -1.04,-7.87 -1.53,-11.51l9.83 -1.16z"/>
  <path id="7" class="fil0" d="M245.96 104.9l12.53 4.37c-3.41,8.4 -6.31,16.77 -8.74,25.12l-12.53 -4.44c3.26,-9.52 6.16,-17.87 8.74,-25.05zm17.11 1.53l14.06 3.21c-4.08,8.35 -6.11,17.36 -6.11,27.02 0,3.06 0.7,5.1 2.11,6.11 1.4,1.22 4.1,1.83 8.08,1.83 5.05,0 10.65,-1.48 16.83,-4.45l2.62 11.94c-6.03,2.77 -12.34,4.15 -18.94,4.15l-3.57 0c-6.41,0 -11.43,-1.23 -15.08,-3.72 -4.08,-2.86 -6.11,-7.54 -6.11,-14.06 0,-10.04 2.04,-20.73 6.11,-32.04zm23.96 7.79c6.85,1.7 12.64,3.57 17.4,5.61l-3.49 11.66c-6.7,-2.24 -12.5,-4.08 -17.4,-5.53l3.49 -11.73zm-10.2 -21.85c5.98,1.07 11.68,2.44 17.11,4.09l-3.42 11.36c-5.88,-1.9 -11.62,-3.33 -17.26,-4.3l3.57 -11.15z"/>
 </g>
</svg>
