<?xml version="1.0" encoding="UTF-8"?>
<!DOCTYPE svg PUBLIC "-//W3C//DTD SVG 1.1//EN" "http://www.w3.org/Graphics/SVG/1.1/DTD/svg11.dtd">
<!-- Creator: CorelDRAW 2019 (64-Bit) -->
<svg xmlns="http://www.w3.org/2000/svg" xml:space="preserve" width="244.573mm" height="123.316mm" version="1.1" style="shape-rendering:geometricPrecision; text-rendering:geometricPrecision; image-rendering:optimizeQuality; fill-rule:evenodd; clip-rule:evenodd"
viewBox="0 0 289.87 146.16"
 xmlns:xlink="http://www.w3.org/1999/xlink"
 xmlns:xodm="http://www.corel.com/coreldraw/odm/2003">
 <defs>
  <style type="text/css">
   <![CDATA[
    .fil0 {fill:#332C2B;fill-rule:nonzero}
   ]]>
  </style>
 </defs>
 <g id="图层_x0020_1">
  <metadata id="CorelCorpID_0Corel-Layer"/>
  <path class="fil0" d="M61.7 1.59l0.83 8.54c-12.49,0 -25.04,0.75 -37.67,2.27l-0.89 -8.61c11.79,-1.47 24.37,-2.2 37.72,-2.2zm-31.05 30.1c0.05,0.59 0.12,1.21 0.2,1.86 6.11,-1.47 12.4,-2.21 18.87,-2.21 4.31,0 7.87,1.01 10.67,3.03 2.57,2.84 3.85,6.17 3.85,9.99l0 2.13c-0.22,6.33 -0.99,11.94 -2.27,16.81l-9.37 -1.59c1.28,-4.04 2.04,-8.67 2.27,-13.9 0,-2.81 -0.46,-4.83 -1.37,-6.06 -0.14,-0.09 -0.27,-0.16 -0.41,-0.21 -0.96,1.97 -1.86,3.95 -2.68,5.92 0.73,-0.05 1.47,-0.07 2.2,-0.07l0.82 7.37c-1.65,0 -3.26,0.02 -4.82,0.07 0.24,2.48 0.48,5.03 0.76,7.65l-9.1 0.82c-0.32,-2.62 -0.6,-5.23 -0.82,-7.85 -1.52,0.14 -3.01,0.29 -4.48,0.48l-0.75 -7.51c0.82,-0.08 1.69,-0.18 2.61,-0.27 -1.19,-1.2 -2.46,-2.36 -3.78,-3.51l2.55 -2.68c-1.29,0.27 -2.55,0.59 -3.8,0.96 0.69,6.33 1.41,12.94 2.14,19.83l-9.08 0.82c-0.6,-5.18 -1.15,-10.14 -1.66,-14.87 -0.27,0.32 -0.53,0.62 -0.75,0.89 -2.21,2.2 -4.83,3.3 -7.85,3.3l-0.9 0c0.33,2.71 0.62,5.46 0.9,8.26l-9.85 1.1c-1.56,-13.63 -2.96,-25.75 -4.21,-36.36l9.99 -1.16c0.27,2.43 0.55,4.89 0.82,7.37 0.14,-0.28 0.31,-0.53 0.48,-0.76 0.41,-0.87 0.89,-2.07 1.45,-3.57 0.38,-1.2 0.55,-2.33 0.55,-3.38 0,-2.47 -0.68,-3.71 -2.07,-3.71 -2.7,0 -5.62,1.01 -8.74,3.03l-1.03 -9.99c4.69,-1.6 8.77,-2.41 12.26,-2.41 2.81,0 5.05,0.94 6.76,2.82 1.97,2.43 2.96,5.03 2.96,7.79 0,3.16 -1.1,6.6 -3.31,10.32 0.33,0.24 0.62,0.43 0.89,0.62 -0.04,-0.14 -0.06,-0.25 -0.06,-0.34l9.15 -0.82zm-18.8 4.89c0.24,2.24 0.48,4.54 0.76,6.87 0.46,0.05 0.87,0.07 1.23,0.07 0.41,0 0.82,-0.29 1.25,-0.89 0.41,-0.46 0.61,-0.99 0.61,-1.59 0,-0.73 -0.15,-1.42 -0.48,-2.06 -0.41,-0.6 -0.96,-1.01 -1.65,-1.25 -0.79,-0.32 -1.35,-0.71 -1.73,-1.16zm28.44 11.28c0.96,-0.08 1.9,-0.13 2.82,-0.13 1.15,-2.67 2.19,-5.03 3.1,-7.1 -2.39,0.14 -4.63,0.35 -6.75,0.62 1.33,1.1 2.53,2.39 3.58,3.85l-2.76 2.75zm-9.98 -34.7l3.78 0.96c3.21,-0.78 6.38,-1.19 9.5,-1.23 3.13,0 5.88,0.12 8.27,0.34 2.15,0.14 4.22,0.83 6.19,2.07 2.12,0.92 3.16,3.61 3.16,8.06l0 0.89c0,2.02 -1.57,3.62 -4.75,4.82 -2.84,1.15 -6.98,1.72 -12.4,1.72l-1.45 0c-6.33,0 -10.94,-0.85 -13.83,-2.54 -2.07,-1.29 -3.1,-3.2 -3.1,-5.72 0,-3.07 1.54,-6.19 4.62,-9.37zm13.01 6.62c-1.28,0 -3.83,0.94 -7.64,2.82 0.18,0.28 0.46,0.48 0.82,0.62 1.19,0.51 3.37,0.75 6.55,0.75 3.4,0 5.71,-0.15 6.95,-0.48 1.25,-0.32 1.87,-0.82 1.87,-1.52 -0.24,-1.14 -1.29,-1.79 -3.17,-1.93 -1.93,-0.18 -3.71,-0.27 -5.37,-0.27z"/>
  <path id="1" class="fil0" d="M121.15 38.29c4.72,0 8.79,1.01 12.19,3.03 3.03,2.02 4.58,4.94 4.68,8.74l0 0.89c-0.27,5.05 -1.37,9.73 -3.3,14.06l-10.95 -2.28c0.79,-1.52 1.4,-2.87 1.87,-4.07l-7.37 3.58c-0.74,-1.01 -1.39,-1.97 -1.94,-2.89 -4.36,1.52 -7.96,2.29 -10.8,2.34l-1.46 0c-2.89,0 -5.52,-0.96 -7.91,-2.89 -1.85,-1.52 -2.76,-3.58 -2.76,-6.19 0,-0.46 0.02,-0.83 0.07,-1.1 -1.83,0.51 -3.51,0.99 -5.03,1.45 0.65,2.71 1.39,5.44 2.21,8.19l-10.12 3.31c-2.02,-6.48 -3.51,-13.19 -4.48,-20.11l10.26 -3.03c0.09,0.6 0.15,1.14 0.2,1.65 2.86,-0.73 6.02,-1.42 9.51,-2.06 0.51,-1.42 1.13,-2.83 1.86,-4.21 -1.1,-0.05 -2.13,-0.11 -3.09,-0.2 -5.24,-0.46 -8.98,-1.29 -11.23,-2.48 -3.71,-1.66 -5.57,-4.09 -5.57,-7.3 0,-3.63 1.28,-7.67 3.85,-12.13l8.81 2.14c-1.74,2.24 -3.03,4.75 -3.85,7.51 0,1.47 1.1,2.56 3.3,3.3 0.46,0.14 1.08,0.25 1.86,0.34l-1.57 -3.64c1.74,-0.65 3.43,-1.32 5.09,-2 -1.47,-0.36 -2.87,-0.72 -4.2,-1.03l2.13 -6.62c4.41,1.06 8.66,2.26 12.74,3.58 2.43,-0.96 4.81,-1.9 7.1,-2.82 -13.36,-1.06 -25.36,-1.7 -36.02,-1.93l1.59 -8.81c7.25,0 14.55,0.2 21.89,0.62 -0.22,-0.6 -0.43,-1.15 -0.61,-1.66l8.81 -3.58c0.68,2.12 1.62,4.09 2.82,5.92 8.26,0.6 16.57,1.47 24.93,2.62l-1.66 8.81c-1.23,-0.14 -2.48,-0.26 -3.71,-0.35 1.93,3.58 2.89,7.07 2.89,10.47 0,2.8 -1.26,4.98 -3.78,6.55 -3.13,2.07 -8.47,3.09 -16.04,3.09l-3.1 0c-0.69,0 -1.4,0 -2.14,0 -0.36,0.65 -0.68,1.25 -0.96,1.8 4.09,-0.41 8.43,-0.62 13.02,-0.62zm-16.81 10.81c-0.05,0.32 -0.09,0.58 -0.14,0.75 0,1.42 1.08,2.14 3.24,2.14 0.73,0 2.36,-0.41 4.89,-1.23 -0.28,-0.69 -0.53,-1.39 -0.76,-2.07l1.45 -0.55c-2.66,0.22 -5.55,0.55 -8.67,0.96zm17.08 -1.1c1.2,3.27 2.75,6.31 4.68,9.17 0.65,-1.89 0.98,-3.51 0.98,-4.9 -0.14,-1.55 -0.79,-2.7 -1.94,-3.44 -1.09,-0.46 -2.34,-0.73 -3.71,-0.82zm-20.52 -19.56c3.03,0.09 6.59,0.14 10.67,0.14 1.01,0 1.93,-0.02 2.76,-0.07 -2.4,-0.92 -4.71,-1.76 -6.96,-2.55 -2.07,0.82 -4.23,1.66 -6.48,2.48zm19.63 -0.34c1.52,-0.24 2.6,-0.55 3.23,-0.96 1.06,-0.55 1.59,-1.45 1.59,-2.69 0,-0.92 -1.1,-2.94 -3.3,-6.05l6.68 -1.66c-3.03,-0.32 -5.95,-0.6 -8.74,-0.82l1.86 4.2c-1.47,0.6 -3.06,1.25 -4.75,1.93 1.61,0.65 3.18,1.29 4.75,1.93l-1.3 4.14z"/>
  <path id="2" class="fil0" d="M210.19 17.36l1.18 9.64c-4.91,0 -9.73,0.09 -14.47,0.28 -0.32,0.96 -0.61,1.88 -0.89,2.75l1.03 0c5.01,0 9.1,1.06 12.26,3.16 3.03,2.94 4.55,6.43 4.55,10.47l0 2.21c-0.32,6.7 -1.33,12.6 -3.03,17.69l-10.53 -1.86c1.74,-4.13 2.75,-8.86 3.02,-14.18 0,-3.03 -0.52,-5.18 -1.57,-6.48 -1.47,-0.96 -3.51,-1.45 -6.13,-1.45 -0.82,0.05 -1.62,0.09 -2.41,0.14 -0.46,1.61 -0.87,3.22 -1.23,4.82 3.21,1.66 6.56,2.6 10.05,2.82l-2.2 9.3c-3.63,-0.04 -6.98,-0.78 -10.06,-2.2 -0.27,1.52 -0.53,3.01 -0.75,4.48l-9.58 -2.28c0.83,-5.23 1.83,-10.29 3.03,-15.21 -1.61,0.41 -3.15,0.87 -4.62,1.37 0.69,6.43 1.39,13.15 2.07,20.18l-9.85 1.16c-1.09,-10.42 -2.06,-19.8 -2.89,-28.16 -0.73,9.45 -1.16,19.12 -1.3,28.99l-10.12 -1.18c0.05,-3.3 0.11,-6.57 0.2,-9.78 -0.96,0.27 -1.88,0.51 -2.75,0.68l-2.76 -10.67c2.07,-0.6 4.07,-1.28 5.99,-2.07 0.14,-2.1 0.28,-4.22 0.41,-6.33 -2.06,-0.41 -4.1,-0.63 -6.12,-0.68l1.16 -10.54c1.97,0 3.91,0.19 5.79,0.55 0.18,-2.12 0.39,-4.17 0.61,-6.19 -1.14,0.14 -2.27,0.27 -3.37,0.41l-1.16 -10.12c7.93,-1.01 15.75,-1.82 23.41,-2.41 -0.36,-0.69 -0.72,-1.39 -1.03,-2.07l10.4 -4.07c0.92,1.83 2.08,3.58 3.51,5.23 8.03,-0.51 15.88,-0.8 23.54,-0.89l1.1 10.26c-15.56,0.09 -30.87,0.92 -45.93,2.48 -0.51,4.69 -0.94,9.44 -1.3,14.26l9.15 -1.1c0.09,0.74 0.16,1.45 0.21,2.14 2.84,-0.82 5.69,-1.47 8.53,-1.93 0.32,-1.1 0.65,-2.19 0.96,-3.23 -4.96,0.27 -9.94,0.66 -14.94,1.16l-1.03 -9.71c12.43,-1.23 25.73,-1.86 39.86,-1.86z"/>
  <path id="3" class="fil0" d="M283.27 2.76l0.82 7.91c-7.2,0 -14.37,0.16 -21.48,0.48 0.05,0.6 0.09,1.18 0.14,1.73 4.87,-0.19 9.68,-0.28 14.45,-0.28l0.55 6.89c-4.96,0 -9.73,0.07 -14.33,0.21 0.05,0.6 0.09,1.15 0.14,1.66 6.75,-0.28 13.66,-0.42 20.73,-0.42l0.82 8.27c-18.37,0 -36.91,1.09 -55.63,3.3l-0.83 -8.26c7.39,-0.92 14.97,-1.66 22.73,-2.21 -0.05,-0.6 -0.09,-1.14 -0.14,-1.65 -6.19,0.36 -12.14,0.89 -17.83,1.57l-0.55 -6.82c5.92,-0.63 11.82,-1.19 17.7,-1.65 -0.09,-0.6 -0.16,-1.2 -0.21,-1.8 -6.43,0.38 -12.81,0.86 -19.14,1.45l-0.82 -7.91c6.24,-0.65 12.62,-1.15 19.14,-1.52 -0.05,-0.83 -0.12,-1.63 -0.21,-2.41l12.12 -1.32c0.09,1.06 0.19,2.12 0.28,3.17 7.06,-0.28 14.26,-0.41 21.55,-0.41zm-47.38 29.74l1.94 0.96c6.29,-1.79 13.06,-2.69 20.31,-2.69 4.04,0 7.76,0.19 11.15,0.55 3.4,0.65 6.64,1.95 9.71,3.93 3.4,2.48 5.1,5.88 5.1,10.19l0 0.96c1.97,0.33 3.9,0.65 5.78,0.96l-1.45 8.27c-1.97,-0.28 -3.88,-0.55 -5.71,-0.83 -0.69,1.47 -1.59,2.76 -2.69,3.85 -4.22,4.41 -9.93,6.62 -17.15,6.62l-6.05 0c-7.8,0 -14.03,-1.15 -18.66,-3.44 -4.45,-2.89 -6.93,-6.82 -7.44,-11.78 -1.93,-0.09 -3.78,-0.16 -5.58,-0.21l1.32 -8.26c1.69,0 3.37,0.02 5.02,0.07 0.93,-3.16 2.4,-6.22 4.41,-9.15zm27.55 6.96c0.79,0.73 1.52,1.45 2.21,2.13l-2.07 2.07c3.21,0.32 6.36,0.69 9.44,1.1 -0.51,-1.61 -1.56,-2.82 -3.17,-3.65 -1.42,-0.78 -3.56,-1.33 -6.4,-1.65zm-9.37 3.23c-0.82,-0.55 -1.65,-1.1 -2.48,-1.66l1.45 -1.65c-2.89,0.46 -5.96,1.35 -9.23,2.68 3.4,0.19 6.82,0.39 10.26,0.62zm17.08 10.74c-3.4,-0.36 -6.7,-0.71 -9.91,-1.03 0.68,0.6 1.33,1.2 1.93,1.8l-2.76 2.75 0.48 0c4.83,0 8.23,-1.15 10.2,-3.44 0.05,-0.05 0.06,-0.07 0.06,-0.07zm-17.69 3.37c-1.47,-1.06 -3.01,-2.1 -4.62,-3.16l2.14 -2.28c-3.13,-0.22 -6.13,-0.46 -9.03,-0.68 0.65,1.97 1.76,3.35 3.37,4.13 2.34,1.1 5.05,1.77 8.13,2z"/>
  <path id="4" class="fil0" d="M60.12 84.19l1.09 11.36c-6.92,0 -13.81,0.09 -20.65,0.27l2.75 2.69c-3.21,2.89 -6.4,5.83 -9.57,8.81 2.61,2.39 4.65,4.97 6.12,7.78 0.09,0.13 0.19,0.27 0.27,0.41l2.62 -7.92c6.62,4.18 13.59,6.48 20.93,6.89l-2.75 11.56c-6.93,-0.08 -13.17,-1.69 -18.73,-4.82 0.36,1.88 0.55,3.97 0.55,6.26 0,5.51 -1.15,9.53 -3.44,12.06 -2.84,2.94 -6.48,4.41 -10.88,4.41 -4.08,0 -7.4,-0.28 -9.98,-0.82l-1.1 -11.29c3.58,0.59 6.62,0.89 9.08,0.89 1.52,0 2.67,-0.46 3.44,-1.37 1.06,-0.88 1.59,-2.35 1.59,-4.41 0,-2.9 -0.55,-5.34 -1.65,-7.3 -1.15,-1.85 -2.48,-3.47 -4,-4.9 -5.7,5.29 -11.36,10.64 -17.02,16.05l-8.81 -8.06c9.6,-9.59 18.9,-18.4 27.89,-26.44 -7.84,0.33 -15.74,0.81 -23.68,1.45l-1.18 -11.29c17.82,-1.52 36.84,-2.27 57.09,-2.27z"/>
  <path id="5" class="fil0" d="M136.91 81.71l0.83 8.54c-12.49,0 -25.04,0.75 -37.67,2.27l-0.89 -8.61c11.79,-1.47 24.37,-2.2 37.72,-2.2zm-31.05 30.1c0.05,0.59 0.12,1.21 0.2,1.86 6.11,-1.47 12.4,-2.21 18.87,-2.21 4.31,0 7.87,1.01 10.67,3.03 2.57,2.84 3.85,6.17 3.85,9.99l0 2.13c-0.22,6.33 -0.99,11.94 -2.27,16.81l-9.37 -1.59c1.28,-4.04 2.04,-8.67 2.27,-13.9 0,-2.81 -0.46,-4.83 -1.37,-6.06 -0.14,-0.09 -0.27,-0.16 -0.41,-0.21 -0.96,1.97 -1.86,3.95 -2.68,5.92 0.73,-0.05 1.47,-0.07 2.2,-0.07l0.82 7.37c-1.65,0 -3.26,0.02 -4.82,0.07 0.24,2.48 0.48,5.03 0.76,7.65l-9.1 0.82c-0.32,-2.62 -0.6,-5.23 -0.82,-7.85 -1.52,0.14 -3.01,0.29 -4.48,0.48l-0.75 -7.51c0.82,-0.08 1.69,-0.18 2.61,-0.27 -1.19,-1.2 -2.46,-2.36 -3.78,-3.51l2.55 -2.68c-1.29,0.27 -2.55,0.59 -3.8,0.96 0.69,6.33 1.41,12.94 2.14,19.83l-9.08 0.82c-0.6,-5.18 -1.15,-10.14 -1.66,-14.87 -0.27,0.32 -0.53,0.62 -0.75,0.89 -2.21,2.2 -4.83,3.3 -7.85,3.3l-0.9 0c0.33,2.71 0.62,5.46 0.9,8.26l-9.85 1.1c-1.56,-13.63 -2.96,-25.75 -4.21,-36.36l9.99 -1.16c0.27,2.43 0.55,4.89 0.82,7.37 0.14,-0.28 0.31,-0.53 0.48,-0.76 0.41,-0.87 0.89,-2.07 1.45,-3.57 0.38,-1.2 0.55,-2.33 0.55,-3.38 0,-2.47 -0.68,-3.71 -2.07,-3.71 -2.7,0 -5.62,1.01 -8.74,3.03l-1.03 -9.99c4.69,-1.6 8.77,-2.41 12.26,-2.41 2.81,0 5.05,0.94 6.76,2.82 1.97,2.43 2.96,5.03 2.96,7.79 0,3.16 -1.1,6.6 -3.31,10.32 0.33,0.24 0.62,0.43 0.89,0.62 -0.04,-0.14 -0.06,-0.25 -0.06,-0.34l9.15 -0.82zm-18.8 4.89c0.24,2.24 0.48,4.54 0.76,6.87 0.46,0.05 0.87,0.07 1.23,0.07 0.41,0 0.82,-0.29 1.25,-0.89 0.41,-0.46 0.61,-0.99 0.61,-1.59 0,-0.73 -0.15,-1.42 -0.48,-2.06 -0.41,-0.6 -0.96,-1.01 -1.65,-1.25 -0.79,-0.32 -1.35,-0.71 -1.73,-1.16zm28.44 11.28c0.96,-0.08 1.9,-0.13 2.82,-0.13 1.15,-2.67 2.19,-5.03 3.1,-7.1 -2.39,0.14 -4.63,0.35 -6.75,0.62 1.33,1.1 2.53,2.39 3.58,3.85l-2.76 2.75zm-9.98 -34.7l3.78 0.96c3.21,-0.78 6.38,-1.19 9.5,-1.23 3.13,0 5.88,0.12 8.27,0.34 2.15,0.14 4.22,0.83 6.19,2.07 2.12,0.92 3.16,3.61 3.16,8.06l0 0.89c0,2.02 -1.57,3.62 -4.75,4.82 -2.84,1.15 -6.98,1.72 -12.4,1.72l-1.45 0c-6.33,0 -10.94,-0.85 -13.83,-2.54 -2.07,-1.29 -3.1,-3.2 -3.1,-5.72 0,-3.07 1.54,-6.19 4.62,-9.37zm13.01 6.62c-1.28,0 -3.83,0.94 -7.64,2.82 0.18,0.28 0.46,0.48 0.82,0.62 1.19,0.51 3.37,0.75 6.55,0.75 3.4,0 5.71,-0.15 6.95,-0.48 1.25,-0.32 1.87,-0.82 1.87,-1.52 -0.24,-1.14 -1.29,-1.79 -3.17,-1.93 -1.93,-0.18 -3.71,-0.27 -5.37,-0.27z"/>
  <path id="6" class="fil0" d="M196.36 118.41c4.72,0 8.79,1.01 12.19,3.03 3.03,2.02 4.58,4.94 4.68,8.74l0 0.89c-0.27,5.05 -1.37,9.73 -3.3,14.06l-10.95 -2.28c0.79,-1.52 1.4,-2.87 1.87,-4.07l-7.37 3.58c-0.74,-1.01 -1.39,-1.97 -1.94,-2.89 -4.36,1.52 -7.96,2.29 -10.8,2.34l-1.46 0c-2.89,0 -5.52,-0.96 -7.91,-2.89 -1.85,-1.52 -2.76,-3.58 -2.76,-6.19 0,-0.46 0.02,-0.83 0.07,-1.1 -1.83,0.51 -3.51,0.99 -5.03,1.45 0.65,2.71 1.39,5.44 2.21,8.19l-10.12 3.31c-2.02,-6.48 -3.51,-13.19 -4.48,-20.11l10.26 -3.03c0.09,0.6 0.15,1.14 0.2,1.65 2.86,-0.73 6.02,-1.42 9.51,-2.06 0.51,-1.42 1.13,-2.83 1.86,-4.21 -1.1,-0.05 -2.13,-0.11 -3.09,-0.2 -5.24,-0.46 -8.98,-1.29 -11.23,-2.48 -3.71,-1.66 -5.57,-4.09 -5.57,-7.3 0,-3.63 1.28,-7.67 3.85,-12.13l8.81 2.14c-1.74,2.24 -3.03,4.75 -3.85,7.51 0,1.47 1.1,2.56 3.3,3.3 0.46,0.14 1.08,0.25 1.86,0.34l-1.57 -3.64c1.74,-0.65 3.43,-1.32 5.09,-2 -1.47,-0.36 -2.87,-0.72 -4.2,-1.03l2.13 -6.62c4.41,1.06 8.66,2.26 12.74,3.58 2.43,-0.96 4.81,-1.9 7.1,-2.82 -13.36,-1.06 -25.36,-1.7 -36.02,-1.93l1.59 -8.81c7.25,0 14.55,0.2 21.89,0.62 -0.22,-0.6 -0.43,-1.15 -0.61,-1.66l8.81 -3.58c0.68,2.12 1.62,4.09 2.82,5.92 8.26,0.6 16.57,1.47 24.93,2.62l-1.66 8.81c-1.23,-0.14 -2.48,-0.26 -3.71,-0.35 1.93,3.58 2.89,7.07 2.89,10.47 0,2.8 -1.26,4.98 -3.78,6.55 -3.13,2.07 -8.47,3.09 -16.04,3.09l-3.1 0c-0.69,0 -1.4,0 -2.14,0 -0.36,0.65 -0.68,1.25 -0.96,1.8 4.09,-0.41 8.43,-0.62 13.02,-0.62zm-16.81 10.81c-0.05,0.32 -0.09,0.58 -0.14,0.75 0,1.42 1.08,2.14 3.24,2.14 0.73,0 2.36,-0.41 4.89,-1.23 -0.28,-0.69 -0.53,-1.39 -0.76,-2.07l1.45 -0.55c-2.66,0.22 -5.55,0.55 -8.67,0.96zm17.08 -1.1c1.2,3.27 2.75,6.31 4.68,9.17 0.65,-1.89 0.98,-3.51 0.98,-4.9 -0.14,-1.55 -0.79,-2.7 -1.94,-3.44 -1.09,-0.46 -2.34,-0.73 -3.71,-0.82zm-20.52 -19.56c3.03,0.09 6.59,0.14 10.67,0.14 1.01,0 1.93,-0.02 2.76,-0.07 -2.4,-0.92 -4.71,-1.76 -6.96,-2.55 -2.07,0.82 -4.23,1.66 -6.48,2.48zm19.63 -0.34c1.52,-0.24 2.6,-0.55 3.23,-0.96 1.06,-0.55 1.59,-1.45 1.59,-2.69 0,-0.92 -1.1,-2.94 -3.3,-6.05l6.68 -1.66c-3.03,-0.32 -5.95,-0.6 -8.74,-0.82l1.86 4.2c-1.47,0.6 -3.06,1.25 -4.75,1.93 1.61,0.65 3.18,1.29 4.75,1.93l-1.3 4.14z"/>
  <path id="7" class="fil0" d="M283.82 80.89l0.75 8.6c-2.24,0 -4.45,0.02 -6.6,0.07l3.85 3.71c-0.88,0.88 -1.8,1.7 -2.76,2.48 2.3,0.24 4.23,0.6 5.79,1.1 2.84,1.15 4.34,2.96 4.47,5.44 -0.05,2.02 -0.71,4.79 -2,8.33l-2.54 -0.34 0.61 6.68c-12.43,0 -24.86,0.36 -37.25,1.1 -0.68,0.78 -1.28,1.49 -1.79,2.13 6.48,-1.01 12.12,-1.52 16.93,-1.52 5.01,0 9.07,0.6 12.2,1.8 4.22,1.88 6.33,4.27 6.33,7.16 0,2.43 -1.75,4.43 -5.24,5.99 3.9,0.51 7.85,0.92 11.85,1.23l-1.86 8.81c-9.87,-0.82 -18.91,-2.01 -27.14,-3.57 -5.69,1.93 -12.26,3.95 -19.68,6.05l-3.58 -9.08c1.97,-0.36 3.83,-0.74 5.58,-1.1 -1.94,-0.6 -3.77,-1.19 -5.51,-1.79 -1.2,1.69 -2.32,3.42 -3.37,5.16l-8.26 -5.78c3.67,-5.28 7.27,-10.17 10.8,-14.67 -1.42,0.09 -2.82,0.19 -4.2,0.27l-0.62 -6.53 -2.68 0.27c-0.65,-4.68 -1.22,-9.39 -1.73,-14.11l8.81 -0.75c0.05,0.27 0.07,0.48 0.07,0.61 0.69,-0.08 1.35,-0.18 2,-0.27 -0.36,-1.56 -0.67,-3.08 -0.89,-4.55l9.37 -2.75c0.22,1.97 0.66,4 1.3,6.05 1.93,-0.27 3.88,-0.48 5.85,-0.61 -0.46,-1.52 -0.82,-3.03 -1.1,-4.55l5.79 -1.79c-8.96,0.46 -17.86,1.14 -26.72,2.06l-0.82 -8.53c16.84,-1.88 34.84,-2.82 53.99,-2.82zm-47.38 28.78c2.39,-0.19 4.78,-0.34 7.17,-0.48 1.06,-1.15 2.02,-2.21 2.89,-3.17 -3.63,0.41 -7.07,0.89 -10.33,1.45 0.09,0.79 0.19,1.52 0.27,2.21zm19.91 -1.18c7.16,-0.32 14.5,-0.53 22.04,-0.61 0.51,-1.29 0.82,-2.42 0.96,-3.38 0,-0.27 -2.64,-0.41 -7.92,-0.41 -5.65,0.19 -11.05,0.51 -16.18,0.96l2.62 1.8c-0.55,0.59 -1.06,1.14 -1.52,1.65zm-7.85 19.84c4.36,1.14 8.84,2.13 13.42,2.96 2.62,-0.69 4.87,-1.32 6.76,-1.86 1.83,-0.51 2.75,-0.95 2.75,-1.32 0,-0.6 -3.37,-0.89 -10.12,-0.89 -4.28,0 -8.54,0.36 -12.81,1.1zm14.04 -32.44c2.29,-0.09 4.59,-0.19 6.89,-0.27l-1.3 -1.18c1.79,-1.74 3.51,-3.35 5.16,-4.82 -4.17,0.09 -8.33,0.22 -12.46,0.41 0.36,1.88 0.94,3.83 1.72,5.85z"/>
 </g>
</svg>
