<?xml version="1.0" encoding="UTF-8"?>
<!DOCTYPE svg PUBLIC "-//W3C//DTD SVG 1.1//EN" "http://www.w3.org/Graphics/SVG/1.1/DTD/svg11.dtd">
<!-- Creator: CorelDRAW 2019 (64-Bit) -->
<svg xmlns="http://www.w3.org/2000/svg" xml:space="preserve" width="241.668mm" height="54.2079mm" version="1.1" style="shape-rendering:geometricPrecision; text-rendering:geometricPrecision; image-rendering:optimizeQuality; fill-rule:evenodd; clip-rule:evenodd"
viewBox="0 0 316.33 70.96"
 xmlns:xlink="http://www.w3.org/1999/xlink"
 xmlns:xodm="http://www.corel.com/coreldraw/odm/2003">
 <defs>
  <style type="text/css">
   <![CDATA[
    .fil0 {fill:#332C2B;fill-rule:nonzero}
   ]]>
  </style>
 </defs>
 <g id="图层_x0020_1">
  <metadata id="CorelCorpID_0Corel-Layer"/>
  <path class="fil0" d="M29.5 0l4.19 9.73c-5.84,1.21 -12.12,2.48 -18.86,3.8 -0.1,0.25 -0.18,0.48 -0.23,0.67 4.36,0.31 8.7,0.77 13,1.38l-0.84 9.42c-4.82,-0.65 -9.58,-1.12 -14.29,-1.36 0.25,0.91 1.22,1.57 2.88,1.97 2.95,0.56 6.7,0.99 11.27,1.3 7.35,0.3 13.06,0.45 17.11,0.45 4.97,0 8.11,-0.45 9.44,-1.36 0.14,-0.1 0.27,-0.21 0.38,-0.31 -5.43,-0.56 -10.62,-1.12 -15.59,-1.67l1.6 -9.34c4.97,0.35 9.76,0.83 14.37,1.44 -0.4,-0.77 -0.83,-1.4 -1.28,-1.91 -1.57,-1.31 -6.37,-1.97 -14.38,-1.97l1.3 -10.34c11.51,0 18.91,1.62 22.21,4.87 3.39,3.24 5.09,8.51 5.09,15.82 0,4.41 -1.62,8.01 -4.87,10.8 -1.26,1.12 -2.83,2 -4.71,2.66 0.4,6.39 1.38,11.41 2.89,15.06 1.82,4.41 4.58,6.77 8.28,7.07l-2.5 12.47c-3.19,0 -6.26,-1.17 -9.2,-3.49 -3.8,-2.65 -6.89,-7.74 -9.28,-15.29 -1.22,-4.31 -2.02,-8.9 -2.43,-13.77l-1.6 0c-1.53,0 -3.05,-0.03 -4.57,-0.08 -0.21,0.66 -0.4,1.25 -0.61,1.75 1.93,0.1 3.85,0.23 5.79,0.38l-0.84 8.29c-2.39,-0.21 -4.74,-0.35 -7.07,-0.45 -0.1,0.51 -0.19,0.93 -0.3,1.3 -0.05,0.14 -0.08,0.25 -0.08,0.3l8.29 0 0.99 8.29 -9.81 0c0.51,1.62 1.73,2.43 3.65,2.43 1.67,0 3.72,-0.32 6.16,-0.99l2.35 10.72c-3.3,0.61 -6.63,0.91 -10.03,0.92 -5.22,-0.01 -8.96,-1.45 -11.17,-4.35 -1.83,-2.53 -2.74,-5.7 -2.74,-9.5 0,-3.7 1.12,-10.34 3.34,-19.92 -1.16,-0.1 -2.3,-0.21 -3.41,-0.31 -2.84,-0.3 -5.32,-0.65 -7.45,-1.06 -0.42,1.17 -0.74,2.15 -1,2.97 2.95,0.1 5.79,0.25 8.53,0.45l-0.92 8.29c-3.3,-0.26 -6.57,-0.45 -9.81,-0.61 -0.04,0.25 -0.09,0.45 -0.14,0.61 -0.16,0.56 -0.29,1.09 -0.39,1.6 2.89,-0.1 5.71,-0.16 8.45,-0.16l0.91 8.29c-3.4,0 -6.59,0.05 -9.58,0.16 0.71,1.26 1.87,1.89 3.49,1.89 1.67,0 3.71,-0.3 6.09,-0.91l2.44 10.64c-3.3,0.66 -6.65,0.99 -10.05,0.99 -5.22,0 -8.94,-1.52 -11.17,-4.56 -1.83,-2.6 -2.74,-5.87 -2.74,-9.81 0,-4.21 1.49,-12.07 4.49,-23.58 -2.6,-1.82 -3.88,-4.28 -3.88,-7.37 0,-4.82 0.96,-9.76 2.88,-14.83l-2.05 -4.33c9.94,-2.18 19.3,-4.02 28.06,-5.54z"/>
  <path id="1" class="fil0" d="M94.55 0l12.77 2.8c-0.56,1.17 -1.09,2.41 -1.6,3.74 15.06,0.6 29.58,1.49 43.57,2.66l-1.13 12.47c-6.4,-0.47 -12.6,-0.87 -18.64,-1.22 0.16,1.67 0.27,3.37 0.38,5.09 4.67,-0.14 9.44,-0.22 14.3,-0.22l1.22 11.49c-4.87,0 -9.73,0.06 -14.6,0.22 0.35,3.35 0.65,6.72 0.91,10.11 6.33,-0.19 12.72,-0.3 19.16,-0.3l1.22 12.17c-6.49,0 -12.95,0.09 -19.39,0.3 0.26,3.35 0.51,6.7 0.77,10.03l-13.69 1.61c-0.3,-3.85 -0.61,-7.59 -0.91,-11.19 -11.21,0.51 -22.47,1.27 -33.77,2.28l-1.14 -12.17c3.05,-0.3 6.14,-0.56 9.28,-0.75 0.26,-7.45 1.17,-14.47 2.74,-21.06l-9.89 -2.13c1.78,-9.12 4.59,-17.77 8.45,-25.93zm23.27 47.61c-0.26,-3.4 -0.51,-6.67 -0.77,-9.81 -3.54,0.25 -7.1,0.53 -10.64,0.83 -0.45,3.14 -0.77,6.36 -0.92,9.66 4.17,-0.25 8.27,-0.48 12.33,-0.67zm-1.6 -21.45c-0.16,-2.27 -0.34,-4.48 -0.53,-6.61 -4.92,-0.31 -9.71,-0.58 -14.38,-0.84 -0.71,2.58 -1.34,5.18 -1.89,7.76l5.54 0.53c3.71,-0.36 7.46,-0.64 11.27,-0.84z"/>
  <path id="2" class="fil0" d="M229.92 13.99l1.6 13.08c-10.4,0 -20.82,0.25 -31.25,0.75 -2.13,4.87 -4.17,9.66 -6.09,14.38 11.62,4.66 24.44,7.85 38.48,9.58l-3.04 13.61c-15.77,-1.93 -29.23,-5.37 -40.39,-10.34 -1.97,5.02 -3.83,10.01 -5.55,14.98l-13.91 -4.94c5.43,-13.12 10.45,-25.3 15.06,-36.5 -5.52,0.35 -11.07,0.75 -16.65,1.22l-1.44 -13.08c7.71,-0.71 15.61,-1.27 23.73,-1.67 1.92,-4.62 3.75,-9.01 5.48,-13.16l13.91 4.79c-1.22,2.6 -2.4,5.15 -3.57,7.68 7.75,-0.25 15.64,-0.38 23.65,-0.38z"/>
  <path id="3" class="fil0" d="M314.58 7l1.14 11.94c-9.12,0 -18.2,0.22 -27.23,0.67 0.16,1.38 0.31,2.66 0.45,3.88 6.75,-0.4 13.34,-0.64 19.78,-0.69l1.22 11.64c-18.82,0.1 -37.37,1.41 -55.67,3.96l-1.14 -11.64c7.4,-0.91 14.67,-1.67 21.82,-2.28 -0.19,-1.41 -0.4,-2.76 -0.61,-4.02 -8.06,0.66 -16.15,1.44 -24.26,2.35l-1.22 -11.86c7.76,-0.96 15.74,-1.74 23.96,-2.35 -0.3,-2.23 -0.58,-4.36 -0.83,-6.39l13.91 -1.6c0.3,2.32 0.61,4.69 0.91,7.06 9.09,-0.45 18.33,-0.67 27.76,-0.67zm-59.7 32.24l5.18 1.44c7.35,-1.52 14.68,-2.27 21.97,-2.27 13.74,0 22.97,1.23 27.68,3.72 4.41,2.13 6.52,5.57 6.31,10.34l0.31 1.74c0,6.19 -1.6,10.34 -4.79,12.47 -3.24,2.44 -11.69,3.66 -25.33,3.66l-10.33 0c-10.34,0 -17.63,-0.97 -21.83,-2.89 -3.45,-2.02 -5.18,-5.22 -5.18,-9.58 0,-6.14 2.01,-12.36 6.01,-18.64zm28.61 10.05c-6.45,0 -12.97,1.28 -19.55,3.87 -0.21,0.82 -0.39,1.56 -0.53,2.21 0,1.48 0.75,2.41 2.27,2.82 2.54,0.77 6.88,1.14 13,1.14l6.4 0c6.39,0 11.07,-0.45 14.07,-1.38 1.77,-0.86 2.66,-2.43 2.66,-4.71 -0.21,-1.67 -1.51,-2.74 -3.88,-3.19 -2.89,-0.51 -7.71,-0.75 -14.45,-0.75z"/>
 </g>
</svg>
