<svg id="图层_1" data-name="图层 1" xmlns="http://www.w3.org/2000/svg" viewBox="0 0 1379.66 1379.66"><defs><style>.cls-1{fill:#332c2b;}.cls-2{fill:none;}</style></defs><title>不拜年，我们也是好朋友</title><g id="图层_1-2" data-name="图层_1"><path class="cls-1" d="M487.62,520.12l2.61,27.18q-24.83,0-49.38.65l6.58,6.44q-11.52,10.36-22.88,21.08a68.08,68.08,0,0,1,14.64,18.61,11.26,11.26,0,0,1,.65,1l6.27-18.94q23.73,15,50.06,16.48l-6.57,27.66q-24.87-.3-44.81-11.53a79.07,79.07,0,0,1,1.32,15q0,19.77-8.23,28.84-10.2,10.53-26,10.54a119.89,119.89,0,0,1-23.86-2l-2.65-27a138,138,0,0,0,21.73,2.14c3.62,0,6.38-1.1,8.23-3.3,2.53-2.1,3.8-5.62,3.8-10.53q0-10.41-3.94-17.45a58.61,58.61,0,0,0-9.56-11.73q-20.46,19-40.7,38.4l-21.09-19.28q34.44-34.41,66.7-63.25-28.11,1.18-56.64,3.45l-2.8-27q63.92-5.44,136.54-5.43Z"/><path class="cls-1" d="M570.64,513.54l9.07,19.76c-3.39,1.32-6.83,2.61-10.23,3.94-.64,7.14-1.21,14.28-1.63,21.41q4.26-.17,8.72-.17l2.64,24.88c-4.26,0-8.57.12-12.84.35-.22,3.29-.39,6.57-.5,9.86,4.07-1.21,8.1-2.42,12-3.62l7.25,24.54c-6.57,2.52-13.4,4.83-20.42,6.91q-.47,16.14-.65,32.47l-25.18-2.48c0-8.35.08-16.53.3-24.54-3,.42-5.93.92-8.88,1.49l-6.59-25q8.43-1.47,16.3-3.12.33-7.75.84-14.84c-3.74.56-7.41,1-11,1.49l-2.64-25.21c5-.65,10-1.21,15.17-1.64.2-4.61.47-9,.82-13.35-3.1,1.09-6,2.13-8.75,3.15l-10-20.43q24.54-9.4,46.27-15.79Zm97.5,4.76,2.48,24.88q-18,0-34.57.5c.19,3,.37,5.87.47,8.72,8.35-.3,16.7-.48,25-.48L664,576.8c-8.68,0-17.32.15-25.85.48.2,2.75.37,5.4.47,7.9,9-.3,17.9-.47,26.7-.47l2.78,24.53q-14.34,0-27.83.48c.22,2.65.4,5.33.47,8.1q15.81-1.53,31.8-3.32l2.8,24.88q-16.65,2.14-32.94,3.79c.45,5.93.82,11.92,1.15,18l-27,2.78c-.42-6.58-.82-12.85-1.15-18.79-10.09.68-20.2,1.15-30.29,1.49l-2.81-24.88q15.64-.81,31.45-1.8c-.19-3-.36-5.82-.47-8.58-8.23.57-16.13,1.32-23.72,2.31l-2.65-24.2q12.52-1.47,24.71-2.3c-.2-2.75-.37-5.4-.47-7.93q-10.89,1-21.59,2.31l-2.65-25.19c7.36-1,14.85-1.76,22.41-2.3-.2-3.07-.43-6-.65-8.88q-13.5.81-26.37,2.13l-2.61-25.2q44.44-3.79,88.43-3.8Z"/><path class="cls-1" d="M732.59,512.21l27.66,6.08q-1.82,3.78-3.45,8.1,48.88,1.93,94.35,5.75l-2.45,27q-20.78-1.51-40.35-2.64c.34,3.62.59,7.31.81,11q15.18-.45,31-.47l2.65,24.88q-15.81,0-31.62.47,1.14,10.89,2,21.89,20.57-.63,41.49-.64L857.26,640q-21.07,0-42,.65c.56,7.26,1.09,14.5,1.65,21.73l-29.64,3.49q-1-12.52-2-24.23-36.42,1.64-73.13,5l-2.48-26.37c6.61-.64,13.29-1.21,20.1-1.63A232.23,232.23,0,0,1,735.74,573l-21.42-4.61a237.41,237.41,0,0,1,18.29-56.16ZM783,615.32c-.57-7.37-1.09-14.45-1.66-21.25q-11.52.81-23.05,1.81-1.49,10.18-2,20.91c9-.54,17.9-1,26.7-1.46Zm-3.45-46.47c-.34-4.91-.72-9.7-1.15-14.3-10.65-.68-21-1.27-31.13-1.84q-2.31,8.4-4.11,16.81l12,1.16C763.17,569.89,771.3,569.3,779.53,568.85Z"/><path class="cls-1" d="M936.49,642.46a34.73,34.73,0,0,1-3,14,27,27,0,0,1-7.42,10.41l-12.67-7.76c3.52-3.94,5.26-7.31,5.26-10a19.32,19.32,0,0,1-6.42,1.15,12.08,12.08,0,0,1-9.39-3.8c-2.42-2.3-3.62-5.42-3.62-9.39a15.94,15.94,0,0,1,5-12.19,17.26,17.26,0,0,1,12.51-4.76c6.47,0,11.48,2.14,15,6.42,3.2,3.84,4.78,9.16,4.78,16Z"/><path class="cls-1" d="M86.06,718.72q28.17,2.61,53.85,7.41c-.64-4-1.09-7.3-1.31-10.06l25.85-2.78a225.06,225.06,0,0,0,10.06,37.05,16.15,16.15,0,0,0,1,2.48c9.33-.79,18.44-1.38,27.32-1.83q-15.47-4.77-27.15-8.06l7.91-26.17A189.18,189.18,0,0,1,215,726l-7.42,24.84c5.28-.31,10.41-.54,15.32-.65l2.81,27q-20.42.16-40.36,1.8c1.66,3.85,3.4,7.76,5.28,11.7.77,1.65,1.49,3.14,2.13,4.46,4.07-3.74,8-7.31,11.87-10.71l19.59,18.61L207,819.36q9.06,14.16,20.74,29.82l-25.85,13.66a222.2,222.2,0,0,1-16.64-22.41C179,846.7,172.66,852.88,166.31,859l-20.43-18.61q12.85-13.2,25-24.71-7.92-16.77-14.5-34.25-16.14,1.63-32.1,4.13c.42,5.7.87,11.41,1.29,17.12C132,801,138.08,799,143.9,797l7.26,24.53a236.64,236.64,0,0,1-23.39,8.24c.76,9.33,1.51,18.66,2.31,28l-28.34,3.15q-1-12.68-2-24.39c-5.17,1-10.4,1.88-15.66,2.65l-6.6-24.88C84.36,812.84,91,811.4,97.45,810c-.42-6.57-.92-13.06-1.46-19.43-6.27,1.22-12.42,2.51-18.47,3.94l-2.78-27q9.87-2,19.12-3.8c-.45-5.9-.9-11.62-1.32-17.12q-5.43-.81-10.54-1.49l4.11-26.34ZM147,755.6c-2.42-8.77-4.27-16.36-5.6-22.71l-2.13,20.75c-6.15-1-12.09-1.86-17.8-2.65.23,2.65.45,5.33.65,8.06q12.69-1.93,24.88-3.45Z"/><path class="cls-1" d="M300.19,732.55l8.57,24.19c-3.51,1.32-7,2.59-10.53,3.8a584.22,584.22,0,0,0-8.75,88.62l-26.34-2.8a492.91,492.91,0,0,1,6.24-75.44c-2.72,1.09-5.48,2.13-8.23,3.14l-7.26-25.21q24.42-9.51,46.3-16.3Zm27.66,28.33q4.13,37.56,9.22,82.36l-25.18,2.45q-5.1-46.26-9.22-82.33l25.18-2.48Zm49.42-46.94c6.57,0,12.51,3,17.79,9q9.06,10.71,9.05,37.55v7.25a421.81,421.81,0,0,1-2.48,42.51q-2,22.05-5.42,34.9L372,839.77a393.06,393.06,0,0,0,6.41-45.95q1.31-19.61,1.32-30.16,0-16.95-2.8-22.71a7.36,7.36,0,0,0-6.25-3.12c-5.17,1.29-10.93,3.94-17.28,7.9l-5.92-22.4c9.52-6.27,19.48-9.39,29.79-9.39Zm-55.35,4.11a76.51,76.51,0,0,1,24.24,19.11l-16.31,16.48A250.08,250.08,0,0,0,306.13,735l15.79-17Z"/><path class="cls-1" d="M516.3,739.46c2.3-8,4.73-15.59,7.25-22.7l27.66,5.92c-1.85,5.48-3.62,10.91-5.25,16.31A41.61,41.61,0,0,1,568,748.38q12.19,10.2,12.17,25.53-.45,21.08-7.9,46.77l-29.65-5.12q7.92-16.77,7.93-31.79c0-9.1-4.31-14.92-12.84-17.45q-7.26,25.21-13.52,51.06l-27.83-5.92q6.11-24.09,12.2-45.46a209.76,209.76,0,0,0-25.86,4.11,171.93,171.93,0,0,0-6.09,45.45q0,11.38,7.25,16.81Q491.26,838,505,838q23.19,0,75.75-9.87l5.42,25.53q-55,9.18-80.52,9.22h-7.56q-18.48,0-32.94-8.06-18-11-18-36.74,0-16.31,4.78-38c-2.65,1-5.11,2-7.41,3.12l-9.39-26.37q12.67-4.26,24.87-7.56,3.28-11,7.59-22.73L497,733.1c-1.51,3.18-3,6.25-4.44,9.22,8-1.32,15.94-2.25,23.72-2.8Z"/><path class="cls-1" d="M625,718.72l11.7,2.65a170.07,170.07,0,0,1,52.87-8.75c17.87,0,30.13.77,36.7,2.31q18.63,2.94,27.19,11.2,9.06,6.75,9,25v3a30.85,30.85,0,0,1-9,22.41q-11.68,12.65-52.87,12.67H681q-27.81,0-45.62-6.1-21.75-8.55-21.76-29,0-15.35,11.38-35.41ZM687.58,735a125.57,125.57,0,0,0-43.32,7.56q20.91.33,40.53,1.18L683.47,762q-17.1-.67-33.11-1.15a19.63,19.63,0,0,0,3,1.49q10,4.43,41.49,4.44a163.77,163.77,0,0,0,22.23-1.32c5-.64,8.85-2.3,11.7-5,2.42-1.51,3.79-4.73,4.13-9.56,0-7.22-3.62-11.87-10.88-13.83Q715.1,735,687.58,735Zm71.17,54.67,1.8,22.4q-33.42,0-66.53,1.49c.23,1.54.43,2.95.65,4.27q22.56-.35,46.12-1l2,18.44q-22.56.84-45.46,1.14c.12,1,.23,1.89.35,2.65a477,477,0,0,0,55.81,4.14l-2.64,24.19a522.29,522.29,0,0,1-67.35-4.95q-21.59-3.47-38.53-7.39c-.68,2.73-1.22,5.31-1.66,7.73l-25.53-5.75a246.14,246.14,0,0,1,9.87-39l-7.91.67-2-22.4a1410.76,1410.76,0,0,1,141-6.6ZM650.88,831.38q8.39,1.82,17.45,3.3c-1.1-6.8-2.14-13.29-3.15-19.43l-9,.64C654.27,821.07,652.51,826.21,650.88,831.38Z"/><path class="cls-1" d="M897.12,759.56a26.33,26.33,0,0,1,10.21,3.12,31.61,31.61,0,0,0,2.8-5.25c2.65-3.18,4-5.82,4-7.9,0-2.53-3.38-3.8-10.07-3.8q-11.22,1.15-27.34,8.41l-6.07-25.7c14.17-5.51,27-8.35,38.71-8.57q13.15,0,21.56,5.92c6.79,6.05,10.21,12.45,10.21,19.26-.2,5.82-2.31,12.25-6.25,19.28A85.75,85.75,0,0,1,925,781.28a39.94,39.94,0,0,1,3.62,9.89c5.83-.76,11.58-1.66,17.28-2.64l2.48,27.68c-5.7,1.09-11.35,2-17,2.78q-.85,31-24.54,47.76l-22.4-15.64q16-10.87,18.61-28.16-19.11,2.16-38.37,2.95l-2.47-27.65c12.39-.65,24.93-1.72,37.55-3.13q-5.44-12.68-17.8-17.32l15.15-18.26Zm-77.06-46.27,26.34,5.9q-5.43,17-9.56,30.64c1.54.34,3,.72,4.46,1.16q1.82-6.74,3.62-13.16l25.19,5.08c-1.1,3.85-2.14,7.71-3.13,11.53l7.74.34L868.14,782c-3,0-5.75-.06-8.4-.18q-6.29,23.73-11.87,47.76a168,168,0,0,0,20.27,7.09L853.64,859c-3.62-1.43-7.41-3.12-11.35-5.11-.87,4.07-1.71,8-2.48,11.72L814.6,860.2q2-9.71,4.3-19.11c-4.49-2.61-9.1-5.48-13.83-8.55q-10.26-7.24-10.24-17.62,0-9.74,9.22-44.81c-2.6-1-5.25-2.08-7.9-3.29l8.75-27c2.18.87,4.44,1.73,6.74,2.64,2.53-9.14,5.31-18.83,8.4-29.14Zm13.65,65.55c-1.85-.44-3.51-.84-5-1.14q-7.54,27.15-7.56,34.4a7.32,7.32,0,0,0,2.78,5.6q4.8-20.24,9.72-38.84Z"/><path class="cls-1" d="M997.93,726c.12,1.21.22,2.3.34,3.29A65.33,65.33,0,0,1,1018.7,726q10.71,0,19.25,8.87,10.08,10.89,10.07,37.9V780a323,323,0,0,1-3.3,42.64q-2.49,22.26-6.77,35.07l-24.84-5.25a336.21,336.21,0,0,0,7.22-40.53,122.12,122.12,0,0,1-13.33,4q1.65,17,3.3,34.58l-24.2,2.47q-7.25-70-12.71-124.49Zm6.94,67.85c4.81-1.31,9.52-2.7,14.13-4.13l2.65,9.22c.79-9.76,1.16-17.45,1.16-23q0-15.32-3.8-20.57c-1.85-2-4.6-3-8.23-3a66.85,66.85,0,0,0-9.86,3.45c.22,1.76.39,3.4.5,5a86.6,86.6,0,0,0,18.91,2l-2.13,21.09a97.26,97.26,0,0,1-14.65-1C1003.86,786.4,1004.32,790.09,1004.87,793.83Zm66.2-72c.11,1,.22,1.94.34,2.81a68.16,68.16,0,0,1,21.39-3.46c7.81,0,14.79,3.22,20.94,9.72q10.71,11.18,10.68,39.68v7.56a299.78,299.78,0,0,1-3.94,45.28q-2.94,23.23-7.9,36.73l-25.21-5.25a277.18,277.18,0,0,0,8.92-42.66,116.14,116.14,0,0,1-15.82,5q2,18.93,3.79,38.37l-25.21,2.8q-7.36-75.42-13.15-133.73l25.18-2.81Zm7.41,73.31q7.89-2.14,15.49-4.78l3.45,11.87c1.21-12.09,1.81-21.36,1.81-27.86,0-11.94-1.49-20-4.44-24-2-2.19-5.06-3.3-9.22-3.3a88.31,88.31,0,0,0-11.7,3.3c.2,2.64.54,5.25,1,7.9a88.46,88.46,0,0,0,21.89,2.65L1094.62,782a85.21,85.21,0,0,1-17.63-1.66c.45,5,.92,9.89,1.49,14.85Z"/><path class="cls-1" d="M1302.15,728.45l2.8,27q-44.46,0-88.75,3.29c-2.11,4.27-4.14,8.4-6.1,12.34a170.19,170.19,0,0,1,35.07-3.62q18.6,0,29,6.44,14.16,7.25,14.17,23.05-.63,11.55-12.17,22.73,14,3.28,27.32,6.92L1299,854.27q-25.85-6.39-51.38-11.52a357.25,357.25,0,0,1-40.85,24.71l-16.63-27c5.06-2,9.84-4.07,14.33-6.26-4.31-.77-8.57-1.52-12.84-2.31l4.44-27.66q23.69,3.64,46.77,8.23c8-5.4,12-9.16,12-11.35,0-2.53-1.21-4.78-3.62-6.77-2.31-1.74-5.87-2.61-10.71-2.61a126.61,126.61,0,0,0-45,10q-7.89,17.28-15.15,34.9l-29.62-6.57q15.14-36.55,30.78-68.36c-7,.79-14,1.54-21.09,2.31l-2.47-26.84q19-2.46,38.39-4.11,5.57-10.26,11-19.76l29.49,6.57c-2,3.62-4,7.19-5.92,10.71q34.9-2.16,71.13-2.13Z"/><rect class="cls-2" width="1379.66" height="1379.66"/></g></svg>