<svg id="图层_1" data-name="图层 1" xmlns="http://www.w3.org/2000/svg" viewBox="0 0 1379.66 1379.66"><defs><style>.cls-1{fill:#332c2b;}.cls-2{fill:none;}</style></defs><title>佛山加油</title><g id="图层_1-2" data-name="图层_1"><path class="cls-1" d="M387.26,637.44l7.9,22.58L382,664q-4.43,41.31-5.08,86.13L351,747.46q.34-39,4.11-74.76c-2,.67-3.74,1.27-5.25,1.83l-6.62-23.22q23.07-8.1,44-13.85Zm57.65-7.39c.65-4.38,1.27-8.74,1.81-13l23.54,2.78c-.44,3.2-.81,6.27-1.15,9.25a33,33,0,0,1,17.12,5.59c5.62,3.74,8.4,8.52,8.4,14.33a94.33,94.33,0,0,1-3.94,23.39L492,684.9q-14.12,0-28.16.81c-.19,2.65-.36,5.23-.47,7.76h1.15c9,0,16.63,2,22.87,5.93s9.39,9.59,9.39,16.61q0,10.25-5.42,30.29l-23.55-4.76q5.1-12.85,5.11-19.11c0-1.66-1-2.92-3.15-3.79a25.58,25.58,0,0,0-7.73-1.16q-1.14,23.4-1.49,47.11L436.67,762q.16-21.6,1.14-42.33l-5.11,1q-.81,18.81-1.32,37.55L407,755.37c.12-10,.34-19.75.64-29.31a21.41,21.41,0,0,1-3.12.3q-21.75,0-21.73-21.56,0-17.44,6.41-37.55l11.36,2.3c3.62-.64,7.19-1.21,10.71-1.66q.33-4.93.84-9.52a116.68,116.68,0,0,0-11.7,4.76l-7.25-21.57q10.88-3.78,21.24-6.26c.54-4.84,1.16-9.62,1.8-14.33l24.54,2.64c-.34,2.43-.59,4.78-.81,7.09a40.35,40.35,0,0,1,4.95-.65Zm-7.41,22.06c-.45,4.27-.82,8.46-1.15,12.52,1.86-.23,3.57-.37,5.11-.48.3-4.29.7-8.52,1.15-12.71-1.66.23-3.38.45-5.11.67Zm29.31-.34c-.44,3.74-.81,7.31-1.15,10.71,1.85-.12,3.56-.17,5.11-.17a25.56,25.56,0,0,0,.81-6.1c0-2.08-1.6-3.57-4.78-4.44Zm-27.65,45c.19-3.18.42-6.22.64-9-2,.2-3.74.42-5.28.64-.2,3.07-.42,6.22-.65,9.4C435.64,697.38,437.39,697.08,439.16,696.74Zm-30.47,5.92c.2-3.74.42-7.41.65-11-1.44.23-2.81.45-4.11.68a58.15,58.15,0,0,0-.67,6.41Q404.56,702.33,408.69,702.66Z"/><path class="cls-1" d="M593,622.28l30.81,3.45A764.75,764.75,0,0,0,611.26,731.3q19.59-1,26.37-4.61,8.55-2.46,8.54-12.84a259.7,259.7,0,0,0-2.77-30,154.07,154.07,0,0,0-7.09-28.5L666,648.81a174.08,174.08,0,0,1,7.21,32.1A301.82,301.82,0,0,1,676,721.1q0,23.24-18.12,30.3-14.8,7.76-64.22,8.06h-7.91q-28.66,0-45.45-9.05-16-9.57-16-32.44c0-6.38,1.12-16.41,3.32-30.16q4.6-21.9,7.39-32.44l29.65,6.57a186.62,186.62,0,0,0-7.09,25.21q-3.12,14.16-3.62,20.74,0,14.5,7.73,18.44c4.64,2.53,10.76,4.14,18.47,4.78A619.21,619.21,0,0,1,593,622.26Z"/><path class="cls-1" d="M735.31,639.91c2.09-7.79,4.22-15.44,6.42-22.88L769.41,623c-1.43,5.15-2.87,10.44-4.3,15.8a27.52,27.52,0,0,1,17.15,9.89,39.11,39.11,0,0,1,7.56,17.12,287.87,287.87,0,0,1,10.06-38l7.9,1.63q6.59-.81,14.5-1.16a78.76,78.76,0,0,1,16.14,2,24.54,24.54,0,0,1,11.18,7.9q6.92,4.6,6.91,63.25v10q0,32.63-6.41,40.19c-4.49,7.49-13.78,11.36-27.83,11.7l-3-.5q-16.95,0-23.55-5.26c-3.94-2.18-6.69-6.86-8.23-14-.76-6.79-1.21-16.53-1.32-29.14-.11.54-.19,1.09-.3,1.63q-5.43,24.24-11.87,38.71l-27.68-5.93a266.06,266.06,0,0,0,12.71-40.67q3.75-17.62,3.77-28.8c0-4.19-.7-7.37-2.14-9.57a7.23,7.23,0,0,0-3.12-3Q744.71,714.55,733.84,764l-27.66-5.76q10.38-47.6,21.09-88.58a97.5,97.5,0,0,0-13.83,4.95l-9.25-27q6.1-2.49,20.6-5.59c3.52-.79,7-1.44,10.54-2ZM821,737.07q6.4,0,7.26-3.12c.87-2.76,1.29-10.37,1.29-22.88v-7.59q0-44.76-2.78-47.59a12.32,12.32,0,0,0-5.11-1.14,25.37,25.37,0,0,0-2.78.3A148.87,148.87,0,0,0,813,695.58q0,28.33,1,37.55c.65,2.61,3,3.94,6.91,3.94Z"/><path class="cls-1" d="M896.75,625.1q7.72.51,27.15,9.72c8.67,4.91,13,10.91,13,17.94q0,8.73-7.56,14.84-9.23,7.73-12.67,11c-2.87,2.18-4.3,4.07-4.3,5.6q0,5.61,19.29,12L921.6,715.19Q905,713.89,889.68,699.4a26.39,26.39,0,0,1-5-15.17c0-5.26,3.3-10.49,9.87-15.64q3.63-3.45,11.7-9.89c2-1.51,3-2.84,3-3.94,0-2.11-1.83-3.91-5.42-5.45-5.29-2-11-4.16-17.15-6.57l10.06-17.63Zm27,97.33L931,747a140.39,140.39,0,0,1-36.88,11.87l-6.6-25.21a249.14,249.14,0,0,0,36.26-11.18Zm27-90.08,9.56,2.3c1.54-.45,3.2-.87,5-1.32A73.07,73.07,0,0,1,976,631.5q1.31-8.4,3.12-16.43l23.08,2.77c-.9,4.61-1.71,9.22-2.48,13.83a42.24,42.24,0,0,1,18.94,7.26q7.89,5.77,12.17,17.79a113.61,113.61,0,0,1,5.6,33.93v2.14q0,27.81-3.77,41.81-4.64,16.81-19.11,23.55c-8.68,4.31-16.47,6.44-23.39,6.44h-7.59q-23.06,0-37-16.13-12.69-14.51-12.68-39a225.21,225.21,0,0,1,4.61-45c4.05-13.49,8.53-24.2,13.33-32.1Zm45.48,22.53q-1.49,11.89-2.48,23.55c4.49.57,8.83,1.15,13,1.83l-2.14,25c-4.3-.54-8.52-1-12.71-1.46-.22,4.73-.37,9.44-.47,14.17l-23.08-2.8c.12-5,.23-9.72.35-14.33-3.18-.42-6.22-.82-9.05-1.16-.12,1.88-.23,3.57-.35,5.11a65.62,65.62,0,0,0,6.45,27.66,19.28,19.28,0,0,0,17,9.07h5.59c4.19,0,8.68-2,13.52-5.93q4.6-3.45,6.41-12.84,1.63-8.25,1.66-30.63v-3.47a78.33,78.33,0,0,0-2.65-19.92q-2-8.1-6.09-11.21a15.71,15.71,0,0,0-4.92-2.65Zm-25.86,20.6c.65-6.49,1.32-12.74,2-18.78-1.74.76-3.35,1.54-4.78,2.3-1.86,4.84-3.57,9.89-5.09,15.15v.34C965.2,674.79,967.85,675.14,970.37,675.48Z"/><rect class="cls-2" width="1379.66" height="1379.66"/></g></svg>