<svg id="图层_1" data-name="图层 1" xmlns="http://www.w3.org/2000/svg" viewBox="0 0 1379.66 1379.66"><defs><style>.cls-1{fill:#332c2b;}.cls-2{fill:none;}</style></defs><title>团团圆圆</title><g id="图层_1-2" data-name="图层_1"><path class="cls-1" d="M368.39,618.75l8.23,4a162.46,162.46,0,0,1,51.55-8.07A136,136,0,0,1,457,617.46q13.14,4.59,25.34,19.59,13.2,18.75,13.19,51.2v12q0,25.2-12.68,40Q463.26,765,429.48,765h-15.8q-30.46,0-48.77-13.69Q345.18,732.07,345.15,697q0-40.69,23.22-78.25ZM427,635.08q-19.26,0-44,10.2A116.4,116.4,0,0,0,370.38,693q0,31.11,10.85,40.67,13.2,10.89,31.79,10.88h12q26.19,0,37.22-16.3c5.39-7.78,8.06-18,8.06-30.63q0-31.11-9.39-46.13c-6.13-9.64-17.45-15.15-33.92-16.44ZM460,656.81,462.61,682q-11.34,0-22.24.51,3.3,26.68,7.09,54.84L421,739.81q-2-13.65-3.62-27.18Q405.62,725,394,737.34L375,720.05q17.44-19.11,33.58-35.25-14.34,1.47-28.48,3.79l-2.47-25.21q16-2.61,33.08-4.28-1.29-9.71-2.3-19.28L434.78,637q1.14,10.19,2.31,20.26c7.68-.33,15.32-.5,22.87-.5Z"/><path class="cls-1" d="M548.26,618.75l8.24,4A162.4,162.4,0,0,1,608,614.64a135.94,135.94,0,0,1,28.84,2.82q13.14,4.59,25.35,19.59,13.2,18.75,13.18,51.2v12q0,25.2-12.67,40Q643.12,765,609.36,765h-15.8q-30.48,0-48.77-13.69Q525.05,732.07,525,697q0-40.69,23.21-78.25Zm58.63,16.33q-19.26,0-44,10.2A116.39,116.39,0,0,0,550.26,693q0,31.11,10.85,40.67,13.2,10.89,31.78,10.88h12q26.18,0,37.21-16.3c5.4-7.78,8.07-18,8.07-30.63q0-31.11-9.4-46.13c-6.13-9.64-17.45-15.15-33.92-16.44Zm33,21.73L642.48,682q-11.34,0-22.24.51,3.3,26.68,7.09,54.84l-26.51,2.47q-2-13.65-3.62-27.18Q585.48,725,573.82,737.34l-18.94-17.29q17.46-19.11,33.58-35.25-14.34,1.47-28.47,3.79l-2.48-25.21q16-2.61,33.09-4.28-1.3-9.71-2.31-19.28L614.66,637q1.14,10.19,2.3,20.26c7.68-.33,15.32-.5,22.88-.5Z"/><path class="cls-1" d="M728.8,619.42l7.09,3.46a146.61,146.61,0,0,1,49.57-8.24,154.68,154.68,0,0,1,29.63,2.65q13.51,4.59,25.85,19.25,13.65,18.3,13.67,50.08v11.7q0,26-12.68,41.32Q822.33,765,788.59,765H773.1Q743,765,725,750q-19.43-21.54-19.42-60.09,0-36.72,23.21-70.49Zm55.35,15.66c-8.91,0-18.6,1.69-29.15,5.08l2.94.68q10.2-1,20.27-1,9.87,0,17.45.68a28.29,28.29,0,0,1,13.19,4.44c4.5,2,6.74,7.7,6.74,17.12v2c0,4.72-3.28,8.46-9.89,11.19q-9.21,4-26.18,4h-3.45q-20.12,0-29.64-5.59a14.42,14.42,0,0,1-6.58-12.7c0-6.13,2.66-12.29,8.06-18.43-2.31.87-4.61,1.82-6.94,2.81a91,91,0,0,0-11.53,39.86q0,35.88,10.88,46.93a41.33,41.33,0,0,0,17,10q5.9-19.93,12.17-35.89l19.76,5.93q-5.43,15-10.85,32.43h5.75a70,70,0,0,0,12.17-1c-3.82-3.06-7.89-6.09-12.17-9.05l10.54-11-4.13-.65q4-10.87,4-18c0-1-1.54-1.71-4.61-2.14-2.87-.23-6.85-.33-12-.33a118.64,118.64,0,0,0-16.64,3c-.65,6.91-1,14-1,21.22L738,724.83a201.68,201.68,0,0,1,4.61-44.13l22.41,2c-.11.53-.23,1-.34,1.48a137.06,137.06,0,0,1,20.43-1.48q16.44,0,24.38,4,9.06,4.77,9.56,14v4.27a71.1,71.1,0,0,1-4,21.73l-12.68-2a56.5,56.5,0,0,1,11.36,9.22l-6.41,6.44a34.9,34.9,0,0,0,15-12.36q8.38-12.19,8.4-31.46c0-20.4-3.4-35.59-10.2-45.45q-9.9-14-36.39-16Zm-6.6,20.4c-2.84,0-8.89,1.27-18.11,3.79a5.06,5.06,0,0,0,2.79,2.64q4.13,1.47,14.66,1.47c7.56,0,12.79-.32,15.66-1,2.62-.53,3.93-1.49,3.93-2.79-.42-2.22-2.78-3.45-7.08-3.79s-8.23-.34-11.87-.34Z"/><path class="cls-1" d="M908.68,619.42l7.08,3.46a146.67,146.67,0,0,1,49.58-8.24A154.65,154.65,0,0,1,995,617.29q13.53,4.59,25.86,19.25,13.65,18.3,13.66,50.08v11.7q0,26-12.67,41.32Q1002.19,765,968.46,765H953q-30.15,0-48.1-15-19.43-21.54-19.42-60.09,0-36.72,23.21-70.49ZM964,635.08c-8.91,0-18.6,1.69-29.15,5.08l3,.68q10.18-1,20.26-1,9.87,0,17.46.68a28.29,28.29,0,0,1,13.18,4.44c4.5,2,6.75,7.7,6.75,17.12v2q0,7.08-9.9,11.19-9.2,4-26.17,4H956q-20.13,0-29.65-5.59a14.44,14.44,0,0,1-6.58-12.7c0-6.13,2.67-12.29,8.06-18.43-2.3.87-4.61,1.82-6.94,2.81a91.1,91.1,0,0,0-11.53,39.86q0,35.88,10.88,46.93a41.39,41.39,0,0,0,17,10q5.91-19.93,12.17-35.89l19.76,5.93q-5.43,15-10.85,32.43H964a70.16,70.16,0,0,0,12.17-1c-3.83-3.06-7.9-6.09-12.17-9.05l10.54-11-4.13-.65q4-10.87,4-18c0-1-1.55-1.71-4.61-2.14-2.88-.23-6.86-.33-12-.33a118.23,118.23,0,0,0-16.63,3c-.66,6.91-1,14-1,21.22l-22.24-1.8a202.29,202.29,0,0,1,4.61-44.13l22.41,2c-.11.53-.23,1-.34,1.48A137.1,137.1,0,0,1,965,682.67q16.44,0,24.37,4c6,3.18,9.22,7.85,9.56,14v4.27a71.1,71.1,0,0,1-4,21.73l-12.67-2a56.43,56.43,0,0,1,11.35,9.22l-6.41,6.44a35,35,0,0,0,15-12.36q8.37-12.19,8.4-31.46c0-20.4-3.41-35.59-10.2-45.45q-9.92-14-36.4-16Zm-6.6,20.4c-2.84,0-8.89,1.27-18.11,3.79a5.1,5.1,0,0,0,2.79,2.64q4.13,1.47,14.67,1.47c7.55,0,12.78-.32,15.65-1,2.62-.53,3.94-1.49,3.94-2.79-.42-2.22-2.79-3.45-7.09-3.79s-8.23-.34-11.86-.34Z"/><rect class="cls-2" width="1379.66" height="1379.66"/></g></svg>