<svg id="图层_1" data-name="图层 1" xmlns="http://www.w3.org/2000/svg" viewBox="0 0 1379.66 1379.66"><defs><style>.cls-1{fill:#332c2b;}.cls-2{fill:none;}</style></defs><title>宅</title><g id="图层_1-2" data-name="图层_1"><path class="cls-1" d="M699.44,562.38A139.91,139.91,0,0,0,708.88,588q23.11-2.49,47-3c18.88,0,33.54,2.56,43.88,7.79,11.15,7.2,17,18.07,17.51,32.49q-.49,18.36-11.1,49.77l-43.36-5.84q8-20.26,10-33.91,0-10.53-28.09-10.53-70.59,5.55-129.23,26.37c1.09,4.27,2.18,8.45,3.32,12.53q65.63-16.16,124.82-27.81l13.62,37.81c-16.9,3.7-33.73,7.41-50.62,11.1-2.75,7.4-5.46,14.66-8,21.67q51.11-4.11,99.78-4.69l4.18,41.94q-57.86.27-114,5.59c-.19,2.94-.29,5.65-.29,8.08,0,5.73,1.66,10,5,12.76,4.45,3.13,11,4.75,19.73,4.75q54.23-2.78,82-10l7.5,42.51q-16.65,4.2-42,6.69a392.9,392.9,0,0,1-44.17,3.33h-5.89q-31.66,0-49.48-11.1-19.42-14-19.45-41.13,0-5.32.29-10.87-29.19,3.91-57,8.64l-4.45-42.56q33.94-5,67.26-8.58c1.15-5,2.33-9.82,3.61-14.47q-18,4.39-36.39,8.63L608.25,683l-26.66,8.64a432.57,432.57,0,0,1-19.22-78.14l42.55-12.24c.38,3,.8,5.84,1.38,8.64a367.66,367.66,0,0,1,54.75-14.47c-1.84-5-3.51-10-5-15l43.37-18.08Z"/><rect class="cls-2" width="1379.66" height="1379.66"/></g></svg>