<svg id="图层_1" data-name="图层 1" xmlns="http://www.w3.org/2000/svg" viewBox="0 0 1379.66 1379.66"><defs><style>.cls-1{fill:#332c2b;}.cls-2{fill:none;}</style></defs><title>恭喜发财</title><g id="图层_1-2" data-name="图层_1"><path class="cls-1" d="M478.83,630.64l2.79,24.2q-12.66,0-24.84.17c-1.32,4.38-2.54,8.74-3.63,13q18.25-.51,36.4-.5L492,691.74h-4.1a101.77,101.77,0,0,1,10.7,11.36L481,720.73a292.63,292.63,0,0,0-32.29-26.2l2-2.3q-35.93,1.17-68.7,3.62l10.07,9q-14.67,14.16-29.65,29.65l-19.11-17.63q9.75-10.7,18.77-19.42c-4.82.42-9.52.93-14.17,1.46l-2.79-24.2q14.5-1.47,28.82-2.48c-.65-4.5-1.27-8.82-1.8-13-6.26.57-12.42,1.1-18.43,1.65L351,636.38c5.82-.56,11.7-1,17.63-1.48-.91-5.37-1.72-10.6-2.48-15.66l28.33-3.11c.87,5.48,1.74,11.1,2.62,16.8,12.32-.67,24.54-1.21,36.74-1.65,1.86-5.48,3.74-10.82,5.59-16l28.33,6.58c-1.1,3-2.14,5.92-3.12,8.91q7.08-.16,14.17-.17Zm-76.42,39.52c6.91-.45,13.66-.76,20.26-1,1.3-4.61,2.5-9,3.63-13.35q-13.2.51-25.73,1.31c.68,4.39,1.27,8.74,1.83,13Zm25.68,29.48q2.49,17.79,5.59,36.87l12.36-13a77,77,0,0,1,22.41,20.44l-13.86,13.83A167.31,167.31,0,0,0,434,738.35c1,7.25,2.08,14.53,3.29,21.9l-29,3.45q-5.26-30.48-9.05-60.6l28.81-3.45Zm-45.27,25.68,17.11,15.81q-11.21,10.53-22.4,21.75l-17.94-15.83q12-12,23.21-21.72Zm85.64-11A81.63,81.63,0,0,1,493.3,733.9l-13.83,13.83a214.54,214.54,0,0,0-24.2-19.59l13.18-13.86Z"/><path class="cls-1" d="M532.87,616.13Q561,617,588.39,618c.53-2.22,1.15-4.36,1.8-6.43L617.87,614q-.86,2.79-1.49,5.12,27.64,1.3,54.33,2.79l-1.29,18.43q-29-1.49-56.49-2.62c-.23,1.44-.4,2.79-.51,4.11q24.38,1.17,48.43,2.64L658,660.92q-57.79-3.1-115.78-5.42l2.48-16.33q19.93.68,39.69,1.49c.11-1.55.23-3,.34-4.44q-27.84-1.31-54.36-2.48l2.48-17.62Zm20.44,81.54a33.18,33.18,0,0,1-8.57-2.47c-5.59-2.88-8.4-7.48-8.4-13.86q0-9.2,11-18.6l15.15,3.45a194.34,194.34,0,0,1,42.34-4.78q32.75,0,44.77,4.3,13.86,3.45,13.86,17.79V686c0,5.15-3,8.55-8.91,10.2a47.62,47.62,0,0,1-5.42,1.32,17.17,17.17,0,0,0-1.83,3.76c6.61-.08,13.25-.14,19.93-.14L669.44,720a1153.64,1153.64,0,0,0-135.88,8.1l-2-19.11q9.73-1.18,19.59-2.31a48.64,48.64,0,0,1,2.16-9.05ZM617.7,699H579.3c-.53,2-1,3.79-1.46,5.46q19.1-1.49,38.7-2.31a23.61,23.61,0,0,1,1.15-3.15Zm-11.53-23a190.13,190.13,0,0,0-42.67,5.92,8.1,8.1,0,0,0,.65,1.32,4.61,4.61,0,0,0,3,1.32H619c6.92,0,12.06-.17,15.47-.51,1.65-.53,2.47-1.86,2.47-3.94,0-1.31-1.57-2.3-4.78-3q-5.43-1.14-26-1.14Zm-57.34,52.22,10.24,2.3a214.05,214.05,0,0,1,46.44-5.12q33.25,0,45.28,4.45,13.86,3.62,13.85,18.77v2.64q0,8.9-9.07,11.7-9.21,3.11-27,3.45H572.9c-14.39,0-24.14-1.54-29.32-4.61q-8.57-4.77-8.57-16,0-8.73,13.83-17.6Zm58,13a220.1,220.1,0,0,0-42.16,5.11,8.91,8.91,0,0,0,.82,2.48,3.22,3.22,0,0,0,2.64,1.8h49.07a109.1,109.1,0,0,0,16-.82c1.78-.76,2.64-2.48,2.64-5.12,0-1.1-1.52-1.91-4.61-2.45q-5.1-1-24.37-1Z"/><path class="cls-1" d="M765.62,610.2,792,616.13q-6.57,15.48-12.85,31.14c2.31-.23,4.68-.5,7.09-.84,6.92-.65,15.07-1.69,24.4-3.12a108.33,108.33,0,0,0-17.31-12.67l17-15.32a75.47,75.47,0,0,1,23,17.79l-8.88,8.24c6.91-1,14.28-2.17,22.06-3.46l4.62,24.85q-17.46,4-49.75,7.42-19.56,2.48-32.44,3.28c-.86,2.42-1.73,4.89-2.64,7.43a166.5,166.5,0,0,1,35.76-4q22.88,0,35.88,5.45c8.8,3.94,13.19,9.5,13.19,16.61,0,8.8-2.93,15.38-8.74,19.79q-4.44,3.93-9.53,7.89,13.65,2.45,27.49,4.11l-5.12,26.36a497.54,497.54,0,0,1-52.84-9.22q-16.82,10.53-38.06,21.56l-11.36-21.73q7.59-4.63,15.32-9.56c-6.79-2.42-13.41-4.95-19.76-7.59q-5.43,16.14-10.54,32.29l-26.53-5.76q14.16-44.65,28.67-83.51c-8.91-1-15.76-3.57-20.61-7.73-5.81-4.82-8.71-11.27-8.71-19.27q0-15.81,11.36-31.29l27.65,5.92a54.56,54.56,0,0,0-11.19,19.93q0,6.76,11,7.56,7.88-20.24,16-38.53Zm32.43,108.86c4.08-2.64,8.07-5.25,12-7.89q8.05-5.45,8.06-7.26c0-1.63-6.91-2.47-20.74-2.47a141.5,141.5,0,0,0-34.76,6.26,335.64,335.64,0,0,0,35.42,11.36Z"/><path class="cls-1" d="M904,625.35q2.47,31.17,5.79,65.06,3.59-19.77,7.39-37.38l23.55,5.25q-6.91,34.11-12.84,69A277.4,277.4,0,0,1,963.1,738l-6.57,22.23q-18-5.26-32.46-9.22c-.76,5.17-1.57,10.26-2.48,15.32L897.9,760.9c1.73-11.75,3.57-23.13,5.42-34.09l-12.68,1.32q-5.26-50.6-9-101L904,625.34Zm32.94-7.25c6.71,0,12.78,2.47,18.3,7.42q8.73,8.22,9.39,28.5,12.82-2.47,26.17-4.13-1.31-14.16-2.47-28l28.84-3.12c1,9.56,1.9,19.26,2.78,29.16,4.53-.23,9.08-.34,13.69-.34l2.79,26.53q-6.92,0-13.83.31,4,39.55,8.4,82l-28.82,3.15Q1000,740.82,998,722.54q-10,12.53-20.4,25.21l-20.27-18.94q18.75-25,36.73-45.61-.35-3.3-.67-6.58c-9,1-18,2.36-26.85,4.1l-2-19.93v1.82a229.45,229.45,0,0,1-3.15,35.22c-1.52,12.31-3.62,21.92-6.24,28.83l-22.4-4.44A216.42,216.42,0,0,0,940.36,684Q942,667.85,942,659.28c0-8-1.27-13.32-3.79-16-1.74-1.54-4.39-2.3-7.9-2.3a79,79,0,0,0-18,7.25l-5.93-21.75a60.59,60.59,0,0,1,30.47-8.4Z"/><rect class="cls-2" width="1379.66" height="1379.66"/></g></svg>