<svg id="图层_1" data-name="图层 1" xmlns="http://www.w3.org/2000/svg" viewBox="0 0 1379.66 1379.66"><defs><style>.cls-1{fill:#332c2b;}.cls-2{fill:none;}</style></defs><title>我在家，我自豪</title><g id="图层_1-2" data-name="图层_1"><path class="cls-1" d="M86.4,620.1q28.17,2.6,53.86,7.41c-.65-4-1.1-7.31-1.32-10.06l25.85-2.78a224.2,224.2,0,0,0,10.07,37.05,15.62,15.62,0,0,0,1,2.48q14-1.19,27.32-1.84Q187.7,647.61,176,644.3l7.9-26.17a189.85,189.85,0,0,1,31.45,9.22L208,652.19c5.29-.3,10.41-.54,15.32-.64l2.81,27q-20.42.18-40.36,1.81c1.66,3.84,3.4,7.75,5.28,11.69.77,1.66,1.49,3.15,2.14,4.47,4.07-3.74,8-7.31,11.86-10.71l19.59,18.61c-5.7,5.37-11.47,10.83-17.28,16.3q9.06,14.17,20.74,29.82L202.2,764.21a222.41,222.41,0,0,1-16.64-22.4c-6.24,6.27-12.56,12.44-18.91,18.61l-20.43-18.61q12.87-13.2,25-24.71c-5.28-11.18-10.11-22.63-14.5-34.26q-16.14,1.65-32.1,4.14c.42,5.7.87,11.4,1.29,17.12,6.38-1.74,12.48-3.69,18.3-5.76l7.25,24.54a236.61,236.61,0,0,1-23.39,8.23c.77,9.34,1.52,18.67,2.31,28l-28.33,3.15q-1-12.69-2-24.39-7.75,1.51-15.66,2.64l-6.59-24.88c6.83-1.4,13.46-2.84,19.92-4.26-.42-6.58-.92-13.07-1.46-19.43-6.27,1.21-12.42,2.5-18.46,3.94l-2.78-27,19.11-3.79c-.45-5.9-.9-11.63-1.32-17.12q-5.43-.81-10.54-1.49l4.11-26.34ZM147.34,657c-2.42-8.77-4.27-16.35-5.6-22.7L139.61,655c-6.15-1-12.09-1.85-17.79-2.65.22,2.65.44,5.34.64,8.07q12.69-1.95,24.88-3.46Z"/><path class="cls-1" d="M264.3,632c9.67.3,19.2.76,28.65,1.32q5-9.75,10.06-18.61l27.83,8.54c-2,3.85-4,7.76-5.93,11.7q41.35,2.31,80.36,5.6l-2.78,27q-46.77-3.27-90.76-6.07-6.74,14.28-13.49,29.45,3.79,33.95,8.23,72L278,766.32q-2.45-20.42-4.78-40.5l-18.94-6.44q12.53-32.13,25.72-60-9.9-.63-19.62-1.31l4-26.17Zm43.48,51.85,24.88,1.66c-.68-5.37-1.27-10.53-1.83-15.49l27.65-2.47c.79,6.6,1.54,13.41,2.31,20.43q18.63,1.64,36.4,3.79l-2.6,27q-15.51-1.47-30.3-2.8c.54,4.61,1.1,9.22,1.64,13.83q18.92-1.65,37.89-3.8l2.78,26.54q-48.08,5.61-97.48,7.26l-2.65-26.54c10.43-.3,21-.82,31.63-1.46Q336.94,722,336,713.12q-16.65-1.49-32.29-2.78l4.13-26.54Z"/><path class="cls-1" d="M515.31,612.19a57.51,57.51,0,0,0,9.39,16q12.85-1.15,26.37-1.49,16.44,0,25.68,4.44,9.86,5.76,10.37,18-.35,10.2-6.1,27.52l-25.7-3.15c2.95-7.34,4.73-13.49,5.26-18.44q0-7.25-15.47-7.26a362,362,0,0,0-56,7.93q33.42.45,66.87,3.12l-2,19.76q-17.12-1.15-34.26-2c-1.74,1.21-3.4,2.42-4.92,3.62a43.19,43.19,0,0,1,16.31,11.69,36.34,36.34,0,0,1,4.78,6.42q15.65-6.08,29.45-10.37l9.72,21.73c-10.31,4.19-21.53,8.58-33.58,13.19v1.66A328.22,328.22,0,0,1,583,738l-7.21,23.55q-21.6-6.91-38.87-12.19a48,48,0,0,1-16.48,18.78l-21.08-15q16-10.36,16-28.33-1-21.89-23.39-28.64c-7.36,5.25-14.75,10.6-22.23,16l-17.63-15.63q14.83-11.22,28.83-20.94c-3.62-.08-7.14-.15-10.53-.15l1.46-15.32c-2.95.77-6,1.64-9.05,2.61,1.74,5.51,3.69,11,5.76,16.48l-24.37,8.1a232.46,232.46,0,0,1-11.87-45.65l24.2-7.22c.34,2.19.67,4.39,1,6.57a283.31,283.31,0,0,1,36.26-8.72,52.73,52.73,0,0,1-4.79-9.72l26.35-10.36Zm-29,92.7,13,12.71q-16.49,13.15-33.44,27.66l-13.83-12.51Q469.69,717.27,486.33,704.89Zm11,19.28,13.35,12.51q-16,13.83-32.44,29l-13.83-12.54Q481.56,737,497.36,724.17Z"/><path class="cls-1" d="M667,743.6a34.56,34.56,0,0,1-2.95,14A27,27,0,0,1,656.66,768L644,760.25c3.51-3.94,5.25-7.31,5.25-10a19.22,19.22,0,0,1-6.41,1.15,12,12,0,0,1-9.39-3.8c-2.42-2.3-3.62-5.42-3.62-9.39A15.94,15.94,0,0,1,634.77,726a17.24,17.24,0,0,1,12.51-4.76q9.71,0,15,6.42c3.2,3.84,4.78,9.16,4.78,16Z"/><path class="cls-1" d="M805.88,620.1q28.18,2.6,53.86,7.41-1-5.94-1.32-10.06l25.86-2.78q2.64,15.95,10.06,37.05a15.57,15.57,0,0,0,1,2.48c9.32-.79,18.44-1.39,27.31-1.84q-15.46-4.75-27.14-8.06l7.9-26.17a189.85,189.85,0,0,1,31.45,9.22l-7.41,24.84c5.28-.3,10.4-.54,15.32-.64l2.8,27q-20.4.18-40.35,1.81c1.66,3.84,3.39,7.75,5.28,11.69.76,1.66,1.49,3.15,2.13,4.47,4.07-3.74,8-7.31,11.87-10.71l19.58,18.61c-5.7,5.37-11.47,10.83-17.28,16.3q9.08,14.17,20.75,29.82l-25.86,13.66a220.86,220.86,0,0,1-16.63-22.4c-6.25,6.27-12.57,12.44-18.92,18.61l-20.42-18.61q12.85-13.2,25-24.71c-5.28-11.18-10.11-22.63-14.5-34.26q-16.14,1.65-32.09,4.14.63,8.55,1.29,17.12c6.37-1.74,12.47-3.69,18.29-5.76L871,722.88a237.52,237.52,0,0,1-23.39,8.23q1.14,14,2.3,28l-28.33,3.15q-1-12.69-2-24.39-7.77,1.51-15.66,2.64l-6.6-24.88c6.84-1.4,13.46-2.84,19.93-4.26-.42-6.58-.92-13.07-1.46-19.43-6.27,1.21-12.42,2.5-18.47,3.94l-2.78-27,19.11-3.79c-.45-5.9-.89-11.63-1.32-17.12q-5.43-.81-10.53-1.49l4.11-26.34Zm61,36.87c-2.43-8.77-4.27-16.35-5.6-22.7L859.09,655c-6.15-1-12.09-1.85-17.79-2.65.22,2.65.45,5.34.65,8.07Q854.63,658.48,866.83,657Z"/><path class="cls-1" d="M1045.54,611.52l8.75,18.94c-3.63,1.44-7.31,2.81-11,4.14,1.66-.12,3.34-.17,5.11-.17,9.44,0,18.83.42,28.16,1.31a60.87,60.87,0,0,1,30.13,13.33q16,14.5,16,44.81v9.22q0,26.85-17.45,44.29Q1087.2,765,1060,765h-9.22q-32.64,0-53.85-15.32-21.6-16.77-21.93-47.25,0-28.17,16-61.94l9.22,2.81c.42-.12.81-.23,1.14-.35l-7.25-14.47q27.32-10.08,51.37-17Zm.67,48.09a76.6,76.6,0,0,0-30.16,6.27q20.27,1.64,39.55,3.62l-2.16,23.55q-24.7-2.16-47.41-4c-.34,2.42-.62,4.78-.82,7.08q26.17.81,52.2,4.11l-2.48,23.25q-23.68-3-47.11-4a29.11,29.11,0,0,0,8.75,11.7q13.48,8.55,32.09,8.57h10.06q15.48,0,25-11.05Q1093,717.11,1093,701v-5.28c0-14.25-2.87-23.39-8.57-27.32q-7.42-6.27-20.75-7.75A166.62,166.62,0,0,0,1046.21,659.61Z"/><path class="cls-1" d="M1229.54,612.19a44.22,44.22,0,0,0,8.55,11.36q30-.85,58.46-1l1.49,16.63q-70.33.12-138.35,4.44l-1.31-16.3q27.54-1.65,53.85-2.65c-1-1.66-1.86-3.17-2.61-4.61l19.93-7.9ZM1174,643.65l10.71,2.47a464.87,464.87,0,0,1,53.86-3.15c21.31,0,35.72,1.32,43.31,4,8.88,2.08,13.36,7.53,13.36,16.3v2.14c0,5-3,8.3-8.9,10.06-6,1.51-14.87,2.36-26.5,2.48H1205.5c-14.17,0-23.84-1-29-3q-8.4-3.29-8.41-10.88c0-6.69,2-13.49,5.93-20.4Zm65.88,13.83q-24.2.33-48.25,2.95a3.34,3.34,0,0,0,1.31,2.3,8.24,8.24,0,0,0,3.12.67h55.68q12,0,17.62-.34c2-.42,2.95-1.38,2.95-2.78,0-1-1.71-1.66-5.11-2-3.82-.54-13-.82-27.32-.82Zm-66.39,21.73c.34,2.53.72,4.95,1.16,7.25a732.94,732.94,0,0,1,98.65-7.25q13.48,0,21.76,4c5.82,3.07,9,6.27,9.52,9.56V695q-.3,6.74-5.26,20.57l-21.73-3.94q3.12-7.57,3.12-10.06c0-3.82-4.88-5.75-14.67-5.75q-20.24,0-41.15,1.65c15.35.77,30.3,1.69,44.77,2.78l-1.46,15.32c-7.7-.54-15.26-1-22.73-1.46a30.46,30.46,0,0,1,4.61,12c9-4.27,18-8.06,26.84-11.36l9.22,15.32q-11.19,4.6-23.39,10.21,16.47,2.31,35.24,3.62l-4.11,19.59q-27.36-1.49-47.27-5.43a31,31,0,0,1-9.39,10l-17-12.52c6.15-3.93,9.24-9.39,9.24-16.3-.22-6.92-1.93-12.34-5.11-16.31-7.48,3-15.26,6-23.39,9.22l5.43,1a144.1,144.1,0,0,0-8.72,28.33l-16.48-3.12a114.71,114.71,0,0,1,5.76-20.92q-5.28,1.83-10.37,3.63l-7.9-15.18c12.62-5.15,24.61-9.81,36.06-14-6.61-.3-13.07-.64-19.45-1l1.14-9.05c-2.61.34-5.15.69-7.56,1.14.87,3.07,1.86,6.1,2.95,9l-21.08,6.6a159.36,159.36,0,0,1-8.41-32.94l21.09-6.61Zm37.4,52.22,16,5.25a244,244,0,0,0-10.07,24.24l-15.63-5.28q5.61-13.83,9.72-24.2Z"/><rect class="cls-2" width="1379.66" height="1379.66"/></g></svg>