<svg id="图层_1" data-name="图层 1" xmlns="http://www.w3.org/2000/svg" viewBox="0 0 1379.66 1379.66"><defs><style>.cls-1{fill:#332c2b;}.cls-2{fill:none;}</style></defs><title>我没有胖，只是腰没有了</title><g id="图层_1-2" data-name="图层_1"><path class="cls-1" d="M270.46,518q28.16,2.63,53.85,7.42-1-5.94-1.32-10.06l25.86-2.78q2.65,15.93,10.06,37a18.23,18.23,0,0,0,1,2.48q14-1.19,27.31-1.83-15.46-4.77-27.14-8.07L368,516a191.17,191.17,0,0,1,31.45,9.21L392,550.1c5.29-.32,10.41-.54,15.32-.65l2.81,27q-20.42.16-40.37,1.79c1.66,3.86,3.4,7.76,5.29,11.69.76,1.66,1.49,3.15,2.13,4.48,4.08-3.74,8-7.32,11.86-10.71l19.6,18.61q-8.56,8.05-17.29,16.3,9.06,14.16,20.74,29.82l-25.86,13.66a222.24,222.24,0,0,1-16.64-22.39q-9.36,9.39-18.91,18.61l-20.43-18.61q12.86-13.22,25-24.72-7.93-16.79-14.51-34.26-16.14,1.63-32.09,4.13c.42,5.71.87,11.41,1.3,17.12,6.37-1.74,12.47-3.68,18.29-5.76l7.25,24.55A239.21,239.21,0,0,1,312.13,629c.77,9.33,1.52,18.66,2.31,28l-28.34,3.15q-1-12.69-2-24.4c-5.17,1-10.41,1.88-15.66,2.65l-6.61-24.87q10.25-2.12,19.93-4.27c-.43-6.57-.93-13.07-1.47-19.43-6.27,1.22-12.43,2.5-18.47,3.94l-2.78-27c6.58-1.32,13-2.58,19.11-3.8-.44-5.9-.89-11.64-1.32-17.12-3.62-.53-7.14-1-10.53-1.49L270.43,518Zm60.93,36.87c-2.41-8.76-4.27-16.35-5.59-22.71l-2.14,20.75q-9.23-1.47-17.78-2.64c.23,2.64.45,5.33.64,8.06q12.69-2,24.87-3.46Z"/><path class="cls-1" d="M517.36,516c.23,1.51.38,2.89.47,4.09q18.3-3.79,31.31-4.09,23.7.29,24.2,17c0,1.77-1.26,7.72-3.8,18,0,2.54,1.78,3.8,5.29,3.8a18.05,18.05,0,0,0,11-3.8l4.78,23.55q-8.22,4.1-21.07,4.1c-8.13,0-14.42-1.43-18.92-4.27q-6.27-3.29-6.27-11.38c0-3.52,1.38-9.92,4.1-19.26,0-2.75-2.62-4.13-7.89-4.13q-5.1,0-19.43,4,2.28,17.63,4.93,36.4l-26.34,2.48q-4.94-35.92-8.57-63.92L517.36,516Zm33.58,66.36c9.9,0,17.51,1.74,22.91,5.25,6.35,4,9.55,10.17,9.55,18.64-.23,4.38-2.36,9.21-6.43,14.47q-3.3,3.81-7.09,7.76c5.29,1.63,10.37,3.4,15.32,5.25L578.12,657q-14.5-5.43-28.5-10-11.16,9.38-24.37,19.09L508.78,645q5.44-3.47,10.37-6.92-12-2.94-23.52-5.59l7.22-22.39c.45.11.85.23,1.16.34l-5.59-17.29a146.88,146.88,0,0,1,52.52-10.71Zm-35.07,30.81q14,3.12,27.34,7.08c1.62-1.54,3.24-2.92,4.78-4.13,2.41-1.86,3.62-3.63,3.62-5.26,0-3.09-2.19-4.6-6.61-4.6a143.52,143.52,0,0,0-29.15,6.91ZM452.79,518q7.93.35,27.34,10.2c8.66,5.29,13,11.47,13,18.61,0,5.93-2.47,11-7.42,15.32-5.82,5.16-10,9-12.37,11.35-2.62,2.11-3.94,4-3.94,5.78q0,5.28,18.94,11.69l-9.72,20.41q-17.28-1.32-33.27-16.47a27.59,27.59,0,0,1-5.1-15.63q0-8.26,9.56-16.33c2.41-2.2,6.18-5.48,11.35-9.87,2-1.54,2.94-3,2.94-4.27,0-1.88-1.68-3.57-5.09-5.12q-7.42-3.12-16-6.57L452.75,518ZM478,619.28l7.22,24.55A136.54,136.54,0,0,1,449,655.68l-6.57-25A254.35,254.35,0,0,0,478,619.28Z"/><path class="cls-1" d="M628.87,529.19q21.25.51,42.17,1.15,10.88-10.2,21.75-19.08l21.73,14c-2.54,2.09-4.89,4.22-7.08,6.4q30.48,1.19,59.6,2.65l-2.47,27q-43.3-1.81-83.81-3.45-5.1,5.26-9.89,10.53a319.31,319.31,0,0,1,46-5.11q21.75,0,31,6.91,12.51,6.1,13,34.59v4.44a175,175,0,0,1-8.91,53.68l-28.34-5.25q8.9-25.73,8.91-46.3,0-16.44-5.28-21.07A37.76,37.76,0,0,0,713,587.81q-7.87,0-25.86,2.13-8.56,1.51-17.12,3.8,21.75,1.82,41.69,4.43l-2,23.25c-15.57-1.88-30.59-3.52-44.94-4.95.42,3.94.81,7.79,1.15,11.52,14.48-1.55,28.28-3.29,41.31-5.29l6.61,21.76a435.72,435.72,0,0,1-45.45,6.4c.43,3.62.82,7.14,1.16,10.54l-27.69,2.81q-3.79-32.76-7.08-65.38L617.5,586.46q13.66-16.28,27.19-30.3c-6.81-.3-13.46-.6-19.93-.81l4.1-26.19Z"/><path class="cls-1" d="M820.44,539.07c.11,1.09.24,2.2.34,3.29a56.43,56.43,0,0,1,18.45-3.29q9.72,0,16.46,3.63,7.08,4.77,7.09,20.24,0,30.13-5.26,73.63l-23.88-4.13q1.82-12.18,3.11-23.72c-3.62.34-7.08.73-10.36,1.15q1.33,15.36,2.81,31.14l-22.57,2.14q-4.75-51.06-8.57-102.28l22.4-1.8Zm4.44,53.85c4.53-.76,9-1.32,13.52-1.66.23-2.08.39-4.1.51-6.07-4.95-.56-9.83-1-14.67-1.18.23,3.09.45,6,.64,8.91Zm-2-26c5.71.11,11.32.39,16.8.81-.23-6.35-2.41-9.53-6.6-9.53a30.15,30.15,0,0,0-10.69,3.46c.11,1.75.26,3.52.48,5.25Zm46.94-1.49,19.92,1c-.34-4.95-.64-9.79-1-14.51l-17.45,8.72a82.92,82.92,0,0,1-13.18-25.69l20.43-7.89a77,77,0,0,0,9.87,20.26c-.64-10.2-1.32-20-2-29.32l26.2-2.65q1.93,25.38,3.94,52.87c9.89.64,19.55,1.43,29,2.3l-1.8,24.55q-13-1-25.35-2,.46,6.75,1,13.5,14.81-1.15,29.62-2.48l2.65,27c-10.09,1-20.22,1.88-30.31,2.64.68,8.88,1.33,17.91,2,27l-26.51,2.81c-.64-9.66-1.32-19.06-2-28.17-9.9.54-19.71.93-29.49,1.16l-2.81-27q15-.51,30.47-1.32-.65-8.89-1.47-17.45c-8.68-.68-17.21-1.26-25.55-1.83l3.8-23.55Zm59.45-39.69L951.06,533a287.17,287.17,0,0,0-11.35,29L918,554.73Q924.37,538.25,929.31,525.72Z"/><path class="cls-1" d="M1031,641.5a34.64,34.64,0,0,1-2.94,14,26.73,26.73,0,0,1-7.42,10.4l-12.67-7.76c3.51-3.94,5.25-7.31,5.25-10a19.34,19.34,0,0,1-6.42,1.16,12,12,0,0,1-9.38-3.8q-3.63-3.45-3.63-9.38a15.94,15.94,0,0,1,5-12.2,17.23,17.23,0,0,1,12.51-4.76q9.7,0,15,6.41c3.2,3.85,4.78,9.16,4.78,16Z"/><path class="cls-1" d="M191.57,721.49l7.08,3.62a139.17,139.17,0,0,1,49.56-8.87A220.13,220.13,0,0,1,277.53,718q13,3,25.38,12.84,13.14,12.2,13.15,33.45v7.89q0,19.77-12.17,31.62Q285,823.09,252.17,823.11H237.5q-28.45,0-45.28-9.55Q174,800.2,174,776.17q0-28.33,17.62-54.69Zm54.66,21.07q-15.81,0-35.42,9.09a51,51,0,0,0-5.42,19.25c0,10.32,2.76,17.15,8.24,20.43,6.35,3.63,14.11,5.42,23.22,5.42h8.74q22.39,0,31.93-9.55,7.07-7.08,7.08-18.11c0-8.91-2.84-15.43-8.55-19.62q-8.1-6.08-29.82-6.91Zm-46.6,77.75,21.73,13.82a205.18,205.18,0,0,0-23.22,27.69l-23.55-17a193.82,193.82,0,0,1,25-24.54Zm76.9,2.14a244,244,0,0,1,37.07,9.89l-7.93,27q-21.24-6-37-10.07l7.89-26.84Z"/><path class="cls-1" d="M359.74,719.68l11.69,2.65a170.1,170.1,0,0,1,52.86-8.75c17.88,0,30.14.77,36.71,2.31q18.64,2.94,27.18,11.21,9.06,6.75,9.05,25v3a30.79,30.79,0,0,1-9.05,22.4q-11.67,12.63-52.86,12.67h-19.6q-27.83,0-45.61-6.1-21.76-8.57-21.76-29,0-15.36,11.39-35.42ZM422.31,736A125.58,125.58,0,0,0,379,743.55q20.92.35,40.54,1.17L418.21,763q-17.11-.66-33.12-1.15a19.25,19.25,0,0,0,3,1.49q10,4.42,41.48,4.44a163.66,163.66,0,0,0,22.23-1.32c4.95-.64,8.86-2.3,11.69-5,2.42-1.51,3.8-4.71,4.14-9.55,0-7.23-3.63-11.86-10.88-13.82Q449.83,736,422.31,736Zm71.16,54.66,1.79,22.4q-33.42,0-66.53,1.49c.23,1.55.43,2.94.64,4.27q22.56-.34,46.13-1l2,18.45q-22.54.82-45.44,1.15c.11,1,.23,1.88.34,2.64a474.72,474.72,0,0,0,55.82,4.14l-2.64,24.2a524,524,0,0,1-67.35-4.95q-21.58-3.45-38.53-7.39c-.68,2.72-1.21,5.31-1.66,7.72L352.47,858a244.28,244.28,0,0,1,9.88-39l-7.9.67-2-22.39q65.85-6.62,141-6.61ZM385.6,832.33q8.38,1.81,17.45,3.28c-1.09-6.8-2.13-13.29-3.15-19.42-2.95.19-6,.42-9,.64-1.85,5.18-3.62,10.32-5.25,15.49Z"/><path class="cls-1" d="M597.57,717.72q44.29,1.47,85.47,4.44l-1.8,21.08c-8-.45-15.76-.85-23.22-1.15-.44,1.32-.84,2.58-1.15,3.8A44.43,44.43,0,0,1,673,753.11c5.93,4.72,8.88,11.11,8.88,19.11v4.61c0,7.14-2.54,12.67-7.57,16.64Q662.77,804,642.87,804H632.63c-13.26,0-23.8-1.83-31.62-5.42-6.46-3.85-10.49-8.85-12-15a491.84,491.84,0,0,1-6.61,55.34l-23.86-4.1c1.62-8.23,3-16.27,4.09-24l-6.1.34c.68,7.89,1.33,15.8,2,23.71.19,2.73.47,5.38.81,7.9l-22.57,2.13q-4.75-51-8.57-102.28l22.39-1.79c.11,1.09.17,2.08.17,3a54.61,54.61,0,0,1,15.83-2.48c6.46,0,11.86,1.32,16.14,4,4.61,3.06,6.91,9.78,6.91,20.09a65.16,65.16,0,0,1,9-21.42l7.43,3.8c4.83-1,9.83-1.77,15-2.3.34-1.86.7-3.63,1.15-5.29-9.66-.42-19.06-.87-28.17-1.3l3.46-21.07Zm-42.5,76.39c3.51-.2,6.78-.43,9.72-.64.23-1.88.39-3.63.51-5.29H554.59c.23,2,.39,4,.48,5.93Zm-1.8-23.22h13.35c-.11-6.91-2.11-10.37-5.93-10.37a24.4,24.4,0,0,0-8.06,2.47C552.82,765.75,553.05,768.37,553.27,770.89Zm88-26.17c.34-1.32.64-2.53,1-3.62-1.43,0-2.81-.06-4.1-.17a38.28,38.28,0,0,0-.85,3.79ZM635,762.32h-1.47c-1.13,6.37-2.11,12.81-3,19.27l-15.31-3.45c.67-4.27,1.32-8.4,2-12.34-1.88.53-3.63,1.15-5.29,1.79a23.67,23.67,0,0,0-1.15,6.1c0,5,1.85,8.29,5.59,9.7A45.15,45.15,0,0,0,632.8,786h6.27q11.68,0,16.64-3.79a8.94,8.94,0,0,0,3.77-7.23,10.51,10.51,0,0,0-5.42-9.55c-.56-.23-1-.45-1.49-.68q-1.64,9.06-3.12,18.12l-15.14-3.45c.76-5.82,1.74-11.52,2.94-17.15H635Zm-34.23,37.55,22.54,7.25a10.08,10.08,0,0,1-1.15,2.13l12.67.68c-.19-1.21-.36-2.36-.47-3.45l22.39-2c.32,2.32.71,4.52,1.15,6.6,6.7.43,13.33.88,19.93,1.33l-1.32,19.25c-5.49-.31-10.88-.64-16.14-1,.31,2.08.59,4.18.81,6.27a67.69,67.69,0,0,0,8.06-2.82l4.14,20.44a74.89,74.89,0,0,1-9.56,3.11,68,68,0,0,0,1,6.91l-22.56,2c-.23-1.66-.43-3.32-.64-4.94a108,108,0,0,1-12.54.81h-3q-16,0-25.21-4.27c-6.69-3.73-10-9.25-10-16.47a108.26,108.26,0,0,1,1.49-15.14l-6.09-.34L589,808c2.84.08,5.71.19,8.55.31,1-2.83,2-5.65,3.15-8.4Zm36.7,29.49c-7.78-.54-15.43-1.05-22.88-1.49a47.83,47.83,0,0,0-1.32,9.89q0,2,2.95,3.12c2.41.78,6,1.15,10.87,1.15,4.27-.32,8.24-.71,11.86-1.15-.56-4-1-7.9-1.49-11.52Z"/><path class="cls-1" d="M787.17,717.72c.23,1.51.39,2.9.48,4.1q18.29-3.81,31.3-4.1c15.8.19,23.87,5.87,24.21,16.95,0,1.77-1.27,7.72-3.8,18,0,2.53,1.77,3.79,5.29,3.79a18.12,18.12,0,0,0,11-3.79l4.78,23.54q-8.22,4.1-21.08,4.1c-8.12,0-14.41-1.43-18.91-4.26-4.19-2.2-6.27-6-6.27-11.39,0-3.52,1.38-9.92,4.1-19.26,0-2.75-2.62-4.13-7.9-4.13q-5.08,0-19.42,4,2.26,17.63,4.92,36.4l-26.34,2.48q-4.92-35.93-8.57-63.91l26.19-2.45Zm33.59,66.36c9.89,0,17.51,1.75,22.91,5.25,6.35,4,9.55,10.17,9.55,18.64-.23,4.39-2.36,9.21-6.44,14.48-2.19,2.53-4.56,5.11-7.08,7.76,5.29,1.62,10.37,3.39,15.31,5.25l-7.08,23.22q-14.49-5.45-28.49-10-11.18,9.36-24.37,19.08L778.6,846.65q5.45-3.46,10.37-6.91-12-3-23.53-5.59l7.23-22.4a11.19,11.19,0,0,1,1.15.34l-5.59-17.29a147.19,147.19,0,0,1,52.53-10.71Zm-35.08,30.81Q799.69,818,813,822c1.63-1.54,3.24-2.92,4.78-4.13,2.41-1.86,3.63-3.63,3.63-5.25,0-3.09-2.2-4.61-6.61-4.61a144.55,144.55,0,0,0-29.15,6.91Zm-63.08-95.2q7.93.34,27.35,10.2c8.66,5.29,13,11.47,13,18.61,0,5.93-2.48,11-7.42,15.32-5.82,5.16-10,9-12.37,11.35-2.62,2.11-3.94,4-3.94,5.78,0,3.52,6.29,7.4,18.94,11.69l-9.73,20.41q-17.28-1.31-33.27-16.47A27.65,27.65,0,0,1,710.08,781q0-8.25,9.55-16.33c2.42-2.2,6.19-5.48,11.35-9.87,2-1.54,2.95-3,2.95-4.27,0-1.88-1.69-3.56-5.09-5.12q-7.43-3.12-16-6.57l9.73-19.11ZM747.81,821,755,845.51a136.91,136.91,0,0,1-36.23,11.86l-6.57-25A255.67,255.67,0,0,0,747.83,821Z"/><path class="cls-1" d="M898.69,730.87q21.24.51,42.16,1.16,10.88-10.21,21.75-19.09l21.73,14c-2.53,2.09-4.88,4.22-7.08,6.41q30.48,1.17,59.61,2.64l-2.47,27q-43.31-1.82-83.81-3.45-5.1,5.28-9.9,10.54a319.33,319.33,0,0,1,46-5.12q21.75,0,31,6.91,12.52,6.11,13,34.59v4.44q0,26-8.92,53.68l-28.33-5.25q8.89-25.71,8.91-46.29,0-16.44-5.29-21.08a38,38,0,0,0-14.16-2.47c-5.25,0-13.88.73-25.86,2.13-5.72,1-11.41,2.28-17.13,3.8q21.76,1.82,41.69,4.44l-2,23.24c-15.57-1.88-30.58-3.52-44.94-5,.43,3.94.82,7.79,1.16,11.52,14.47-1.55,28.27-3.28,41.31-5.28l6.61,21.75a433.44,433.44,0,0,1-45.45,6.4c.42,3.63.81,7.14,1.15,10.54l-27.68,2.81q-3.81-32.76-7.08-65.38l-17.29-12.37q13.65-16.27,27.18-30.3c-6.8-.3-13.46-.59-19.92-.81l4.1-26.19Z"/><path class="cls-1" d="M1162.23,717q21.42,0,32.09,5.59,11.39,7.26,11.39,18.94a30.4,30.4,0,0,1-4.78,15.82q-5.79,9.86-25.38,28.17a33.08,33.08,0,0,1,2.64,4.44q8.89,12.86,8.92,38.19,0,18.3-8.58,26.53-11.22,9.87-28.16,9.87-20.25,0-33.12-2.13l-3.11-30.81q17.94,1.82,30.81,1.83c3.51,0,6.12-.56,7.89-1.66a5.72,5.72,0,0,0,3.46-5.59c0-9.22-1.77-17-5.29-23.39a93.06,93.06,0,0,0-24.54-26L1151,759.2q2.49,2,5.12,4c4.18-3.85,7.89-7.59,11.21-11.21,2.31-2.09,3.46-3.71,3.46-4.92q-3.46-3.81-12.54-3.8-32.92,2.28-72.46,18.61l-9.39-26.5a224.75,224.75,0,0,1,85.82-18.3Z"/><rect class="cls-2" width="1379.66" height="1379.66"/></g></svg>