<svg id="图层_1" data-name="图层 1" xmlns="http://www.w3.org/2000/svg" viewBox="0 0 1379.66 1379.66"><defs><style>.cls-1{fill:#332c2b;}.cls-2{fill:none;}</style></defs><title>抗击疫情，中国必胜！</title><g id="图层_1-2" data-name="图层_1"><path class="cls-1" d="M336.25,558.44,339.06,584c-5.28,0-10.49.17-15.66.5.34,4.27.64,8.43,1,12.51,3.75-1,7.31-2,10.71-3l5.11,17.48A345.38,345.38,0,0,1,347,574.92l22.87,2.13a93,93,0,0,1,18.61-2.13c9.15,0,16.71,2.67,22.74,8.06a34.53,34.53,0,0,1,8.74,23.39,34.12,34.12,0,0,1-1.16,7.56c-2.22,8.13-3.68,14.33-4.46,18.64a46.93,46.93,0,0,0-1,6.74c0,2.73,1.61,4.11,4.78,4.11,5.18-1.32,8.85-2.67,11.05-4.11l4.61,25.19c-5.06,2.42-11.4,3.68-19.11,3.79q-27.66,0-27.66-30.14a47.82,47.82,0,0,1,1-7.93c1.09-5.82,2.85-13,5.26-21.73a11.55,11.55,0,0,0,.34-2.13c0-4.27-3.07-6.44-9.22-6.44q-2.79,0-16,3.45a478.64,478.64,0,0,0-5.63,62.43l-26.5-2.65a402.7,402.7,0,0,1,3-43.79c-4.19,1.63-8.4,3.07-12.71,4.27.56,7.78,1.14,15.66,1.83,23.55l-27,2.8c-.57-7-1.1-13.8-1.66-20.27-3.63.65-7.26,1.21-10.86,1.63l-6.61-25c5.4-.87,10.54-1.83,15.49-2.8-.45-5.6-.82-11-1.15-16.14-4.61.77-9.1,1.61-13.51,2.48l-2.78-25.7c4.61-1,9.34-1.88,14.17-2.64-.56-7-1-13.83-1.48-20.41l27-2.47c.57,6.69,1,13.43,1.49,20.24,4.91-.3,9.86-.47,14.81-.47Zm55.35-39A106.5,106.5,0,0,0,402,542.31c10.09,1.09,20.1,2.3,30,3.6l-2.77,27q-47.94-5.1-90.94-9.39l4-26.17c9.44.54,18.78,1.21,28,2-1.32-3.29-2.53-6.57-3.63-9.87l25-10.06Z"/><path class="cls-1" d="M604.58,573.59l3.12,28.33q-30.65.18-60.45,1.15c-.77,12.28-1.29,24.53-1.63,36.7a152.48,152.48,0,0,0,25-2.47q6.95-1.15,6.94-4.61a29,29,0,0,0-7.26-17l26.34-5.93a66.51,66.51,0,0,1,7.26,30.81c0,7.56-3.07,13-9.22,16.3q-7.77,4.43-23.38,6.92a275.46,275.46,0,0,1-35.89,2.47H523.05q-30.93,0-44-4.13-14.16-4.77-14.17-20.92c0-8.88,2.18-19,6.57-30.29l25.52,6.1a32.44,32.44,0,0,0-5.75,13.83c0,3.84,2.7,6.27,8.06,7.25a142.22,142.22,0,0,0,18.47,1.47q.29-18.09,1.46-35.57-25.51,1.16-50.54,3.13l-3.15-28.33q28.33-2,55.52-3.13c.22-3,.47-5.82.81-8.57q-21.88,1.19-43.79,3l-2.8-27.69q24.19-2.12,49.41-3.45c.65-5.82,1.39-11.47,2.14-17l27.66,2.78c-.65,4.53-1.22,8.9-1.64,13.18,13.49-.42,27.19-.64,41-.64L596.67,565q-23.35,0-46.6.81c-.35,2.87-.6,5.8-.82,8.75q28.34-.86,55.34-1Z"/><path class="cls-1" d="M723.66,516.93a60.37,60.37,0,0,0,4.78,12.2q30.64-2.65,59.78-3.15L791,550.54a786.88,786.88,0,0,0-106.21,7.73c-.12,1.74-.23,3.45-.34,5.11l22.87-2.47a29.06,29.06,0,0,0,.5,3.12q23.05-9.22,38.87-10.21,25.17.33,25.7,17.79,0,1.78-2.48,12.35c0,3.17,1.69,4.78,5.11,4.78a25.68,25.68,0,0,0,13.16-3.45L793,609.82q-8.55,3-21.24,3.12a24.17,24.17,0,0,1,1.31,8.07q0,7.25-8.55,17c7.91,2.08,15.57,4.34,23,6.75l-3.79,23.55q-20.74-6.1-41.17-11a174.23,174.23,0,0,1-24.84,15.17l-15.82-16.48c3.85-1.88,7.48-3.74,10.88-5.62q-7.59-1.49-14.84-3.12L700.62,632c-1.63.45-3.17.87-4.61,1.32l-4.44-21.09a174.88,174.88,0,0,1,52-12.67v-1.32c0-2.87.84-8.06,2.48-15.66,0-3.07-2.61-4.61-7.91-4.61-4.26,0-13.35,3.45-27.18,10.37q1,7.25,2.3,14.67l-24.53,2.61q-2.79-17.48-5-34.58-3.45,48.75-4.11,100.63l-25.18-2.81c0-8.32.08-16.6.3-24.84a90.21,90.21,0,0,1-10,2.48l-6.61-26.37a155.85,155.85,0,0,0,17.45-5.42c.22-4.42.5-8.75.84-13q-9.06-1-17.79-1.14l2.64-25.21A120.54,120.54,0,0,1,658,576.51c.3-4.91.64-9.69,1-14.3-3.74.65-7.42,1.29-11.05,2l-2.48-24.36q28.51-5,55.67-7.93c-.56-1.63-1.09-3.4-1.66-5.26l24.2-9.72Zm16.63,115q5.78-4.59,6.44-6.41c0-3-1.26-4.46-3.79-4.46q-11.38,2.15-25.52,5.92C725.2,628.59,732.85,630.22,740.29,631.88Z"/><path class="cls-1" d="M831.91,547.06l18.44,4.79q-8.55,19-10.71,32.76c0,4.53,1.54,7.37,4.61,8.58a392.24,392.24,0,0,1,14-59.28l24.2,2.78a476.33,476.33,0,0,0-12.67,54c1.54-.34,3-.59,4.3-.81l3.77,20.4q-5.91,1.34-11.35,2.3-3.46,25.73-4.44,51.88l-24.2-2.78A424.8,424.8,0,0,1,841,615.08c-5.59-.3-10.76-3-15.48-8.06q-5.61-6.59-5.6-17.8.51-18.91,12-42.16Zm55.32-22.23q10.24.34,20.27.84-.35-2.82-.5-5.59l26.19-2.48q.34,4.93.82,9.39,17.18,1,33.44,2.48l-1.83,20.23q-15.47-.81-29.79-1.63c.12,1.63.22,3.17.34,4.6,7.68-.11,15.46-.17,23.39-.17l2,19.11c-7.9,0-15.81,0-23.72.15.12,1.66.23,3.27.35,4.78q15.79-.45,31.28-1.15l2.13,21.09q-45.28,2.16-91.55,2.65L877.85,578q17-.33,33.93-.64c-.2-1.66-.37-3.27-.48-4.78q-12.18.33-24.06,1l-2.13-19.28q12-.63,24.53-1c-.22-2.42-.42-4.66-.64-6.74-8.68-.45-17.08-.87-25.21-1.32l3.45-20.43Zm18.94,75.77c.22,1.1.39,2.19.5,3.3a105.89,105.89,0,0,1,23.86-2.65q17.63,0,26.2,6.61,9.56,7.89,10,23V638a100.83,100.83,0,0,1-6.58,35.56l-23.55-3.94C941,657,943.26,646.46,943.26,638c0-7.14-1.89-11.92-5.63-14.33-3.51-1.74-8.3-2.65-14.3-2.65a127.71,127.71,0,0,0-15,3.45v.67c10.44.42,20.5,1,30.17,1.63l-1.16,15.32c-9.67-.64-18.89-1.21-27.69-1.63.12,1.21.22,2.36.34,3.45,9.67.54,19,1.21,28,2L936.64,661q-13.3-1-25.52-1.64c.34,3.82.64,7.74,1,11.7l-24.88,2.45q-3.47-39.67-5.93-70.46l24.88-2.48Z"/><path class="cls-1" d="M1052.11,649a34.6,34.6,0,0,1-2.95,14,26.91,26.91,0,0,1-7.41,10.4l-12.67-7.76c3.51-3.93,5.25-7.31,5.25-10a19.46,19.46,0,0,1-6.41,1.14,12,12,0,0,1-9.39-3.79c-2.43-2.3-3.62-5.43-3.62-9.39a16,16,0,0,1,5-12.2,17.28,17.28,0,0,1,12.51-4.75q9.7,0,15,6.41c3.2,3.85,4.78,9.17,4.78,16Z"/><path class="cls-1" d="M299.52,729.64l16.63,3.62a166.13,166.13,0,0,1,27.35-6.74c.86-5.06,1.8-10,2.77-14.82l31,3.45c-.64,3.29-1.21,6.57-1.66,9.87,10.24.34,17.63,1.38,22.24,3.12q16.31,4,23.89,15.66,8.05,9.23,8.06,34.74v4.31q0,18.58-8.72,31.79-10.89,17.63-49.92,17.63h-7.39c-.45,9.32-.79,18.78-1,28.3l-30.95-3.12q.18-13.16.64-26-16.6-1.63-28.33-6.57-22.56-10.71-22.53-36.06,0-25.89,17.92-59.14Zm71.65,23.07q-3.46,25.69-5.6,51.86a100,100,0,0,0,19.58-2,16.91,16.91,0,0,0,11.21-7.73q3.28-3.63,3.8-15.17,0-18.44-9.08-23.86c-3.07-1.77-9.69-2.81-19.93-3.13Zm-37.05,50.22q1.81-24.42,5.11-47.91a113.72,113.72,0,0,0-24.88,8.55,53.84,53.84,0,0,0-3,17.28q0,14,10.24,18.94a49.73,49.73,0,0,0,12.51,3.14Z"/><path class="cls-1" d="M501,779.06q8.4,0,16.48.17c-.35-3.3-.68-6.55-1-9.72-6.05-.35-12-.48-18-.48l2-20.43a599.36,599.36,0,0,1,64.39,3.46l-1.81,20.42q-11.37-1-22.4-1.66c.34,3.07.67,6.22,1,9.39,6.49.35,13,.77,19.45,1.32l-1.66,15.79,6.1-5.75a204.11,204.11,0,0,1,16.63,15.14l-14.67,14.51c-1.43-1.74-2.9-3.4-4.44-5l1.16,12.2q-32.12,2-64.89,2.48a1.73,1.73,0,0,0,.34.47q9.4,8.73,27,8.74h8.74A115.6,115.6,0,0,0,564.87,836c6.84-1.52,11.55-4.49,14.17-8.88q3.8-5.61,3.8-21.08v-6.45a130.49,130.49,0,0,0-5.6-35.71c-2.65-9.57-6.8-16.19-12.51-19.93-5.63-4.27-13-6.44-22.09-6.44h-7.73q-12,1.34-20.75,3.15a144.37,144.37,0,0,0-17.32,7.56q-2.77,10.07-4.91,20.77-2.31,20.07-2.8,35.56c0,8,2.87,16,8.57,24.06l-2-17.45,25-.67c-.42-3.74-.82-7.31-1.15-10.71q-10.54-.3-20.4-.3L501,779.07Zm54.5,30c-1.51-1.29-3-2.5-4.44-3.6l4-3.79q-6-.51-11.36-.67c.31,3,.65,5.82,1,8.57,3.62-.12,7.26-.27,10.85-.5Zm-78.05-87.27,8.75,2.13a119.12,119.12,0,0,1,19.08-5.75,153.09,153.09,0,0,1,29.65-3h7.73q25.2,0,41,11.69,11.39,8.57,17.63,26.34A174,174,0,0,1,609,803.28v3.45q0,21.59-5.59,32.46Q596,852.36,573.1,857.63c-13.6,3.4-25.8,5.11-36.53,5.11h-9.72q-29.82,0-47.76-15.82-16.14-14-16.16-37.72a371.64,371.64,0,0,1,3.49-50.88q5.1-22.89,11-36.56Z"/><path class="cls-1" d="M653.19,755.16l24.54,5.28a262.67,262.67,0,0,0-14.67,51.38l-24.37-5.11A260.66,260.66,0,0,1,653.19,755.16Zm36.88-13.83,27.69,7.26q-10.08,23.56-13.86,43.15,28.51-32.26,55.35-60.26l19.28,18.61q-34.8,37.7-69.68,77.41c4,1.85,9.11,2.78,15.49,2.78q17.29,0,39-8.41l5.9,27q-25.68,8.6-46.27,8.57h-9.56q-12.35,0-24.19-7.9-5.61,6.41-10.88,12.51l-19.76-18q7.89-9.37,15.66-18.61a39.84,39.84,0,0,1-.5-6.42q0-36.39,16.31-77.75Zm79.21,29.82A89.53,89.53,0,0,1,793.52,798l-19.11,19.12a263.58,263.58,0,0,0-23.55-27l18.44-18.94Zm-45.62-54.7a74,74,0,0,1,23.07,20.43l-18.29,18.27A215.09,215.09,0,0,0,706,735.57Z"/><path class="cls-1" d="M842.28,744.14a10.81,10.81,0,0,0,.17,2,70.32,70.32,0,0,1,18.61-2.65q10,0,17,3.63c4.19,2.75,6.54,8,7.08,15.81A320.88,320.88,0,0,1,897,723.69L920,729q-2.44,6.74-4.61,13.33c3.62.11,7.09.27,10.37.5q1.51-14.17,3.62-27.66l26.37,2.45q-2,13.53-3.46,27.34,9.38,1,18.62,2.3l-4.79,25.86c-5.59-.65-11-1.27-16.3-1.81-.45,5.26-.82,10.61-1.15,16q8.73-.35,17.45-.34l2.65,26.36c-7.26,0-14.5.17-21.76.48-.3,6.37-.59,12.64-.81,18.78,7.58-.42,15.09-1,22.57-1.63l2.78,25.85q-40,3.45-81.17,4.44l-2.48-25.53q15.65-.51,31.63-1.31c.11-6.5.27-12.74.47-18.79-8.65.65-17.4,1.59-26.17,2.78L891,792.17q14.85-2.31,30.64-3.45c.45-6.71.92-13.35,1.49-19.92-5.18-.35-10.12-.62-14.85-.85q-2.44,10.08-4.11,20.1l-19.28-4.44q-.81,25-4.26,57.31l-23-4.11q1.47-12.19,2.6-23.22-6.57-.51-12.67-.67c.68,8.45,1.32,17.05,2,25.85l-21.09,2.14q-4-53.35-7.26-95l21.09-1.81Zm4.1,52c5.06.12,10.12.4,15.15.85.22-2.65.4-5.23.5-7.76-5.48-.42-10.88-.76-16.13-1,.19,2.75.37,5.4.47,7.9Zm-1.8-24.36c6.15.12,12.22.45,18.27,1-.12-5.93-2.7-8.88-7.73-8.88a34.73,34.73,0,0,0-10.88,2.8C844.36,768.45,844.46,770.16,844.58,771.8Z"/><path class="cls-1" d="M1099.4,728.82l-11.36,82-27.34-3.63q2.79-25.05,9.72-83.33l29,5Zm0,97.68-8.58,22.37q-11-2.6-38.86-9.39l8.4-22.53q11.22,2.44,39,9.56Z"/><rect class="cls-2" width="1379.66" height="1379.66"/></g></svg>