<svg id="图层_1" data-name="图层 1" xmlns="http://www.w3.org/2000/svg" viewBox="0 0 1379.66 1379.66"><defs><style>.cls-1{fill:#332c2b;}.cls-2{fill:none;}</style></defs><title>春节宅在家，就是做贡献</title><g id="图层_1-2" data-name="图层_1"><path class="cls-1" d="M392.92,521.7l2,19.12q-33.27,0-66.53,1.15a43.76,43.76,0,0,1-2.81,4.61q29.46-1.64,60.12-1.66l2,18.3q-36.72,0-73.62,2.79-1.47,2.49-3,5,44.82-3,92.56-3l2,19.75c-3.74,0-7.42,0-11.05.17a136.78,136.78,0,0,0,12.2,14.3l-15.65,7.6c2.08,4.61,3.15,11.18,3.15,19.76v2.81a26.06,26.06,0,0,1-8.1,19.42q-10,10.88-45.79,10.88H325.09q-21.27,0-34.77-4.61c-11.07-4.61-16.65-12.25-16.65-22.91a27.25,27.25,0,0,1,.17-3.28l-23-7.9q7.25-15,14.65-29-5.74.47-11.52,1.15l-2-19.75c8.35-1,16.76-1.89,25.18-2.64.91-1.77,1.77-3.4,2.64-4.95-3.4.34-6.69.64-9.87,1l-2.13-18.27c7.9-1,15.85-1.89,23.86-2.64l3.29-5.26q-15.81.81-31.62,2l-2.13-19.28q23.05-1.64,46.77-2.61,4.45-6.45,8.57-12.36L343,519.09c-.75,1.21-1.46,2.36-2.13,3.49q25.55-.86,52.05-.84Zm-98.49,78.9,2.61.64A148.16,148.16,0,0,1,344.83,593c10,0,17.35.5,22.07,1.49-1.21-2.08-2.36-4.1-3.46-6.1q-32.28,1-64.22,3.45c-1.77,3-3.38,5.88-4.79,8.74ZM343,612a106.64,106.64,0,0,0-32.94,5.12c10.12.34,20.21.82,30.3,1.5l-2.13,19.25c-11.64-.86-23.27-1.43-34.91-1.63a12.29,12.29,0,0,0,4.78,4.11q6.75,3.45,27.65,3.45a124.25,124.25,0,0,0,18.13-1.16,17.71,17.71,0,0,0,9.55-4.6c1.86-1.44,2.9-4.33,3.13-8.74q0-11.85-5.6-15c-2.54-1.54-8.51-2.3-18-2.3Z"/><path class="cls-1" d="M578.21,524.51l2.47,26.34q-16.81,0-33.59.34c-1.88,5.17-3.56,10.31-5.12,15.48l-25.85-8.57c.75-2.08,1.49-4,2.13-5.92q-14.5.68-28.81,1.49.48,5.45,1,11.05l-27.65,2.61c-.45-3.93-.84-7.85-1.16-11.7-6.71.56-13.35,1.09-19.93,1.66l-2.63-26.2c6.69-.65,13.43-1.32,20.23-2q-.64-5.61-1-11.21L486,515.12c.31,3.93.64,8,1,12q20.41-1.18,41.35-1.83c1.74-4.72,3.4-9.22,4.92-13.5l25.69,8.55c-.54,1.54-1.09,3-1.63,4.31q10.37-.18,20.91-.17Zm-67.84,42.16q31.13,0,46.13,6.92,16.77,8.24,17.62,23.72v7.4a109.32,109.32,0,0,1-6.6,36.9l-27.66-4.44q6.57-19.44,6.58-32.46,0-6.91-12.68-9.39c-7.7-1.09-18.27-1.63-31.79-1.63q3,31.77,7.08,67l-28.33,3.45q-4.1-32.29-7.08-64.39a161.63,161.63,0,0,0-22.54,8.37l-8.58-27a166.35,166.35,0,0,1,67.85-14.47Z"/><path class="cls-1" d="M693.53,512.48a82.38,82.38,0,0,0,5.59,15.15q13.71-1.47,27.86-1.8c11.18,0,19.87,1.52,26,4.61,6.61,4.26,10.07,10.7,10.37,19.25q-.3,10.89-6.58,29.49l-25.69-3.45c3.18-8,5.17-14.7,5.92-20.1,0-4.16-5.53-6.24-16.64-6.24q-41.82,3.3-76.57,15.63c.66,2.53,1.3,5,2,7.42q38.88-9.57,74-16.47l8.07,22.4-30,6.58c-1.63,4.38-3.22,8.69-4.74,12.84q30.27-2.44,59.1-2.79l2.48,24.85q-34.27.17-67.52,3.31c-.11,1.74-.16,3.34-.16,4.78,0,3.4,1,5.9,2.95,7.56,2.63,1.86,6.55,2.81,11.69,2.81q32.13-1.63,48.61-5.92l4.44,25.17a174.57,174.57,0,0,1-24.88,4,231.76,231.76,0,0,1-26.17,2h-3.49q-18.75,0-29.32-6.58-11.5-8.26-11.52-24.36c0-2.11,0-4.24.16-6.44q-17.28,2.32-33.75,5.12L623,606q20.12-3,39.85-5.09c.68-3,1.38-5.82,2.14-8.57q-10.68,2.61-21.55,5.12l-4-13.52-15.79,5.12a256.92,256.92,0,0,1-11.39-46.29l25.22-7.25c.23,1.77.48,3.45.82,5.12a218,218,0,0,1,32.43-8.58c-1.09-3-2.08-5.92-2.95-8.88l25.7-10.71Z"/><path class="cls-1" d="M802.26,530.44c9.67.31,19.2.75,28.65,1.32,3.31-6.49,6.66-12.71,10.07-18.61l27.82,8.55c-2,3.85-4,7.76-5.92,11.7q41.37,2.31,80.36,5.6l-2.79,27q-46.76-3.3-90.75-6.08-6.74,14.3-13.49,29.46,3.79,34,8.23,72l-28.51,3.45q-2.45-20.4-4.78-40.5l-18.94-6.44q12.52-32.13,25.72-59.95-9.9-.65-19.62-1.32l4-26.17Zm43.48,51.85c8.46.56,16.72,1.13,24.88,1.66-.67-5.38-1.26-10.55-1.83-15.49L896.44,566c.79,6.61,1.55,13.41,2.31,20.44q18.64,1.64,36.4,3.79l-2.61,27q-15.51-1.47-30.3-2.81c.54,4.61,1.09,9.21,1.63,13.83q18.93-1.63,37.89-3.79L944.54,651q-48.06,5.61-97.48,7.25l-2.63-26.53q15.65-.48,31.62-1.46c-.76-6.49-1.5-12.7-2.14-18.64q-16.63-1.47-32.29-2.79l4.12-26.53Z"/><path class="cls-1" d="M1053.27,510.68a57.65,57.65,0,0,0,9.39,16c8.57-.76,17.34-1.27,26.36-1.5q16.43,0,25.69,4.45,9.87,5.77,10.37,18c-.23,6.8-2.25,16-6.1,27.51l-25.7-3.15c3-7.33,4.72-13.49,5.26-18.44,0-4.83-5.14-7.25-15.46-7.25a362.17,362.17,0,0,0-56,7.92q33.43.47,66.86,3.12L1092,577c-11.41-.75-22.82-1.43-34.26-2-1.75,1.2-3.41,2.42-4.92,3.63a43.27,43.27,0,0,1,16.3,11.7,36.26,36.26,0,0,1,4.78,6.41q15.64-6.06,29.46-10.37l9.73,21.73q-15.48,6.29-33.59,13.18V623a327.77,327.77,0,0,1,41.49,13.49L1113.72,660q-21.59-6.91-38.88-12.2a48,48,0,0,1-16.46,18.77l-21.08-15q16-10.38,16-28.33-1-21.88-23.39-28.64-11,7.89-22.23,16L990,595q14.84-11.22,28.83-20.93c-3.62-.09-7.14-.14-10.54-.14l1.45-15.31c-2.94.75-6,1.63-9,2.61q2.63,8.26,5.77,16.47l-24.37,8.09a231.47,231.47,0,0,1-11.86-45.64l24.2-7.21c.34,2.19.68,4.38,1,6.57a280,280,0,0,1,36.26-8.71,53.72,53.72,0,0,1-4.78-9.73l26.34-10.36Zm-29,92.7,13,12.7q-16.49,13.15-33.45,27.65L990,631.23q17.63-15.48,34.27-27.85Zm11,19.28,13.35,12.5q-16,13.82-32.43,29l-13.84-12.54q17.11-16.15,32.92-29Z"/><path class="cls-1" d="M304.8,712.37a72.22,72.22,0,0,0,8.07,15.15q14.33-.67,28.17-.68l2.47,22.91q-46.92,0-86.14,6.57l-2.79-22.88c10.09-1.43,20-2.7,29.8-3.79a74.9,74.9,0,0,1-3.45-7.59l23.88-9.71Zm-41.51,48.74,4.47,2.13A84.46,84.46,0,0,1,300.19,757a120.86,120.86,0,0,1,17.46,1.16A38,38,0,0,1,333,765.89a25.71,25.71,0,0,1,5.08,7.08l4.31-21.25q6.74,0,13.31.5,4.63-18.13,9.56-34.59l23.07,5.12q-4.47,16-8.74,31.79,12,1.82,24,4.45L399,782.85q-13.82-2.28-25.69-4.11-11,43.31-20.57,87.78l-23.05-5.42q9.52-45.33,19.76-84.83c-3.63-.34-7.08-.54-10.37-.64a30.39,30.39,0,0,1,2,10.84v4.79c0,7.82-2.36,13.94-7.08,18.46-6.49,6.58-14.87,10.26-25.22,11,.23,2.64.5,5.24.84,7.73a181.43,181.43,0,0,1,22.71,3.79l-3.77,22.91c-5.82-1-11.27-1.83-16.3-2.47q.46,5.61,1.15,11l-23.88,2.81Q288,853.2,286.68,840.2a229.43,229.43,0,0,0-12.34,23.52l-21.08-14.47a221.8,221.8,0,0,1,18.6-28.33l13.84,9.21q-.65-4.93-1-9.73c-7.9-.75-14.4-2.5-19.42-5.26q-12-7.92-12-22.57,0-16.32,10-31.45Zm35.59,17q-8.07,0-17.79,4.92a17.1,17.1,0,0,0-1.32,5.76c0,4.53,1.21,7.42,3.63,8.73a24.62,24.62,0,0,0,11.21,2.31h4.27q9,0,12.84-3.79a9.84,9.84,0,0,0,2.95-7.25c0-3.52-1.21-6.13-3.63-7.9-2.2-1.63-6.24-2.58-12.18-2.78ZM376,789.44,397,793.88q-9.52,24-11.86,41.51c0,3.93,1.77,5.92,5.28,5.92,1.44,0,5.54-1.06,12.34-3.15l4,21.08Q394.06,863,386.31,863h-2.78c-5.63,0-10.77-2.31-15.49-6.92-3.52-3.85-5.29-9-5.29-15.49q.51-23.05,13.18-51.21Zm13.83-62.6a56.79,56.79,0,0,1,18.3,6.6l-5.92,20.41a75.8,75.8,0,0,0-18.31-7.25Z"/><path class="cls-1" d="M443.84,720.26l11.7,2.64a169.8,169.8,0,0,1,52.87-8.74q26.8,0,36.7,2.31,18.64,3,27.18,11.21,9,6.74,9.05,25v3a30.87,30.87,0,0,1-9.05,22.41q-11.68,12.64-52.87,12.67h-19.6q-27.82,0-45.61-6.1-21.75-8.56-21.75-29,0-15.34,11.38-35.41Zm62.57,16.31a126,126,0,0,0-43.31,7.55q20.91.35,40.53,1.18l-1.32,18.27c-11.41-.46-22.46-.82-33.11-1.16a19.72,19.72,0,0,0,3,1.5q10,4.43,41.49,4.44A163.5,163.5,0,0,0,535.88,767c5-.65,8.85-2.31,11.7-4.94,2.43-1.52,3.79-4.72,4.13-9.56,0-7.21-3.62-11.86-10.88-13.83q-6.92-2.15-34.43-2.13Zm71.17,54.66,1.8,22.41q-33.43,0-66.53,1.49c.23,1.54.43,3,.65,4.27q22.56-.35,46.13-1l2,18.44q-22.54.84-45.45,1.15c.12,1,.23,1.89.34,2.64a477.12,477.12,0,0,0,55.82,4.13L569.67,869a523.92,523.92,0,0,1-67.34-5q-21.57-3.46-38.53-7.39c-.68,2.72-1.21,5.31-1.66,7.73l-25.52-5.76a246.42,246.42,0,0,1,9.87-39l-7.9.68-2-22.4a1411.14,1411.14,0,0,1,141-6.61ZM469.71,832.92c5.6,1.2,11.41,2.31,17.46,3.29-1.09-6.81-2.13-13.3-3.15-19.42l-9,.64c-1.86,5.17-3.63,10.32-5.26,15.49Z"/><path class="cls-1" d="M655.81,730.64l7.25,20.75c3.52.23,6.92.57,10.21,1q4.13-20.07,8.41-37.52l25,5.42q-4.12,17.12-7.9,34.75c2.43.22,4.67.5,6.74.84q8.75-22.89,15.63-41l23.07,7.9c-3.09,6.91-5.87,13.65-8.41,20.26,9.89,1.09,19.48,2.49,28.81,4.26l-2.14,22.89q-18.25-2.62-34.74-5.09c-1.43,3.93-2.75,7.85-4,11.7l-15.15-5.12-.64,9.21c-4.83-.65-9.5-1.26-14-1.79q-1.18,6.57-2.47,13c1,.21,1.79.37,2.47.48,3.93.57,7.73,3.18,11.36,7.9a14.42,14.42,0,0,1,3.63,6.78l2.13-12.54c5.48.79,10.82,1.65,16,2.63q3.95-13.16,7.92-25.18l23.69,5.26q-3.91,12.52-7.55,24.88c4.83,1.09,9.55,2.25,14.17,3.45l-4.78,25.86q-8.4-2-16.47-4-4.59,16.65-8.41,32.94l-23.86-5.42c2.72-11.33,5.42-22.07,8.07-32.3a80.52,80.52,0,0,0-9.08-1.79c.23,3.28.34,6.74.34,10.36v3.29q0,13.37-7.89,20.75-7.42,7.59-21.08,7.59h-2.81q-18,0-26.17-10.2c-4-5.06-5.93-12.59-5.93-22.57q0-20.74,12.68-41.51l6.1,1.32q1.31-7.25,2.45-13.83c-4.27-.46-8.49-.87-12.68-1.32L659,756.66c-2.86.76-5.62,1.55-8.23,2.31a895.14,895.14,0,0,0-6.6,96.19L619,852.69a762.24,762.24,0,0,1,5.26-85.81c-1.75.45-3.52.93-5.26,1.49l-7.26-25.21q23.24-7.26,44.13-12.5ZM679,843.3c3.51,0,5.92-1.16,7.25-3.45s2-5.88,2-11.05q-.51-14.5-3.79-16.13a15.39,15.39,0,0,0-6.26-1.49c-1.21,0-3.07.67-5.6,2a38.51,38.51,0,0,0-2.31,12.5c0,6.15.54,10.6,1.65,13.32,1.3,2.86,3.66,4.31,7.06,4.31Z"/><path class="cls-1" d="M808.67,715.49q62.6.68,120.71,2.14l-2.13,24.2q-25.86-.48-50.74-1c.23,2.75.45,5.56.68,8.41q27.15-1.14,54.84-2.64l2.47,24.23q-65.73,4.24-133.73,5.42l-2.47-24.54q26-.51,52.37-1.49-.48-5.28-.82-10-23.07-.35-45-.82l3.77-23.89Zm12.54,66.7c.11,1.21.2,2.31.31,3.29a198.63,198.63,0,0,1,58.79-8.71q20.76,0,33.93,5.6c8.24,5.06,12.37,11,12.37,18v3.93a87.71,87.71,0,0,1-7.26,30.46l-27-5.08a48.69,48.69,0,0,0,7.25-21.59c0-2.86-1.6-4.89-4.78-6.1a91.57,91.57,0,0,0-18.6-1.49,162.54,162.54,0,0,0-19.76,1.83l11.7,3.45Q856,832.89,844.43,866.51l-24.54-8.58a470.07,470.07,0,0,1,20.57-52.53A108.07,108.07,0,0,0,824,810.52c.68,7,1.32,14.29,2,21.73l-24.54,2.47q-2.66-28.15-4.47-50.05l24.23-2.48Zm43.48,44a506.42,506.42,0,0,1,68.49,18l-7.25,23.73a474,474,0,0,0-68.5-18.61l7.26-23.07Z"/><path class="cls-1" d="M975.53,732.78c9.56.56,19,1.2,28.33,2,1.77-6.6,3.68-13,5.76-19.28l26.36,5.93c-1.77,5.17-3.34,10.36-4.78,15.65,10.88,1.2,21.48,2.38,31.8,3.6l-1.84,24.88q-18.75-1.63-36.22-3.29c-.43,2.08-.87,4.16-1.32,6.26q3.63-.16,7.08-.16,13,0,21.25,8.41a31,31,0,0,1,7.9,21.08v3.28a272,272,0,0,1-2.31,31.28q-2.62,20.12-5.77,32l-22.36-4.44q2.44-10.54,4.1-19.93c-3.06-.34-6.1-.62-9-.85q.46,9.24,1.16,18.78l-19.76,2c-.57-7.82-1-15.09-1.49-21.93-3.18-.2-6.33-.31-9.39-.31.42,7.55,1,15.2,1.63,22.88l-21.08,1.83q-3.57-44.64-5.9-89.61l21.08-2c.09,1.09.14,2.2.14,3.29,1.43-.45,2.86-.87,4.3-1.32q1.3-6.74,2.64-12.84c-9-.86-17.79-1.66-26.36-2.31l4.1-24.88Zm18.3,88.75c3.18,0,6.36.11,9.56.34,0-1.43,0-2.75-.17-4-3-.08-5.87-.13-8.73-.13l1.31-15.83h3c-.34-2.54-.68-4.83-1-6.92-1.88.68-3.68,1.32-5.45,2,.45,8.24.93,16.42,1.5,24.54Zm29.15-2.45c.11,1.41.23,2.79.34,4.11,4.15.45,8.3.86,12.34,1.32.22-1.55.39-2.87.5-4-4.42-.54-8.8-1-13.18-1.46Zm-8.74-16.64a13.11,13.11,0,0,1,2.16.16q1.82-6.29,3.29-11.7l-6.92.66c.43,3.74.93,7.37,1.46,10.88Zm18.3,1.63c1.75.23,3.34.45,4.79.68v-2.81c0-3.29-.79-5.71-2.31-7.26-.91,3.2-1.72,6.33-2.48,9.39Zm33.12-53.68c3.93.34,7.89.67,11.83,1q3.35-15.48,6.61-30l23.72,5.43c-.68,3.08-1.27,6-1.83,8.73l7.08-7.59a54.12,54.12,0,0,1,15.82,13.83l-13,13.36a113.67,113.67,0,0,0-11.7-11c-.79,3.43-1.49,6.78-2.16,10.07q9.23,1.29,18.3,2.81l-2.47,27.65-21.59-2.81q-3.46,16.65-6.42,33.28a129.61,129.61,0,0,1,33.93,32.09l-18.6,18.64a274.24,274.24,0,0,0-20.75-20.26c-1.2,6.69-2.36,13.43-3.49,20.26l-23.86-5.28q7.25-43.65,14.81-81.86c-3.63-.45-7.19-.86-10.7-1.31l4.46-27Z"/><rect class="cls-2" width="1379.66" height="1379.66"/></g></svg>