<svg id="图层_1" data-name="图层 1" xmlns="http://www.w3.org/2000/svg" viewBox="0 0 1379.66 1379.66"><defs><style>.cls-1{fill:#332c2b;}.cls-2{fill:none;}</style></defs><title>武汉加油</title><g id="图层_1-2" data-name="图层_1"><path class="cls-1" d="M355.88,620.24q23.87,6.06,53.34,6.1l-2.14,23.55q-33.42,0-55.31-7.26l4.11-22.4Zm133.05,29.65,2.47,24.54q-16.77,0-33.25.47a111.06,111.06,0,0,0,2.61,11.52q6.8,26.7,17.79,39.71,5.61,7.22,18.12,14L483.49,766q-21.89-9.4-35.08-31.79-10.7-19.28-16.3-48.26c-.57-3.18-1-6.55-1.49-10.07q-41.31,2-82.66,6.92l-2.8-24.2q39.88-5.08,82.68-7.08-1.33-16.62-1.66-35.89l27.83.81c0,12.62.34,24,1,33.93q9.56-.33,19.28-.34a188.94,188.94,0,0,0-18.44-14.65L471,619.07A71.55,71.55,0,0,1,492.72,636l-14.47,14c3.59-.08,7.16-.14,10.68-.14ZM400.5,681c.87,5.37,1.68,10.93,2.48,16.63q12-1,24.53-2.8l2,21.76q-11.67,1.81-23.54,2.6c.67,4.42,1.31,8.75,2,13,7.14-1.22,15.26-3,24.36-5.26l3.8,22.58q-31.8,8.22-53.21,8.54c-12,0-20.85-2.08-26.67-6.24a24.07,24.07,0,0,1-9.57-17.62q0-21.75,4.44-37.55l22.58,5.42q-4,14.85-4,24.2a6.62,6.62,0,0,0,3.3,6.1,18.31,18.31,0,0,0,7.92,2.13q-4.31-25.5-7.25-51L400.5,681Z"/><path class="cls-1" d="M535.1,618.41q7.73.51,27.15,11.55,13,8.55,13,20.57a19.84,19.84,0,0,1-6.91,15.32q-8.4,7.89-11.7,11.36c-2.64,2.08-3.94,4-3.94,5.59q0,6.11,19.76,13.36l-10.36,20.43q-17.62-1.53-33.79-17.32a29.21,29.21,0,0,1-5.25-16.48c0-5.37,3-10.68,9-16q3.45-3.65,10.7-10.21c1.77-1.44,2.65-2.75,2.65-4,0-2.64-1.66-4.88-5-6.74-4.95-2.65-10.31-5.43-16.14-8.4l10.71-19.11ZM568,721.84l7.26,24.2q-19.44,8.25-44.3,12l-6.57-25.18a322.58,322.58,0,0,0,43.62-11Zm66.39-104.72c9.87,0,17.85,3.12,23.87,9.39,5.73,6.69,8.57,13.78,8.57,21.22v4c0,6.27-1.31,13.66-4,22.24a151.26,151.26,0,0,1-17.77,35.24q15.32,5.61,29.62,11.87l-8.55,27.66q-19.26-8.57-38.05-15.49a327.49,327.49,0,0,1-27.31,32.12L581,742.93q9.57-10.56,17.15-19.76c-8-2.53-15.88-4.73-23.55-6.57l8.58-27q16.6,4.26,32.6,9.39a2.69,2.69,0,0,1,.3-.5,139,139,0,0,0,16.16-28c3.17-6.8,4.78-12.2,4.78-16.14a13.46,13.46,0,0,0-1.66-6.91,5.7,5.7,0,0,0-4.95-2.65A69.08,69.08,0,0,0,613,647.44a110.85,110.85,0,0,0-21.89,11.18L580.4,631q7.88-4.94,21.42-9.22a117.27,117.27,0,0,1,32.59-4.61Z"/><path class="cls-1" d="M733.42,638.51c2.08-7.78,4.21-15.44,6.41-22.88l27.69,5.93c-1.44,5.15-2.87,10.43-4.31,15.79a27.49,27.49,0,0,1,17.15,9.89,38.88,38.88,0,0,1,7.56,17.12,287.87,287.87,0,0,1,10.06-38l7.9,1.63q6.58-.81,14.51-1.16a78.68,78.68,0,0,1,16.13,2,24.29,24.29,0,0,1,11.18,7.9q6.91,4.6,6.92,63.24v10q0,32.64-6.42,40.2c-4.49,7.48-13.77,11.35-27.83,11.69l-3-.5c-11.31,0-19.14-1.74-23.55-5.25q-5.91-3.28-8.24-14-1.14-10.2-1.31-29.15c-.12.54-.2,1.09-.31,1.63q-5.43,24.24-11.86,38.71l-27.69-5.92a265.38,265.38,0,0,0,12.71-40.68c2.5-11.74,3.77-21.36,3.77-28.8,0-4.19-.7-7.36-2.13-9.56a7.17,7.17,0,0,0-3.13-3q-12.85,47.77-23.72,97.16l-27.66-5.75q10.38-47.59,21.09-88.59a97.5,97.5,0,0,0-13.83,4.95l-9.24-27q6.11-2.49,20.59-5.6c3.52-.79,7-1.43,10.54-2Zm85.64,97.16c4.26,0,6.69-1,7.25-3.12q1.31-4.12,1.29-22.88v-7.59q0-44.76-2.78-47.58a12.34,12.34,0,0,0-5.11-1.15,23.87,23.87,0,0,0-2.78.31,148.8,148.8,0,0,0-5.79,40.52q0,28.34,1,37.55c.65,2.61,3,3.94,6.92,3.94Z"/><path class="cls-1" d="M894.85,623.69q7.73.51,27.15,9.72c8.68,4.91,13,10.91,13,17.94q0,8.73-7.56,14.84c-6.15,5.15-10.36,8.83-12.67,11-2.87,2.18-4.29,4.07-4.29,5.6q0,5.61,19.28,12l-10.06,18.94q-16.62-1.31-31.93-15.79a26.35,26.35,0,0,1-4.95-15.17c0-5.26,3.29-10.49,9.86-15.64q3.64-3.45,11.7-9.89c2-1.51,3-2.84,3-3.94,0-2.1-1.84-3.91-5.43-5.45Q894,645,884.79,641.33l10.06-17.62Zm27,97.33,7.21,24.54a140.07,140.07,0,0,1-36.87,11.87l-6.6-25.21A249.52,249.52,0,0,0,921.87,721Zm27-90.08,9.57,2.3c1.54-.45,3.2-.87,5-1.32a74,74,0,0,1,10.71-1.83q1.3-8.39,3.12-16.43l23.07,2.77q-1.34,6.92-2.47,13.83a42.33,42.33,0,0,1,18.94,7.26q7.88,5.78,12.17,17.8a113.49,113.49,0,0,1,5.59,33.92v2.14q0,27.81-3.76,41.81-4.65,16.81-19.11,23.55c-8.68,4.31-16.48,6.44-23.4,6.44h-7.58q-23.05,0-37-16.13-12.69-14.5-12.67-39a224.48,224.48,0,0,1,4.61-45c4-13.49,8.52-24.2,13.33-32.1Zm45.48,22.53c-1,7.93-1.83,15.77-2.47,23.55,4.49.57,8.82,1.15,13,1.83l-2.13,25c-4.31-.54-8.53-1-12.71-1.46-.23,4.73-.37,9.44-.48,14.17l-23.07-2.8q.16-7.42.34-14.33c-3.18-.42-6.22-.82-9.05-1.16-.12,1.88-.22,3.57-.34,5.11a65.6,65.6,0,0,0,6.44,27.66,19.28,19.28,0,0,0,17,9.07h5.6c4.19,0,8.68-2,13.51-5.92q4.61-3.47,6.41-12.85,1.65-8.25,1.66-30.63v-3.47a78.76,78.76,0,0,0-2.64-19.92q-2-8.1-6.1-11.21a15.77,15.77,0,0,0-4.91-2.65Zm-25.85,20.6c.64-6.49,1.32-12.74,2-18.78-1.74.76-3.34,1.54-4.78,2.3-1.86,4.84-3.57,9.9-5.08,15.15v.34C963.3,673.39,966,673.73,968.48,674.07Z"/><rect class="cls-2" width="1379.66" height="1379.66"/></g></svg>