<svg id="图层_1" data-name="图层 1" xmlns="http://www.w3.org/2000/svg" viewBox="0 0 1379.66 1379.66"><defs><style>.cls-1{fill:#332c2b;}.cls-2{fill:none;}</style></defs><title>每逢佳节胖三斤，这个春节尤为甚</title><g id="图层_1-2" data-name="图层_1"><path class="cls-1" d="M112,561.3l8.38,4.3a145.55,145.55,0,0,1,35.92-4.3,202.72,202.72,0,0,1,25.52,1.49c7.89,1.88,15.43,5.92,22.57,12.2q11.68,11.52,11.7,31.45v3.79c4.27.65,8.49,1.4,12.67,2.3L224,637.71c-3.85-.53-7.53-1.1-11-1.63a45.47,45.47,0,0,1-6.24,12.17q-14.67,20.91-40,20.91h-14q-27,0-43-10.69-15-13.2-17-35.24c-4.38-.34-8.68-.57-12.84-.68l4.44-25.18c3.4,0,6.75.06,10.07.17q4.09-18.79,17.62-36.26Zm44.47,19.93a85.4,85.4,0,0,1,17,16.8l-4.78,4.78q10.88,1.31,21.41,3c-.78-7.37-3.23-13-7.42-16.81q-7.42-6.91-26.17-7.76Zm-9.9,19.11c-3.28-3-6.64-5.93-10-8.89l9-9.56a88.07,88.07,0,0,0-20.74,6.92,52.31,52.31,0,0,0-4.29,9.56c8.8.42,17.45,1.1,26,2Zm40.5,32.12q-15.14-2-29.15-3.62a73.94,73.94,0,0,1,12.2,12l-8.74,8.55h.68q16.44,0,23.38-13c.65-1.4,1.21-2.73,1.63-3.94Zm-36.39,16.95c-5.38-4.95-11.47-10-18.27-15.15l7.09-7.39q-10.55-1-20.57-1.82c1.4,7.89,4,13.41,7.89,16.46a40.56,40.56,0,0,0,23.87,7.9ZM114.8,511.24l21.75,13.84c-1.55,1.65-2.92,3.19-4.13,4.61q43.29,2.82,84.32,7.08l-2.48,27q-53.5-4.42-101.6-8.38c-4.38,6.24-8.52,12.61-12.36,19.08L76.44,557.21q19.26-27.19,38.36-46Z"/><path class="cls-1" d="M324.32,511.24,335.17,518a145.08,145.08,0,0,1,26.53-3q12.36,0,19.93,5.25,10.55,7.43,10.54,19.28c0,6-3.34,11-10.07,15q12.7,2.49,25.86,4l-4.1,19.11a346.68,346.68,0,0,1-49.92-9.25q-15.3,6.63-35.72,14c7.6-.87,15-1.63,22.41-2.31-.23-1.52-.45-2.94-.68-4.27l25.22-2.65c.34,1.78.59,3.46.82,5.12q14.34-.66,28.16-.65L396,594.91c-9.33,0-18.41.17-27.18.48.11.91.23,1.71.34,2.47q12.35-.47,24.37-.48l1.31,15.8c-8,0-15.71.11-23.08.34a24.19,24.19,0,0,0,.51,3.12Q387,616,401.39,616l1.8,17.63q-14.46,0-28.16.48c.9,5.17,1.71,10.29,2.47,15.32l-19.59,2.3,1.32,5.76a151.28,151.28,0,0,1-42.17,6.44H310q-19.94,0-34.09-9.73-15.48-12-15.49-34.41,0-20.43,5.93-46.63l25.55,5.76q-5.94,20.63-5.92,36.4,0,14.34,6.91,20.9,6.42,6.63,21.39,6.61,16,0,35.93-5.29a8.43,8.43,0,0,0-.51-2q-18.6,1.47-36.06,4l-2-17.79q17.93-2.33,35.24-3.62a24.54,24.54,0,0,1-.5-3c-9.11.79-17.86,1.72-26.2,2.82l-1.31-15.8c8.35-1.1,16.69-2,25-2.65-.23-1-.39-1.88-.5-2.64-9.87.76-19.32,1.82-28.31,3.11l-2-15.8q-5.75,2.16-11.19,4.11l-7.9-20.4c3.18-.87,6.3-1.83,9.39-2.82l-11.52-8.23-1.32,5.12a132,132,0,0,0-26.36-8.57l6.6-22.41c10.43,1.78,19.19,4.42,26.34,7.93l-3.45,12.17a315.28,315.28,0,0,1,30.63-39.86ZM313.1,562.15c4.19-1.21,8-2.42,11.53-3.63q-3.93-1.63-7.22-3.11c-1.43,2.31-2.87,4.55-4.29,6.75Zm16.3-22.58c8.15,3.18,16.47,6,25.05,8.4a62.47,62.47,0,0,0,8.06-3.45c3.85-1.43,5.76-2.64,5.76-3.62,0-4.08-3.68-6.1-11-6.1a86.26,86.26,0,0,0-27.85,4.78Z"/><path class="cls-1" d="M481.79,529.54l8.57,24.54c-4.42,1.4-8.8,2.9-13.18,4.44a887.4,887.4,0,0,0-6.75,97.5l-27.68-2.47a774.62,774.62,0,0,1,5.12-84.49c-2.65.87-5.17,1.74-7.6,2.65l-7.21-24.88q25.5-10.2,48.73-17.29ZM493.48,531q13.84,0,27.49.34c1-6.35,2.22-12.45,3.62-18.26L551,515.7q-1.82,8.43-3.12,16.46,15.93.51,31.46,1.49l-2.81,25.68q-16-1-31.62-1.63c-.23,3.41-.44,6.75-.65,10q18.25-1,37-2.64l2.47,25.69q-19.43,1.65-38.7,2.81c.34,3.07.65,6.1,1,9q15.3-.5,30.47-.48l2.81,24.2q-16.15,0-30.81.51c.34,3,.66,5.84,1,8.72q17.63-1.3,34.91-3.12l2.81,25.69q-51.37,5.61-104.07,7.26l-2.82-25.86q20.93-.67,42-2c-.32-3.18-.65-6.3-1-9.39q-16.15,1.35-30.95,3l-2.65-24.54c10.54-1,20.86-1.83,31-2.48-.2-3.17-.49-6.22-.83-9q-16.79.79-33.58,1.15l-2.47-25.86q17.79-.51,35.72-1.32c.11-4.19.33-8.18.67-12-9.1-.23-18.18-.4-27.18-.49L493.47,531Z"/><path class="cls-1" d="M761.14,525.74l2.47,26.34q-16.82,0-33.58.34c-1.88,5.16-3.57,10.32-5.12,15.48l-25.85-8.57c.76-2.07,1.48-4,2.13-5.92q-14.49.66-28.81,1.48c.31,3.62.65,7.3,1,11.05l-27.66,2.62c-.44-3.94-.84-7.85-1.14-11.7-6.72.57-13.35,1.1-19.93,1.65L622,532.32c6.69-.65,13.44-1.32,20.23-2-.42-3.74-.76-7.47-1-11.21l27.68-2.79c.31,3.93.65,7.95,1,12q20.42-1.17,41.35-1.82c1.74-4.72,3.4-9.22,4.91-13.5l25.69,8.55c-.53,1.55-1.1,3-1.63,4.3q10.38-.17,20.91-.17ZM693.29,567.9q31.11,0,46.12,6.92c11.19,5.48,17.06,13.41,17.63,23.72v7.39a108.84,108.84,0,0,1-6.61,36.9l-27.65-4.44q6.57-19.42,6.58-32.46,0-6.91-12.68-9.39c-7.7-1.1-18.26-1.63-31.78-1.63q3,31.79,7.08,67l-28.33,3.45q-4.1-32.29-7.08-64.39A161.66,161.66,0,0,0,634,609.38l-8.57-27a166.23,166.23,0,0,1,67.85-14.48Z"/><path class="cls-1" d="M817.65,540.89c.1,1.1.23,2.2.33,3.28a56.4,56.4,0,0,1,18.44-3.28q9.74,0,16.46,3.62,7.08,4.75,7.09,20.23,0,30.15-5.25,73.64l-23.89-4.13c1.2-8.13,2.24-16,3.11-23.72-3.62.34-7.08.73-10.37,1.14.91,10.24,1.83,20.61,2.82,31.15L803.81,645q-4.75-51.06-8.57-102.28l22.41-1.79Zm4.44,53.85q6.78-1.14,13.52-1.66c.23-2.07.4-4.1.5-6.07q-7.41-.84-14.66-1.18c.23,3.09.44,6,.65,8.91Zm-2-26c5.71.11,11.32.4,16.8.82-.23-6.35-2.41-9.52-6.6-9.52a29.88,29.88,0,0,0-10.68,3.45c.11,1.74.25,3.51.48,5.25Zm46.93-1.48c6.8.34,13.46.67,19.93,1q-.5-7.43-1-14.5l-17.46,8.72a83,83,0,0,1-13.18-25.69l20.44-7.89a77.08,77.08,0,0,0,9.86,20.27q-1-15.31-2-29.33l26.19-2.64q2,25.38,3.94,52.87c9.9.65,19.57,1.44,29,2.31L941,596.9c-8.68-.65-17.11-1.32-25.35-2,.32,4.5.66,9,1,13.5,9.86-.76,19.76-1.57,29.62-2.48l2.65,27c-10.09,1-20.21,1.88-30.3,2.64.68,8.89,1.32,17.9,2,27l-26.51,2.81q-1-14.51-2-28.16c-9.9.53-19.7.93-29.48,1.14l-2.81-27q15-.51,30.47-1.32c-.42-5.92-.93-11.74-1.46-17.45-8.68-.68-17.2-1.27-25.56-1.83l3.79-23.55Zm59.45-39.69,21.76,7.25a286.51,286.51,0,0,0-11.36,29l-21.75-7.22q6.4-16.48,11.35-29Z"/><path class="cls-1" d="M989.62,522.94a748.44,748.44,0,0,1,127.16,11.21L1111.67,562q-73.61-9.59-127.3-11.36Zm113.31,54.69,3.45,28.31a972.21,972.21,0,0,0-112.63,6.6l-3.45-28.33A913.78,913.78,0,0,1,1102.93,577.63Zm18,50.06,3.11,29.79a1384.13,1384.13,0,0,0-141,7.26L979.9,635a1292.21,1292.21,0,0,1,141-7.26Z"/><path class="cls-1" d="M1271.1,514.39l9.22,25.83q-39.16,7.75-81.16,16.47c-.57,4.61-1.1,9.27-1.66,14q52.21-4.1,103.27-4.1l2.48,26.84q-18.76,0-36.73.66,4.92,32.29,10.36,69.16l-30.29,3.49q-6.08-39.71-10.71-71.47-21.26,1-41,2.79-3,31.79-3.59,64.55l-29-3.11a841,841,0,0,1,8.23-109.87l-4.1-14.14q55.15-12.22,104.73-21.07Z"/><path class="cls-1" d="M90.26,741.26q18.92,2.31,31.78,7.25l-7.89,27a199.62,199.62,0,0,0-31.79-7.9l7.9-26.36ZM85.81,780l29,6.58q-8.73,17.61-8.72,31.14,0,11.85,7.39,17.29,6.91,5.78,23.08,5.76a182.37,182.37,0,0,0,24.67-1.8l-17.45-6.1q3.61-10.87,7.42-20.74A231.29,231.29,0,0,1,124,801.69l7.25-24.84a264.63,264.63,0,0,0,29.82,10.2c4-9.78,8.18-19,12.34-27.66q-22.38,1.82-44.8,4.74l-2.79-25q15.64-2.31,31.93-3.79a78.23,78.23,0,0,1-3.6-9.86l25.18-10.07a92.44,92.44,0,0,0,7.56,18.13q16.32-.84,33.28-.84l2.47,24.88q-14.49,0-28.67.67l8.91,2.79q-7.23,15.81-14.17,32.61,15.81,3.17,32.78,5L216.08,825Q196,822.63,178.69,819q-3.62,9-6.94,18.11,10.88-2,22.74-5l5.29,24.23Q167.65,865,139,865h-7.73q-21.73,0-37.21-9.05-17-11.34-17-32.44,0-18.91,8.74-43.48Z"/><path class="cls-1" d="M326.12,716.08l11.86,11q34.44,5.77,67.2,14.17l-4.44,27.66q-38.88-9.36-77.4-15.81-22.09,18.25-44.64,37.56l-20.44-18.6q35.43-31,67.86-56ZM343.4,763q5.43,44.46,11.72,97.5l-29.64,3.15q-6.76-54.85-11.87-97.5Z"/><path class="cls-1" d="M575.83,724.62l2,19.11q-33.25,0-66.52,1.15a46.64,46.64,0,0,1-2.81,4.61q29.47-1.65,60.11-1.65l2,18.3q-36.72,0-73.61,2.79c-1,1.65-2,3.32-3,5q44.81-3,92.55-3l2,19.76c-3.74,0-7.43.06-11,.17a135.35,135.35,0,0,0,12.21,14.3L574,812.76c2.08,4.61,3.15,11.19,3.15,19.76v2.81a26,26,0,0,1-8.1,19.42q-10,10.89-45.79,10.88H508q-21.25,0-34.77-4.61c-11.06-4.61-16.63-12.25-16.63-22.91a29.67,29.67,0,0,1,.17-3.29l-23-7.89c4.82-10,9.73-19.65,14.64-29-3.83.31-7.68.7-11.53,1.14l-2-19.76q12.54-1.51,25.18-2.64c.91-1.78,1.78-3.41,2.65-5-3.41.34-6.69.65-9.87,1l-2.13-18.27c7.89-1,15.85-1.88,23.86-2.64,1.1-1.74,2.2-3.51,3.29-5.25q-15.81.8-31.62,2l-2.14-19.28q23.07-1.65,46.77-2.62l8.57-12.36L525.91,722c-.76,1.21-1.46,2.37-2.14,3.49q25.54-.86,52.05-.84Zm-98.48,78.9,2.61.65a148.2,148.2,0,0,1,47.78-8.23c10,0,17.35.51,22.07,1.49-1.21-2.08-2.37-4.11-3.45-6.1q-32.31,1-64.22,3.45c-1.78,3-3.37,5.88-4.78,8.74Zm48.57,11.36A106.69,106.69,0,0,0,493,820q15.16.51,30.3,1.48l-2.14,19.26c-11.64-.87-23.27-1.44-34.91-1.63a12.18,12.18,0,0,0,4.78,4.1q6.75,3.46,27.66,3.46a127.45,127.45,0,0,0,18.13-1.15,17.82,17.82,0,0,0,9.56-4.61c1.86-1.44,2.89-4.34,3.11-8.74,0-7.9-1.86-12.91-5.59-15q-3.79-2.33-18-2.31Z"/><path class="cls-1" d="M761.14,727.44l2.47,26.34q-16.82,0-33.58.33c-1.88,5.17-3.57,10.33-5.12,15.49L699.06,761c.76-2.07,1.48-4,2.13-5.93q-14.49.67-28.81,1.49c.31,3.62.65,7.3,1,11l-27.66,2.62c-.44-3.93-.84-7.84-1.14-11.69l-19.93,1.65L622,734q10-1,20.23-2c-.42-3.74-.76-7.47-1-11.22l27.68-2.78c.31,3.93.65,8,1,12q20.42-1.17,41.35-1.82c1.74-4.72,3.4-9.22,4.91-13.5l25.69,8.55c-.53,1.54-1.1,3-1.63,4.3q10.38-.17,20.91-.17ZM693.29,769.6q31.11,0,46.12,6.92C750.6,782,756.47,789.93,757,800.24v7.39a108.84,108.84,0,0,1-6.61,36.9l-27.65-4.44q6.57-19.44,6.58-32.46,0-6.92-12.68-9.39c-7.7-1.1-18.26-1.63-31.78-1.63q3,31.78,7.08,67l-28.33,3.45q-4.1-32.31-7.08-64.39A160.4,160.4,0,0,0,634,811.08l-8.57-27a166.38,166.38,0,0,1,67.85-14.47Z"/><path class="cls-1" d="M939.05,743.06l2.62,26.53q-39.67,0-79,2.79Q849,817.35,837.42,863L809.76,857q11.06-44,22.24-82c-9.44.87-18.83,1.89-28.16,3l-2.48-26.36q19.27-2.45,39.21-4.27,4.92-16.32,10.2-31.29l27.65,5.9Q874.5,733.7,871,745.06c9-.57,18.1-1,27.31-1.31-3.82-2.76-7.89-5.55-12.16-8.41l17.93-19.25a80.42,80.42,0,0,1,25.56,19.76l-7.26,7.39q8.22-.16,16.64-.17Zm-64.73,36.26,28.33,6.58q-11.71,20.75-11.7,42.8,0,5.77,2.95,8.57c2.08,1.86,5,2.82,8.74,2.82q10.53,0,34.26-7.93l5.25,25.55q-26.53,7.2-38.87,7.22H898.2a43.89,43.89,0,0,1-23.08-6.07c-8.36-5.71-12.51-15.07-12.51-28q0-19.14,11.7-51.54Z"/><path class="cls-1" d="M1070.66,753q22.38,0,36.39,10.37c8.77,7,13.19,15.37,13.19,25v3.94q0,14.16-4.64,37.24-5.26,23.87-11.36,38.19l-29-5.93a244.28,244.28,0,0,0,12.2-40q3.75-17.29,3.77-28.17c0-3.82-2.2-6.74-6.58-8.71q-7.76-3.63-20.57-3.62a142.54,142.54,0,0,0-15.66,1q-13.49,42.33-25,85.47l-29-6.58q10.2-38.52,20.74-72.46a183.06,183.06,0,0,0-24.2,9.22l-9.73-27.68c6.38-2.83,17.39-6.24,33.11-10.2q5.27-1.45,10.54-2.47,7.43-22.38,14.81-42.81l29,6.75q-5.61,15.81-10.88,32,6.26-.51,12.85-.51Zm-76.91-29.65a220.64,220.64,0,0,1,30.78,9.39l-7.25,24.23c-11.75-3.62-22-6.67-30.78-9.08Zm65,75.26A76.42,76.42,0,0,1,1082.51,819l-18.3,18.26A216.54,216.54,0,0,0,1041,817.68l17.79-19.11Z"/><path class="cls-1" d="M1300.11,726.11l1.8,21.08h-15.66q-2.28,23.38-3.11,47.41c6.26-.08,12.33-.14,18.26-.14l1.82,22.53c-10.43,0-20.79.11-31.14.34q4.8,3.81,10.07,8.23l-15.66,15.66a164.49,164.49,0,0,0-19.25-15.66l7.72-7.72c-7.25.31-14.45.65-21.56,1a181.61,181.61,0,0,0-6.6,25l-23-5.08a127.91,127.91,0,0,1,4.44-18.3c-4.5.33-8.93.73-13.35,1.14a69.74,69.74,0,0,0-2.31,16.47,6.13,6.13,0,0,0,4.47,6.09c3.6,1.21,10.54,1.83,20.74,1.83,7,0,16.41-.4,28.16-1.15q27-2.16,49.41-4.78l4.1,22.24q-21.75,2.6-44.47,4.27-24.54,1.82-38.53,1.82h-7.09q-21.42,0-31.12-6.6-10.53-6.57-10.53-20.57a144.83,144.83,0,0,1,1.29-17c-2.39.23-4.87.44-7.39.67l-1.82-22.57c6.26-.76,12.59-1.44,18.94-2q-1.31-25.2-2.48-50.25c-4.72.34-9.39.61-14,.84l-1.8-21.07,14.81-.68c-.11-3.17-.23-6.18-.34-9.05l27-2.81q.16,5.26.51,10.7,29.64-1.14,58.63-1.63c.44-3.51.87-7,1.31-10.37l27,2.79c-.34,2.42-.62,4.83-.85,7.26h11.58Zm-94.39,72q24.88-1.79,50.23-2.79.67-24.54,2.82-47.76-28.85.48-55.35,1.46c.11,1.21.17,2.37.17,3.46q19.26.34,38.36,2l-2,17.62q-18-1.17-35.58-1.65c.11,1.88.23,3.79.33,5.76q16.61-1.3,32.78-1.32l1.8,17.14c-11.83,0-23.11.36-33.75,1.15.1,1.74.16,3.4.16,4.91Z"/><rect class="cls-2" width="1379.66" height="1379.66"/></g></svg>