<svg id="图层_1" data-name="图层 1" xmlns="http://www.w3.org/2000/svg" viewBox="0 0 1379.66 1379.66"><defs><style>.cls-1{fill:#332c2b;}.cls-2{fill:none;}</style></defs><title>百病不侵</title><g id="图层_1-2" data-name="图层_1"><path class="cls-1" d="M480.29,617.78l2.48,24.88q-29.81,0-59.95,1.15c-2.2,3.62-4.21,7.19-6.1,10.71h2.82a202.36,202.36,0,0,1,29.32,2q13.14,3.46,25.35,14.33,13.2,13.83,13.18,37.55v8.89q0,17.61-11.53,28.16-17.61,17.12-48.43,17.12H412.28q-29.47,0-46.76-9-18.93-13-18.94-36.23,0-32,17.62-61.42l8.23,4.11c3.85-.87,7.71-1.72,11.53-2.48q3.63-6.24,6.77-12-18.8,1-37.55,2.47l-2.64-24.84q60.58-5.28,129.76-5.29Zm-62.73,60.43q-15.18,0-33.92,7.09a52,52,0,0,0-3.79,10.37q19.09,1.17,37.21,3l-2,23.21Q395.16,720,377,718.58q1.82,11,8.91,14.81c7,3.62,15.63,5.45,25.86,5.45h9.86q20.4,0,29.15-8.23a21.33,21.33,0,0,0,6.44-16c0-12.06-2.92-21-8.74-26.85q-8.38-8.38-30.95-9.56Z"/><path class="cls-1" d="M663.29,652l2.81,23q-17.61,0-34.59.68c-.76,2.31-1.46,4.5-2.14,6.58h2.48q18,0,29.32,7.56,10.88,10.53,10.87,25v5.29q-1.14,24-7.25,42.3l-25.18-4.44c4.16-9.87,6.58-21.2,7.22-33.92,0-7.26-1.24-12.4-3.77-15.49q-5.26-3.46-14.67-3.45l-5.76.33q-1.64,5.79-2.94,11.53a60.27,60.27,0,0,0,24,6.75l-5.25,22.24a58.19,58.19,0,0,1-24.06-5.26c-.65,3.63-1.26,7.2-1.79,10.71l-22.92-5.45c2-12.51,4.39-24.63,7.26-36.38q-5.78,1.47-11.05,3.29,2.49,23.07,5,48.26L567.31,764q-3.93-37.39-6.91-67.35-2.61,33.9-3.12,69.34l-24.2-2.81c.11-7.9.25-15.72.48-23.39-2.3.66-4.5,1.21-6.58,1.63L520.38,716a144.6,144.6,0,0,0,14.33-5c.34-5,.67-10.1,1-15.15A83.92,83.92,0,0,0,521,694.22L523.83,669a73,73,0,0,1,13.86,1.32c.42-5.06.93-10,1.46-14.82l-8.06,1-2.79-24.2q28.46-3.62,56-5.76c-.86-1.65-1.71-3.32-2.47-4.95l24.88-9.72a59.67,59.67,0,0,0,8.4,12.5q28.78-1.82,56.3-2.14L674,646.77q-55.81.33-109.83,5.92-1.82,16.83-3.12,34.09l21.9-2.64c.23,1.77.4,3.45.51,5.12a171.58,171.58,0,0,1,20.4-4.62c.76-2.64,1.54-5.22,2.3-7.72q-17.79,1-35.72,2.79L568,656.49q44.6-4.41,95.34-4.44Z"/><path class="cls-1" d="M844,620.24l2.62,27.19q-24.82,0-49.39.65l6.58,6.44q-11.52,10.37-22.87,21.07a68,68,0,0,1,14.64,18.6c.23.32.45.66.65,1l6.27-18.94q23.73,15,50.06,16.47L846,720.35q-24.88-.29-44.8-11.53a79.22,79.22,0,0,1,1.32,15q0,19.79-8.24,28.84-10.18,10.54-26,10.54a119.76,119.76,0,0,1-23.87-2l-2.64-27a139.2,139.2,0,0,0,21.73,2.13c3.62,0,6.38-1.09,8.23-3.28,2.54-2.11,3.79-5.62,3.79-10.54q0-10.41-3.93-17.45A58.61,58.61,0,0,0,762,693.34q-20.44,19-40.71,38.39L700.2,712.46q34.44-34.41,66.7-63.24-28.12,1.17-56.64,3.45l-2.81-27q63.91-5.43,136.54-5.42Z"/><path class="cls-1" d="M925.7,632.93l8.57,24.2-13.84,4a818.78,818.78,0,0,0-6.58,92.23l-27.68-2.48a725.52,725.52,0,0,1,5.12-81.5c-2,.57-3.91,1.1-5.76,1.65l-7.25-24.88q24.88-7.74,47.42-13.18Zm61.95-19.25q22.38,0,30.78,8.38a23.3,23.3,0,0,1,6.77,17.14v7.08q0,17.63-8.1,24.54a22.25,22.25,0,0,1-8.72,4.95,36.35,36.35,0,0,1,16.3,4.75c5.59,3.32,8.4,7.53,8.4,12.7q-.35,11.16-5.45,25.18l-15-2.48a16.57,16.57,0,0,1,.51,4.13c-.23,5.25-3.51,10.6-9.9,16q-2.44,2-4.61,3.45a154.52,154.52,0,0,0,19.93,2.65L1013.15,764a125,125,0,0,1-40.53-7.08c-6.8,3.74-14,7.36-21.39,10.87L938.7,747.37c3.09-1,6-2,8.9-3.12-2.41-1.65-4.67-3.23-6.74-4.78l3.45-12-4.13-12.68-16,1.83q-2.31-21.27-3.79-37.73L944,676.22a47.43,47.43,0,0,1,.48,4.78q14.34-2.61,28.17-4a268.44,268.44,0,0,1-37-4.61l4-17.29a197.09,197.09,0,0,0,46.61,5.42c7.89,0,12.14-1,12.67-3.11.11-.23.23-.45.34-.65a546.24,546.24,0,0,0-55.85-3.46l2-18.6a415.72,415.72,0,0,1,54.84,3.6c-.34-2.41-.87-4.1-1.66-5.08-1.31-1.55-5.37-2.31-12.16-2.31q-17.46,0-44.16,2L938,615.63q23.07-2,49.58-2ZM957.32,723.83a126.42,126.42,0,0,0,17.31,8.23c1.1-.53,2.08-1.1,3-1.63,6.6-3.74,9.9-6.26,9.9-7.59,0-.65-.68-1.27-2-1.8a22.67,22.67,0,0,0-6.41-.68,94.84,94.84,0,0,0-21.76,3.46Zm-10-18.27a131.7,131.7,0,0,1,35.08-4.78q13.36,0,20.74,4.13a27.41,27.41,0,0,1,2.64,1.46,13.91,13.91,0,0,0,.82-4.61c0-4.61-3.93-6.91-11.83-6.91a220.1,220.1,0,0,0-47.94,5.75c.23,1.66.39,3.29.5,4.95Z"/><rect class="cls-2" width="1379.66" height="1379.66"/></g></svg>