<svg id="图层_1" data-name="图层 1" xmlns="http://www.w3.org/2000/svg" viewBox="0 0 1379.66 1379.66"><defs><style>.cls-1{fill:#332c2b;}.cls-2{fill:none;}</style></defs><title>见屏如面</title><g id="图层_1-2" data-name="图层_1"><path class="cls-1" d="M413.85,709l25.53,5.93q-5.78,10.71-5.76,17.62a6.08,6.08,0,0,0,2.48,5.26c1.74,1.31,4.83,2,9.22,2,5.82,0,15.69-2,29.65-5.93l4.61,23.22q-22.43,6.4-37.38,6.57c-11.55,0-20.1-1.9-25.72-5.75a22,22,0,0,1-9.22-16.13c0-12.62,2.18-23.55,6.61-32.77Zm-36.23-90.24c.12,1.73.25,3.45.48,5.11a140.28,140.28,0,0,1,52-9.89q18.42,0,30,9.56,11,12.83,11.05,30.8v6.75q-1.49,29.63-9.22,52.36l-28.33-5.11q7.72-19.1,9.22-43.31,0-14.17-3.62-20.25-4.77-4.45-13-4.46-25.51,1.18-45.63,11.86,1.81,19.27,3.79,39.69,9.08-19.11,18.1-35.72l25.86,7.9q-23.54,46-46.27,102.29l-25.53-8.58q8.73-23.24,17.62-43.65l-15,1.49q-4.94-53.21-8.55-94.35l27-2.48Z"/><path class="cls-1" d="M582.2,669.63c-9.89-.42-19.33-1-28.33-1.8q-4.8,44-5.75,89.91L521.75,755a880.42,880.42,0,0,1,11.87-136.89l26.5,2.48c-.08.79-.2,1.6-.31,2.47q34.25-2.94,72.8-3.12c9.64,0,17.23,2.08,22.71,6.27,5.47,3.72,8.23,9.87,8.23,18.44,0,9.87-2.76,16.53-8.23,19.93-3.85,2.84-8.78,4.66-14.82,5.42l11.69,4.14q-4.46,7.25-8.06,14.17c7.22.42,14.36.92,21.39,1.46l-2,21.09c-6.27-.3-12.22-.64-18-1,.22,2.43.44,4.84.67,7.26,7.36-.12,14.59-.17,21.73-.17l2.8,22.9c-7.36,0-14.67.08-21.89.31.65,7.13,1.35,14.27,2.14,21.41l-26.54,2.81c-.77-8.13-1.52-15.94-2.31-23.39q-15,.63-29.62,2c-2,7-3.79,14.17-5.45,21.41l-26.5-5.92c1.09-4.61,2.13-9,3.12-13-3.4.31-6.79.65-10.21,1l-2.64-22.9c6.37-.77,12.67-1.41,18.94-2,1.66-5.6,3.17-10.83,4.61-15.66-6.35-.31-12.74-.65-19.09-1l3.45-21.09q6.41.18,12.84.5a59.72,59.72,0,0,1-3.79-9l14.33-5.62Zm-25.55-26.34c-.2,1.66-.37,3.12-.47,4.44Q598.17,651,630,651c3.29,0,5.76-.42,7.39-1.32,1.54-.54,2.33-1.8,2.33-3.76a5.85,5.85,0,0,0-2.33-5.11,31.37,31.37,0,0,0-7.9-1Q601.63,639.84,556.65,643.29Zm70,27.34c-12.65-.12-24.59-.34-35.92-.67a115,115,0,0,0,8.06,15.66c6.6.42,13,.82,19.28,1.16,3.18-6,6-11.41,8.58-16.13Zm-7.09,47.25c-.34-3.3-.67-6.47-1-9.57-5.5-.3-10.93-.59-16.33-.81-1.21,3.84-2.35,7.7-3.45,11.52C605.73,718.6,612.67,718.21,619.58,717.88Z"/><path class="cls-1" d="M787.42,633.74l9.05,2.14a79.09,79.09,0,0,1,14-3.3q16.47,0,21.41,3.3c5.26,2.3,9.62,7.48,13,15.48,4,7.59,6.21,22.8,6.41,45.63q0,31.46-6.91,45.45-10.71,20.44-32.77,20.43-21.72,0-31.8-13.66-9.69-14.51-9.69-41.51A168,168,0,0,1,787.42,633.74ZM809.15,738q8.9,0,12.37-8.88,3.27-9.23,3.29-27.34,0-36.39-3.45-39.18c-1.76-2.53-3.74-4-5.93-4.3a31.11,31.11,0,0,0-6.27-.81c-1.63.54-3,1-4.11,1.31a137.86,137.86,0,0,0-8.4,46.1c0,12.64.82,21.14,2.48,25.55,1.85,5,5.2,7.56,10,7.56ZM725.5,613.34l26.34,5.9c-3.29,10.12-6.17,19.34-8.71,27.69,1.51.34,3,.59,4.26.81,1-3.74,2-7.26,3-10.53l25.18,5.11c-.76,2.95-1.54,5.82-2.3,8.54,1.21.12,2.35.17,3.45.17l-6.57,26.85c-1.44,0-2.81-.06-4.14-.15q-6.74,25.85-12.67,51.55a160.6,160.6,0,0,0,17.45,6.07L756.3,757.76c-2.76-1.1-5.63-2.43-8.58-3.94-.87,4-1.71,8-2.47,11.87L720,760.23c1.31-6.57,2.75-13,4.29-19.25q-6.92-4.12-14.33-8.91Q700.3,725,700.28,715t9.89-47.27q-4.45-1.63-8.57-3.62l8.74-26.84c2.61,1,5.15,1.91,7.56,2.8q3.47-12.53,7.59-26.67ZM740,675.43c-1.64-.23-3.3-.5-4.92-.85q-8.43,29.82-8.4,37.55a7.3,7.3,0,0,0,2.78,5.6Q734.72,695.5,740,675.43Z"/><path class="cls-1" d="M1025.76,617.44l2.65,22.87q-37.07,0-74.46,1c-1.51,2.72-3,5.37-4.27,7.9,4-.22,7.84-.34,11.7-.34q24.72,0,34.1,3.29,17.1,4.13,25.18,15.82c5.63,6.15,8.4,17.9,8.4,35.24v4.44q0,20.42-9.56,34.91-11.85,19.59-54.33,19.58H946.06q-27.31,0-44.63-8.23-21.27-11.85-21.25-39.69,0-27,16-61.91L911,655.49c3.29-.9,6.69-1.66,10.21-2.33,2-3.82,3.84-7.46,5.59-10.86q-20.56.81-41.31,2.14L883,621.22q66.87-3.79,142.78-3.8ZM959.4,671.29a132.05,132.05,0,0,0-16.16,1c-.42,1.43-.81,2.8-1.14,4.13,6.15.54,12.19,1.27,18.12,2.14.45-2.42.92-4.84,1.49-7.26Zm-2,23.22c-6.35-.76-12.79-1.51-19.25-2.3-.45,2-.82,3.79-1.15,5.45q10.2,1,19.76,2.61C957,698.19,957.2,696.28,957.4,694.51Zm-2.13,21.59c-6.69-.87-13.44-1.77-20.27-2.65-.3,3.18-.54,6.32-.65,9.39l-19.92-2.13a175.74,175.74,0,0,1,7.08-45c-2.65.67-5.23,1.39-7.73,2.14-4,10.34-5.93,20-5.93,29.17q0,19.26,10,26t41.51,6.77a99.46,99.46,0,0,0,24.54-2.65Q992,735,997.1,726c2.53-3.51,4-10.73,4.46-21.73q0-22.23-10.36-28.8c-1.89-1.21-5-2.16-9.39-2.81a329.21,329.21,0,0,0-7.26,60l-19.76-1.84C954.79,725.79,954.94,720.93,955.27,716.1Z"/><rect class="cls-2" width="1379.66" height="1379.66"/></g></svg>