<svg id="图层_1" data-name="图层 1" xmlns="http://www.w3.org/2000/svg" viewBox="0 0 1379.66 1379.66"><defs><style>.cls-1{fill:#332c2b;}.cls-2{fill:none;}</style></defs><title>过个素节，也很开心</title><g id="图层_1-2" data-name="图层_1"><path class="cls-1" d="M358.76,539.66q18.92,2.31,31.78,7.25l-7.89,27a199.62,199.62,0,0,0-31.79-7.9l7.9-26.36Zm-2.48,40.83,29,6.61q-8.56,17.29-8.55,30.95,0,11.84,7.25,17.28c4.62,3.75,12.23,5.63,22.88,5.63q18,0,41-5.93l5.25,24.54a175.79,175.79,0,0,1-43.63,5.93h-7.76q-21.71,0-37.22-9.22-16.78-11.4-16.8-32.29,0-19.11,8.57-43.48Zm134.89-46.26,2.64,27.14q-10.06,0-19.93.34,3.47,35.07,7.56,73.31l-27.66,2.79q-4.47-40.35-7.89-74.77-23.91,1.65-47.44,5l-2.79-27q23.19-3.62,47.42-5.12-1-9.36-1.8-17.93l27.65-2.82c.65,6.47,1.32,13,2,19.43,6.8-.2,13.58-.32,20.27-.32Zm-75.75,41.65a88,88,0,0,1,25.86,24.21l-18,18a239.63,239.63,0,0,0-24.87-24.54l17-17.63Z"/><path class="cls-1" d="M594.62,514.48l11.86,11q34.44,5.78,67.2,14.17l-4.44,27.65q-38.88-9.36-77.4-15.8-22.1,18.26-44.64,37.56l-20.44-18.6q35.43-31,67.86-56Zm17.28,46.91q5.43,44.46,11.72,97.49L594,662q-6.75-54.85-11.87-97.5l29.79-3.15Z"/><path class="cls-1" d="M716,519.9h45.79c-.23-1.44-.4-2.82-.49-4.13l27-2.62q.35,3.61.85,6.75H846.3l-2,20.4H791.63c.11,1,.2,2,.32,3q21.25-.51,42.67-1.15l2,18q-21.27.64-42.51,1.15c.11.87.23,1.8.34,2.79q26.54-1.14,53.38-2.64l2,19.78c-11.41.65-22.74,1.27-33.92,1.8l6.58,2.3c8.12,3,12.2,6.86,12.2,11.7a16.75,16.75,0,0,1-2,8.57q8.57,10.89,8.55,19.76c-.23,5.06-3,8.57-8.4,10.54A70.75,70.75,0,0,1,852.25,651l-17.62,17.62a253.91,253.91,0,0,0-23.21-17L824.6,638a243.13,243.13,0,0,1-32.94,2.81q1,11.52,2.13,24l-27.18,2.65c-.87-9.78-1.66-18.6-2.31-26.51-12.5-.23-21.7-1-27.52-2.16-9.44-2.31-14.13-5.48-14.13-9.53.08-7.25,3.28-14,9.52-20.09a13.24,13.24,0,0,1-4.44-9.73c0-3,3.23-6.27,9.73-9.9,2.75-1.29,5.48-2.62,8.23-3.94-11,.23-22,.42-33.11.65l-2-19.59q28-.51,56.49-1.65c-.11-1.1-.23-2.14-.33-3.12q-22.1.51-44.14.66L720.47,545l44.16-1c-.23-1.2-.4-2.41-.51-3.62H712.58l3.45-20.4Zm37.89,97a2.93,2.93,0,0,0-.51,1.15q0,2,3.29,3c3,.53,10.93.82,23.89.82a144.12,144.12,0,0,0,25.35-2q4.13-1,4.13-4.3-15.65,1.81-45.28,1.83a106.3,106.3,0,0,1-10.88-.51Zm11.53-16.14q30.48,0,38.36-3c2.08,0,3.15-.7,3.15-2.14q0-1-25.21-3.45c-14.71,2.41-23.51,4.38-26.34,5.93,0,1.77,3.34,2.64,10,2.64Zm-48.09,38.87,25,2.62a101.29,101.29,0,0,0-2.82,23.25l-24.88-2.81a102.58,102.58,0,0,1,2.65-23Z"/><path class="cls-1" d="M1029.64,525.82l2.48,26.34q-16.83,0-33.59.34c-1.88,5.17-3.57,10.32-5.11,15.49l-25.86-8.57c.76-2.08,1.48-4,2.14-5.93q-14.51.68-28.82,1.49.48,5.43,1,11l-27.66,2.62c-.44-3.94-.84-7.85-1.14-11.7-6.71.57-13.35,1.1-19.93,1.66l-2.65-26.2,20.24-2c-.43-3.74-.77-7.47-1-11.21l27.68-2.79c.31,3.94.65,8,1,12q20.42-1.19,41.35-1.83c1.74-4.72,3.4-9.22,4.91-13.49l25.69,8.55c-.53,1.54-1.1,3-1.63,4.29q10.38-.16,20.91-.17ZM961.79,568q31.11,0,46.12,6.92c11.19,5.48,17.06,13.41,17.63,23.72V606a108.75,108.75,0,0,1-6.61,36.9l-27.65-4.44Q997.85,619,997.86,606c0-4.61-4.22-7.72-12.68-9.39-7.7-1.1-18.26-1.63-31.78-1.63q3,31.8,7.08,67l-28.33,3.46q-4.08-32.31-7.08-64.39a159.16,159.16,0,0,0-22.54,8.38l-8.57-27A166.22,166.22,0,0,1,961.81,568Z"/><path class="cls-1" d="M426.78,742.33q3.45-12,7.25-22.7l27.66,5.92c-1.86,5.48-3.62,10.9-5.25,16.3a41.72,41.72,0,0,1,22.06,9.39q12.19,10.2,12.17,25.52-.46,21.07-7.89,46.76l-29.65-5.11q7.94-16.78,7.93-31.79c0-9.1-4.3-14.92-12.84-17.45q-7.25,25.2-13.52,51.07l-27.83-5.93q6.12-24.07,12.21-45.44a207.6,207.6,0,0,0-25.86,4.1,171.53,171.53,0,0,0-6.1,45.45q0,11.39,7.26,16.8,7.37,5.61,21.08,5.59,23.19,0,75.74-9.86l5.42,25.52q-55,9.19-80.52,9.22h-7.56q-18.46,0-32.94-8.06-18-11.05-18-36.74,0-16.3,4.78-38-4,1.49-7.42,3.11l-9.39-26.36q12.69-4.26,24.88-7.56c2.2-7.36,4.72-14.92,7.59-22.74l29.46,6.6-4.45,9.23q12-2,23.72-2.82Z"/><path class="cls-1" d="M568.29,736.56l10,21.08Q560.06,765.4,538,774.1l-10.4-21.72q21.57-9.4,40.7-15.83Zm4.61,33.75,8.4,22.92a405.58,405.58,0,0,1,7.39-44.64c-.76.23-1.57.42-2.47.65l-4.76-21.73a200.91,200.91,0,0,1,52.7-7.89q17.46,0,28.14,8.71,10.07,8.22,10.07,28.33v11.87q0,19.43-9.06,26.51a34.43,34.43,0,0,1-11.55,5.28,33.83,33.83,0,0,1,12,5.42q12,8.22,12,20.57a23.43,23.43,0,0,1-4,13.35c1.55.23,3.09.4,4.61.51L673.7,865c-5.51,0-13.69-1.46-24.54-4.44-1.32-.42-2.65-.93-4-1.48a69.28,69.28,0,0,1-23.56,4q-20.57,0-32.09-9.56c-6.61-6.35-9.9-16.53-9.9-30.47q0-14.16,1.48-29c-4.61,1.55-9.27,3.12-14,4.78q1.65,23.4,3.94,49.24l-26.51,2.48q-1.81-21.42-3.12-42.5c-3,1-5.88,2-8.74,3.11l-7.25-24.54q25-9.52,47.44-16.3Zm43.65-28.16c-.68,2.65-1.21,5.23-1.65,7.76,8.88.66,17.56,1.46,26,2.48l-2.13,21.08c-9.78-.91-19.23-1.66-28.34-2.31-.44,2.5-.84,5-1.14,7.39,7.78,1.1,15.21,1.82,22.23,2.13,5.48,0,9.56-.93,12.17-2.78,2.54-1.66,3.79-5.51,3.79-11.53,0-11.33-2.07-18.6-6.26-21.92-2.73-2.08-7.51-3.12-14.31-3.12a80.46,80.46,0,0,0-10.37.82Zm-10.07,58.46c-1,9.44-1.6,18.47-1.8,27,0,4.19,1.1,7.3,3.29,9.39a14.73,14.73,0,0,0,9.86,3.79,23.58,23.58,0,0,1-3.93-12.67q0-10.71,7.55-19.76a25.62,25.62,0,0,1,7.26-5.93,167.62,167.62,0,0,1-22.24-1.82ZM644,821.56a5.3,5.3,0,0,0-4,2,7.74,7.74,0,0,0-1.29,4.62c0,1.54,2.07,3.28,6.24,5.25,3.74-2.42,5.59-4.78,5.59-7.09a4.43,4.43,0,0,0-1.8-3.45,9.57,9.57,0,0,0-4.78-1.29Z"/><path class="cls-1" d="M815.33,751.24q-45.92-4.63-91.41-8.1l4.62-26.34q59.48,4,116.45,10.71l-4.44,26.34c-6.39-.76-12.49-1.4-18.3-2q1.8,13.2,3.79,27.19,13-.35,26.19-.34L855,805.91q-12.66,0-25.18.34,3.61,25.68,7.25,53l-28.84,3.15q-4.25-29.35-7.72-55.18-21.75,1-43.65,2.94-6.57,23.58-11.36,49.07l-28.16-6.58q3.61-20.4,8.57-39.52c-5.51.53-11,1.15-16.47,1.8l-2.81-27c9.1-1.21,18.24-2.25,27.35-3.12q5.63-16.95,12.17-33.11l28.33,6.6c-3.17,7.68-6.15,15.52-8.88,23.53q15.48-1.3,31-2c-1.21-9.1-2.37-17.79-3.45-26l22.23-2.62Z"/><path class="cls-1" d="M901.83,750.4l28.33,9.9a585.38,585.38,0,0,0-19.76,56.8l-28.33-10q11-32.3,19.76-56.66Zm38.7,3.45,31.78,7.25a137.52,137.52,0,0,0-13.83,61.11c0,6.92,1.57,11.53,4.78,13.83q4.77,4.13,18.27,4.13,17.1,0,38.06-10.07l5.92,27a101.47,101.47,0,0,1-42.83,9.39h-8.06q-21.75,0-34.09-8.4-13.83-9.71-13.83-31.78,0-34.07,13.83-72.47Zm54.19,17.62a261.27,261.27,0,0,1,39.35,12.68l-7.89,26.36q-22.73-7.59-39.36-12.5l7.9-26.54Zm-23.08-49.4a333.84,333.84,0,0,1,38.7,9.24L1002.61,757a283.07,283.07,0,0,0-39-9.73l8.06-25.22Z"/><rect class="cls-2" width="1379.66" height="1379.66"/></g></svg>