<svg id="图层_1" data-name="图层 1" xmlns="http://www.w3.org/2000/svg" viewBox="0 0 1379.66 1379.66"><defs><style>.cls-1{fill:#332c2b;}.cls-2{fill:none;}</style></defs><title>隔离病毒，不隔离爱</title><g id="图层_1-2" data-name="图层_1"><path class="cls-1" d="M490.75,518.84l2,20.43a756.09,756.09,0,0,0-90.09,5.42l-2.13-20.6A731.52,731.52,0,0,1,490.75,518.84Zm-74.26,72c.12,1.41.27,2.9.47,4.44A192.06,192.06,0,0,1,462.1,590q15.47,0,25.52,7.26a34.45,34.45,0,0,1,9.22,23.89v5.09q-.81,22.71-5.42,40.2L469,662.61a128.24,128.24,0,0,0,5.43-33.25q0-10.08-3.29-14.51a4.39,4.39,0,0,0-1-.5q-3.46,7.1-6.41,14.18c1.73-.12,3.51-.18,5.25-.18L471,646c-3.94,0-7.78,0-11.52.17.56,5.93,1.14,12,1.83,18.29l-21.76,2c-.76-6.27-1.43-12.52-2-18.79-3.62.35-7.19.7-10.71,1.15l-1.8-18c2-.19,4-.42,6.24-.64-2.85-2.87-5.87-5.65-9-8.4l6.1-6.42c-3.1.65-6.1,1.41-9.08,2.31q2.49,22.71,5.11,47.41l-21.73,2q-2.14-18.59-4-35.56c-.65.77-1.27,1.49-1.81,2.14a25.78,25.78,0,0,1-18.78,7.9h-2.16c.79,6.49,1.49,13.06,2.16,19.76l-23.55,2.64q-5.61-48.9-10.06-87l23.89-2.78c.65,5.82,1.32,11.69,2,17.62a12.39,12.39,0,0,1,1.16-1.83c1-2.08,2.14-5,3.45-8.55a27,27,0,0,0,1.32-8.1c0-5.9-1.63-8.88-4.95-8.88q-9.71,0-20.92,7.26l-2.47-23.89c11.21-3.82,21-5.76,29.32-5.76q10.06,0,16.16,6.75,7.08,8.73,7.08,18.63,0,11.34-7.93,24.69c.79.56,1.49,1,2.14,1.48a3.93,3.93,0,0,1-.15-.81l21.89-2Zm-45,11.69c.57,5.38,1.15,10.86,1.83,16.44a27.23,27.23,0,0,0,2.95.17c1,0,2-.7,3-2.13a5.48,5.48,0,0,0,1.46-3.8,10.77,10.77,0,0,0-1.14-4.91,7.66,7.66,0,0,0-3.94-3,10.34,10.34,0,0,1-4.14-2.78Zm68,27q3.45-.3,6.74-.3,4.13-9.57,7.42-17c-5.71.34-11.08.84-16.14,1.49a49.68,49.68,0,0,1,8.58,9.22l-6.62,6.57Zm-23.87-83,9.05,2.3a103.46,103.46,0,0,1,22.71-2.95c7.48,0,14.05.28,19.78.82a31.67,31.67,0,0,1,14.82,5q7.58,3.28,7.56,19.28V573c0,4.83-3.77,8.65-11.36,11.52-6.79,2.75-16.7,4.11-29.64,4.11h-3.46q-22.71,0-33.08-6.07c-4.95-3.1-7.42-7.64-7.42-13.69q0-11,11.05-22.4Zm31.11,15.82q-4.61,0-18.27,6.74a3.84,3.84,0,0,0,2,1.49c2.84,1.21,8.06,1.8,15.66,1.8,8.12,0,13.65-.37,16.6-1.14s4.47-2,4.47-3.63q-.85-4.08-7.59-4.61c-4.61-.42-8.87-.64-12.84-.64Z"/><path class="cls-1" d="M632.92,606.62q17,0,29.15,7.26c7.26,4.83,11,11.8,11.18,20.92v2.13a93.93,93.93,0,0,1-7.9,33.61l-26.2-5.45a99.44,99.44,0,0,0,4.47-9.72L626,663.94c-1.77-2.42-3.32-4.73-4.64-6.91q-15.65,5.43-25.83,5.6H592a29.37,29.37,0,0,1-18.91-6.92q-6.61-5.43-6.6-14.82a15.47,15.47,0,0,1,.17-2.64c-4.38,1.21-8.4,2.35-12,3.45,1.54,6.49,3.32,13,5.28,19.58l-24.2,7.93a299.91,299.91,0,0,1-10.7-48.09l24.53-7.25c.23,1.43.37,2.72.48,3.93,6.83-1.73,14.39-3.39,22.73-4.91a76.25,76.25,0,0,1,4.44-10.06c-2.65-.12-5.09-.25-7.39-.47-12.54-1.1-21.47-3.1-26.87-5.93q-13.32-6-13.33-17.45,0-13,9.22-29L560,555.09a54.31,54.31,0,0,0-9.22,18c0,3.52,2.65,6.12,7.9,7.9a25.06,25.06,0,0,0,4.44.82l-3.77-8.72c4.17-1.54,8.21-3.15,12.17-4.78-3.51-.87-6.86-1.71-10-2.48L566.53,550c10.54,2.53,20.72,5.4,30.46,8.58l17-6.74Q566,548,527.82,547.2l3.79-21.09q26,0,52.37,1.49c-.54-1.44-1-2.76-1.46-4l21.09-8.57a59,59,0,0,0,6.74,14.17Q640,531.39,670,535.5l-4,21.09c-3-.35-5.93-.62-8.88-.85q6.92,12.87,6.91,25,0,10-9,15.66-11.22,7.42-38.37,7.39H604.09c-.87,1.54-1.63,3-2.3,4.29q14.67-1.47,31.13-1.48Zm-40.19,25.86a17,17,0,0,1-.35,1.8q0,5.1,7.76,5.11c1.74,0,5.65-1,11.7-2.95-.67-1.66-1.27-3.32-1.83-5l3.45-1.32q-9.53.81-20.75,2.31Zm40.84-2.65a101.83,101.83,0,0,0,11.18,21.93A37.26,37.26,0,0,0,647.08,640q-.51-5.58-4.63-8.23a27.88,27.88,0,0,0-8.88-2ZM584.5,583.06q10.88.33,25.52.34c2.42,0,4.61,0,6.6-.17-5.73-2.19-11.27-4.21-16.64-6.1C595,579.1,589.87,581.1,584.5,583.06Zm46.94-.82c3.62-.56,6.21-1.31,7.73-2.3A6.71,6.71,0,0,0,643,573.5c0-2.19-2.65-7-7.9-14.48l16-4c-7.26-.77-14.22-1.44-20.91-2l4.43,10c-3.51,1.44-7.31,3-11.35,4.61,3.85,1.54,7.61,3.1,11.35,4.61l-3.12,9.89Z"/><path class="cls-1" d="M845.88,556.56l2.81,23.05q-17.62,0-34.6.67c-.76,2.31-1.46,4.49-2.13,6.57h2.47q18,0,29.32,7.56,10.89,10.56,10.88,25v5.28q-1.14,24-7.26,42.31l-25.18-4.44q6.24-14.8,7.22-33.93c0-7.26-1.24-12.39-3.77-15.49q-5.28-3.45-14.67-3.45l-5.76.34c-1.09,3.85-2.08,7.71-3,11.53a60.3,60.3,0,0,0,24,6.74L821,650.57A58,58,0,0,1,797,645.32c-.64,3.62-1.26,7.19-1.8,10.71l-22.91-5.46c2-12.51,4.39-24.61,7.26-36.36q-5.78,1.49-11,3.29,2.49,23.06,4.95,48.26l-23.55,2.78Q746,631.15,743,601.2q-2.61,33.9-3.12,69.34l-24.2-2.8c.12-7.91.25-15.72.47-23.4-2.3.65-4.49,1.22-6.57,1.64L703,620.45a142.07,142.07,0,0,0,14.33-5c.35-5,.68-10.09,1-15.15a85.66,85.66,0,0,0-14.64-1.63l2.77-25.21a72.86,72.86,0,0,1,13.86,1.32c.42-5.06.92-10,1.46-14.82-2.72.34-5.42.65-8.06,1l-2.78-24.2c19-2.42,37.67-4.36,56-5.75-.87-1.66-1.71-3.32-2.47-4.95l24.88-9.72a59.21,59.21,0,0,0,8.4,12.51q28.8-1.82,56.29-2.14l2.65,24.54q-55.82.35-109.85,5.93Q745,574,743.65,591.32l21.89-2.65c.23,1.77.4,3.45.5,5.11a172.41,172.41,0,0,1,20.4-4.61c.77-2.65,1.55-5.23,2.31-7.73q-17.81,1-35.72,2.78L750.55,561q44.61-4.43,95.35-4.44Z"/><path class="cls-1" d="M1020.67,521.66l2,18.91q-25.85,0-51.38,1.16c.12,1.44.22,2.81.34,4.14q17.45-.68,34.57-.68l1.32,16.48c-11.87,0-23.27.17-34.26.5.12,1.44.23,2.75.35,4q24.2-1,49.57-1l2,19.78a1131,1131,0,0,0-133,7.91l-2-19.76q26.51-3.28,54.36-5.28c-.12-1.44-.23-2.73-.35-3.94q-22.22,1.3-42.63,3.77l-1.32-16.31q21.25-2.26,42.33-3.94c-.22-1.43-.39-2.87-.5-4.3q-23.06,1.34-45.78,3.45l-2-18.92Q916.59,525.27,940,524c-.12-2-.28-3.91-.5-5.75l29-3.15q.33,3.8.67,7.59,25.35-1,51.55-1ZM907.35,592.79,912,595.1a177.16,177.16,0,0,1,48.57-6.44A253.91,253.91,0,0,1,987.23,590a65,65,0,0,1,23.22,9.4q12.19,8.88,12.2,24.36V626c4.73.79,9.33,1.54,13.83,2.3L1033,648.12c-4.73-.67-9.27-1.31-13.66-2a32,32,0,0,1-6.44,9.22q-15.13,15.81-41,15.82H957.44q-28,0-44.63-8.23-16-10.38-17.8-28.16c-4.61-.23-9-.4-13.35-.5l3.14-19.76c4.05,0,8.06,0,12,.17a77.34,77.34,0,0,1,10.54-21.89Zm65.88,16.64c1.89,1.74,3.63,3.45,5.28,5.08l-5,5q11.52,1.15,22.58,2.65a14.55,14.55,0,0,0-7.59-8.74C985.15,611.51,980,610.19,973.23,609.43Zm-22.4,7.73c-2-1.32-3.94-2.65-5.93-4l3.45-3.93a99.75,99.75,0,0,0-22.06,6.41C934.42,616.12,942.6,616.59,950.83,617.16Zm40.84,25.7q-12.18-1.3-23.69-2.48c1.63,1.44,3.17,2.87,4.61,4.31l-6.6,6.57h1.14q17.34,0,24.4-8.23a.67.67,0,0,0,.14-.17Zm-42.3,8.06c-3.52-2.53-7.19-5-11-7.56l5.11-5.46q-11.22-.81-21.59-1.63c1.54,4.73,4.22,8,8.06,9.87a54.72,54.72,0,0,0,19.45,4.78Z"/><path class="cls-1" d="M487,716.4l2.61,27.19q-24.84,0-49.38.64l6.57,6.44q-11.52,10.38-22.88,21.09a67.83,67.83,0,0,1,14.65,18.61,8.86,8.86,0,0,1,.64,1l6.27-18.94q23.73,15,50.07,16.47L489,816.55q-24.87-.28-44.8-11.52a79,79,0,0,1,1.31,15q0,19.79-8.23,28.85c-6.79,7-15.49,10.53-26,10.53a120,120,0,0,1-23.87-2l-2.65-27a138,138,0,0,0,21.74,2.13c3.62,0,6.37-1.09,8.23-3.29q3.79-3.16,3.79-10.54,0-10.41-3.94-17.45A58.21,58.21,0,0,0,405,789.54q-20.44,19-40.7,38.39l-21.08-19.28q34.43-34.39,66.69-63.25-28.11,1.19-56.63,3.45l-2.81-27q63.91-5.43,136.55-5.43Z"/><path class="cls-1" d="M670.62,710.47l2,20.43a756.11,756.11,0,0,0-90.09,5.43l-2.13-20.6A729.62,729.62,0,0,1,670.62,710.47Zm-74.26,72c.12,1.41.28,2.9.48,4.44A192.5,192.5,0,0,1,642,781.61q15.48,0,25.53,7.26a34.43,34.43,0,0,1,9.22,23.89v5.08q-.81,22.73-5.43,40.2l-22.4-3.79A128.34,128.34,0,0,0,654.31,821q0-10.08-3.29-14.5a4,4,0,0,0-1-.5c-2.3,4.73-4.43,9.44-6.41,14.17,1.74-.12,3.52-.17,5.25-.17l2,17.62c-3.94,0-7.79.06-11.53.17.57,5.93,1.15,12,1.83,18.3l-21.75,2c-.77-6.27-1.44-12.51-2-18.78-3.62.34-7.19.7-10.71,1.15l-1.8-18,6.24-.65c-2.84-2.87-5.87-5.65-9-8.4L608.2,807c-3.09.64-6.09,1.41-9.07,2.3q2.49,22.72,5.11,47.42l-21.73,2q-2.16-18.58-4-35.56l-1.8,2.13a25.74,25.74,0,0,1-18.78,7.9H555.8c.79,6.5,1.48,13.07,2.16,19.76l-23.55,2.65q-5.61-48.9-10.07-87l23.9-2.78c.64,5.82,1.31,11.7,2,17.62a11.36,11.36,0,0,1,1.16-1.83c1-2.08,2.13-5,3.45-8.54a27.36,27.36,0,0,0,1.32-8.1c0-5.9-1.64-8.88-5-8.88q-9.69,0-20.91,7.26l-2.48-23.9q16.82-5.73,29.32-5.75c6.72,0,12.09,2.25,16.16,6.74q7.1,8.73,7.09,18.64,0,11.34-7.93,24.68c.79.57,1.49,1,2.13,1.49a3.79,3.79,0,0,1-.14-.82l21.89-2Zm-45,11.7c.56,5.37,1.14,10.85,1.83,16.44,1.09.11,2.08.17,2.95.17s2-.7,3-2.14a5.44,5.44,0,0,0,1.47-3.79,10.59,10.59,0,0,0-1.15-4.91,7.59,7.59,0,0,0-3.94-3,10.1,10.1,0,0,1-4.13-2.78Zm68,27c2.31-.2,4.56-.31,6.75-.31q4.13-9.55,7.41-17-8.55.51-16.13,1.48a50.29,50.29,0,0,1,8.57,9.22l-6.61,6.58Zm-23.86-83,9,2.31a102.27,102.27,0,0,1,22.71-3c7.48,0,14.05.27,19.78.81a31.8,31.8,0,0,1,14.82,5c5.06,2.18,7.56,8.62,7.56,19.28v2.13c0,4.84-3.77,8.66-11.35,11.53q-10.2,4.13-29.65,4.11H625q-22.72,0-33.09-6.08c-4.95-3.09-7.41-7.63-7.41-13.68q0-11,11-22.4ZM626.66,754q-4.6,0-18.27,6.75a3.8,3.8,0,0,0,2,1.48c2.84,1.22,8.06,1.81,15.66,1.81,8.13,0,13.66-.37,16.61-1.15s4.46-2,4.46-3.62q-.84-4.1-7.58-4.61c-4.61-.42-8.88-.65-12.84-.65Z"/><path class="cls-1" d="M812.8,798.25q17,0,29.15,7.25c7.25,4.84,10.95,11.8,11.18,20.92v2.13a94.15,94.15,0,0,1-7.9,33.61L819,856.71a101.55,101.55,0,0,0,4.46-9.72l-17.62,8.57c-1.76-2.42-3.32-4.72-4.64-6.91q-15.65,5.43-25.82,5.6h-3.49A29.39,29.39,0,0,1,753,847.33c-4.41-3.62-6.6-8.57-6.6-14.81a15.36,15.36,0,0,1,.18-2.65c-4.39,1.21-8.41,2.36-12,3.45,1.54,6.49,3.32,13,5.28,19.58l-24.19,7.93a299,299,0,0,1-10.71-48.08l24.54-7.26c.22,1.43.37,2.73.47,3.94,6.84-1.74,14.4-3.4,22.73-4.92a78.19,78.19,0,0,1,4.44-10.06c-2.64-.12-5.08-.25-7.39-.47-12.53-1.1-21.46-3.1-26.86-5.93q-13.32-5.94-13.33-17.45,0-13,9.22-29l21.08,5.11a54.5,54.5,0,0,0-9.22,18c0,3.52,2.65,6.13,7.91,7.91a26.2,26.2,0,0,0,4.43.81l-3.76-8.72c4.16-1.54,8.2-3.15,12.17-4.78-3.52-.87-6.87-1.71-10-2.47l5.08-15.82c10.54,2.53,20.72,5.4,30.47,8.57,5.82-2.3,11.5-4.56,17-6.74q-47.94-3.79-86.15-4.61l3.79-21.09q26,0,52.37,1.49c-.54-1.44-1-2.75-1.47-4l21.09-8.58a59.14,59.14,0,0,0,6.74,14.17q29.64,2.16,59.62,6.27l-4,21.09c-3-.34-5.93-.62-8.88-.84q6.91,12.86,6.92,25c0,6.69-3,11.92-9,15.66-7.48,5-20.27,7.39-38.37,7.39H784c-.87,1.54-1.64,3-2.31,4.3a309.62,309.62,0,0,1,31.14-1.49ZM772.6,824.1a17.41,17.41,0,0,1-.34,1.8q0,5.1,7.76,5.11c1.74,0,5.65-1,11.69-3-.67-1.66-1.26-3.32-1.83-4.95l3.45-1.32q-9.52.81-20.74,2.31Zm40.84-2.65a102.09,102.09,0,0,0,11.19,21.93A37.26,37.26,0,0,0,827,831.66a10.29,10.29,0,0,0-4.64-8.23,27.61,27.61,0,0,0-8.88-2Zm-49.07-46.77q10.89.35,25.52.35c2.43,0,4.61-.06,6.6-.18q-8.6-3.27-16.63-6.09C774.91,770.72,769.74,772.72,764.37,774.68Zm46.94-.81c3.62-.57,6.22-1.32,7.73-2.31a6.72,6.72,0,0,0,3.8-6.44c0-2.19-2.65-7-7.91-14.47l16-4c-7.26-.76-14.23-1.43-20.92-2l4.44,10-11.35,4.6L814.42,764l-3.12,9.9Z"/><path class="cls-1" d="M1022,708.5l1.81,20.57c-5.38,0-10.66,0-15.8.17l9.22,8.88a83.78,83.78,0,0,1-6.59,5.93,68.13,68.13,0,0,1,13.85,2.64q10.2,4.14,10.68,13c-.12,4.83-1.68,11.47-4.78,19.92l-6.07-.81,1.46,16q-44.61,0-89.1,2.65c-1.63,1.86-3.07,3.57-4.27,5.08a266.74,266.74,0,0,1,40.5-3.62q18,0,29.18,4.29,15.13,6.75,15.14,17.13,0,8.73-12.54,14.33,14,1.82,28.34,3l-4.44,21.08a625.74,625.74,0,0,1-64.9-8.54q-20.4,6.9-47.07,14.47L908,842.87c4.73-.87,9.16-1.77,13.35-2.65-4.63-1.43-9-2.84-13.18-4.27-2.87,4-5.53,8.18-8.06,12.34l-19.76-13.82q13.15-18.93,25.83-35.08c-3.4.22-6.74.45-10,.65L894.7,784.4l-6.42.65c-1.54-11.18-2.92-22.46-4.13-33.76l21.08-1.8a8.53,8.53,0,0,1,.17,1.46c1.66-.2,3.23-.42,4.78-.65-.87-3.74-1.6-7.36-2.13-10.88l22.4-6.57a77.39,77.39,0,0,0,3.13,14.48c4.61-.65,9.27-1.16,14-1.47A102.33,102.33,0,0,1,944.93,735l13.85-4.27q-32.12,1.63-63.91,4.91l-2-20.4A1168,1168,0,0,1,1022,708.49ZM908.67,777.33c5.7-.45,11.45-.82,17.15-1.15q3.79-4.12,6.91-7.58-13,1.49-24.71,3.45C908.25,773.93,908.47,775.67,908.67,777.33Zm47.61-2.81q25.68-1.14,52.7-1.46a37.71,37.71,0,0,0,2.3-8.1c0-.64-6.32-1-18.94-1q-20.26.67-38.71,2.31l6.27,4.31Q957.94,772.71,956.28,774.52ZM937.5,822q15.64,4.08,32.1,7.08c6.27-1.66,11.63-3.15,16.16-4.44s6.57-2.28,6.57-3.14q0-2.16-24.19-2.14A177.86,177.86,0,0,0,937.5,822Zm33.59-77.58c5.48-.22,11-.45,16.47-.65l-3.12-2.8c4.27-4.16,8.4-8,12.34-11.53-10,.23-19.92.54-29.79,1a83.16,83.16,0,0,0,4.11,14Z"/><rect class="cls-2" width="1379.66" height="1379.66"/></g></svg>