<svg id="图层_1" data-name="图层 1" xmlns="http://www.w3.org/2000/svg" viewBox="0 0 1379.66 1379.66"><defs><style>.cls-1{fill:#332c2b;}.cls-2{fill:none;}</style></defs><title>鼠不尽的好运</title><g id="图层_1-2" data-name="图层_1"><path class="cls-1" d="M231,612.43l9.07,21.08q-19,3.93-40.83,8.23a10.32,10.32,0,0,0-.51,1.46q14.16,1,28.16,3l-1.82,20.4c-10.43-1.4-20.74-2.42-30.95-3,.53,2,2.64,3.41,6.24,4.27a214,214,0,0,0,24.39,2.82q23.87,1,37.05,1c10.77,0,17.56-1,20.44-2.94a7.4,7.4,0,0,0,.82-.68q-17.62-1.8-33.75-3.62l3.45-20.23q16.15,1.14,31.12,3.11a20,20,0,0,0-2.79-4.12c-3.4-2.84-13.8-4.28-31.14-4.28l2.81-22.4q37.39,0,48.09,10.54,11,10.53,11,34.26,0,14.34-10.54,23.38a30.37,30.37,0,0,1-10.2,5.76c.87,13.83,3,24.71,6.27,32.6q5.89,14.34,17.94,15.32l-5.42,27q-10.38,0-19.93-7.55-12.36-8.61-20.1-33.11a156.91,156.91,0,0,1-5.25-29.82h-3.45c-3.32,0-6.61-.06-9.9-.17-.45,1.44-.87,2.7-1.32,3.79,4.19.23,8.35.51,12.53.82l-1.82,18c-5.17-.44-10.26-.76-15.32-1-.23,1.1-.42,2-.65,2.82a2.45,2.45,0,0,0-.17.65h18l2.14,18H243.39c1.1,3.51,3.74,5.25,7.9,5.25a52.29,52.29,0,0,0,13.35-2.14l5.08,23.22a121.72,121.72,0,0,1-21.73,2c-11.3,0-19.4-3.15-24.2-9.42q-5.94-8.22-5.93-20.57,0-12,7.22-43.14c-2.5-.23-5-.44-7.39-.67-6.15-.66-11.53-1.4-16.14-2.31-.9,2.54-1.6,4.67-2.16,6.43,6.39.23,12.53.54,18.47,1l-2,18c-7.13-.57-14.22-1-21.25-1.32a7.18,7.18,0,0,1-.31,1.32c-.34,1.2-.61,2.36-.84,3.45q9.39-.35,18.3-.34l2,18q-11,0-20.73.34c1.54,2.73,4,4.1,7.55,4.1a54.9,54.9,0,0,0,13.18-2L219,762a109.65,109.65,0,0,1-21.75,2.14q-17,0-24.2-9.86-5.94-8.44-5.93-21.25,0-13.65,9.73-51.07a18.49,18.49,0,0,1-8.4-16,90.14,90.14,0,0,1,6.24-32.12l-4.45-9.4q32.31-7.08,60.77-12Z"/><path class="cls-1" d="M486.65,620.33l2.62,27.18q-24.82,0-49.38.66l6.58,6.43Q435,665,423.59,675.68a68,68,0,0,1,14.64,18.6c.23.31.45.65.66,1l6.26-18.94q23.75,15,50.06,16.46l-6.58,27.66q-24.87-.3-44.79-11.53a80,80,0,0,1,1.31,15q0,19.77-8.23,28.84-10.2,10.53-26,10.53a119.75,119.75,0,0,1-23.86-2l-2.65-27a139.48,139.48,0,0,0,21.73,2.14c3.62,0,6.39-1.1,8.24-3.28q3.79-3.18,3.79-10.54,0-10.41-3.94-17.46a58.55,58.55,0,0,0-9.56-11.72q-20.44,19-40.7,38.4l-21.08-19.28q34.44-34.39,66.69-63.24-28.11,1.17-56.64,3.45l-2.81-27q63.91-5.43,136.54-5.42Z"/><path class="cls-1" d="M623.35,620.33q22.08,0,32.46,9.22c6.58,5.59,9.86,14.62,9.86,27q0,18.12-7.73,24.71a23.21,23.21,0,0,1-3.79,2.81,144.32,144.32,0,0,1,22.24,24.67l-19.93,18.3a216,216,0,0,0-19.09-20.77l-2,22.26q-36-5.43-68.49-10.07l3.45-21.73q34.57,3.12,66.53,9.06a221.56,221.56,0,0,0-19.28-15.66q-33.55-.35-59.92-2.95A639.75,639.75,0,0,0,551.74,756l-27-2.64q1.15-69.66,17.94-133.06l27,2.81v.32a451.1,451.1,0,0,1,53.68-3.12Zm-59.12,27.18q-1.63,8.38-2.94,16.47a513,513,0,0,0,58.46,3.28c5.14,0,9.27-.93,12.34-2.81,1.77-1.44,2.64-4,2.64-7.89,0-4.62-.82-7.85-2.47-9.73-2.42-2.31-6.86-3.46-13.36-3.46q-22.87,0-54.67,4.13Zm4.78,76.4a244.78,244.78,0,0,0,79.54,15.66l-5.93,23.72q-45.43-.16-80.86-15.83L569,723.91Z"/><path class="cls-1" d="M750.86,615.73l8.4,23.86q-17.12,6.28-35.89,13.69l12.84,2.65a48,48,0,0,1,6.75-1.32q16,0,20.74,2.79a10.65,10.65,0,0,1,3,1.48A273.48,273.48,0,0,1,781,616.55l25.18,5.12c-2.87,6.47-5.37,13-7.59,19.42a129.5,129.5,0,0,1,27.52-2.79q12.52,0,20.57,10.69a48.53,48.53,0,0,1,7.59,27v4.3q0,15.3-3,39.69-3.12,25.51-7,40.67l-25.55-5.25q4.92-23.4,7.42-43.82a267.2,267.2,0,0,0,2.31-31c0-5.25-.66-9.27-2-12-1.66-3.19-3.74-4.78-6.27-4.78a93.4,93.4,0,0,0-15.48,1.63,74.84,74.84,0,0,0-14.18,4.61c-1.2,4.3-2.19,8.58-2.94,12.85l-7.26-1.46a131.46,131.46,0,0,1,2,23.21c0,18-2.14,31-6.41,39q-10.18,17.61-31.14,17.62T714,748.15c-6.27-9-9.4-22.11-9.4-39.37a155.15,155.15,0,0,1,9.56-54l-6.77-22.4q22.73-9.75,43.48-16.64Zm-9.23,64a96.81,96.81,0,0,0-9.56,2.31c-.42,2.53-.82,5-1.14,7.42a192.87,192.87,0,0,1,19.27,2l-2,21.07c-6.24-.87-12.4-1.54-18.43-2,.23,9.1,1,15.42,2.47,18.94,1.89,4.61,5.23,6.91,10.07,6.91q8.56,0,11.83-6.6,3.33-6.92,3.32-20.4,0-24.54-3.62-26.36a9.75,9.75,0,0,0-5.93-3c-2.53-.23-4.61-.34-6.26-.34ZM794.17,689a196.39,196.39,0,0,1,29,7.26l-7.25,23.55a208.41,208.41,0,0,0-29-7.9L794.17,689Z"/><path class="cls-1" d="M986.08,660a26.27,26.27,0,0,1,10.2,3.11,33.74,33.74,0,0,0,2.81-5.25c2.64-3.17,4-5.82,4-7.89,0-2.54-3.37-3.79-10.07-3.79q-11.21,1.14-27.35,8.4l-6.07-25.69c14.17-5.5,27-8.35,38.7-8.57,8.76,0,16,2,21.56,5.93,6.79,6.05,10.2,12.44,10.2,19.25-.2,5.82-2.31,12.25-6.25,19.28a85.26,85.26,0,0,1-9.89,17,39.72,39.72,0,0,1,3.62,9.9c5.82-.76,11.57-1.66,17.28-2.65l2.48,27.68q-8.57,1.65-17,2.79-.85,31-24.54,47.75l-22.41-15.63q16-10.87,18.61-28.16-19.11,2.16-38.37,3l-2.47-27.66c12.4-.65,24.93-1.71,37.55-3.11-3.62-8.47-9.56-14.22-17.79-17.31L986,660ZM909,613.75l26.34,5.9q-5.43,17-9.56,30.64c1.55.34,3,.74,4.47,1.15q1.82-6.77,3.62-13.16l25.18,5.08q-1.65,5.77-3.11,11.53l7.72.34-6.58,27.18c-3,0-5.76-.06-8.4-.17Q942.41,706,936.83,730a168.84,168.84,0,0,0,20.26,7.08L942.6,759.49c-3.63-1.44-7.43-3.12-11.36-5.12-.87,4.08-1.72,8-2.48,11.72l-25.22-5.46q2-9.71,4.3-19.11c-4.5-2.61-9.1-5.48-13.83-8.54q-10.25-7.25-10.24-17.63,0-9.74,9.22-44.79c-2.61-1-5.25-2.08-7.89-3.29l8.74-27,6.75,2.64c2.53-9.14,5.31-18.83,8.4-29.15Zm13.67,65.55c-1.86-.45-3.51-.85-4.95-1.15q-7.56,27.15-7.56,34.4a7.31,7.31,0,0,0,2.79,5.59q4.8-20.24,9.73-38.84Z"/><path class="cls-1" d="M1076.84,638.94q18.92,2.32,31.78,7.26l-7.89,27a199.71,199.71,0,0,0-31.78-7.89l7.89-26.36Zm-4.44,38.7,29,6.58q-8.73,17.63-8.71,31.15c0,7.44,2.45,13,7.38,16.46,4.61,3.51,12.32,5.25,23.08,5.25q17.11,0,39.36-4.78l5.92,25.86a220.53,220.53,0,0,1-42.83,4.44h-7.72q-21.75,0-37.22-9.05-17-11.34-17-32.44,0-18.92,8.74-43.48Zm53.17-61.1q39,2,75.27,5.76l-2,25.21q-40.69-3.28-77.08-6.09l3.77-24.88Zm83.17,35.58,2.48,26.18q-25.17.15-49.56,2a131.5,131.5,0,0,0-8.4,17.79q0,4.75,6.1,4.76a82.45,82.45,0,0,0,16-2.31c-.57-2.84-1-5.65-1.49-8.38l25.69-7.93a217.18,217.18,0,0,0,13,48.09L1187,740.25c-1.78-4.42-3.29-8.74-4.62-13a125.54,125.54,0,0,1-24.37,3.29h-3.45q-16.32,0-25.86-7.43c-4.61-3.85-6.91-10.2-6.91-19.11a66.31,66.31,0,0,1,4.61-20.57c-4.19.57-8.13,1-11.87,1.49l-2.81-26.2a897.63,897.63,0,0,1,97-6.58Z"/><rect class="cls-2" width="1379.66" height="1379.66"/></g></svg>