<svg id="图层_1" data-name="图层 1" xmlns="http://www.w3.org/2000/svg" viewBox="0 0 1379.66 1379.66"><defs><style>.cls-1{fill:#332c2b;}.cls-2{fill:none;}</style></defs><title>鼠年大吉</title><g id="图层_1-2" data-name="图层_1"><path class="cls-1" d="M411.19,613l9.08,21.08q-19,3.93-40.83,8.23a10.32,10.32,0,0,0-.51,1.46q14.16,1,28.16,3l-1.82,20.4c-10.43-1.4-20.74-2.41-30.95-2.94.53,2,2.64,3.4,6.24,4.27A212,212,0,0,0,405,671.29q23.87,1,37.05,1c10.77,0,17.56-1,20.44-2.94a7.4,7.4,0,0,0,.82-.68q-17.62-1.81-33.75-3.62L433,644.8q16.16,1.14,31.12,3.11a20.34,20.34,0,0,0-2.79-4.13c-3.4-2.83-13.8-4.27-31.14-4.27l2.81-22.4q37.4,0,48.09,10.53,11,10.54,11,34.26,0,14.34-10.54,23.38a30,30,0,0,1-10.2,5.76c.87,13.84,3,24.71,6.27,32.61Q483.49,738,495.54,739l-5.42,27q-10.38,0-19.93-7.56-12.36-8.59-20.1-33.11a155.88,155.88,0,0,1-5.25-29.81h-3.45c-3.32,0-6.61-.06-9.9-.17-.45,1.43-.87,2.7-1.32,3.79,4.19.23,8.35.51,12.53.82l-1.82,18c-5.17-.45-10.26-.76-15.32-1-.23,1.1-.42,2-.65,2.81a2.58,2.58,0,0,0-.17.66h18l2.14,18H423.59c1.1,3.51,3.74,5.25,7.9,5.25a52.29,52.29,0,0,0,13.35-2.14l5.08,23.22a122.74,122.74,0,0,1-21.73,2c-11.3,0-19.4-3.15-24.2-9.42Q398,749,398.06,736.67q0-12,7.22-43.14l-7.39-.68c-6.15-.65-11.53-1.4-16.14-2.3-.9,2.53-1.6,4.67-2.16,6.43,6.39.23,12.53.53,18.47,1l-2,18q-10.69-.84-21.25-1.31a6.86,6.86,0,0,1-.31,1.31c-.34,1.21-.62,2.37-.84,3.46q9.39-.35,18.3-.34l2,18q-11,0-20.74.34c1.55,2.73,4.05,4.1,7.56,4.1a54.48,54.48,0,0,0,13.18-2l5.29,23a109.65,109.65,0,0,1-21.75,2.14q-17,0-24.21-9.87-5.92-8.43-5.92-21.24,0-13.65,9.73-51.08a18.48,18.48,0,0,1-8.4-16,90.18,90.18,0,0,1,6.24-32.12L350.46,625q32.31-7.08,60.77-12Z"/><path class="cls-1" d="M552.05,613l27.66,6.07c-1.21,2.54-2.37,5.23-3.45,8.1q48.9,2,94.35,5.76l-2.45,27q-20.79-1.53-40.37-2.65c.34,3.62.59,7.31.82,11q15.18-.47,31-.48l2.65,24.88q-15.81,0-31.62.48c.76,7.26,1.4,14.56,2,21.9q20.56-.63,41.49-.65l2.64,26.36q-21.08,0-42,.65c.57,7.26,1.1,14.5,1.65,21.73l-29.65,3.49q-1-12.52-2-24.23-36.43,1.65-73.14,4.95L529.14,721c6.61-.65,13.29-1.21,20.1-1.63a232.78,232.78,0,0,1,5.93-45.62l-21.42-4.61A237.37,237.37,0,0,1,552.05,613Zm50.4,103.1c-.57-7.36-1.1-14.45-1.65-21.24-7.68.53-15.38,1.14-23,1.8-1,6.79-1.65,13.77-2,20.9,9-.53,17.9-1,26.7-1.46ZM599,669.64c-.34-4.91-.74-9.69-1.15-14.3-10.64-.68-21-1.27-31.14-1.83-1.55,5.59-2.9,11.22-4.11,16.81l12,1.14C582.64,670.68,590.77,670.09,599,669.64Z"/><path class="cls-1" d="M845.23,643.3l3.45,28.33q-33.76,0-67.68,1.63-6.91,15.81-13.18,31.15,37.73,15.14,83.34,20.73l-6.58,29.49q-51.23-6.27-87.47-22.4-6.4,16.32-12,32.44L714.94,754q17.63-42.63,32.61-79-17.92,1.14-36.06,2.64l-3.11-28.33q25-2.32,51.37-3.62,6.25-15,11.87-28.5l30.13,10.37c-2.65,5.62-5.2,11.15-7.73,16.63q25.17-.79,51.21-.82Z"/><path class="cls-1" d="M1028.55,628.15,1031,654q-29.64,0-59,1.46c.34,3,.68,5.76,1,8.4q21.93-1.3,42.83-1.48l2.64,25.21A913.48,913.48,0,0,0,898,696.17L895.49,671q24-3,47.25-5c-.42-3.07-.87-6-1.32-8.72q-26.17,2.16-52.53,5.08l-2.64-25.68q25.2-3.12,51.88-5.09c-.65-4.82-1.27-9.44-1.8-13.83l30.13-3.45c.65,5,1.32,10.15,2,15.29q29.51-1.47,60.11-1.46ZM899.26,698l11.21,3.12a234.56,234.56,0,0,1,47.59-4.92q44.66,0,59.94,8.07,14.34,6.91,13.67,22.4l.67,3.77q0,20.12-10.36,27-10.54,7.94-54.87,7.93H944.74q-33.6,0-47.27-6.26-11.21-6.57-11.21-20.74,0-19.94,13-40.37Zm62,21.75a115.28,115.28,0,0,0-42.33,8.38c-.45,1.78-.85,3.37-1.15,4.78,0,3.2,1.63,5.23,4.91,6.1q8.26,2.47,28.16,2.47h13.86q20.76,0,30.47-3c3.83-1.86,5.76-5.25,5.76-10.2-.45-3.62-3.26-5.93-8.4-6.92q-9.4-1.64-31.29-1.63Z"/><rect class="cls-2" width="1379.66" height="1379.66"/></g></svg>