<?xml version="1.0" encoding="UTF-8"?>
<!DOCTYPE svg PUBLIC "-//W3C//DTD SVG 1.1//EN" "http://www.w3.org/Graphics/SVG/1.1/DTD/svg11.dtd">
<!-- Creator: CorelDRAW 2019 (64-Bit) -->
<svg xmlns="http://www.w3.org/2000/svg" xml:space="preserve" width="54.1485mm" height="242.422mm" version="1.1" style="shape-rendering:geometricPrecision; text-rendering:geometricPrecision; image-rendering:optimizeQuality; fill-rule:evenodd; clip-rule:evenodd"
viewBox="0 0 13.63 61.03"
 xmlns:xlink="http://www.w3.org/1999/xlink"
 xmlns:xodm="http://www.corel.com/coreldraw/odm/2003">
 <defs>
  <style type="text/css">
   <![CDATA[
    .fil0 {fill:#332C2B;fill-rule:nonzero}
   ]]>
  </style>
 </defs>
 <g id="图层_x0020_1">
  <metadata id="CorelCorpID_0Corel-Layer"/>
  <path class="fil0" d="M3.91 1.81l0.7 2c-0.39,0.12 -0.78,0.23 -1.17,0.35 -0.26,2.45 -0.41,5 -0.45,7.65l-2.3 -0.23c0.02,-2.31 0.14,-4.52 0.36,-6.64 -0.17,0.06 -0.33,0.11 -0.47,0.16l-0.59 -2.06c1.37,-0.48 2.67,-0.89 3.91,-1.23zm5.12 -0.66c0.06,-0.39 0.11,-0.78 0.16,-1.16l2.09 0.25c-0.04,0.28 -0.07,0.55 -0.1,0.82 0.59,0.04 1.1,0.2 1.52,0.5 0.5,0.33 0.75,0.76 0.75,1.27 -0.02,0.64 -0.13,1.34 -0.35,2.08l0.11 1.11c-0.84,0 -1.67,0.02 -2.5,0.07 -0.02,0.23 -0.03,0.46 -0.04,0.69l0.1 0c0.8,0 1.48,0.17 2.03,0.53 0.56,0.36 0.83,0.85 0.83,1.48 0,0.61 -0.16,1.5 -0.48,2.69l-2.09 -0.42c0.3,-0.76 0.45,-1.33 0.45,-1.7 0,-0.15 -0.09,-0.26 -0.28,-0.34 -0.21,-0.07 -0.44,-0.1 -0.69,-0.1 -0.07,1.39 -0.11,2.78 -0.13,4.18l-2.12 -0.23c0.01,-1.28 0.04,-2.53 0.1,-3.76 -0.16,0.03 -0.31,0.06 -0.45,0.09 -0.05,1.11 -0.09,2.22 -0.12,3.34l-2.16 -0.25c0.01,-0.89 0.03,-1.75 0.06,-2.6 -0.12,0.02 -0.22,0.03 -0.28,0.03 -1.29,0 -1.93,-0.64 -1.93,-1.91 0,-1.03 0.19,-2.14 0.57,-3.34l1.01 0.2c0.32,-0.06 0.64,-0.11 0.95,-0.15 0.02,-0.29 0.04,-0.57 0.07,-0.85 -0.36,0.12 -0.71,0.27 -1.04,0.42l-0.64 -1.91c0.64,-0.22 1.27,-0.41 1.89,-0.56 0.05,-0.43 0.1,-0.85 0.16,-1.27l2.18 0.23c-0.03,0.21 -0.05,0.42 -0.07,0.63 0.15,-0.03 0.3,-0.05 0.44,-0.06zm-0.66 1.96c-0.04,0.38 -0.07,0.75 -0.1,1.11 0.16,-0.02 0.32,-0.03 0.45,-0.04 0.03,-0.38 0.06,-0.76 0.1,-1.13 -0.15,0.02 -0.3,0.04 -0.45,0.06zm2.6 -0.03c-0.04,0.33 -0.07,0.65 -0.1,0.95 0.16,-0.01 0.32,-0.01 0.45,-0.01 0.05,-0.19 0.07,-0.37 0.07,-0.54 0,-0.18 -0.14,-0.32 -0.42,-0.39zm-2.46 3.99c0.02,-0.28 0.04,-0.55 0.06,-0.8 -0.17,0.02 -0.33,0.04 -0.47,0.06 -0.02,0.27 -0.04,0.55 -0.06,0.83 0.16,-0.03 0.31,-0.06 0.47,-0.09zm-2.71 0.53c0.02,-0.33 0.04,-0.66 0.06,-0.98 -0.13,0.02 -0.25,0.04 -0.36,0.06 -0.03,0.19 -0.05,0.38 -0.06,0.57 0,0.21 0.12,0.33 0.37,0.35z"/>
  <path id="1" class="fil0" d="M6.2 16.44l2.74 0.31c-0.58,3 -0.95,6.12 -1.11,9.38 1.16,-0.06 1.94,-0.19 2.34,-0.41 0.51,-0.14 0.76,-0.53 0.76,-1.14 -0.03,-0.87 -0.11,-1.75 -0.25,-2.66 -0.16,-0.98 -0.37,-1.82 -0.63,-2.53l2.63 -0.58c0.3,0.93 0.52,1.88 0.64,2.85 0.17,1.25 0.25,2.44 0.25,3.57 0,1.38 -0.54,2.27 -1.61,2.69 -0.88,0.46 -2.78,0.7 -5.7,0.72l-0.7 0c-1.7,0 -3.04,-0.27 -4.04,-0.8 -0.95,-0.57 -1.42,-1.53 -1.42,-2.88 0,-0.57 0.1,-1.46 0.29,-2.68 0.27,-1.3 0.49,-2.26 0.66,-2.88l2.63 0.59c-0.28,0.8 -0.49,1.55 -0.63,2.24 -0.18,0.84 -0.29,1.45 -0.32,1.84 0,0.86 0.23,1.41 0.69,1.64 0.41,0.22 0.96,0.37 1.64,0.42 0.11,-3.36 0.49,-6.59 1.14,-9.67z"/>
  <path id="2" class="fil0" d="M2.87 33.98c0.18,-0.69 0.37,-1.37 0.57,-2.03l2.46 0.53c-0.13,0.46 -0.25,0.93 -0.38,1.4 0.61,0.1 1.11,0.39 1.52,0.88 0.35,0.46 0.57,0.97 0.67,1.52 0.2,-1.08 0.5,-2.21 0.89,-3.38l0.7 0.14c0.39,-0.05 0.82,-0.08 1.29,-0.1 0.56,0.02 1.04,0.08 1.43,0.18 0.42,0.15 0.75,0.39 0.99,0.7 0.41,0.27 0.61,2.14 0.61,5.62l0 0.89c0,1.93 -0.19,3.12 -0.57,3.57 -0.4,0.66 -1.22,1.01 -2.47,1.04l-0.26 -0.04c-1,0 -1.7,-0.15 -2.09,-0.47 -0.35,-0.19 -0.59,-0.61 -0.73,-1.24 -0.07,-0.6 -0.11,-1.47 -0.12,-2.59 -0.01,0.05 -0.02,0.1 -0.03,0.14 -0.32,1.44 -0.67,2.58 -1.05,3.44l-2.46 -0.53c0.51,-1.29 0.88,-2.49 1.13,-3.61 0.22,-1.04 0.33,-1.9 0.33,-2.56 0,-0.37 -0.06,-0.65 -0.19,-0.85 -0.08,-0.13 -0.17,-0.21 -0.28,-0.26 -0.76,2.83 -1.46,5.71 -2.11,8.63l-2.46 -0.51c0.61,-2.82 1.24,-5.44 1.87,-7.87 -0.4,0.11 -0.81,0.25 -1.23,0.44l-0.82 -2.4c0.36,-0.15 0.97,-0.31 1.83,-0.5 0.31,-0.07 0.62,-0.13 0.94,-0.18zm7.61 8.63c0.38,0 0.59,-0.09 0.64,-0.28 0.08,-0.24 0.11,-0.92 0.11,-2.03l0 -0.67c0,-2.65 -0.08,-4.06 -0.25,-4.23 -0.16,-0.07 -0.31,-0.1 -0.45,-0.1 -0.05,0 -0.13,0.01 -0.25,0.03 -0.34,1.21 -0.51,2.41 -0.51,3.6 0,1.68 0.03,2.79 0.09,3.34 0.06,0.23 0.26,0.35 0.61,0.35z"/>
  <path id="3" class="fil0" d="M1.23 48.64c0.46,0.03 1.26,0.32 2.41,0.86 0.77,0.44 1.16,0.97 1.16,1.59 0,0.52 -0.22,0.96 -0.67,1.32 -0.55,0.46 -0.92,0.78 -1.13,0.98 -0.25,0.19 -0.38,0.36 -0.38,0.5 0,0.33 0.57,0.69 1.71,1.07l-0.89 1.68c-0.98,-0.08 -1.93,-0.55 -2.84,-1.4 -0.29,-0.43 -0.44,-0.88 -0.44,-1.35 0,-0.47 0.29,-0.93 0.88,-1.39 0.21,-0.2 0.56,-0.5 1.04,-0.88 0.18,-0.13 0.26,-0.25 0.26,-0.35 0,-0.19 -0.16,-0.35 -0.48,-0.48 -0.47,-0.17 -0.98,-0.37 -1.52,-0.58l0.89 -1.57zm2.4 8.64l0.64 2.18c-0.96,0.48 -2.06,0.83 -3.28,1.05l-0.59 -2.24c1.14,-0.26 2.21,-0.59 3.22,-0.99zm2.4 -8l0.85 0.2c0.14,-0.04 0.28,-0.08 0.44,-0.12 0.31,-0.08 0.63,-0.13 0.95,-0.16 0.08,-0.5 0.17,-0.98 0.28,-1.46l2.05 0.25c-0.08,0.41 -0.15,0.82 -0.22,1.23 0.66,0.1 1.22,0.31 1.68,0.64 0.47,0.34 0.83,0.87 1.08,1.58 0.31,0.95 0.48,1.95 0.5,3.01l0 0.19c0,1.65 -0.11,2.89 -0.33,3.71 -0.27,1 -0.84,1.69 -1.7,2.09 -0.77,0.38 -1.46,0.57 -2.08,0.57l-0.67 0c-1.37,0 -2.46,-0.48 -3.29,-1.43 -0.75,-0.86 -1.13,-2.01 -1.13,-3.47 0,-1.33 0.14,-2.66 0.41,-3.99 0.36,-1.2 0.76,-2.15 1.18,-2.85zm4.04 2c-0.09,0.7 -0.16,1.4 -0.22,2.09 0.4,0.05 0.78,0.1 1.16,0.16l-0.19 2.22c-0.38,-0.05 -0.76,-0.09 -1.13,-0.13 -0.02,0.42 -0.03,0.84 -0.04,1.26l-2.05 -0.25c0.01,-0.44 0.02,-0.86 0.03,-1.27 -0.28,-0.04 -0.55,-0.07 -0.8,-0.1 -0.01,0.17 -0.02,0.32 -0.03,0.45 0,0.81 0.19,1.63 0.57,2.46 0.36,0.54 0.86,0.81 1.51,0.81l0.5 0c0.37,0 0.77,-0.18 1.2,-0.53 0.27,-0.2 0.46,-0.59 0.57,-1.14 0.1,-0.49 0.15,-1.4 0.15,-2.72l0 -0.31c0,-0.58 -0.08,-1.17 -0.23,-1.77 -0.12,-0.48 -0.3,-0.81 -0.54,-1 -0.13,-0.11 -0.28,-0.18 -0.44,-0.23zm-2.3 1.83c0.06,-0.58 0.12,-1.13 0.17,-1.67 -0.15,0.07 -0.3,0.14 -0.42,0.2 -0.16,0.43 -0.32,0.88 -0.45,1.35l0 0.03c0.24,0.03 0.48,0.06 0.7,0.09z"/>
 </g>
</svg>
